<?xml version="1.0" encoding="utf-8"?>
<!-- Generator: Adobe Illustrator 25.0.0, SVG Export Plug-In . SVG Version: 6.00 Build 0)  -->
<svg version="1.1" id="Layer_1" xmlns="http://www.w3.org/2000/svg" xmlns:xlink="http://www.w3.org/1999/xlink" x="0px" y="0px"
	 viewBox="0 0 210 45" style="enable-background:new 0 0 210 45;" xml:space="preserve">
<style type="text/css">
	.st0{fill:#FFFFFF;}
	.st1{fill:#AAAAAA;}
</style>
<g>
	<g>
		<path class="st0" d="M83.3,3v2.3h-5.9V26h-7.3V5.3h-5.9V3H83.3z"/>
		<path class="st0" d="M97.4,19.8l2.6,0.7c-0.3,3.9-2.7,5.9-7.2,5.9c-5.9,0-8.8-2.8-8.8-8.5c0-2.7,0.8-5,2.3-6.7
			c1.6-1.8,3.6-2.6,6-2.6c5.1,0,7.6,3.2,7.6,9.5h-9.3c0,4.5,1.2,6.7,3.5,6.7c2.2,0,3.3-1.3,3.3-3.8C97.5,20.6,97.5,20.2,97.4,19.8z
			 M90.7,16.1h3.8c0-4-0.6-5.9-1.9-5.9c-1.1,0-1.7,1.5-1.9,4.4V16.1z"/>
		<path class="st0" d="M115.2,18.4l2.7,0.8v0.7c0,4.3-2.4,6.5-7.3,6.5c-5.8,0-8.7-2.8-8.7-8.5c0-2.8,0.8-5.1,2.5-6.8s4-2.5,6.8-2.5
			c4.1,0,6.1,1.8,6.1,5.4l-3,1.4v-1.6c0-2.4-0.8-3.6-2.5-3.6c-2.2,0-3.4,2.4-3.4,7.1c0,2.9,0.2,5,0.7,6.1s1.4,1.6,2.7,1.6
			c2.4,0,3.6-1.5,3.6-4.4C115.4,20,115.4,19.3,115.2,18.4z"/>
		<path class="st0" d="M120.1,26V3c1.9,0,4-0.1,6.4-0.4v9.3c1.4-2.2,3.3-3.4,5.8-3.4c3,0,4.4,1.3,4.4,3.8V26h-6.4V13.1
			c0-1-0.3-1.5-1-1.5s-1.4,0.6-2,1.9s-0.9,2.6-0.9,4V26H120.1z"/>
		<path class="st0" d="M166.8,3l-6.5,23h-4.5l-3.3-12.6L149.1,26h-4.5l-6.2-23h7l3.6,14l3.6-14h4.1l3.6,14l3.8-14H166.8z"/>
		<path class="st0" d="M168.4,26V9c2,0,4.1-0.2,6.4-0.5V26H168.4z M171.6,2.4c2,0,3,0.7,3,2.2s-1,2.2-3,2.2s-3-0.7-3-2.2
			C168.7,3.2,169.7,2.4,171.6,2.4z"/>
		<path class="st0" d="M191.6,9v1.9l-7.7,13.2h7.7V26h-14.7v-2.1l7.7-13h-6.9V9H191.6z"/>
		<path class="st0" d="M206.4,19.8l2.6,0.7c-0.3,3.9-2.7,5.9-7.2,5.9c-5.9,0-8.8-2.8-8.8-8.5c0-2.7,0.8-5,2.3-6.7
			c1.6-1.8,3.6-2.6,6-2.6c5.1,0,7.6,3.2,7.6,9.5h-9.3c0,4.5,1.2,6.7,3.5,6.7c2.2,0,3.3-1.3,3.3-3.8
			C206.5,20.6,206.5,20.2,206.4,19.8z M199.6,16.1h3.8c0-4-0.6-5.9-1.9-5.9c-1.1,0-1.7,1.5-1.9,4.4L199.6,16.1z"/>
	</g>
	<g>
		<path class="st0" d="M74.6,38.9L74.6,38.9c0,0.8-0.2,1.4-0.7,1.8c-0.5,0.5-1.2,0.7-2.1,0.7s-1.6-0.3-2.2-0.9
			c-0.6-0.6-0.8-1.3-0.8-2.2V37c0-0.9,0.3-1.6,0.8-2.2c0.5-0.6,1.3-0.9,2.1-0.9c0.9,0,1.6,0.2,2.1,0.7s0.8,1.1,0.8,1.8l0,0h-1.2
			c0-0.5-0.1-0.9-0.4-1.1c-0.3-0.3-0.7-0.4-1.2-0.4s-0.9,0.2-1.2,0.6s-0.5,0.9-0.5,1.5v1.4c0,0.6,0.2,1.1,0.5,1.5s0.7,0.6,1.3,0.6
			c0.5,0,0.9-0.1,1.2-0.4c0.3-0.3,0.4-0.7,0.4-1.1L74.6,38.9L74.6,38.9z"/>
		<path class="st0" d="M75.5,38.6c0-0.8,0.2-1.5,0.7-2s1.1-0.8,1.9-0.8s1.4,0.3,1.9,0.8s0.7,1.2,0.7,2v0.1c0,0.8-0.2,1.5-0.7,2
			s-1.1,0.8-1.9,0.8s-1.4-0.3-1.9-0.8S75.5,39.5,75.5,38.6L75.5,38.6z M76.7,38.7c0,0.5,0.1,1,0.3,1.3c0.2,0.3,0.5,0.5,1,0.5
			c0.4,0,0.8-0.2,1-0.5s0.3-0.8,0.3-1.3v-0.1c0-0.5-0.1-0.9-0.3-1.3c-0.2-0.3-0.6-0.5-1-0.5s-0.8,0.2-1,0.5S76.7,38.1,76.7,38.7
			L76.7,38.7z"/>
		<path class="st0" d="M82.9,35.9l0.1,0.8c0.2-0.3,0.4-0.5,0.7-0.6c0.3-0.2,0.6-0.2,0.9-0.2c0.6,0,1,0.2,1.4,0.5
			c0.3,0.3,0.5,0.9,0.5,1.6v3.4h-1.3V38c0-0.4-0.1-0.7-0.3-0.9c-0.2-0.2-0.4-0.3-0.8-0.3c-0.2,0-0.5,0.1-0.7,0.2
			c-0.2,0.1-0.4,0.2-0.5,0.4v3.9h-1.3v-5.4H82.9z"/>
		<path class="st0" d="M90.9,39.9c0-0.2-0.1-0.3-0.2-0.5c-0.2-0.1-0.5-0.2-0.9-0.3c-0.7-0.1-1.2-0.3-1.5-0.6s-0.5-0.6-0.5-1
			c0-0.5,0.2-0.8,0.6-1.2c0.4-0.3,0.9-0.5,1.6-0.5s1.2,0.2,1.6,0.5s0.6,0.7,0.6,1.2l0,0H91c0-0.2-0.1-0.4-0.3-0.6
			c-0.2-0.2-0.4-0.2-0.7-0.2c-0.3,0-0.5,0.1-0.7,0.2c-0.2,0.1-0.2,0.3-0.2,0.5s0.1,0.3,0.2,0.5c0.2,0.1,0.5,0.2,0.9,0.3
			c0.7,0.1,1.2,0.3,1.6,0.6c0.3,0.3,0.5,0.6,0.5,1c0,0.5-0.2,0.9-0.6,1.2s-1,0.5-1.6,0.5c-0.7,0-1.3-0.2-1.7-0.5
			c-0.4-0.4-0.6-0.8-0.6-1.2l0,0H89c0,0.3,0.1,0.5,0.4,0.7c0.2,0.1,0.5,0.2,0.8,0.2s0.6-0.1,0.8-0.2C90.8,40.2,90.9,40.1,90.9,39.9z
			"/>
		<path class="st0" d="M96.8,40.5c-0.2,0.3-0.4,0.5-0.7,0.7c-0.3,0.2-0.6,0.2-0.9,0.2c-0.6,0-1.1-0.2-1.4-0.6
			c-0.3-0.4-0.5-0.9-0.5-1.7v-3.2h1.3v3.2c0,0.5,0.1,0.8,0.2,1c0.2,0.2,0.4,0.3,0.7,0.3c0.3,0,0.6-0.1,0.8-0.2
			c0.2-0.1,0.4-0.3,0.5-0.5v-3.9H98v5.4h-1.1L96.8,40.5z"/>
		<path class="st0" d="M100.6,41.3h-1.3v-7.8h1.3V41.3z"/>
		<path class="st0" d="M103.6,34.6v1.3h1v0.9h-1v3c0,0.2,0.1,0.4,0.2,0.5s0.2,0.1,0.4,0.1c0.1,0,0.1,0,0.2,0s0.1,0,0.2,0l0.1,0.9
			c-0.1,0.1-0.2,0.1-0.4,0.1c-0.1,0-0.3,0-0.5,0c-0.5,0-0.8-0.1-1.1-0.4s-0.4-0.7-0.4-1.2v-3h-0.9v-0.9h0.9v-1.3
			C102.3,34.6,103.6,34.6,103.6,34.6z"/>
		<path class="st0" d="M107.1,34.6h-1.3v-1.1h1.3V34.6z M107.1,41.3h-1.3v-5.4h1.3V41.3z"/>
		<path class="st0" d="M109.6,35.9l0.1,0.8c0.2-0.3,0.4-0.5,0.7-0.6c0.3-0.2,0.6-0.2,0.9-0.2c0.6,0,1,0.2,1.4,0.5
			c0.3,0.3,0.5,0.9,0.5,1.6v3.4h-1.3V38c0-0.4-0.1-0.7-0.3-0.9c-0.2-0.2-0.4-0.3-0.8-0.3c-0.2,0-0.5,0.1-0.7,0.2
			c-0.2,0.1-0.4,0.2-0.5,0.4v3.9h-1.3v-5.4H109.6z"/>
		<path class="st0" d="M114.3,38.7c0-0.9,0.2-1.6,0.6-2.1s0.9-0.8,1.6-0.8c0.3,0,0.6,0.1,0.9,0.2c0.3,0.1,0.5,0.3,0.6,0.6l0.1-0.7h1
			v5.4c0,0.7-0.2,1.2-0.7,1.6c-0.4,0.4-1.1,0.6-1.9,0.6c-0.3,0-0.6,0-0.9-0.1s-0.6-0.2-0.9-0.3l0.3-1c0.2,0.1,0.4,0.2,0.7,0.2
			c0.3,0.1,0.5,0.1,0.8,0.1c0.5,0,0.8-0.1,1-0.3s0.3-0.5,0.3-0.9v-0.6c-0.2,0.2-0.4,0.4-0.6,0.5s-0.5,0.2-0.8,0.2
			c-0.7,0-1.2-0.2-1.6-0.7S114.2,39.5,114.3,38.7L114.3,38.7L114.3,38.7z M115.6,38.8c0,0.5,0.1,0.9,0.3,1.2s0.5,0.4,1,0.4
			c0.3,0,0.5-0.1,0.7-0.2c0.2-0.1,0.3-0.3,0.4-0.5v-2.4c-0.1-0.2-0.3-0.4-0.5-0.5s-0.4-0.2-0.7-0.2c-0.4,0-0.8,0.2-1,0.5
			c-0.2,0.4-0.3,0.8-0.3,1.4L115.6,38.8L115.6,38.8z"/>
		<path class="st0" d="M123.2,37.5L123.2,37.5"/>
		<g>
			<path class="st0" d="M127.3,39.7h-2.9l-0.6,1.7h-1.4l2.8-7.5h1.2l2.8,7.5h-1.4L127.3,39.7z M124.7,38.6h2.2l-1.1-3.1L124.7,38.6z
				"/>
			<path class="st0" d="M132.9,37c-0.2,0-0.3,0-0.5,0c-0.6,0-1,0.2-1.2,0.7v3.8H130v-5.6h1.2v0.6c0.3-0.5,0.7-0.7,1.3-0.7
				c0.2,0,0.3,0,0.4,0.1V37z"/>
			<path class="st0" d="M133.3,38.6c0-0.5,0.1-1,0.3-1.5s0.5-0.8,0.9-1s0.8-0.4,1.3-0.4c0.8,0,1.4,0.2,1.8,0.7
				c0.5,0.5,0.7,1.1,0.8,1.9v0.3c0,0.5-0.1,1-0.3,1.5c-0.2,0.4-0.5,0.8-0.9,1s-0.8,0.4-1.4,0.4c-0.8,0-1.4-0.3-1.9-0.8
				S133.3,39.5,133.3,38.6L133.3,38.6z M134.6,38.7c0,0.6,0.1,1,0.4,1.3c0.2,0.3,0.6,0.5,1,0.5s0.7-0.2,1-0.5
				c0.2-0.3,0.4-0.8,0.4-1.4c0-0.6-0.1-1-0.4-1.3c-0.2-0.3-0.6-0.5-1-0.5s-0.7,0.2-1,0.5S134.6,38.1,134.6,38.7z"/>
			<path class="st0" d="M142.9,40.9c-0.4,0.4-0.9,0.6-1.6,0.6c-0.6,0-1.1-0.2-1.4-0.5c-0.3-0.4-0.5-0.9-0.5-1.5v-3.6h1.2v3.6
				c0,0.7,0.3,1.1,0.9,1.1c0.6,0,1-0.2,1.2-0.7v-4h1.2v5.6H143L142.9,40.9z"/>
			<path class="st0" d="M146.6,35.9v0.6c0.4-0.5,1-0.7,1.6-0.7c1.2,0,1.7,0.7,1.8,2v3.7h-1.2v-3.6c0-0.4-0.1-0.6-0.2-0.8
				c-0.2-0.2-0.4-0.3-0.7-0.3c-0.5,0-0.9,0.2-1.1,0.7v4h-1.2v-5.6C145.6,35.9,146.6,35.9,146.6,35.9z"/>
			<path class="st0" d="M151.1,38.6c0-0.9,0.2-1.5,0.6-2.1c0.4-0.5,0.9-0.8,1.6-0.8c0.6,0,1.1,0.2,1.4,0.6v-2.8h1.2v7.9h-1.1
				l-0.1-0.6c-0.4,0.5-0.9,0.7-1.5,0.7c-0.7,0-1.2-0.3-1.6-0.8C151.3,40.2,151.1,39.5,151.1,38.6z M152.3,38.7c0,0.6,0.1,1,0.3,1.3
				s0.5,0.5,0.9,0.5c0.5,0,0.9-0.2,1.1-0.7v-2.4c-0.2-0.4-0.6-0.7-1.1-0.7c-0.4,0-0.7,0.2-0.9,0.5C152.5,37.6,152.3,38.1,152.3,38.7
				z"/>
		</g>
		<path class="st0" d="M165.1,38.9L165.1,38.9c0,0.8-0.2,1.4-0.7,1.8s-1.2,0.7-2.1,0.7c-0.9,0-1.6-0.3-2.2-0.9
			c-0.6-0.6-0.8-1.3-0.8-2.2V37c0-0.9,0.3-1.6,0.8-2.2c0.5-0.6,1.3-0.9,2.1-0.9c0.9,0,1.6,0.2,2.1,0.7s0.8,1.1,0.7,1.8l0,0h-1.2
			c0-0.5-0.1-0.9-0.4-1.1c-0.3-0.3-0.7-0.4-1.2-0.4s-0.9,0.2-1.2,0.6s-0.5,0.9-0.5,1.5v1.4c0,0.6,0.2,1.1,0.5,1.5s0.7,0.6,1.3,0.6
			c0.5,0,0.9-0.1,1.2-0.4c0.3-0.3,0.4-0.7,0.4-1.1L165.1,38.9L165.1,38.9z"/>
		<path class="st0" d="M167.5,41.3h-1.3v-7.8h1.3V41.3z"/>
		<path class="st0" d="M168.7,38.6c0-0.8,0.2-1.5,0.7-2s1.1-0.8,1.9-0.8c0.8,0,1.4,0.3,1.9,0.8s0.7,1.2,0.7,2v0.1
			c0,0.8-0.2,1.5-0.7,2s-1.1,0.8-1.9,0.8c-0.8,0-1.4-0.3-1.9-0.8S168.7,39.5,168.7,38.6L168.7,38.6z M169.9,38.7
			c0,0.5,0.1,1,0.3,1.3s0.5,0.5,1,0.5c0.4,0,0.8-0.2,1-0.5s0.3-0.8,0.3-1.3v-0.1c0-0.5-0.1-0.9-0.3-1.3c-0.2-0.3-0.6-0.5-1-0.5
			s-0.8,0.2-1,0.5S169.9,38.1,169.9,38.7L169.9,38.7z"/>
		<path class="st0" d="M178.4,40.5c-0.2,0.3-0.4,0.5-0.7,0.7s-0.6,0.2-0.9,0.2c-0.6,0-1.1-0.2-1.4-0.6c-0.3-0.4-0.5-0.9-0.5-1.7
			v-3.2h1.3v3.2c0,0.5,0.1,0.8,0.2,1c0.2,0.2,0.4,0.3,0.7,0.3s0.6-0.1,0.8-0.2c0.2-0.1,0.4-0.3,0.5-0.5v-3.9h1.3v5.4h-1.1
			L178.4,40.5z"/>
		<path class="st0" d="M180.7,38.7c0-0.9,0.2-1.6,0.6-2.1c0.4-0.5,0.9-0.8,1.6-0.8c0.3,0,0.6,0.1,0.8,0.2c0.2,0.1,0.4,0.3,0.6,0.5
			v-3h1.3v7.8h-1.1l-0.1-0.7c-0.2,0.3-0.4,0.4-0.6,0.6c-0.3,0.1-0.5,0.2-0.9,0.2c-0.7,0-1.2-0.2-1.6-0.7
			C180.9,40.2,180.7,39.6,180.7,38.7L180.7,38.7z M182,38.8c0,0.5,0.1,0.9,0.3,1.2s0.5,0.4,0.9,0.4c0.3,0,0.5-0.1,0.7-0.2
			c0.2-0.1,0.3-0.3,0.5-0.5v-2.4c-0.1-0.2-0.3-0.4-0.5-0.5s-0.4-0.2-0.7-0.2c-0.4,0-0.7,0.2-0.9,0.5s-0.3,0.8-0.3,1.4V38.8z"/>
	</g>
	<g>
		<path class="st1" d="M40.9,10.8c0.5-1.6,0.4-2.9-0.3-3.6c-2.4-2.4-10.8,2.2-18.8,10.2S9.2,33.8,11.6,36.2c0.7,0.7,2,0.8,3.6,0.3
			c-2.3,0.9-4.1,1-5,0C7.7,34,12.5,25.1,21,16.6S38.5,3.3,41,5.8C41.9,6.7,41.8,8.5,40.9,10.8"/>
		<path class="st0" d="M39.4,12.3c0.6-1,1-1.9,1.3-2.7c-2.9-4.9-8.2-8.2-14.4-8.2c-9.2,0-16.7,7.5-16.7,16.7c-4.7,0-8.6,3.8-8.7,8.5
			c-0.1,4.9,4,8.8,8.8,8.8h6c3.6-1.8,8.5-5.4,13.6-10.5C33.7,20.8,37.3,16.2,39.4,12.3"/>
		<path class="st1" d="M44.8,12.1c1.8-3.7,2.2-6.6,0.9-8c-1.1-1.1-3.3-1-6.1,0.1C41,4,42.1,4.1,42.8,4.8c2.7,2.7-2.6,12.5-11.8,21.7
			c-9.3,9.3-19,14.6-21.7,11.8c-0.7-0.7-0.9-1.8-0.6-3.2c-1.1,2.8-1.2,5-0.1,6.1c2.2,2.2,8.5-0.3,15.7-5.8h19
			c6.5,0,11.7-5.3,11.7-11.7C55,17.8,50.6,12.9,44.8,12.1"/>
	</g>
</g>
</svg>
