<?xml version="1.0" encoding="utf-8"?>
<!-- Generator: Adobe Illustrator 25.0.0, SVG Export Plug-In . SVG Version: 6.00 Build 0)  -->
<svg version="1.1" id="Layer_1" xmlns="http://www.w3.org/2000/svg" xmlns:xlink="http://www.w3.org/1999/xlink" x="0px" y="0px"
	 viewBox="0 0 800 800" style="enable-background:new 0 0 800 800;" xml:space="preserve">
<style type="text/css">
	.staiml0{fill:#1F4592;}
	.staiml1{fill:#06ABE1;}
</style>
<g>
	<g>
		<path class="staiml0" d="M506.7,693.3H293.3c-37.3,0-66.7,29.3-66.7,66.7c0,8,5.3,13.3,13.3,13.3h320c8,0,13.3-5.3,13.3-13.3
			C573.3,722.7,544,693.3,506.7,693.3z M256,746.7c5.3-16,20-26.7,37.3-26.7H508c17.3,0,32,10.7,37.3,26.7H256z"/>
	</g>
</g>
<g>
	<g>
		<path class="staiml0" d="M506.7,704L480,597.3c-1.3-6.7-6.7-10.7-13.3-10.7H333.3c-6.7,0-12,5.3-13.3,10.7L293.3,704c0,4,0,8,2.7,10.7
			c2.7,4,6.7,5.3,10.7,5.3h186.7c4,0,8-1.3,10.7-4C506.7,712,508,708,506.7,704z M324,693.3l20-80h112l20,80H324z"/>
	</g>
</g>
<g>
	<g>
		<path class="staiml0" d="M740,26.7H60c-33.3,0-60,26.7-60,60v406.7c0,8,5.3,13.3,13.3,13.3h773.3c8,0,13.3-5.3,13.3-13.3V86.7
			C800,53.3,773.3,26.7,740,26.7z M773.3,480H26.7V86.7C26.7,68,41.3,53.3,60,53.3h680c18.7,0,33.3,14.7,33.3,33.3V480z"/>
	</g>
</g>
<g>
	<g>
		<path class="staiml0" d="M786.7,480H13.3c-8,0-13.3,5.3-13.3,13.3v60c0,33.3,26.7,60,60,60h680c33.3,0,60-26.7,60-60v-60
			C800,485.3,794.7,480,786.7,480z M773.3,553.3c0,18.7-14.7,33.3-33.3,33.3H60c-18.7,0-33.3-14.7-33.3-33.3v-46.7h746.7
			L773.3,553.3L773.3,553.3z"/>
	</g>
</g>
<g>
	<g>
		<path class="staiml1" d="M453.3,386.7c-8,0-13.3,5.3-13.3,13.3v40c0,8,5.3,13.3,13.3,13.3c8,0,13.3-5.3,13.3-13.3v-40
			C466.7,392,461.3,386.7,453.3,386.7z"/>
	</g>
</g>
<g>
	<g>
		<path class="staiml1" d="M506.7,333.3c-8,0-13.3,5.3-13.3,13.3V440c0,8,5.3,13.3,13.3,13.3c8,0,13.3-5.3,13.3-13.3v-93.3
			C520,338.7,514.7,333.3,506.7,333.3z"/>
	</g>
</g>
<g>
	<g>
		<path class="staiml1" d="M560,360c-8,0-13.3,5.3-13.3,13.3V440c0,8,5.3,13.3,13.3,13.3s13.3-5.3,13.3-13.3v-66.7
			C573.3,365.3,568,360,560,360z"/>
	</g>
</g>
<g>
	<g>
		<path class="staiml1" d="M613.3,266.7c-8,0-13.3,5.3-13.3,13.3v160c0,8,5.3,13.3,13.3,13.3c8,0,13.3-5.3,13.3-13.3V280
			C626.7,272,621.3,266.7,613.3,266.7z"/>
	</g>
</g>
<g>
	<g>
		<path class="staiml1" d="M666.7,320c-8,0-13.3,5.3-13.3,13.3V440c0,8,5.3,13.3,13.3,13.3S680,448,680,440V333.3
			C680,325.3,674.7,320,666.7,320z"/>
	</g>
</g>
<g>
	<g>
		<path class="staiml1" d="M233.3,106.7C149.3,106.7,80,176,80,260s69.3,153.3,153.3,153.3S386.7,344,386.7,260
			C386.7,176,317.3,106.7,233.3,106.7z M233.3,386.7c-69.3,0-126.7-57.3-126.7-126.7c0-69.3,57.3-126.7,126.7-126.7
			c69.3,0,126.7,57.3,126.7,126.7C360,329.3,302.7,386.7,233.3,386.7z"/>
	</g>
</g>
<g>
	<g>
		<path class="staiml1" d="M342.7,152c-30.7-30.7-73.3-46.7-116-45.3c-4,0-6.7,1.3-9.3,4c-2.7,2.7-4,5.3-4,9.3v146.7
			c0,6.7,5.3,13.3,13.3,13.3h146.7c2.7,0,6.7-1.3,10.7-2.7c2.7-2.7,4-5.3,4-9.3C389.3,224,373.3,182.7,342.7,152z M240,253.3v-120
			c32,1.3,60,14.7,82.7,37.3c22.7,22.7,36,50.7,37.3,82.7H240z"/>
	</g>
</g>
<g>
	<g>
		<path class="staiml1" d="M334.7,356L236,257.3c-5.3-5.3-13.3-5.3-18.7,0c-5.3,5.3-5.3,13.3,0,18.7l98.7,98.7c2.7,2.7,5.3,4,9.3,4
			s6.7-1.3,9.3-4C340,369.3,340,361.3,334.7,356z"/>
	</g>
</g>
<g>
	<g>
		<path class="staiml1" d="M600,160H493.3c-8,0-13.3,5.3-13.3,13.3c0,8,5.3,13.3,13.3,13.3H600c8,0,13.3-5.3,13.3-13.3
			C613.3,165.3,608,160,600,160z"/>
	</g>
</g>
<g>
	<g>
		<path class="staiml1" d="M677.3,164c-1.3,0-1.3-1.3-2.7-1.3c-1.3,0-1.3-1.3-2.7-1.3c-1.3-1.3-1.3-1.3-2.7-1.3c-4,0-9.3,1.3-12,4
			c-2.7,2.7-4,5.3-4,9.3c0,2.7,1.3,4,1.3,5.3c0,1.3,1.3,2.7,2.7,4c2.7,2.7,5.3,4,9.3,4c1.3,0,1.3,0,2.7,0c1.3-1.3,1.3-1.3,2.7-1.3
			c1.3,0,2.7-1.3,2.7-1.3c1.3,0,2.7-1.3,2.7-1.3c1.3-1.3,1.3-2.7,2.7-4c1.3-1.3,1.3-4,1.3-5.3C681.3,169.3,680,166.7,677.3,164z"/>
	</g>
</g>
<g>
	<g>
		<path class="staiml1" d="M666.7,93.3h-40c-8,0-13.3,5.3-13.3,13.3s5.3,13.3,13.3,13.3h40c8,0,13.3-5.3,13.3-13.3
			S674.7,93.3,666.7,93.3z"/>
	</g>
</g>
<g>
	<g>
		<path class="staiml1" d="M520,93.3h-26.7c-8,0-13.3,5.3-13.3,13.3s5.3,13.3,13.3,13.3H520c8,0,13.3-5.3,13.3-13.3S528,93.3,520,93.3z"
			/>
	</g>
</g>
<g>
	<g>
		<path class="staiml1" d="M584,97.3c-1.3,0-1.3-1.3-2.7-1.3c-1.3,0-1.3-1.3-2.7-1.3c-1.3-1.3-1.3-1.3-2.7-1.3c-2.7,0-4,0-5.3,0
			c-1.3,1.3-1.3,1.3-2.7,1.3c-1.3,0-1.3,1.3-2.7,1.3l-1.3,1.3c-1.3,1.3-2.7,2.7-2.7,4c-1.3,1.3-1.3,4-1.3,5.3c0,4,1.3,6.7,4,9.3
			l1.3,1.3c1.3,0,1.3,1.3,2.7,1.3c1.3,1.3,1.3,1.3,2.7,1.3c1.3,0,1.3,0,2.7,0c1.3,0,1.3,0,1.3,0c1.3-1.3,1.3-1.3,2.7-1.3
			c1.3,0,2.7-1.3,2.7-1.3c1.3,0,2.7-1.3,2.7-1.3c2.7-2.7,4-5.3,4-9.3c0-1.3,0-4,0-5.3C586.7,100,585.3,98.7,584,97.3z"/>
	</g>
</g>
</svg>
