<?xml version="1.0" encoding="utf-8"?>
<!-- Generator: Adobe Illustrator 25.0.0, SVG Export Plug-In . SVG Version: 6.00 Build 0)  -->
<svg version="1.1" id="Layer_1" xmlns="http://www.w3.org/2000/svg" xmlns:xlink="http://www.w3.org/1999/xlink" x="0px" y="0px"
	 viewBox="0 0 500 500" style="enable-background:new 0 0 500 500;" xml:space="preserve">
<path d="M249.87,492.88C115.76,492.92,7.22,384.28,7.43,250.2C7.64,116.24,115.86,8.08,249.72,8.07
	c134.03-0.01,242.72,108.76,242.51,242.71C492.01,384.72,383.78,492.84,249.87,492.88z M30.5,250.21
	c-0.16,121.19,97.84,219.44,219.04,219.6C370.6,469.97,469,371.78,469.15,250.67c0.15-121.21-97.79-219.34-219.1-219.53
	C128.88,30.95,30.66,128.96,30.5,250.21z"/>
<path d="M250.23,53.85c84.99,0.53,161.31,56.75,186.76,137.9c6.25,19.92-6.19,34.63-26.97,32.46c-22.86-2.38-45.75-4.49-68.67-6.15
	c-11.14-0.8-19.28-4.92-25.92-14.32c-32.24-45.62-99.32-45.52-131.36,0.16c-6.45,9.2-14.4,13.33-25.31,14.14
	c-23.14,1.72-46.25,3.86-69.34,6.23c-20.38,2.09-32.96-12.65-26.93-32.07c23.13-74.54,89.64-128.87,167.55-136.81
	C236.75,54.7,243.5,54.35,250.23,53.85z M415.72,201.39c-9.13-30.71-24.89-56.16-47.6-77.18c-35.27-32.65-77.25-48.52-125.2-46.59
	c-47.93,1.93-88.48,21.09-121.11,56.4c-17.74,19.19-30.29,41.35-37.98,67.46c24.8-2.24,48.1-4.49,71.43-6.35
	c4.9-0.39,8.04-1.89,11.06-6.03c38.88-53.27,117.15-57.35,160.48-7.68c8.26,9.46,16.19,14.18,28.58,14.69
	C375.12,196.93,394.78,199.46,415.72,201.39z"/>
<path d="M85.1,276.37c26.48,2.45,52.96,4.86,79.43,7.35c7.68,0.72,12.9,5.15,17.89,10.88c7.19,8.25,14.94,16.14,23.27,23.23
	c6.23,5.3,10.42,11.1,11.17,19.2c2.38,25.81,4.96,51.6,6.95,77.43c1.29,16.73-13.91,29.17-29.86,23.99
	c-66.38-21.53-110.55-65.67-132.1-132.06C56.77,290.7,68.73,275.92,85.1,276.37z M199.99,415.62c0.28-0.86,0.57-1.29,0.53-1.68
	c-1.74-19.98-4.1-39.92-5.05-59.94c-0.53-11.2-3.43-19.96-13.78-25.29c-0.97-0.5-1.72-1.45-2.52-2.24
	c-6.73-6.66-12.38-15.67-20.46-19.37c-8.31-3.81-18.99-2.47-28.64-3.35c-14.97-1.37-29.94-2.71-45.09-4.08
	C95.84,349.1,145.28,401.74,199.99,415.62z"/>
<path d="M414.63,276.36c16.4-0.19,28.17,14.34,23.21,29.73c-21.5,66.68-65.77,111-132.49,132.4c-15.9,5.1-30.85-7.73-29.47-24.45
	c2.09-25.37,4.58-50.71,6.82-76.07c0.79-8.91,5.23-15.13,12.15-20.8c8.1-6.63,15.42-14.38,22.23-22.37
	c4.92-5.77,10.05-10.37,17.74-11.1C361.52,281.19,388.22,278.79,414.63,276.36z M415.02,299.67c-25.38,2.23-50.05,4.29-74.68,6.74
	c-2.18,0.22-4.32,2.69-6.12,4.48c-7.81,7.74-15.17,15.98-23.36,23.28c-3.36,2.99-5.11,5.75-5.42,10.08
	c-0.66,9.21-1.7,18.4-2.52,27.6c-1.31,14.5-2.57,29-3.87,43.73C351.98,402.85,402.46,351.88,415.02,299.67z"/>
<path d="M249.91,192.67c31.65,0.09,57.64,26.08,57.7,57.71c0.06,31.79-26.61,58.31-58.23,57.89c-31.76-0.42-57.6-26.58-57.35-58.07
	C192.28,218.49,218.34,192.59,249.91,192.67z M284.48,250.35c-0.09-18.92-15.5-34.37-34.43-34.55
	c-19.07-0.18-34.97,15.67-34.88,34.78c0.09,18.9,15.5,34.37,34.43,34.55C268.66,285.32,284.57,269.44,284.48,250.35z"/>
<path d="M145.83,261.9c-4.05,0-8.13,0.31-12.15-0.07c-6.63-0.63-11.01-5.52-10.89-11.56c0.12-5.8,4.34-10.73,10.63-11.07
	c8.3-0.45,16.67-0.46,24.97,0.02c6.44,0.37,10.34,5.07,10.4,11.12c0.06,6.35-3.98,10.86-10.81,11.49
	C153.96,262.2,149.88,261.9,145.83,261.9z"/>
<path d="M354.08,239.09c4.05-0.01,8.13-0.33,12.14,0.07c6.28,0.63,10.52,5.31,10.63,11.11c0.12,5.78-4.03,11.02-10.23,11.4
	c-8.52,0.52-17.11,0.52-25.62,0.01c-6.34-0.38-10.2-5.3-10.14-11.34c0.06-6.06,3.96-10.52,10.4-11.16
	C345.5,238.76,349.81,239.1,354.08,239.09z"/>
</svg>
