<?xml version="1.0" encoding="utf-8"?>
<!-- Generator: Adobe Illustrator 25.0.0, SVG Export Plug-In . SVG Version: 6.00 Build 0)  -->
<svg version="1.1"
	 id="svg2" xmlns:cc="http://creativecommons.org/ns#" xmlns:dc="http://purl.org/dc/elements/1.1/" xmlns:rdf="http://www.w3.org/1999/02/22-rdf-syntax-ns#" xmlns:svg="http://www.w3.org/2000/svg"
	 xmlns="http://www.w3.org/2000/svg" xmlns:xlink="http://www.w3.org/1999/xlink" x="0px" y="0px" viewBox="0 0 129.4 161"
	 style="enable-background:new 0 0 129.4 161;" xml:space="preserve">
<style type="text/css">
	.st0{fill-rule:evenodd;clip-rule:evenodd;fill:#002A41;stroke:#848484;stroke-width:0.1789;stroke-miterlimit:10;}
	.st1{fill-rule:evenodd;clip-rule:evenodd;fill:#0071B5;stroke:#848484;stroke-width:0.1789;stroke-miterlimit:10;}
</style>
<g id="layer1" transform="translate(129.47008,-1148.7329)">
	<g id="Page_1" transform="matrix(0.17893165,0,0,0.17893165,-129.37356,1149.0013)">
		<g id="BackBone.JS">
			<path id="Path" class="st0" d="M0,0v485l361,205.8V550.9L119.5,413.2V197L361,334.7V205.8L0,0z"/>
			<path id="path2996" class="st1" d="M722,0v485L361,690.8V550.9l241.5-137.7V197L361,334.7V205.8L722,0z"/>
			<path id="path2998" class="st1" d="M0,896.8v-485L361,206v139.9L119.5,483.5v205.2L361,551.1V691L0,896.8z"/>
			<path id="path3000" class="st0" d="M722,896.8v-485L361,206v139.9l241.5,137.7v205.2L361,551.1V691L722,896.8z"/>
		</g>
	</g>
</g>
</svg>
