<?xml version="1.0" encoding="utf-8"?>
<!-- Generator: Adobe Illustrator 25.0.0, SVG Export Plug-In . SVG Version: 6.00 Build 0)  -->
<svg version="1.1" id="Layer_1" xmlns="http://www.w3.org/2000/svg" xmlns:xlink="http://www.w3.org/1999/xlink" x="0px" y="0px"
	 viewBox="0 0 800 800" style="enable-background:new 0 0 800 800;" xml:space="preserve">
<style type="text/css">
	.stbui0{fill:#1F4592;}
	.stbui1{fill:#FEFEFE;}
</style>
<g>
	<path class="stbui0" d="M519.9,746.2c-1.1-2.3-3.5-1.9-5.3-2.5c-18.9-6.8-31.6-23.9-32-43.3c-0.4-19.9,11-37.7,29.6-44.8
		c4.7-1.8,6.2-4.1,5.9-8.9c-0.4-5.7,0.1-11.5-0.2-17.3c-0.3-8.4-4.5-12.5-12.9-13.1c-27.4-1.9-45-20.2-46.1-47.9
		c-1-26.2-21.1-45.9-47.2-46.2c-13.1-0.2-26.3,0.3-39.4-0.2c-6.1-0.2-9,1.2-7.8,7.7c0.1,0.8,0,1.6,0,2.8c-3.5-1.3-4.5-4-6.3-5.9
		c-22.8-25.2-51.2-38.4-85.1-40c-6.3-0.3-11.5,1.4-14.1,7.6c-3.2,7.8,2.3,15.5,11.7,15.8c21.1,0.8,40.3,6.8,57,20
		c25.6,20.3,36.2,47.2,37.1,79.6c1,37-26.6,77.4-70,87C239,709,187.3,669.8,184.1,612.5c-0.7-11.9-3.6-14.8-15.6-15.4
		c-45.8-2.5-74.5-50.6-54.3-91.9c12.3-25.1,32.3-40.2,61-42.2c7.5-0.5,12.5-5.6,12.2-12.2c-0.3-6.7-5.7-11.7-13.2-11.3
		c-33.4,1.7-58,18.4-76.1,45.8c-2,3-3.7,6.2-5.5,9.4c-14.5-14.5-13.5-39.1,1.7-53.4c0.8-0.8,1.8-1.5,2.6-2.2
		c9.9-8.3,8.6-17.5-3.2-22.8c-24-10.7-31.8-38.1-16.8-58.6c3.3-4.5,7.6-7.9,12.3-11c9.3-6.1,9.3-15.4-0.1-21.6
		c-14.2-9.2-21.8-21.8-19-39c2.4-14.9,19.4-31.9,34-34.9c15.3-3.2,32.6,10,35.2,26.9c0.5,3,0.5,6,1,8.9c1,6.7,6.1,11.1,12.1,10.8
		c6.1-0.4,11.3-5.3,11.2-11.9c-0.3-22-8.7-39.8-28.4-51.1c-5.6-3.2-11.7-5.6-18.1-6.3c-5.8-0.6-6.4-3.7-5.7-8.4
		c1.7-10.8,15.3-20.3,26.4-18.3c3.4,0.6,6.7,1.6,9.6,3.6c5.5,3.6,11.2,4.7,16.4-0.3c5.4-5.2,4.1-10.9,0.8-17
		c-5.9-10.9-7.6-22.6-4.9-34.8c5.4-24.3,27.1-41.5,51.4-40.7c23.4,0.8,41.7,18,45.7,43.1c0.6,3.9,0.9,7.8,1.2,11.7
		c0.6,7.7,5.2,12.3,12.1,12.1s11.6-5.2,11.4-12.9c-0.8-25.7-9.9-47.7-30.5-63.8c-4.2-3.3-4.1-5.3-1.8-9.4
		C263,69.1,285.5,58.1,312.6,63c25.9,4.7,47.9,27.5,51.1,53.3c0.7,5.5,1,11,1,16.5c0.1,37.1,0.1,74.2-0.1,111.3c0,5,1,6.8,6.4,6.6
		c16.6-0.4,33.2-0.1,49.8-0.2c23.1-0.1,37.5-14.1,38.3-37.2c0.9-25.3,21.1-45,46.5-45.4c11.3-0.2,22.6,0,33.9-0.1
		c9.5-0.1,13.7-4.4,13.9-14.1c0-1.4-0.1-2.8,0-4.1c1.3-11.4-0.1-19.3-13.1-25.4c-19.3-9.1-26.5-33.3-19.9-53.7
		c6.7-20.5,26.8-33.9,48.5-32.4c21.4,1.5,38.9,17.7,42.8,39.5c3.7,20.6-7.3,41.9-27,50.1c-6.5,2.7-8.5,6-7.8,12.5
		c0.6,5.2,0.2,10.6,0.1,15.9c-0.5,20.2-15.4,35-35.7,35.3c-11.3,0.2-22.6,0-33.9,0.1c-14.6,0.1-24.1,9.5-24.7,24.1
		c-1.4,34-26.3,58.2-60.8,58.5c-17.3,0.2-34.6,0.2-51.9-0.1c-4.4-0.1-5.4,1.2-5.3,5.4c0.2,20.1,0.2,40.1,0,60.2c0,4.2,1,5.4,5.3,5.4
		c56.9-0.2,113.9,0,170.8-0.2c14.8,0,23.8-9.8,24.7-25.8c1.2-22,16.5-40,37.9-44.2c4.5-0.9,9.2-0.7,13.8-0.8
		c13.6-0.1,27.2,0.1,40.8-0.1c8.8-0.1,13.1-4.4,13.5-13.1c0.1-1.8-0.2-3.7,0.1-5.5c1.4-11.3-0.7-18.9-13.1-24.8
		c-19.3-9.2-26.7-33.2-20.1-53.6c6.9-21.3,26.7-34.2,49.6-32.5c20.4,1.5,38.1,18,41.8,39c3.7,20.8-7.6,42.4-27.5,50.6
		c-6.1,2.5-7.7,5.6-7.2,11.6c0.5,5.5,0.3,11.1,0,16.6c-1,20.8-15.7,35.1-36.5,35.4c-14.7,0.2-29.5,0-44.3,0.1
		c-15.5,0.1-24.5,8.7-25.3,24c-1.6,27.6-21.4,46.7-49,46.7c-56,0.1-112,0.2-168-0.1c-6.3,0-7.6,1.7-7.3,7.6
		c0.5,11.3,0.4,22.6,0,33.9c-0.2,5,1.4,6,6.1,5.9c51.6-0.2,103.3-0.1,154.9-0.1c30.8,0,49.4,17.6,51.4,48.3c0.2,2.7,0.5,5.5,1.2,8.2
		c2.2,9.8,7.5,14.1,17.5,14.2c20.1,0.1,40.1,0,60.2,0c24.9,0,39.3,14.5,39.4,39.6c0,0.9,0.1,1.9,0,2.8c-1.5,11.4,0.8,18.9,13.1,24.8
		c19.2,9.3,26.6,33.3,19.9,53.7c-6.9,21.2-27,34.2-49.8,32.4c-20.7-1.7-38.2-18.4-41.8-39.9c-3.4-20.4,8.1-41.8,27.8-49.8
		c6.2-2.5,7.7-5.7,7.2-11.6c-0.4-4.8,0-9.7-0.1-14.5c-0.3-9.5-4.6-13.8-14.2-13.8c-19.1-0.1-38.3-0.7-57.4,0.1
		c-31.8,1.4-45-20.3-46.4-44.1c-1.1-19-9.4-26.8-28.3-26.8c-50.9,0-101.9,0.1-152.8-0.2c-6.6,0-7.8,2-7.7,8
		c0.4,15.2,0.3,30.4,0,45.6c-0.1,4.4,1,5.9,5.7,5.8c13.4-0.3,26.7-0.2,40.1-0.1c40.6,0.3,70.7,29.4,72.2,70
		c0.5,14.4,9.6,23.6,23.8,24.3c20.5,1,34.6,15.4,35.3,36c0.2,6.4,0.2,12.9,0,19.4c-0.2,3.7,0.8,5.5,4.6,7
		c20.7,8.1,31.9,26.1,30.5,48.2c-1.3,20-16,36.3-37.3,41.7c-0.5,0.1-1,0.8-1.4,1.2C531.9,746.2,525.9,746.2,519.9,746.2z"/>
	<path class="stbui1" d="M329.1,387.9c0,36.5-26.2,63-58.7,63.3c-31.3,0.3-58.4-25.6-59.1-56.6c-0.2-8.5,3.7-13.6,10.7-14.1
		c7.3-0.5,12.1,4.4,12.8,13c1.5,19.2,14.7,32.6,33.5,34c17,1.2,32.6-11,36.4-28.5c4-18.5-8.8-38-27.5-41.4c-2.7-0.5-5.5-0.7-8.2-1.1
		c-6.8-1-10.9-5.7-10.7-12.1c0.3-6.5,5.4-11.5,12.4-11.3c18.5,0.6,33.9,8,45.5,22.5C324.9,366.2,329,378.4,329.1,387.9z"/>
	<path class="stbui1" d="M211.3,250.1c0.2-25.9,21.3-46.9,47.2-46.7c25.3,0.1,46.9,21.1,47,45.7c0,7.3-4.1,12.5-10.5,13.1
		c-6.3,0.7-11.8-3.5-12.9-9.8c-0.2-1.1-0.1-2.3-0.2-3.4c-1.4-13-11.4-22.1-24.1-21.9c-11.8,0.2-21.8,9.4-22.9,20.8
		c-1.2,13.2,6.9,23.7,20.2,26c1.1,0.2,2.3,0.3,3.4,0.4c7.7,1,11.9,5.8,11.3,12.9c-0.6,6.7-6.1,10.9-13.7,10.6
		C231,296.6,211.2,275.5,211.3,250.1z"/>
	<path class="stbui1" d="M199.3,569.1c0-19.5,13.8-34.1,33.2-35.3c7.6-0.5,13.1,3.7,13.8,10.4c0.7,7-3.3,11.8-11.1,13
		c-4.7,0.7-9.1,1.5-11.2,6.6c-3.4,8.2,0.8,15.5,9.9,17.1c9.4,1.6,13.6,6.3,12.4,13.9c-1.1,6.9-7,10.5-15.8,9.4
		C211.8,602,199.3,587.9,199.3,569.1z"/>
	<path class="stbui1" d="M317.4,627.9c0.2,19.9-14.3,35.2-33.6,35.5c-7.7,0.1-13-4-13.5-10.7s4.1-11.7,11.7-12.8
		c9.3-1.3,12.7-5.6,11.5-14.2c-0.8-6-4.7-8.5-10.3-9.3c-9.4-1.3-13.9-6.2-12.7-13.5c1.2-7.3,7.3-11,16.2-9.8
		C305,595.4,317.2,609.3,317.4,627.9z"/>
</g>
</svg>
