<?xml version="1.0" encoding="utf-8"?>
<svg version="1.1" id="Layer_1" xmlns="http://www.w3.org/2000/svg" xmlns:xlink="http://www.w3.org/1999/xlink" x="0px" y="0px"
	 viewBox="0 0 800 800" style="enable-background:new 0 0 800 800;" xml:space="preserve">
<path class="stcall0" d="M503.4,500.9l18.1,17.2l0,0L503.4,500.9z M518.5,484.9l-18.1-17.2l0,0L518.5,484.9z M599.1,473.7l-12.5,21.7

	l0,0L599.1,473.7z M662.8,510.4l-12.5,21.7L662.8,510.4z M680.7,625.3l18.1,17.2v0L680.7,625.3z M633.4,675.1l-18.1-17.2

	L633.4,675.1z M589.2,698.8l2.5,24.9L589.2,698.8z M260.5,549.2l18.1-17.2L260.5,549.2z M125.1,230.9c-0.7-13.8-12.5-24.4-26.3-23.6

	s-24.4,12.5-23.6,26.3L125.1,230.9z M306.4,293.5l18.1,17.2L306.4,293.5z M315.9,283.4l18.1,17.2L315.9,283.4z M321.1,189.8

	l20.4-14.4L321.1,189.8z M279.1,130.3l-20.4,14.4l0,0L279.1,130.3z M157.3,103.1c-9.5,10-9.1,25.8,0.9,35.3

	c10,9.5,25.8,9.1,35.3-0.9L157.3,103.1z M368.8,435.2l18.1-17.2L368.8,435.2z M355.5,660.4c11.7,7.3,27.1,3.8,34.5-7.9

	c7.3-11.7,3.8-27.1-7.9-34.5L355.5,660.4z M503.8,668.6c-13.5-2.8-26.8,5.8-29.6,19.3c-2.8,13.5,5.8,26.8,19.3,29.6L503.8,668.6z

	 M521.5,518.1l15.2-16l-36.3-34.4l-15.2,16L521.5,518.1z M586.6,495.4l63.7,36.7l24.9-43.3l-63.7-36.7L586.6,495.4z M662.6,608.1

	l-47.3,49.9l36.3,34.4l47.3-49.8L662.6,608.1z M278.6,532c-129.2-136-150.9-250.8-153.6-301.1l-49.9,2.7

	c3.3,61.6,29.5,187.8,167.3,332.9L278.6,532z M324.5,310.7l9.6-10.1l-36.3-34.4l-9.6,10.1L324.5,310.7z M341.6,175.3l-42-59.4

	l-40.8,28.9l42,59.4L341.6,175.3z M306.4,293.5c-18.1-17.2-18.1-17.2-18.2-17.2c0,0,0,0,0,0c0,0-0.1,0.1-0.1,0.1

	c-0.1,0.1-0.1,0.1-0.2,0.2c-0.1,0.2-0.3,0.3-0.4,0.5c-0.3,0.4-0.7,0.8-1,1.2c-0.7,0.9-1.6,2.1-2.4,3.4c-1.7,2.7-3.6,6.3-5.2,10.8

	c-3.3,9.2-5,21.3-2.8,36.4c4.4,29.7,23.8,69.7,74.8,123.3l36.3-34.4c-47.6-50.1-59.3-81-61.5-96.1c-1.1-7.3,0-11.2,0.4-12.4

	c0.2-0.7,0.4-0.9,0.2-0.6c-0.1,0.1-0.2,0.3-0.5,0.7c-0.1,0.2-0.3,0.3-0.5,0.6c-0.1,0.1-0.2,0.2-0.3,0.3c-0.1,0.1-0.1,0.1-0.2,0.2

	c0,0-0.1,0.1-0.1,0.1c0,0,0,0,0,0C324.5,310.7,324.5,310.7,306.4,293.5z M350.6,452.4c50.8,53.4,89.1,74.5,118.4,79.2

	c15,2.4,27.2,0.5,36.4-3.1c4.5-1.8,8.1-3.9,10.7-5.8c1.3-0.9,2.4-1.8,3.3-2.6c0.4-0.4,0.8-0.8,1.2-1.1c0.2-0.2,0.3-0.3,0.5-0.5

	c0.1-0.1,0.1-0.1,0.2-0.2c0,0,0.1-0.1,0.1-0.1c0,0,0,0,0.1,0c0,0,0,0-18.1-17.3c-18.1-17.2-18.1-17.2-18.1-17.3c0,0,0,0,0-0.1

	c0,0,0.1-0.1,0.1-0.1c0.1-0.1,0.1-0.1,0.2-0.2c0.1-0.1,0.2-0.2,0.3-0.3c0.2-0.2,0.4-0.4,0.5-0.5c0.3-0.3,0.6-0.5,0.7-0.6

	c0.3-0.2,0.3-0.1-0.1,0c-0.6,0.3-3.7,1.3-10,0.3c-13.4-2.2-42.4-14-90.1-64.3L350.6,452.4z M299.5,115.9

	C265.7,68.1,198.1,60,157.3,103.1l36.3,34.4c17.4-18.3,48.1-16.9,65.2,7.2L299.5,115.9z M615.2,657.9c-9.3,9.8-19,15-28.5,16

	l4.9,49.8c24.9-2.5,45.1-15.7,59.8-31.3L615.2,657.9z M334,300.7c32.2-34,34.5-87.1,7.5-125.3l-40.8,28.9

	c14.1,19.9,11.9,46.4-2.9,62L334,300.7z M650.3,532.1c27.4,15.8,32.7,54.5,12.3,76l36.3,34.4c43.5-45.8,30.8-122.4-23.6-153.8

	L650.3,532.1z M536.7,502.1c12.8-13.5,32.9-16.6,50-6.7l24.9-43.3c-36.6-21.1-82-15-111.2,15.6L536.7,502.1z M382.1,618.1

	c-32.8-20.6-67.7-48.5-103.4-86.1l-36.3,34.4c38.5,40.5,76.6,71.1,113.1,94L382.1,618.1z M586.8,673.9c-18.2,1.8-47,2.3-83-5.3

	l-10.2,48.9c41.6,8.7,75.6,8.3,98.1,6.1L586.8,673.9z"/>
</svg>

