<?xml version="1.0" encoding="utf-8"?>
<!-- Generator: Adobe Illustrator 25.0.0, SVG Export Plug-In . SVG Version: 6.00 Build 0)  -->
<svg version="1.1" id="Layer_1" xmlns="http://www.w3.org/2000/svg" xmlns:xlink="http://www.w3.org/1999/xlink" x="0px" y="0px"
	 viewBox="0 0 800 800" style="enable-background:new 0 0 800 800;" xml:space="preserve">
<path d="M726.6,492.5c-10.5-4.4-22.8-7-35.6-7c-14.4,0-28.1,3.2-40.3,9l0.6-0.2l-144.5,64.9c0.1-1.2,0.6-2.2,0.6-3.4
	c-0.4-34.3-28.2-61.9-62.6-61.9c-1.7,0-3.4,0.1-5.1,0.2l0.2,0h-94.6l-119-34.9c-1.6-0.5-3.3-0.8-5.2-0.8c0,0-0.1,0-0.1,0H167v-18.9
	c0-10.4-8.4-18.8-18.8-18.8H51.2c-10.4,0-18.8,8.4-18.8,18.8l0,0v305.2c0,10.3,8.4,18.8,18.8,18.8h97.1c10.4,0,18.8-8.4,18.8-18.8
	l0,0v-25.1c45.4,7.1,86.1,18.6,124.7,34.2l-3.7-1.4c28.8,10.4,61.9,16.4,96.5,16.4c0.2,0,0.4,0,0.5,0h0c0.1,0,0.3,0,0.4,0
	c40.1,0,78.3-8,113.2-22.5l-1.9,0.7c31.1-13.8,57.5-28.4,82.4-45l-2,1.3c8.4-5.2,16.8-10.4,25.3-15.5
	c40.8-24.2,73.6-45.4,103.2-66.8c14.5-10.3,27.1-20.5,39.1-31.3l-0.3,0.3c9.3-7.5,16.8-17,21.8-27.9l0.2-0.5c0.8-2,1.2-4.2,1.2-6.7
	c0-1.4-0.2-2.8-0.5-4.1l0,0.1c-3.7-25.4-18.9-46.6-40.1-58.4L726.6,492.5L726.6,492.5z M129.5,726H70V458.3h59.6V726z M718,563.5
	c-10.3,9.2-21.5,18.2-33.2,26.5l-1.2,0.8c-28.6,20.7-60.4,41.2-100.3,64.9c-8.7,5.1-17.3,10.4-25.9,15.8
	c-21.3,14.3-45.9,28-71.6,39.7l-3.2,1.3c-28.8,11.9-62.2,18.7-97.3,18.7c-30.1,0-59-5.1-85.9-14.4l1.9,0.5
	c-38.9-16.2-84.1-28.6-131.2-35.2l-2.9-0.3V496h51.5l119,34.9c1.6,0.5,3.3,0.8,5.2,0.8c0,0,0.1,0,0.1,0h97.2
	c22.1,0,29.9,13,29.9,24.2s-7.8,24.2-29.9,24.2H269.8c-10.4,0-18.8,8.4-18.8,18.8c0,10.3,8.4,18.8,18.8,18.8l0,0h194.5
	c0,0,0.1,0,0.1,0c2.8,0,5.4-0.6,7.7-1.7L472,616l194.9-87.5c7.2-3.3,15.6-5.2,24.5-5.2c6.6,0,13,1.1,19,3l-0.4-0.1
	c9.6,5.8,16.4,15.1,18.8,26.2l0.1,0.3C725.4,556.6,721.8,560.1,718,563.5L718,563.5L718,563.5z M484.8,85.1
	c0,34.4-28,62.3-62.4,62.3c-34.4,0-62.4-28-62.3-62.4c0-34.4,27.9-62.4,62.4-62.4c16.6,0,32.4,6.6,44.1,18.3S484.8,68.5,484.8,85.1z
	 M486.8,239.4H358.2c-44.9,1.4-80.7,38.3-80.7,83.2c0,45,35.7,81.8,80.7,83.2h128.7c44.9-1.4,80.7-38.3,80.7-83.2
	C567.5,277.7,531.8,240.8,486.8,239.4L486.8,239.4z M642.6,132.8c0,26.3-21.4,47.7-47.7,47.7c-26.3,0-47.7-21.4-47.7-47.7
	c0-26.3,21.4-47.7,47.7-47.7c12.7,0,24.8,5,33.7,14C637.6,108,642.6,120.1,642.6,132.8L642.6,132.8z M194.9,132.8
	c0,26.4,21.4,47.7,47.7,47.7s47.7-21.4,47.7-47.7c0-26.4-21.4-47.7-47.7-47.7S194.9,106.4,194.9,132.8L194.9,132.8z M608.3,237.2
	c-11.3,0-20.5,9.2-20.5,20.5s9.2,20.5,20.5,20.5V237.2z M644.1,257.7l0.4-20.5c-0.1,0-0.3,0-0.4,0V257.7z M644.1,385.1v20.5
	c0.1,0,0.3,0,0.4,0L644.1,385.1z M608.3,364.5c-11.3,0-20.5,9.2-20.5,20.5s9.2,20.5,20.5,20.5V364.5z M229.2,278.3
	c11.3,0,20.5-9.2,20.5-20.5s-9.2-20.5-20.5-20.5V278.3z M193.4,257.7v-20.5c-0.1,0-0.3,0-0.4,0L193.4,257.7z M193.4,385.1l-0.4,20.5
	c0.1,0,0.3,0,0.4,0V385.1z M229.2,405.6c11.3,0,20.5-9.2,20.5-20.5s-9.2-20.5-20.5-20.5V405.6z M608.3,278.3h35.8v-41.1h-35.8V278.3
	z M643.7,278.3c23.5,0.5,42.2,19.7,42.2,43.1H727c0-45.8-36.6-83.2-82.5-84.2L643.7,278.3z M685.9,321.4c0,23.5-18.8,42.6-42.2,43.1
	l0.9,41c45.8-0.9,82.5-38.4,82.5-84.2H685.9z M644.1,364.5h-35.8v41.1h35.8V364.5z M229.2,237.2h-35.8v41.1h35.8V237.2z M193,237.2
	c-45.8,0.9-82.5,38.4-82.5,84.2h41.1c0-23.5,18.8-42.6,42.2-43.1L193,237.2z M110.5,321.4c0,45.8,36.6,83.2,82.5,84.2l0.9-41
	c-23.5-0.5-42.2-19.7-42.2-43.1H110.5z M193.4,405.6h35.8v-41.1h-35.8V405.6z"/>
</svg>
