<?xml version="1.0" encoding="utf-8"?>
<!-- Generator: Adobe Illustrator 25.0.0, SVG Export Plug-In . SVG Version: 6.00 Build 0)  -->
<svg version="1.1" id="Layer_1" xmlns="http://www.w3.org/2000/svg" xmlns:xlink="http://www.w3.org/1999/xlink" x="0px" y="0px"
	 viewBox="0 0 32 32" style="enable-background:new 0 0 32 32;" xml:space="preserve">
<g id="data--processing_1_">
	<circle cx="13.5" cy="4" r="0.5"/>
	<circle cx="13.5" cy="11" r="0.5"/>
	<circle cx="27.5" cy="20" r="0.5"/>
	<circle cx="27.5" cy="27" r="0.5"/>
	<path d="M16,7.4H2C1.8,7.4,1.6,7.2,1.6,7V2c0-0.2,0.2-0.4,0.4-0.4h14c0.2,0,0.4,0.2,0.4,0.4v5C16.4,7.2,16.2,7.4,16,7.4z M2.4,6.6
		h13.3V2.4H2.4V6.6z M10,3.6H4v0.7h6V3.6z M16,14.4H2c-0.2,0-0.4-0.2-0.4-0.4V9c0-0.2,0.2-0.4,0.4-0.4h14c0.2,0,0.4,0.2,0.4,0.4v5
		C16.4,14.2,16.2,14.4,16,14.4z M2.4,13.6h13.3V9.4H2.4V13.6z M10,10.6H4v0.7h6V10.6z M30,23.4H16c-0.2,0-0.4-0.2-0.4-0.4v-5
		c0-0.2,0.2-0.4,0.4-0.4h14c0.2,0,0.4,0.2,0.4,0.4v5C30.4,23.2,30.2,23.4,30,23.4z M16.4,22.6h13.3v-4.3H16.4V22.6z M24,19.6h-6v0.7
		h6V19.6z M30,30.4H16c-0.2,0-0.4-0.2-0.4-0.4v-5c0-0.2,0.2-0.4,0.4-0.4h14c0.2,0,0.4,0.2,0.4,0.4v5C30.4,30.2,30.2,30.4,30,30.4z
		 M16.4,29.6h13.3v-4.3H16.4V29.6z M24,26.6h-6v0.7h6V26.6z M28.4,8c0-0.2-0.2-0.4-0.4-0.4H18v0.7h9.6V16h0.7L28.4,8L28.4,8z
		 M14,23.6H4.4V16H3.6v8c0,0.2,0.2,0.4,0.4,0.4h10V23.6z"/>
</g>
</svg>
