<?xml version="1.0" encoding="iso-8859-1"?>
<!-- Uploaded to: SVG Repo, www.svgrepo.com, Generator: SVG Repo Mixer Tools -->
<!DOCTYPE svg PUBLIC "-//W3C//DTD SVG 1.1//EN" "http://www.w3.org/Graphics/SVG/1.1/DTD/svg11.dtd">
<svg fill="#000000" version="1.1" id="Capa_1" xmlns="http://www.w3.org/2000/svg" xmlns:xlink="http://www.w3.org/1999/xlink" 
	 width="800px" height="800px" viewBox="0 0 88.553 88.553"
	 xml:space="preserve">
<g>
	<g>
		<path d="M7.506,45.04c-0.152,0.473-0.063,0.985,0.238,1.379l13.812,17.95l-0.622,22.642c-0.014,0.494,0.217,0.966,0.617,1.257
			c0.399,0.289,0.916,0.364,1.385,0.198l21.34-7.59l21.34,7.59c0.164,0.062,0.334,0.086,0.504,0.086
			c0.313,0,0.621-0.099,0.884-0.284c0.397-0.291,0.631-0.763,0.614-1.257l-0.621-22.642l13.81-17.95
			c0.303-0.394,0.393-0.906,0.238-1.379c-0.152-0.47-0.527-0.834-1.002-0.975l-21.729-6.404l-1.635-2.385
			c4.67-3.751,7.421-9.419,7.421-15.45C64.101,8.893,55.207,0,44.274,0C33.341,0,24.447,8.894,24.447,19.826
			c0,6.03,2.751,11.698,7.42,15.45l-1.635,2.385L8.506,44.065C8.034,44.205,7.659,44.57,7.506,45.04z M27.449,19.826
			C27.449,10.548,34.998,3,44.276,3c9.278,0,16.826,7.548,16.826,16.826c0,5.543-2.735,10.73-7.317,13.877
			c-2.811,1.93-6.098,2.949-9.508,2.949c-3.411,0-6.699-1.02-9.51-2.949C30.188,30.556,27.449,25.369,27.449,19.826z M31.594,40.388
			c0.331-0.098,0.618-0.306,0.813-0.591l1.932-2.817c0.407,0.237,0.822,0.455,1.242,0.661c0.13,0.064,0.263,0.119,0.394,0.18
			c0.293,0.136,0.588,0.269,0.887,0.39c0.162,0.065,0.325,0.124,0.489,0.185c0.275,0.103,0.55,0.202,0.829,0.292
			c0.176,0.057,0.353,0.11,0.53,0.162c0.273,0.08,0.548,0.154,0.825,0.222c0.18,0.044,0.361,0.088,0.543,0.127
			c0.284,0.061,0.569,0.114,0.856,0.163c0.176,0.03,0.352,0.062,0.529,0.088c0.313,0.045,0.628,0.077,0.943,0.107
			c0.123,0.012,0.246,0.032,0.369,0.042v19.889c0,0.828,0.672,1.5,1.5,1.5c0.829,0,1.5-0.672,1.5-1.5V39.596
			c0.125-0.009,0.246-0.03,0.371-0.042c0.313-0.03,0.629-0.062,0.94-0.107c0.178-0.025,0.354-0.057,0.526-0.088
			c0.287-0.049,0.572-0.101,0.855-0.163c0.184-0.039,0.363-0.083,0.543-0.127c0.277-0.068,0.553-0.142,0.826-0.222
			c0.178-0.052,0.354-0.105,0.527-0.162c0.279-0.09,0.557-0.189,0.83-0.292c0.162-0.061,0.326-0.12,0.488-0.185
			c0.299-0.121,0.594-0.254,0.887-0.39c0.132-0.061,0.266-0.116,0.396-0.18c0.42-0.206,0.834-0.424,1.242-0.661l1.932,2.817
			c0.195,0.285,0.482,0.493,0.812,0.591l20.14,5.938L64.296,62.964c-0.211,0.272-0.32,0.61-0.313,0.955l0.576,20.985l-19.779-7.033
			c-0.163-0.059-0.333-0.088-0.503-0.088s-0.34,0.029-0.504,0.088l-19.781,7.033l0.577-20.985c0.01-0.345-0.1-0.683-0.311-0.955
			l-12.8-16.64L31.594,40.388z"/>
		<path d="M51.781,31.766c0.244,0.148,0.515,0.219,0.777,0.219c0.508,0,1-0.256,1.281-0.72l4.666-7.666
			c0.434-0.708,0.207-1.631-0.5-2.063c-0.707-0.43-1.631-0.206-2.063,0.501l-4.665,7.666C50.85,30.413,51.074,31.336,51.781,31.766z
			"/>
	</g>
</g>
</svg>