<?xml version="1.0" encoding="utf-8"?>
<!-- Generator: Adobe Illustrator 25.0.0, SVG Export Plug-In . SVG Version: 6.00 Build 0)  -->
<svg version="1.1" id="Layer_1" xmlns="http://www.w3.org/2000/svg" xmlns:xlink="http://www.w3.org/1999/xlink" x="0px" y="0px"
	 viewBox="0 0 800 800" style="enable-background:new 0 0 800 800;" xml:space="preserve">
<path d="M743.5,322.2c0-0.3-0.2-0.5-0.3-0.9c-0.4-1.4-0.8-2.6-1.4-3.8l0.1,0.1c-1.7-3-3.7-5.6-5.9-7.9l0,0l-0.6-0.3
	c-1.9-1-4.2-1.9-6.6-2.7l-0.3-0.1l-0.6-0.2l-200-30.7c-0.9-0.1-1.9-0.2-2.9-0.2c-10.3,0-18.8,8.4-18.8,18.8
	c0,9.4,6.9,17.1,15.9,18.5l0.1,0l86.6,13.3L400,362.3l-208.8-36.1l86.6-13.3c9.2-1.4,16.1-9.1,16.1-18.5c0-10.3-8.4-18.8-18.8-18.8
	c-1.1,0-2.1,0.1-3.2,0.3l0.1,0l-200.7,31c-1.3,0.3-2.4,0.7-3.5,1.3l0.1-0.1c-1.3,0.5-2.5,1-3.6,1.6l0.1,0l-0.6,0.3
	c-0.6,0.6-1.2,1.2-1.7,1.9l0,0c-1,0.9-2,1.9-2.8,2.9l0,0.1c-0.5,0.9-1,1.9-1.4,2.9l-0.1,0.1c-0.5,1-1,2.2-1.3,3.5l0,0.1
	c-0.1,0.3-0.3,0.6-0.3,0.9l-25,168.8c-0.1,0.8-0.2,1.8-0.2,2.7c0,9,6.4,16.6,14.9,18.4l0.1,0l36,7.3c-0.5,1.4-0.8,2.9-0.9,4.5v0.1
	v188.3v0c0,9.5,7.1,17.4,16.3,18.6h0.1l296.8,36.7c1.7,0.6,3.6,1,5.5,1.1h0.1c0.5,0,0.9-0.3,1.4-0.3l1,0.1l300-37.7
	c9.3-1.2,16.4-9,16.4-18.6v0l0,0V524.1c-0.1-1.7-0.5-3.2-1-4.8l0.1,0.1l36-7.4c8.6-1.8,15-9.3,15-18.3c0-1-0.1-1.9-0.2-2.8l0,0.1
	L743.5,322.2z M90.7,346.8l282.4,48.9l-59.1,133L71.1,478.9L90.7,346.8z M118.8,526.9l202.5,41.4c1.1,0.3,2.4,0.4,3.7,0.4
	c7.6,0,14.1-4.5,17.1-11l0-0.1l39.1-88v259.1l-262.5-33L118.8,526.9z M681.2,695.8l-262.5,33.5V469.6l39.1,88
	c3,6.6,9.5,11.1,17.2,11.1l0,0c1.4,0,2.6-0.2,3.9-0.4l-0.1,0l202.5-41.4L681.2,695.8z M486,528.6l-59.1-133l282.4-48.9L728.8,479
	L486,528.6z M393.6,11.5c-83.2,0-150.6,67.4-150.6,150.6s67.4,150.6,150.6,150.6s150.6-67.4,150.6-150.6S476.8,11.5,393.6,11.5z
	 M393.6,284.2c-72.7,0-121.8-49.4-121.8-122.1S320.9,40.3,393.6,40.3s121.8,49.1,121.8,121.8S466.2,284.2,393.6,284.2z M453.7,105
	L365.3,194l-39.8-39.8c-3.7-3.7-10.6-2.7-14.3,1c-3.7,3.7-2.7,10.6,1,14.3l46.6,46.6c3.7,3.7,9.6,3.7,13.3,0
	c0.4-0.4,0.8-0.9,1.1-1.4l93.8-94.4c3.7-3.7,5.7-11.6,2-15.3C465.3,101.3,457.4,101.3,453.7,105L453.7,105z"/>
</svg>
