<?xml version="1.0" encoding="utf-8"?>
<!-- Generator: Adobe Illustrator 25.0.0, SVG Export Plug-In . SVG Version: 6.00 Build 0)  -->
<svg version="1.1" id="Layer_1" xmlns="http://www.w3.org/2000/svg" xmlns:xlink="http://www.w3.org/1999/xlink" x="0px" y="0px"
	 viewBox="0 0 800 800" style="enable-background:new 0 0 800 800;" xml:space="preserve">
<g>
	<g>
		<g>
			<path d="M66.2,406.7h57c5.2,0,9.5-4.3,9.5-9.5c0-5.2-4.3-9.5-9.5-9.5H75.7v-19h9.5c5.2,0,9.5-4.3,9.5-9.5c0-5.2-4.3-9.5-9.5-9.5
				h-9.5v-19h9.5c5.2,0,9.5-4.3,9.5-9.5s-4.3-9.5-9.5-9.5h-9.5v-19h47.5c5.2,0,9.5-4.3,9.5-9.5c0-5.2-4.3-9.5-9.5-9.5H75.7v-19h9.5
				c5.2,0,9.5-4.3,9.5-9.5c0-5.2-4.3-9.5-9.5-9.5h-9.5v-19h9.5c5.2,0,9.5-4.3,9.5-9.5s-4.3-9.5-9.5-9.5h-9.5v-19h47.5
				c5.2,0,9.5-4.3,9.5-9.5c0-5.2-4.3-9.5-9.5-9.5H75.7v-38h133v275.5c0,5.2,4.3,9.5,9.5,9.5c5.2,0,9.5-4.3,9.5-9.5v-285
				c0-5.2-4.3-9.5-9.5-9.5h-152c-5.2,0-9.5,4.3-9.5,9.5v285C56.7,402.4,60.9,406.7,66.2,406.7z"/>
			<path d="M13.3,426.7c7.4,0,13.3-6,13.3-13.3V66.7c0-19.4,20.6-40,40-40h80c7.4,0,13.3-6,13.3-13.3S154,0,146.7,0h-80
				C32.4,0,0,32.4,0,66.7v346.7C0,420.7,6,426.7,13.3,426.7z"/>
			<path d="M697,213.6c-5.3,0-9.6,4.3-9.6,9.6v172.5c0,5.3,4.3,9.6,9.6,9.6s9.6-4.3,9.6-9.6V223.2
				C706.6,217.9,702.3,213.6,697,213.6z"/>
			<path d="M639.5,223.2v172.5c0,5.3,4.3,9.6,9.6,9.6s9.6-4.3,9.6-9.6V223.2c0-5.3-4.3-9.6-9.6-9.6S639.5,217.9,639.5,223.2z"/>
			<path d="M546.7,773.3h-13.3V760c0-7.4-6-13.3-13.3-13.3s-13.3,6-13.3,13.3v13.3H480V760c0-7.4-6-13.3-13.3-13.3
				c-7.4,0-13.3,6-13.3,13.3v13.3h-26.7V760c0-7.4-6-13.3-13.3-13.3c-7.4,0-13.3,6-13.3,13.3v13.3h-26.7V760c0-7.4-6-13.3-13.3-13.3
				c-7.4,0-13.3,6-13.3,13.3v13.3H320V760c0-7.4-6-13.3-13.3-13.3c-7.4,0-13.3,6-13.3,13.3v13.3h-26.7V760c0-7.4-6-13.3-13.3-13.3
				s-13.3,6-13.3,13.3v13.3h-26.7V760c0-7.4-6-13.3-13.3-13.3s-13.3,6-13.3,13.3v13.3H160V760c0-7.4-6-13.3-13.3-13.3
				s-13.3,6-13.3,13.3v13.3h-26.7V760c0-7.4-6-13.3-13.3-13.3c-7.4,0-13.3,6-13.3,13.3v13.3H66.7c-7.4,0-13.3,6-13.3,13.3
				s6,13.3,13.3,13.3h480c7.4,0,13.3-6,13.3-13.3C560,779.3,554,773.3,546.7,773.3z"/>
			<path d="M601.2,405.3c5.3,0,9.6-4.3,9.6-9.6V187.6l38.3-61.3l30.6,49h-40.2c-5.3,0-9.6,4.3-9.6,9.6c0,5.3,4.3,9.6,9.6,9.6H697
				c3.5,0,6.7-1.9,8.4-4.9c1.7-3,1.6-6.8-0.3-9.7l-47.9-76.7c-3.5-5.6-12.7-5.6-16.3,0L593,179.8c-0.9,1.5-1.5,3.3-1.5,5.1v210.8
				C591.6,401,595.9,405.3,601.2,405.3z"/>
			<path d="M733.3,0H600c-7.4,0-13.3,6-13.3,13.3s6,13.3,13.3,13.3h133.3c19.4,0,40,20.6,40,40v480c0,19.4-20.6,40-40,40H66.7
				c-19.4,0-40-20.6-40-40V480h706.7c7.4,0,13.3-6,13.3-13.3c0-7.4-6-13.3-13.3-13.3h-720c-7.4,0-13.3,6-13.3,13.3v80
				c0,34.3,32.4,66.7,66.7,66.7h666.7c34.3,0,66.7-32.4,66.7-66.7v-480C800,32.4,767.6,0,733.3,0z"/>
			<path d="M373.3,533.3c0,14.7,12,26.7,26.7,26.7c14.7,0,26.7-12,26.7-26.7c0-14.7-12-26.7-26.7-26.7
				C385.3,506.7,373.3,518.6,373.3,533.3z"/>
			<path d="M466.7,720c7.4,0,13.3-6,13.3-13.3v-53.3c0-7.4-6-13.3-13.3-13.3s-13.3,6-13.3,13.3v53.3C453.3,714,459.3,720,466.7,720z
				"/>
			<path d="M346.7,706.7v-53.3c0-7.4-6-13.3-13.3-13.3c-7.4,0-13.3,6-13.3,13.3v53.3c0,7.4,6,13.3,13.3,13.3
				C340.7,720,346.7,714,346.7,706.7z"/>
			<path d="M693.3,720h-26.7c-29.4,0-53.3,23.9-53.3,53.3v13.3c0,7.4,6,13.3,13.3,13.3h106.7c7.4,0,13.3-6,13.3-13.3v-13.3
				C746.7,743.9,722.7,720,693.3,720z M640,773.3c0-14.7,12-26.7,26.7-26.7h26.7c14.7,0,26.7,12,26.7,26.7H640z"/>
		</g>
	</g>
</g>
<path d="M346.4,389.2c-9.8-0.9-19.7-3.3-29-6.5c-27.6-9.4-42.5-29.6-45.6-58.2c-2.2-20.3-3.3-40.7-4.5-61.2
	c-1.2-20.3-2.7-40.5-2.7-60.8c0-17.2,2.1-34.5,9-50.6c7.8-18.2,21.3-30.5,39.6-37.6c14.6-5.7,30-7.6,45.5-9.4
	c29.6-3.4,59.3-4.6,89-2.7c23.4,1.5,46.6,4.3,68.3,14c14.5,6.6,24.8,17.5,29.9,32.9c5.7,17.2,7.9,34.9,9.3,52.8
	c2.2,27.6,2.8,55.1,1.6,82.8c-0.9,18.5-3.9,36.5-11.2,53.5c-11.5,26.6-30.4,45-60,49.8c-10.3,1.7-20.9,2.2-31.3,2.5
	c-15.5,0.4-31,0.1-46.6,0.1L346.4,389.2z M415.8,367.9c21.8-1,41.1-1.6,60.5-2.8c15.2-0.9,27.8-7.4,37.3-19.5
	c13.1-16.6,17.4-36.3,18.7-56.6c2.1-33.2,1-66.4-2.7-99.5c-1.3-11.9-3.2-23.7-9.9-34.1c-1.8-2.8-3.2-5.8-4.9-8.7
	c-4.3-7.4-9.9-14-18.3-16.3c-18.5-5.1-37.6-7.5-56.7-7.5c-21.2,0-42.5,0.5-63.7,2.3c-15.9,1.3-31.8,4.4-47.4,7.9
	c-19.4,4.3-30.7,17.5-35.7,36.3c-5.2,19.6-5.1,39.7-3.9,59.8c1.2,19.2,2.7,38.4,4.1,57.6c0.9,12.2,1.6,24.4,3.1,36.5
	c2.4,18.5,12.2,31.6,30.6,36.9c8.8,2.5,17.8,4.8,26.9,5.3C375.1,366.9,396.6,367.2,415.8,367.9z"/>
<path d="M376,309.2c1.7-6.6,2.9-12.1,4.5-17.6c10.3-36.9,20.6-73.9,30.9-110.8c0.8-2.9,1.4-6,2.3-8.9c1.8-6.5,7.9-10.1,13.7-8.3
	c6,1.8,8.9,8,7,14.4c-11.5,39.5-23.1,79-34.6,118.5c-1.5,5.1-3.1,10.2-5.2,15c-2.8,6.5-9.9,8.6-14.6,4.3
	C377.9,314.1,377.1,311.2,376,309.2z"/>
<path d="M326.5,239c5.4,4.4,10.1,8.5,15,12.2c6.3,4.9,12.8,9.5,19.1,14.3c4,3.1,6,7.2,4.6,12.2c-1.7,6.5-9.4,10.1-15.3,6.2
	c-14.6-9.6-29.5-19-41.1-32.4c-2.5-2.9-4.2-6.8-5.2-10.5c-1.2-4.4,0.6-8.5,4.1-11.4c14-11.5,28.1-23,42.4-34.4c2.8-2.2,6-4,9.3-5.3
	c5.2-2.2,10.3-0.4,12.4,3.8c2.2,4.2,0.7,8.5-3.9,12.1C354.3,216.7,340.8,227.5,326.5,239z"/>
<path d="M492.9,238.8c-7.6-5.7-14.8-11.2-22.2-16.6c-5.5-4-11.1-7.8-16.4-12c-4-3.1-4.9-8.2-2.5-12.1c2.5-4.1,7.5-5.5,12.3-3.3
	c1.6,0.7,3,1.7,4.4,2.7c6.4,4.6,12.7,9.1,19,13.9c7.7,5.9,15.3,11.9,22.8,18c6.8,5.5,7.3,12.3,0.6,17.9
	c-16.7,14.1-33.7,28-50.7,41.7c-5.4,4.4-12,3.3-15.4-1.7c-3.3-4.9-1.9-10.8,3.6-14.9c13.6-10.1,27.2-20.3,40.8-30.5
	C490.4,241.2,491.4,240.1,492.9,238.8z"/>
</svg>
