<?xml version="1.0" encoding="utf-8"?>
<!-- Generator: Adobe Illustrator 25.0.0, SVG Export Plug-In . SVG Version: 6.00 Build 0)  -->
<svg version="1.1" id="Layer_1" xmlns="http://www.w3.org/2000/svg" xmlns:xlink="http://www.w3.org/1999/xlink" x="0px" y="0px"
	 viewBox="0 0 100 100" style="enable-background:new 0 0 100 100;" xml:space="preserve">
<style type="text/css">
	.stfs0{fill:#000;}
	.stfs1{fill:#FFFFFF;}
</style>
<g id="icon">
	<path class="stfs0" d="M50,96.66c-1.08,0.01-2.1-0.52-2.73-1.4L21.7,58.83c-0.12-0.15-0.23-0.3-0.33-0.47
		c-11.08-15.81-7.24-37.61,8.58-48.69s37.61-7.24,48.69,8.58c4.13,5.9,6.34,12.93,6.33,20.14c-0.01,7.16-2.23,14.13-6.36,19.98
		c-0.07,0.13-0.15,0.26-0.23,0.38L52.71,95.24C52.09,96.12,51.08,96.65,50,96.66z M27.39,55.45L50,87.53l22.64-32.15l0.27-0.43
		c3.51-4.81,5.4-10.61,5.39-16.56c0-15.63-12.67-28.3-28.3-28.3s-28.3,12.67-28.3,28.3c-0.03,5.98,1.86,11.82,5.39,16.65
		C27.21,55.17,27.31,55.31,27.39,55.45z"/>
	<path class="stfs1" d="M64.35,30.7L64.35,30.7c-3.07-3.06-8.04-3.06-11.1,0l-3.33,3.25l-3.25-3.25c-3.07-3.06-8.04-3.06-11.1,0l0,0
		c-3.06,3.07-3.06,8.04,0,11.1L50,56.15L64.35,41.8C67.41,38.73,67.41,33.76,64.35,30.7z"/>
	<path class="stfs0" d="M50,59.48c-0.88,0-1.73-0.36-2.35-0.98l-14.3-14.35c-4.69-4.01-5.25-11.06-1.24-15.75s11.06-5.25,15.75-1.24
		c0.45,0.38,0.86,0.8,1.24,1.24l0.9,0.88l0.9-0.88c4.35-4.34,11.4-4.34,15.75,0l0,0c4.36,4.35,4.37,11.41,0.02,15.77
		c-0.01,0.01-0.02,0.02-0.02,0.02L52.3,58.55C51.68,59.14,50.86,59.48,50,59.48z M41.19,31.73c-2.48-0.01-4.5,2-4.51,4.48
		c0,0.01,0,0.02,0,0.03c-0.01,1.2,0.47,2.36,1.33,3.2l11.99,12l12-12c0.85-0.85,1.32-2,1.32-3.2c0-1.2-0.47-2.35-1.32-3.2l0,0
		c-1.77-1.75-4.62-1.75-6.39,0l-3.33,3.33c-1.3,1.29-3.4,1.29-4.69,0l-3.33-3.33C43.44,32.24,42.35,31.77,41.19,31.73z"/>
</g>
</svg>
