<?xml version="1.0" encoding="utf-8"?>
<!-- Generator: Adobe Illustrator 25.0.0, SVG Export Plug-In . SVG Version: 6.00 Build 0)  -->
<svg version="1.1" id="Layer_1" xmlns="http://www.w3.org/2000/svg" xmlns:xlink="http://www.w3.org/1999/xlink" x="0px" y="0px"
	 viewBox="0 0 800 800" style="enable-background:new 0 0 800 800;" xml:space="preserve">
<g id="Layer_2_1_">
	<g id="icons_Q2">
		<path d="M256.7,470c9.8,14.5,29.4,18.4,43.9,8.6c2.2-1.5,4.3-3.3,6.1-5.3l60-60V600c0,18.4,14.9,33.3,33.3,33.3
			c18.4,0,33.3-14.9,33.3-33.3V413.3l60,60c11.6,13.1,31.6,14.3,44.7,2.7c2-1.8,3.8-3.8,5.3-6.1c10-13.8,8.6-32.8-3.3-45L423.3,310
			c-11.8-12.9-31.9-13.7-44.7-1.9c-0.7,0.6-1.3,1.3-1.9,1.9L260,425C248.1,437.2,246.7,456.2,256.7,470z"/>
		<path d="M675,363.3c-2.9-42.5-23.4-81.8-56.7-108.3c-34.5-29.6-79.8-43.5-125-38.3c-35.9-60.2-100-97.9-170-100
			c-56.3-0.2-109.8,24.2-146.7,66.7c-34.7,38.4-53.7,88.3-53.3,140c-47.2,31-78.7,80.8-86.7,136.7C25,521.7,44.3,585.2,88.3,630
			c39.6,35.9,91.6,55,145,53.3h33.3c18.4,0,33.3-14.9,33.3-33.3l0,0c0-18.4-14.9-33.3-33.3-33.3h-33.3c-36.2,2.4-71.8-10.3-98.3-35
			c-28.6-29.6-41-71.2-33.3-111.7c3-21.3,11.7-41.4,25-58.3c11.6-17.2,27-31.4,45-41.7c12.6-5.2,20.1-18.2,18.3-31.7l0,0
			c-2.8-40.1,10.4-79.6,36.7-110c24.2-28.3,59.4-44.7,96.7-45c27.3,0.2,53.7,9.6,75,26.7c20.1,14.6,36.2,34.1,46.7,56.7
			c5.2,12,16.9,19.8,30,20h8.3c33.3-8.2,68.6-0.2,95,21.7c19.7,19.3,30.5,45.8,30,73.3v6.7c-1.2,13.1,7.3,25.1,20,28.3h3.3
			c42,15.1,69.5,55.4,68.3,100c0,10-6.7,100-125,100h-41.7c-18.4,0-33.3,14.9-33.3,33.3l0,0c0,18.4,14.9,33.3,33.3,33.3H575
			c128.3,0,188.3-85,191.7-165C769.5,453.1,733.5,392.3,675,363.3z"/>
	</g>
</g>
</svg>
