<?xml version="1.0" encoding="utf-8"?>
<!-- Generator: Adobe Illustrator 25.0.0, SVG Export Plug-In . SVG Version: 6.00 Build 0)  -->
<svg version="1.1" id="Layer_1" xmlns="http://www.w3.org/2000/svg" xmlns:xlink="http://www.w3.org/1999/xlink" x="0px" y="0px"
	 viewBox="0 0 800 800" style="enable-background:new 0 0 800 800;" xml:space="preserve">
<style type="text/css">
	.st0{fill:none;stroke:#000000;stroke-width:25;stroke-miterlimit:10;}
</style>
<path class="st0" d="M354.4,765.3c-18.6,0-34.6-13.8-37.6-32.7c-2.8-15.3-13.5-27.7-27.9-32.5c-11.7-4.1-23.2-9-34.4-14.6
	c-13.3-7-29.2-5.9-41.5,2.7c-14.9,11-35.4,9.3-48.3-4l-50.5-51.8c-13.6-13.9-15.3-35.9-4.2-51.9c8.6-12.9,9.9-29.6,3.3-43.7
	c-4.4-9.8-8.2-19.8-11.5-30.1c-4.7-16.1-17.8-28.2-33.9-31.3c-19.4-3.2-33.8-20.3-33.9-40.5v-64.8c-0.1-23.3,16.3-43.2,38.7-47
	c17-3.3,31.2-15.2,37.6-31.7c1.9-4.6,4-9.2,6.1-13.8c8.6-17,7.4-37.6-3.1-53.4c-13.2-18.8-11.2-44.6,4.8-61l37.1-38
	c18.3-18.8,47.1-21.2,68.2-5.7l1.2,0.8c15.7,10.8,35.7,12.8,53.1,5.2c18.6-6.9,32.4-23.3,36.2-43.3l0.5-1.8
	c4.2-26.4,26.4-45.8,52.5-45.8h44.8c26.8,0,49.6,19.9,54,47l0.8,3.7c3.6,19.1,16.6,34.9,34.4,41.7c17.1,7.5,36.8,5.6,52.2-5.2
	l2.5-1.9c21.6-16,51.2-13.5,70.1,5.8l34.1,35.1c17.1,17.6,19.3,45.4,5.1,65.6c-11.1,16.9-12.5,38.6-3.7,56.8l2.2,5.2
	c7.1,17.8,22.6,30.7,41,34.3c24.1,4,41.8,25.4,41.9,50.4v58.1c0,22.1-15.6,40.9-36.8,44.6c-17.5,3.4-31.7,16.4-37.1,33.8
	c-2.4,7-5,13.9-7.9,20.9c-6.8,15.3-5.3,33.1,4,47c12.2,17.4,10.3,41.3-4.5,56.5l-47.4,48.6c-13.5,13.9-34.9,15.7-50.5,4.2
	c-13-9.1-29.8-10.1-43.8-2.6c-9.9,5-20.1,9.5-30.5,13.4c-14.6,5.2-25.3,17.9-28.1,33.4c-3,19.5-19.3,34-38.6,34.1h-70.7L354.4,765.3
	L354.4,765.3z"/>
<g>
	<path d="M453.6,201.6c-1.2-3.8-4-7-7.6-8.8s-7.8-2.2-11.6-0.9l-63.6,20.7c-8,2.6-12.4,11.2-9.8,19.2l3.2,9.8L202.5,360.3L138.7,381
		c-3.8,1.2-7,4-8.8,7.6s-2.2,7.8-0.9,11.6l38.8,119.3c2.1,6.4,8,10.5,14.5,10.5c1.6,0,3.1-0.2,4.7-0.7l63.8-20.7l32.8,0.2
		c6.6,31.1,34.2,54.5,67.3,54.5c32.8,0,60.2-23.1,67.1-53.8l33.6,0.2l3.2,9.8c1.2,3.8,4,7,7.6,8.8c2.2,1.1,4.5,1.7,6.9,1.7
		c1.6,0,3.2-0.2,4.7-0.7l63.6-20.7c8-2.6,12.4-11.2,9.8-19.2L453.6,201.6z M191.9,495.7l-29.4-90.4l37.2-12.1l29.4,90.4L191.9,495.7
		z M350.7,532.8c-16,0-29.8-9.9-35.5-23.9l70.9,0.4C380.2,523.1,366.6,532.8,350.7,532.8z M259.3,478.2l-16-49.2l-16-49.2L374.1,272
		l45,138.6l22.3,68.7L259.3,478.2z M478.8,495.6l-1.9-5.7l0,0l-40.2-123.6l-42-129.4l34.7-11.3l84.1,258.8L478.8,495.6z"/>
	<path d="M504.8,275.5c2.2,1.1,4.6,1.7,6.9,1.7c5.5,0,10.9-3,13.6-8.3l27.3-53.5c3.8-7.5,0.8-16.6-6.6-20.5
		c-7.5-3.8-16.6-0.8-20.5,6.6L498.2,255C494.3,262.6,497.3,271.7,504.8,275.5z"/>
	<path d="M619.1,420.1l-53.5-27.3c-7.5-3.8-16.6-0.8-20.4,6.6c-3.8,7.5-0.8,16.6,6.6,20.4l53.5,27.3c2.2,1.1,4.6,1.7,6.9,1.7
		c5.5,0,10.9-3,13.6-8.3C629.5,433.1,626.6,423.9,619.1,420.1z"/>
	<path d="M542.2,331.9c2.1,6.4,8,10.5,14.5,10.5c1.6,0,3.1-0.2,4.7-0.7l57.1-18.6c8-2.6,12.4-11.2,9.8-19.2
		c-2.6-8-11.2-12.3-19.2-9.8L552,312.7C544,315.3,539.6,323.9,542.2,331.9z"/>
</g>
</svg>
