<?xml version="1.0" encoding="utf-8"?>
<!-- Generator: Adobe Illustrator 25.0.0, SVG Export Plug-In . SVG Version: 6.00 Build 0)  -->
<svg version="1.1" id="Layer_1" xmlns="http://www.w3.org/2000/svg" xmlns:xlink="http://www.w3.org/1999/xlink" x="0px" y="0px"
	 viewBox="0 0 500 500" style="enable-background:new 0 0 500 500;" xml:space="preserve">
<path d="M223.42,493.62c-41.33,0-82.65,0-123.98,0c-0.23-0.21-0.43-0.54-0.69-0.6c-30.6-7.5-45.1-26.01-45.1-57.59
	c0-71.48,0.04-142.96-0.09-214.44c-0.01-4.99-0.81-10.11-2.1-14.93c-3.4-12.71-7.43-25.25-10.9-37.94
	c-1.96-7.17-4.3-14.44-4.76-21.77c-1.6-25.38,14.32-46.94,39.59-54.29c77.81-22.62,155.64-45.14,233.47-67.67
	c22.05-6.38,44.13-12.69,66.2-19.03c4.13,0,8.27,0,12.4,0c0.75,0.24,1.48,0.56,2.25,0.7c20.62,3.71,35.32,15.1,42.13,34.91
	c6.18,17.98,10.92,36.45,16.29,54.71c3.19,10.86,1.26,14.36-9.5,17.48c-100.24,29.03-200.48,58.06-300.72,87.11
	c-1.48,0.43-2.9,1.06-4.35,1.6c0.09,0.23,0.18,0.46,0.27,0.68c1.75,0,3.49,0,5.24,0c104.39,0,208.79,0,313.18,0
	c9.46,0,13.07,3.05,13.07,11.66c0.06,75.31,0.22,150.62-0.09,225.93c-0.1,24.35-14.66,43.63-36.75,50.84
	c-3.13,1.02-6.35,1.77-9.54,2.64c-41.33,0-82.65,0-123.98,0c-0.9-0.62-1.8-1.23-2.68-1.86c-3.31-2.37-4.62-5.64-3.83-9.57
	c0.8-3.95,3.38-6.43,7.31-7.26c1.84-0.39,3.79-0.37,5.68-0.37c35.6-0.02,71.2-0.01,106.8-0.02c24,0,38-13.87,38.02-37.76
	c0.03-40.21,0.01-80.41,0-120.62c0-1.7-0.15-3.39-0.23-5.14c-124.64,0-248.82,0-373.29,0c0,1.77,0,3.18,0,4.6
	c0,40.84-0.03,81.68,0.01,122.53c0.02,22.07,14.35,36.33,36.45,36.38c17.64,0.04,35.28,0.01,52.92,0.01
	c19.07,0,38.14-0.03,57.21,0.02c6.66,0.02,10.73,3.08,11.3,8.52C231.19,488.53,227.87,491.5,223.42,493.62z M320.51,40.91
	c2.14,1.73,3.58,2.73,4.82,3.92c19.36,18.57,38.89,36.97,57.9,55.88c5.09,5.07,9.38,6.7,16.32,4.06c9.25-3.5,18.99-5.71,29-8.61
	c-5.2-17.34-9.65-34.36-15.46-50.9c-5.23-14.88-22.04-23.36-37.44-20.05c-6.34,1.36-12.56,3.29-18.8,5.09
	C345.16,33.66,333.49,37.11,320.51,40.91z M153.29,175.95c-0.37-0.71-0.5-1.21-0.82-1.51c-22.09-21.25-44.18-42.5-66.36-63.66
	c-0.8-0.76-2.54-1.13-3.67-0.88c-19.1,4.21-30.46,21.32-26.85,40.62c0.93,4.97,2.52,9.82,3.92,14.69
	c3.32,11.53,6.72,23.04,10.2,34.94C97.83,192.01,125.49,184,153.29,175.95z M446.05,221.61c-13.16,0-25.85,0.12-38.54-0.08
	c-3.42-0.05-5.36,0.92-7.11,4c-11.75,20.7-23.75,41.26-35.64,61.87c-0.68,1.18-1.2,2.45-1.87,3.82c27.91,0,55.43,0,83.16,0
	C446.05,268.03,446.05,245.22,446.05,221.61z M72.99,291.6c13.04,0,25.72-0.12,38.4,0.08c3.42,0.06,5.36-0.91,7.1-3.98
	c11.66-20.55,23.55-40.97,35.36-61.44c0.75-1.3,1.42-2.64,2.38-4.42c-28.19,0-55.58,0-83.24,0
	C72.99,245.02,72.99,267.97,72.99,291.6z M368.27,113.65c0.4-0.57,0.79-1.15,1.19-1.72c-1.5-0.88-3.23-1.5-4.45-2.66
	c-17.8-16.99-35.52-34.07-53.29-51.1c-3.88-3.72-7.39-9.28-11.97-10.43c-4.57-1.15-10.28,2.09-15.45,3.57
	c-11.37,3.26-22.72,6.63-34.07,9.96c-0.35,0.54-0.7,1.08-1.05,1.63c1.47,0.91,3.15,1.59,4.37,2.75
	c19.4,18.54,38.93,36.94,57.96,55.86c5.12,5.09,9.39,6.56,16.4,4.11C341.13,121.01,354.78,117.58,368.27,113.65z M297.38,134.15
	c-23.09-22.18-45.4-43.65-67.8-65.02c-0.8-0.76-2.63-1.09-3.74-0.77c-15.82,4.46-31.61,9.07-47.4,13.65
	c-0.44,0.57-0.88,1.14-1.32,1.7c1.52,0.85,3.3,1.43,4.52,2.6c18.73,17.89,37.77,35.47,55.84,53.99c6.67,6.84,12.35,8.62,21.3,5.34
	C271.08,141.13,283.91,138.08,297.38,134.15z M225.12,155.1c-0.47-0.82-0.57-1.15-0.78-1.35c-22.1-21.25-44.19-42.5-66.37-63.67
	c-0.81-0.77-2.56-1.26-3.61-0.97c-15.97,4.48-31.91,9.11-47.87,13.72c0.21,0.64,0.22,1.02,0.41,1.21
	c22.18,21.39,44.36,42.78,66.61,64.1c0.75,0.72,2.35,1.21,3.31,0.94C192.82,164.54,208.78,159.86,225.12,155.1z M213.12,291.6
	c16.69,0,32.54-0.1,48.39,0.08c3.17,0.04,4.76-1.09,6.28-3.75c11.78-20.65,23.73-41.2,35.62-61.79c0.75-1.29,1.42-2.62,2.44-4.52
	c-16.74,0-32.6,0.1-48.45-0.08c-3.17-0.04-4.78,1.07-6.3,3.72c-11.86,20.79-23.87,41.49-35.83,62.22
	C214.66,288.54,214.13,289.67,213.12,291.6z M380.17,222.09c-0.84-0.22-1.29-0.44-1.73-0.44c-15.89-0.02-31.79-0.12-47.68,0.11
	c-1.54,0.02-3.62,1.68-4.48,3.15c-12.28,20.96-24.4,42.01-36.54,63.05c-0.58,1-0.95,2.12-1.62,3.64c16.35,0,32.08-0.1,47.8,0.08
	c3.29,0.04,5.07-1.01,6.69-3.86c11.78-20.7,23.74-41.29,35.62-61.93C378.92,224.71,379.48,223.45,380.17,222.09z M230.88,221.88
	c-1.87-0.11-3.24-0.25-4.61-0.25c-14.44-0.02-28.89,0.1-43.33-0.09c-3.32-0.04-5.05,1.1-6.66,3.94
	c-11.78,20.66-23.75,41.21-35.65,61.81c-0.69,1.19-1.28,2.43-2.14,4.08c1.89,0.1,3.26,0.23,4.62,0.23
	c14.44,0.01,28.89-0.09,43.33,0.08c3.26,0.04,5.05-0.96,6.7-3.86c11.75-20.68,23.72-41.23,35.61-61.83
	C229.44,224.79,230.02,223.54,230.88,221.88z"/>
<path d="M256.8,493.62c-0.89-0.62-1.8-1.22-2.68-1.86c-3.62-2.65-4.9-6.26-3.6-10.46c1.3-4.22,4.52-6.62,8.9-6.6
	c4.33,0.02,7.57,2.25,8.9,6.56c1.39,4.49-0.08,8.07-3.9,10.71c-0.9,0.62-1.9,1.1-2.86,1.64
	C259.98,493.62,258.39,493.62,256.8,493.62z"/>
<path d="M222.5,391.43c0-15.26-0.03-30.51,0.01-45.77c0.03-10.45,7.17-14.69,16.17-9.51c26.71,15.34,53.39,30.73,80.04,46.16
	c8.97,5.2,8.94,13.55-0.06,18.76c-26.65,15.44-53.32,30.83-80.03,46.18c-9.01,5.18-16.09,0.94-16.12-9.57
	C222.47,422.26,222.5,406.85,222.5,391.43z M241.8,423.4c18.45-10.64,36.33-20.95,54.98-31.71c-18.69-10.79-36.59-21.12-54.98-31.73
	C241.8,381.29,241.8,401.87,241.8,423.4z"/>
</svg>
