<?xml version="1.0" encoding="utf-8"?>
<!-- Generator: Adobe Illustrator 25.0.0, SVG Export Plug-In . SVG Version: 6.00 Build 0)  -->
<svg version="1.1" id="Layer_1" xmlns="http://www.w3.org/2000/svg" xmlns:xlink="http://www.w3.org/1999/xlink" x="0px" y="0px"
	 viewBox="0 0 3873 3873" style="enable-background:new 0 0 3873 3873;" xml:space="preserve">
<style type="text/css">
	.st0{fill-rule:evenodd;clip-rule:evenodd;}
</style>
<g id="Layer_x5F_1">
	<g id="_469475960">
		<path id="_469478168" class="st0" d="M3500.9,2940.1H372.2c-95.8,0-173.7-77.9-173.7-173.7V550.6c0-95.7,77.9-173.7,173.7-173.7
			h382.2c22,0,39.8,17.8,39.8,39.8s-17.8,39.8-39.8,39.8H372.2c-51.9,0-94.2,42.2-94.2,94.1v2215.7c0,51.9,42.2,94.1,94.1,94.1
			h3128.8c51.9,0,94.1-42.2,94.1-94.1V550.6c0-51.9-42.2-94.1-94.1-94.1h-382.2c-22,0-39.8-17.8-39.8-39.8s17.8-39.8,39.8-39.8
			h382.2c95.7,0,173.7,77.9,173.7,173.7v2215.7C3674.6,2862.2,3596.6,2940.1,3500.9,2940.1L3500.9,2940.1z"/>
		<path id="_469477544" class="st0" d="M3401.1,2706.4H471.9c-22,0-39.8-17.8-39.8-39.8V650.5c0-22,17.8-39.8,39.8-39.8h282.3
			c22,0,39.8,17.8,39.8,39.8s-17.8,39.8-39.8,39.8H511.7v1936.5h2849.6V690.3h-242.5c-22,0-39.8-17.8-39.8-39.8s17.8-39.8,39.8-39.8
			h282.3c22.1,0,39.8,17.8,39.8,39.8v2016.1C3440.9,2688.5,3423.1,2706.4,3401.1,2706.4L3401.1,2706.4z"/>
		<path id="_469477856" class="st0" d="M2707,3649.4H1166c-22.1,0-39.8-17.7-39.8-39.8v-125c0-90.9,73.9-164.8,164.8-164.8h131.9
			c-61.5-187.2,115.9-431.6,124.3-443c13.1-17.7,38-21.5,55.7-8.4c17.7,13,21.4,37.9,8.4,55.6c-54.8,74.5-177.8,293.8-91.7,412.2
			c8.7,12.1,10,28.2,3.2,41.5s-20.5,21.7-35.5,21.7H1291c-47,0-85.2,38.2-85.2,85.2v85.2h1461.4v-85.2c0-47-38.2-85.2-85.2-85.2
			h-196.4c-15,0-28.7-8.4-35.5-21.7c-6.9-13.3-5.5-29.4,3.2-41.5c86.4-118.8-36.9-337.8-91.7-412.2c-13.1-17.7-9.3-42.6,8.4-55.6
			c17.7-13.1,42.6-9.3,55.7,8.4c8.4,11.5,185.9,255.9,124.3,443h132c90.9,0,164.8,73.9,164.8,164.8v125
			C2746.8,3631.6,2728.9,3649.4,2707,3649.4L2707,3649.4z"/>
		<path id="_469478000" class="st0" d="M1936.5,3157c-54.1,0-98,44-98,97.9c0,54.1,44,98,98,98s98-44,98-98S1990.5,3157,1936.5,3157
			z M1936.5,3432.5c-97.9,0-177.6-79.7-177.6-177.6s79.7-177.5,177.6-177.5s177.6,79.6,177.6,177.5
			C2114.1,3352.9,2034.4,3432.5,1936.5,3432.5L1936.5,3432.5z"/>
		<path id="_469477736" class="st0" d="M907.6,303.2c-62.6,0-113.5,50.9-113.5,113.5V2047c0,62.6,50.9,113.5,113.5,113.5h2057.8
			c62.6,0,113.5-50.9,113.5-113.5V416.7c0-62.6-50.9-113.5-113.5-113.5H907.6L907.6,303.2z M2965.4,2240H907.6
			c-106.5,0-193.1-86.7-193.1-193.1V416.7c0-106.5,86.6-193.1,193.1-193.1h2057.8c106.5,0,193.1,86.6,193.1,193.1v1630.2
			C3158.5,2153.3,3071.9,2240,2965.4,2240L2965.4,2240z"/>
		<path id="_469478144" class="st0" d="M3118.7,772.5H754.2c-22.1,0-39.8-17.7-39.8-39.8c0-22,17.7-39.7,39.8-39.7h2364.5
			c22,0,39.8,17.7,39.8,39.7S3140.7,772.5,3118.7,772.5z"/>
		<path id="_469477448" class="st0" d="M999.2,542.7h132.6l-31.6-89.2h-69.4L999.2,542.7z M1188.2,622.3H942.9
			c-12.9,0-25.1-6.3-32.5-16.9c-7.4-10.6-9.3-24-5-36.2l59.8-168.8c5.7-15.9,20.6-26.6,37.5-26.6h125.7c16.9,0,31.9,10.6,37.5,26.6
			l59.9,168.8c4.3,12.2,2.4,25.7-5,36.2C1213.2,616,1201.1,622.3,1188.2,622.3z"/>
		<path id="_469476992" class="st0" d="M1401,542.7h132.6l-31.6-89.2h-69.4L1401,542.7L1401,542.7z M1590,622.3h-245.3
			c-12.9,0-25.1-6.3-32.5-16.9c-7.5-10.6-9.3-24-5-36.2l59.8-168.8c5.7-15.9,20.6-26.6,37.5-26.6h125.7c16.9,0,31.9,10.6,37.5,26.6
			l59.8,168.8c4.3,12.2,2.4,25.7-5,36.2C1615,616,1602.9,622.3,1590,622.3L1590,622.3z"/>
		<path id="_469477256" class="st0" d="M1802.9,542.7h132.6l-31.6-89.2h-69.4L1802.9,542.7L1802.9,542.7z M1991.8,622.3h-245.3
			c-12.9,0-25.1-6.3-32.5-16.9c-7.5-10.6-9.3-24-5-36.2l59.8-168.8c5.7-15.9,20.6-26.6,37.5-26.6H1932c16.9,0,31.9,10.6,37.5,26.6
			l59.9,168.8c4.3,12.2,2.4,25.7-5,36.2C2016.9,616,2004.7,622.3,1991.8,622.3z"/>
		<path id="_469477232" class="st0" d="M2204.7,542.7h132.7l-31.7-89.2h-69.4L2204.7,542.7L2204.7,542.7z M2393.7,622.3h-245.3
			c-12.9,0-25.1-6.3-32.5-16.9c-7.5-10.6-9.3-24-5-36.2l59.8-168.8c5.7-15.9,20.6-26.6,37.5-26.6h125.7c16.9,0,31.9,10.6,37.5,26.6
			l59.9,168.8c4.3,12.2,2.4,25.7-5,36.2C2418.7,616,2406.6,622.3,2393.7,622.3L2393.7,622.3z"/>
		<path id="_469477064" class="st0" d="M2401.5,1452.4c13.7,0,27.2,7.2,34.5,19.9l146.6,253.8l95.3-55l-146.6-253.8
			c-5.3-9.1-6.7-20-3.9-30.2c2.7-10.2,9.4-18.8,18.5-24.2l27-15.6l-218.3-126v252l27.1-15.6
			C2387.8,1454.1,2394.7,1452.4,2401.5,1452.4L2401.5,1452.4z M2568,1820.3c-13.7,0-27.2-7.1-34.6-19.9L2387,1546.5l-52.3,30.2
			c-12.3,7.1-27.5,7.1-39.8,0s-19.9-20.3-19.9-34.5v-389.9c0-14.2,7.6-27.3,19.9-34.5c12.3-7.1,27.5-7.1,39.8,0l337.6,194.9
			c12.3,7.1,19.9,20.3,19.9,34.5c0,14.3-7.6,27.3-19.9,34.5l-52.2,30.2l146.5,253.8c5.3,9.1,6.8,19.9,4,30.2
			c-2.7,10.2-9.4,18.8-18.5,24.2l-164.2,94.7C2581.5,1818.6,2574.7,1820.3,2568,1820.3L2568,1820.3z"/>
		<path id="_469476968" class="st0" d="M1674.3,1342.3c-16,0-31.2-9.8-37.2-25.6l-132.5-347.3c-7.9-20.5,2.5-43.6,23-51.4
			c20.5-7.9,43.5,2.4,51.4,22.9l132.5,347.3c7.8,20.5-2.5,43.6-23,51.4C1683.8,1341.4,1679,1342.3,1674.3,1342.3L1674.3,1342.3z"/>
		<path id="_469476728" class="st0" d="M1385.3,1342.3c-8,0-16.1-2.4-23.1-7.3l-244.4-173.7c-10.5-7.5-16.7-19.5-16.7-32.5
			c0-12.8,6.2-25,16.7-32.5l244.4-173.7c18-12.7,42.8-8.5,55.6,9.4c12.8,18,8.5,42.8-9.4,55.5l-198.7,141.2l198.7,141.3
			c17.9,12.7,22.1,37.5,9.4,55.5C1410,1336.5,1397.7,1342.3,1385.3,1342.3L1385.3,1342.3z"/>
		<path id="_469477160" class="st0" d="M1830.7,1342.3c-12.4,0-24.7-5.8-32.5-16.7c-12.7-18-8.5-42.8,9.4-55.5l198.7-141.3
			l-198.7-141.3c-17.9-12.7-22.1-37.5-9.4-55.5c12.7-17.9,37.6-22.1,55.5-9.4l244.4,173.7c10.6,7.6,16.8,19.6,16.8,32.5
			s-6.2,25-16.8,32.5L1853.7,1335C1846.7,1339.9,1838.7,1342.3,1830.7,1342.3L1830.7,1342.3z"/>
		<path id="_469476320" class="st0" d="M1984.7,1567.4h-753.5c-22,0-39.8-17.8-39.8-39.8s17.8-39.8,39.8-39.8h753.5
			c22,0,39.8,17.8,39.8,39.8C2024.5,1549.5,2006.7,1567.4,1984.7,1567.4L1984.7,1567.4z"/>
		<path id="_469476224" class="st0" d="M1984.7,1792.5h-753.5c-22,0-39.8-17.8-39.8-39.8s17.8-39.8,39.8-39.8h753.5
			c22,0,39.8,17.8,39.8,39.8S2006.7,1792.5,1984.7,1792.5L1984.7,1792.5z"/>
		<path id="_469476008" class="st0" d="M1984.7,2017.7h-753.5c-22,0-39.8-17.8-39.8-39.8s17.8-39.8,39.8-39.8h753.5
			c22,0,39.8,17.8,39.8,39.8S2006.7,2017.7,1984.7,2017.7L1984.7,2017.7z"/>
	</g>
</g>
</svg>
