<?xml version="1.0" encoding="utf-8"?>
<!-- Generator: Adobe Illustrator 25.0.0, SVG Export Plug-In . SVG Version: 6.00 Build 0)  -->
<svg version="1.1" id="Layer_1" xmlns="http://www.w3.org/2000/svg" xmlns:xlink="http://www.w3.org/1999/xlink" x="0px" y="0px"
	 viewBox="0 0 800 800" style="enable-background:new 0 0 800 800;" xml:space="preserve">
<style type="text/css">
	.st0{fill:#06ABE1;}
</style>
<g>
	<g>
		<g>
			<path class="st0" d="M135.3,363.9h72.2V243.6h-72.2V363.9z M159.3,267.6h24.1v72.2h-24.1V267.6z"/>
			<path class="st0" d="M231.5,363.9h72.2V219.5h-72.2V363.9z M255.6,243.6h24.1v96.3h-24.1V243.6z"/>
			<path class="st0" d="M291.7,604.6h-96.3v-96.3h-12c-59.7,0-108.3,48.6-108.3,108.3c0,59.7,48.6,108.3,108.3,108.3
				s108.3-48.6,108.3-108.3V604.6z M183.4,700.8c-46.4,0-84.2-37.8-84.2-84.2c0-42.4,31.4-77.5,72.2-83.4v95.4h95.4
				C260.9,669.4,225.8,700.8,183.4,700.8z"/>
			<rect x="291.7" y="700.8" class="st0" width="216.6" height="24.1"/>
			<rect x="532.4" y="700.8" class="st0" width="24.1" height="24.1"/>
			<path class="st0" d="M773,303.7v-84.2h-84.2v24.1H732l-117,117c-3.3-2.9-6.8-5.7-10.4-8.4V130.3L501.3,27H27V773h577.6v-67.2
				l12-12l63.3,63.3c10.3,10.3,24,16,38.6,16c30.1,0,54.6-24.5,54.6-54.6c0-14.6-5.7-28.3-16-38.6l-63.3-63.3l15.6-15.6l-17-17
				l-15.6,15.6l-20.4-20.4c12.9-24.9,20.4-53,20.4-83c0-45.4-17-86.9-44.8-118.7l117-117v43.2H773z M508.3,68l55.2,55.2h-55.2V68z
				 M580.5,147.3v189.5c-7.7-4.1-15.8-7.5-24.1-10.5v-179H580.5z M532.4,147.3v172.1c-11.7-2.4-23.7-3.6-36.1-3.6V171.4h-72.2v159.6
				c-8.4,3.7-16.4,8-24.1,12.9V123.2h-72.2v240.7H374c-8.1,7.5-15.5,15.7-22.1,24.5V388H99.2V99.2h385.1v48.1H532.4z M472.2,195.4
				v122.1c-8.2,1.1-16.2,2.7-24.1,4.9V195.4H472.2z M375.9,147.3v192.5h-24.1V147.3H375.9z M580.5,749H51V51h433.2v24.1H75.1V412
				h261.7c-13.3,25.2-21,53.8-21,84.2c0,1.6,0.2,3.1,0.2,4.6c-19.9-24.8-50.3-40.7-84.5-40.7h-12v120.3h117.3
				c30.3,57.2,90.4,96.3,159.5,96.3c29.9,0,58.1-7.4,83-20.4l1.3,1.3V749z M314.9,556.4h-71.3v-71.3
				C280.4,490.4,309.6,519.6,314.9,556.4z M740,696.9c5.8,5.8,8.9,13.4,8.9,21.6c0,16.8-13.7,30.5-30.5,30.5
				c-8.1,0-15.8-3.2-21.6-8.9l-63.3-63.3l43.2-43.2L740,696.9z M659.8,616.6l-43.2,43.2l-12-12v-7.4c14.9-11.3,28.1-24.7,38.9-40
				L659.8,616.6z M652.7,496.3c0,86.3-70.2,156.4-156.4,156.4s-156.4-70.2-156.4-156.4S410,339.8,496.3,339.8
				c38.8,0,74.3,14.3,101.6,37.8l-17,17c-23-19.1-52.5-30.7-84.6-30.7c-73,0-132.4,59.4-132.4,132.4s59.4,132.4,132.4,132.4
				s132.4-59.4,132.4-132.4c0-32.2-11.6-61.7-30.7-84.6l17-17C638.4,422,652.7,457.5,652.7,496.3z M504.8,504.8l76-76
				c14.8,18.5,23.8,42,23.8,67.5c0,59.7-48.6,108.3-108.3,108.3S388,556,388,496.3S436.6,388,496.3,388c25.5,0,49,8.9,67.5,23.8
				l-76,76L504.8,504.8z"/>
		</g>
	</g>
</g>
</svg>
