<?xml version="1.0" encoding="utf-8"?>
<!-- Generator: Adobe Illustrator 25.0.0, SVG Export Plug-In . SVG Version: 6.00 Build 0)  -->
<svg version="1.1" id="Layer_1" xmlns="http://www.w3.org/2000/svg" xmlns:xlink="http://www.w3.org/1999/xlink" x="0px" y="0px"
	 viewBox="0 0 500 500" style="enable-background:new 0 0 500 500;" xml:space="preserve">
<path d="M381.2,459.65c0.44,5.16,0.94,10,1.24,14.85c0.4,6.54-2.59,9.85-9.06,9.86c-45.89,0.04-91.78,0.04-137.67,0
	c-6.78,0-9.73-3.27-9.28-10.11c0.3-4.53,0.77-9.04,1.21-14.18c-7.72-1.34-15.17-2.67-22.64-3.92c-21.48-3.6-42.97-7.15-64.45-10.76
	c-6.71-1.13-9.11-4.86-7.22-11.49c20.5-71.86,41.03-143.7,61.58-215.54c1.82-6.35,4.71-8.06,11.23-7.05
	c1.74,0.27,3.48,0.48,5.65,0.78c1.34-6.64,2.61-12.93,4.04-20.04c-2.93,0.91-5.2,1.5-7.38,2.31c-17.62,6.63-35.29,13.12-52.79,20.06
	c-4.93,1.96-9.42,5.11-13.93,7.99c-10.87,6.95-18.54,15.93-20.07,29.51c-0.87,7.67-3.21,15.18-4.96,23.09
	c-5.13-1.1-9.84-2.1-15.18-3.25c1.86-8.49,4.21-16.6,5.32-24.87c2.12-15.78,11.16-26.63,23.45-35.52
	c16.83-12.17,36-19.28,55.45-25.81c12.01-4.04,24.05-8.01,35.93-12.39c4.98-1.84,9.83-4.31,14.34-7.13
	c29.34-18.39,58.54-37.02,87.9-55.38c3.21-2.01,4.54-4.04,2.9-7.37c-1.71-3.45-3.29-7.15-5.78-9.99c-5.51-6.27-8.12-6.45-15.46-2.45
	c-20.69,11.28-41.29,22.75-62.14,33.71c-4.74,2.49-10.33,4.24-15.65,4.62c-28.39,2.06-56.82,3.59-85.24,5.28
	c-4.66,0.28-8.31-1.39-10.21-5.89c-1.83-4.36-0.31-7.89,2.91-10.96c15.88-15.17,31.73-30.39,47.66-45.52
	c3.62-3.44,5.27-7.47,4.11-12.3c-1.07-4.46-4.04-7.82-8.58-8.3c-3.14-0.34-7.13,0.13-9.6,1.86c-23.44,16.44-47.14,32.56-69.71,50.13
	c-15.28,11.89-26,28.28-34.65,45.51c-7.93,15.8-14.7,32.19-21.7,48.44c-6.8,15.78-13.24,31.72-19.98,47.96
	c-5.14-2.24-9.69-4.23-14.52-6.33c1.17-2.73,2.19-5.09,3.19-7.45c10.76-25.6,21.07-51.41,32.41-76.75
	c10.16-22.72,23.87-43.25,41.88-60.68c1.4-1.35,2.88-2.65,4.45-3.78c22.71-16.34,45.43-32.66,68.17-48.95
	c12.93-9.26,28.57-7.76,38.18,3.58c9.67,11.42,8.42,27.33-3.17,38.56c-10.4,10.08-20.92,20.03-31.38,30.05
	c-1.12,1.08-2.15,2.25-3.98,4.18c9.42-0.56,17.8-0.98,26.15-1.65c1.29-0.1,2.59-1.25,3.73-2.12c27.4-20.95,54.78-41.9,82.12-62.92
	c1.9-1.46,3.56-3.33,5.01-5.25c5.3-7,10.28-14.25,15.72-21.14c7.99-10.13,21.98-12.01,32.33-4.65c10.26,7.3,13.03,21.25,6.29,32.12
	c-2.27,3.65-4.77,7.16-6.58,11.45c3.5-1.9,6.98-3.84,10.51-5.7c13.6-7.15,29.06-3.44,37,8.84c7.8,12.06,4.9,27.55-6.74,37.16
	c-1.19,0.98-2.41,3.32-2.05,4.59c8.48,30.18,17.18,60.3,25.85,90.42c0.08,0.29,0.33,0.54,0.71,1.13c4.07-1.16,8.24-2.35,12.41-3.54
	c8.46-2.42,11.07-1.11,14.01,7.11c14.42,40.38,28.83,80.77,43.25,121.16c10.81,30.29,21.62,60.58,32.42,90.88
	c3.29,9.24,1.71,12.2-7.73,14.88c-32.49,9.23-64.97,18.49-97.45,27.75C383.9,458.63,382.86,459.06,381.2,459.65z M264.7,211.22
	c-7.36,85.82-14.69,171.42-22.04,257.18c41.47,0,82.34,0,123.54,0c-7.38-86.01-14.72-171.63-22.05-257.18
	C317.36,211.22,291.22,211.22,264.7,211.22z M473.95,416.68c-24.42-68.38-48.63-136.15-72.87-204.01
	c-13.79,3.96-26.84,7.71-40.13,11.53c6.28,73.26,12.53,146.1,18.81,219.39C411.18,434.6,442.19,425.75,473.95,416.68z
	 M208.51,227.45c-19.48,68.19-38.78,135.76-58.21,203.75c26.46,4.42,52.37,8.76,78.73,13.16c6.04-70.55,12.06-140.78,18.11-211.37
	C233.99,231.11,221.49,229.32,208.51,227.45z M327.61,126.78c-10.89,6.86-21.31,13.38-31.67,19.97c-4.92,3.13-11.61,5.38-14.1,9.9
	c-2.49,4.52-0.79,11.38-0.83,17.21c-0.05,7.08-0.01,14.17-0.01,21.09c16.04,0,31.38,0,46.62,0
	C327.61,172.19,327.61,149.83,327.61,126.78z M214.42,113.47c0.19,0.61,0.38,1.22,0.57,1.83c6.84-1.34,14.35-1.3,20.38-4.27
	c17.61-8.68,34.64-18.55,51.87-28c1.54-0.84,3.32-1.73,4.26-3.1c8.34-12.02,16.61-24.09,24.68-36.28c2.46-3.72,1.23-8.43-2.18-10.83
	c-3.67-2.58-8.24-1.97-11.25,1.86c-3.52,4.47-6.96,9.02-10.1,13.76c-5.46,8.25-12.34,14.93-20.32,20.77
	c-12.73,9.31-25.11,19.08-37.63,28.67C227.94,103.06,221.18,108.27,214.42,113.47z M347.07,115.25c-0.55-0.11-1.1-0.22-1.65-0.33
	c-0.64,1.77-1.83,3.53-1.84,5.3c-0.12,24.05-0.09,48.11-0.06,72.16c0,0.92,0.25,1.84,0.44,3.18c9.88-1.71,16.4,1.02,15.6,12.74
	c4.74-1.39,8.7-2.54,13.02-3.81C363.97,174.41,355.52,144.83,347.07,115.25z M248.41,217.31c0.48-5.17,0.87-9.52,1.3-13.86
	c0.52-5.28,3.24-7.89,8.47-8.1c2.23-0.09,4.46-0.01,6.9-0.01c0-9.74,0-19.03,0-28.8c-10.64,6.43-20.88,12.58-31.06,18.84
	c-0.69,0.43-1.16,1.55-1.34,2.43c-1.79,8.7-3.49,17.42-5.31,26.56C234.5,215.37,241.19,216.3,248.41,217.31z M343.14,98.46
	c3.4-2.21,7.51-4.53,11.2-7.38c4.9-3.79,6.01-10.25,3.08-15.3c-2.86-4.95-8.91-7.39-14.32-5.09c-4.99,2.13-9.64,5.02-13.75,7.2
	C334.01,84.83,338.38,91.35,343.14,98.46z"/>
<path d="M296.61,226.79c5.46,0,10.27,0,15.62,0c0,2.1,0,4,0,5.9c0,60.01,0.03,120.03-0.09,180.04c-0.01,3.54,1.02,5.49,4.11,7.26
	c10.41,5.97,20.62,12.28,31.22,18.65c-2.73,4.55-5.28,8.8-8,13.33c-9.8-5.88-19.44-11.24-28.6-17.32c-4.77-3.17-8.33-2.96-13,0.11
	c-9.08,5.98-18.59,11.31-28.45,17.23c-2.65-4.37-5.23-8.61-8.07-13.3c10.25-6.17,20.27-12.44,30.55-18.25
	c3.57-2.02,4.82-4.22,4.8-8.35c-0.15-59.69-0.1-119.38-0.1-179.07C296.61,231.09,296.61,229.16,296.61,226.79z"/>
</svg>
