<?xml version="1.0" encoding="utf-8"?>
<!-- Generator: Adobe Illustrator 25.0.0, SVG Export Plug-In . SVG Version: 6.00 Build 0)  -->
<svg version="1.1" id="Layer_1" xmlns="http://www.w3.org/2000/svg" xmlns:xlink="http://www.w3.org/1999/xlink" x="0px" y="0px"
	 viewBox="0 0 800 800" style="enable-background:new 0 0 800 800;" xml:space="preserve">
<style type="text/css">
	.stmpsms0{fill:#06ABE1;}
</style>
<g>
	<g>
		<g>
			<path class="stmpsms0" d="M729.2,302.5c-6.7-22.5-15.8-44.3-27-65.1l36.1-36.1L599.7,62.8l-36.1,36.1c-20.8-11.3-42.6-20.3-65.1-27
				v-51h-196v51c-22.5,6.7-44.3,15.8-65.1,27l-36.1-36.1L62.8,201.3l36.1,36.1c-11.3,20.8-20.3,42.6-27,65.1h-51v196h51
				c6.7,22.5,15.8,44.3,27,65.1l-36.1,36.1l138.6,138.6l36.1-36.1c20.8,11.3,42.6,20.3,65.1,27v51h196v-51
				c22.5-6.7,44.3-15.8,65.1-27l36.1,36.1l138.6-138.6l-36.1-36.1c11.3-20.8,20.3-42.6,27-65.1h51v0v-196H729.2z M755.7,474h-45.2
				l-2.4,9.1c-7.1,26.6-17.8,52.4-31.7,76.5l-4.7,8.1l32,32L599.7,703.6l-32-32l-8.1,4.7c-24.1,13.9-49.8,24.6-76.5,31.7l-9.1,2.4
				v45.2H327v-45.2l-9.1-2.4c-26.7-7.1-52.4-17.8-76.5-31.7l-8.1-4.7l-32,32L97.4,599.7l32-32l-4.7-8.1
				c-13.9-24.1-24.6-49.8-31.7-76.5l-2.4-9.1H45.3V327h45.2l2.4-9.1c7.1-26.7,17.8-52.4,31.7-76.5l4.7-8.1l-32-32L201.3,97.4l32,32
				l8.1-4.7c24.1-13.9,49.8-24.6,76.5-31.7l9.1-2.4V45.3h147v45.2l9.1,2.4c26.6,7.1,52.4,17.8,76.5,31.7l8.1,4.7l32-32l103.9,103.9
				l-32,32l4.7,8.1c13.9,24.1,24.6,49.8,31.7,76.5l2.4,9.1h45.2V474z"/>
			<path class="stmpsms0" d="M400.5,131.1c-148.6,0-269.4,120.9-269.4,269.4s120.9,269.4,269.4,269.4s269.4-120.9,269.4-269.4
				S549.1,131.1,400.5,131.1z M400.5,645.4c-135.1,0-244.9-109.9-244.9-244.9s109.9-244.9,244.9-244.9s244.9,109.9,244.9,244.9
				S535.6,645.4,400.5,645.4z"/>
			<path class="stmpsms0" d="M522.1,302.5c-6.1-48.3-47.3-85.7-97.1-85.7h-49c-49.9,0-91.1,37.5-97.1,85.7H278c-54,0-98,44-98,98
				s44,98,98,98h24.5V314.8c0-40.5,33-73.5,73.5-73.5h49c40.5,0,73.5,33,73.5,73.5v171.5v12.2V523c0,13.5-11,24.5-24.5,24.5h-26.7
				c-5.1-14.2-18.5-24.5-34.5-24.5h-24.5c-20.3,0-36.7,16.5-36.7,36.7s16.5,36.7,36.7,36.7h24.5c15.9,0,29.4-10.3,34.5-24.5H474
				c27,0,49-22,49-49v-24.5c54,0,98-44,98-98s-44-98-98-98H522.1z M229,455.1c-15-13.5-24.5-32.9-24.5-54.6s9.5-41.2,24.5-54.6
				V455.1z M278,474c-8.6,0-16.8-1.6-24.5-4.3V331.3c7.7-2.7,15.9-4.3,24.5-4.3V474z M412.7,572h-24.5c-6.8,0-12.2-5.5-12.2-12.2
				c0-6.8,5.5-12.2,12.2-12.2h24.5c6.8,0,12.2,5.5,12.2,12.2C425,566.5,419.5,572,412.7,572z M572,345.9
				c15,13.5,24.5,32.9,24.5,54.6s-9.5,41.2-24.5,54.6V345.9z M547.5,469.7c-7.7,2.7-15.9,4.3-24.5,4.3V327c8.6,0,16.8,1.6,24.5,4.3
				V469.7z"/>
			<path class="stmpsms0" d="M474,400.5c0-40.5-33-73.5-73.5-73.5S327,360,327,400.5s33,73.5,73.5,73.5S474,441,474,400.5z M351.5,400.5
				c0-27,22-49,49-49c27,0,49,22,49,49c0,27-22,49-49,49S351.5,427.5,351.5,400.5z"/>
		</g>
	</g>
</g>
</svg>
