<?xml version="1.0" encoding="utf-8"?>
<!-- Generator: Adobe Illustrator 25.0.0, SVG Export Plug-In . SVG Version: 6.00 Build 0)  -->
<svg version="1.1" id="Layer_1" xmlns="http://www.w3.org/2000/svg" xmlns:xlink="http://www.w3.org/1999/xlink" x="0px" y="0px"
	 viewBox="0 0 800 800" style="enable-background:new 0 0 800 800;" xml:space="preserve">
<style type="text/css">
	.stmpai0{fill:#06ABE1;}
</style>
<g>
	<path class="stmpai0" d="M746.3,58.2c0-14.5-11.4-26.2-25.5-26.2H462.9v105.6c6.4-3.7,13.8-5.7,21.6-5.7c24.6,0,44.5,20.5,44.5,45.8
		c0,25.3-19.9,45.8-44.5,45.8c-7.8,0-15.2-2.1-21.6-5.7v105.6h102.7c-3.6,6.6-5.6,14.1-5.6,22.2c0,25.3,19.9,45.8,44.5,45.8
		c24.6,0,44.5-20.5,44.5-45.8c0-8-2-15.6-5.6-22.2h102.7V58.2z"/>
	<path class="stmpai0" d="M631.4,425.5H501.9c-4.5,0-8.7,2.5-11,6.5l0.1-0.2l-0.1,0.2c-1.2,2-1.8,4.4-1.8,6.7c0,2.2,0.5,4.4,1.6,6.4
		l8.2,15.1c1.8,3.4,2.7,7,2.7,10.9c0,6-2.3,11.6-6.4,15.9c-4.2,4.3-9.6,6.6-15.4,6.6c-5.9,0-11.3-2.3-15.5-6.6l0,0
		c-4.1-4.3-6.4-9.9-6.4-15.9c0-3.9,0.9-7.5,2.7-10.9l8.2-15.1c1.1-2,1.6-4.2,1.6-6.4c0-2.3-0.6-4.6-1.8-6.7c-2.3-4-6.5-6.5-11-6.5
		h-96.9v-53.3c17.5-0.3,34-7.4,46.4-20.1c12.7-13,19.7-30.4,19.7-48.9c0-18.4-7-35.9-19.7-48.9c-12.4-12.8-28.9-19.8-46.4-20.1
		v-86.9c0-7.3-5.7-13.2-12.8-13.2H80.2c-12.8,0-25,5.2-34.1,14.5c-9,9.3-14.1,22-14.1,35.1V714c0,13.2,5,25.7,14.1,35
		c9,9.2,21.3,14.5,34.1,14.5H596c12.7,0,25.1-5.3,34-14.5c9.1-9.3,14.1-21.8,14.1-35V438.7C644.2,431.4,638.4,425.5,631.4,425.5z
		 M71.6,183.8c0-3,1.4-5.1,2.5-6.3c1.2-1.2,3.2-2.6,6.1-2.6h241v105.6c0,2.5,1.3,4.9,3.4,6.2c1.1,0.7,2.3,1,3.5,1
		c1.2,0,2.3-0.3,3.4-0.9l14.7-8.4c4.1-2.4,8.7-3.6,13.4-3.6c7.4,0,14.3,3,19.6,8.3c5.2,5.4,8.1,12.5,8.1,20.1
		c0,7.6-2.9,14.7-8.1,20.1c-5.2,5.4-12.2,8.3-19.6,8.3c-4.8,0-9.3-1.2-13.4-3.6l-14.7-8.4c-1.1-0.6-2.2-0.9-3.4-0.9
		c-1.2,0-2.4,0.3-3.5,1c-2.1,1.3-3.4,3.6-3.4,6.2v105.6h-63.6c0.1-1.6,0.2-3.2,0.2-4.8c0-16.9-6.4-32.7-18-44.6
		c-11.6-11.9-27-18.5-43.4-18.5c-16.4,0-31.8,6.6-43.4,18.5c-11.6,11.9-18,27.8-18,44.6c0,1.6,0.1,3.2,0.2,4.9H71.6V183.8z
		 M321.2,722.9h-241c-2.9,0-5-1.4-6.1-2.6c-1.2-1.2-2.5-3.3-2.5-6.3V466.2h102.7c2.5,0,4.8-1.3,6-3.5c1.3-2.2,1.3-4.9,0.1-7.1
		l-8.2-15.1c-2.3-4.3-3.5-8.9-3.5-13.8c0-7.6,2.9-14.7,8.1-20.1c5.2-5.4,12.2-8.3,19.6-8.3s14.3,3,19.5,8.3
		c5.2,5.4,8.1,12.5,8.1,20.1c0,4.9-1.2,9.5-3.5,13.8l-8.2,15.1c-1.2,2.2-1.2,4.9,0.1,7.1c1.3,2.2,3.5,3.5,6,3.5h102.7v65.4
		c-1.6-0.1-3.2-0.2-4.7-0.2c-16.4,0-31.8,6.6-43.4,18.5c-11.6,11.9-18,27.8-18,44.6c0,16.9,6.4,32.7,18,44.6
		c11.6,11.9,27,18.5,43.4,18.5c1.6,0,3.1-0.1,4.7-0.2V722.9z M604.6,714c0,3-1.4,5.1-2.5,6.3c-1.2,1.2-3.2,2.6-6.1,2.6H355V617.3
		c0-2.5-1.3-4.9-3.4-6.2c-1.1-0.7-2.3-1-3.5-1c-1.2,0-2.3,0.3-3.4,0.9l-14.7,8.4c-4.1,2.4-8.6,3.6-13.4,3.6c-7.4,0-14.3-3-19.5-8.3
		c-5.2-5.4-8.1-12.5-8.1-20.1c0-7.6,2.9-14.7,8.1-20.1c5.2-5.4,12.2-8.3,19.6-8.3c4.7,0,9.2,1.2,13.4,3.6l14.7,8.4
		c1.1,0.6,2.2,0.9,3.4,0.9c1.2,0,2.4-0.3,3.5-1c2.1-1.3,3.4-3.6,3.4-6.2V466.2h63.6c-0.1,1.6-0.2,3.2-0.2,4.9
		c0,16.9,6.4,32.7,18,44.6c11.6,11.9,27,18.5,43.4,18.5c16.4,0,31.8-6.6,43.4-18.5c11.6-11.9,18-27.8,18-44.6c0-1.6-0.1-3.2-0.2-4.9
		h63.6L604.6,714L604.6,714z"/>
</g>
</svg>
