<svg xmlns="http://www.w3.org/2000/svg" viewBox="0 0 1100 346"><path fill="#002050" d="M0 0h.81l205.05 111.96q.59.33.04.72l-68.7 49.55q-.46.33-.97.08L-.05 95.55 0 0ZM525.75 92.23l9.12.06q.56.01.53.57l-.2 3.53a.65.65 0 0 1-.65.61h-8.8q-.5 0-.5.5v35.87q0 .63-.63.63h-4.12q-.75 0-.75-.75V97.5q0-.5-.5-.5h-5.75q-.75 0-.75-.75V93q0-.75.75-.75h5.78q.61 0 .58-.61c-.53-11.23 1.66-22.81 16.49-19.39q.65.15.65.82v3.9q0 .68-.63.42c-11.48-4.64-11.38 7.34-11.08 14.39q.02.45.46.45Z"/><circle cx="335.69" cy="78.29" r="3.83" fill="#002050"/><path fill="#002050" d="M318.06 86.58a.11.11 0 0 0-.21-.05l-21.07 46.69a1.75 1.74 44.9 0 1-3.18 0L272.84 87.6a.31.31 0 0 0-.59.13v45.64q0 .63-.63.63h-4.12q-.75 0-.75-.75V76.38q0-.63.63-.63h5.47q.56 0 .79.51l21.32 47.44a.55.54-55.7 0 0 1.04-.2q.01-.2 0-.41-.02-.48.18-.93l20.8-45.81q.27-.6.92-.6h4.85q.75 0 .75.75v57q0 .5-.5.5h-4.39q-.64 0-.64-.64l.09-46.78ZM549.25 92.25h9.63q.62 0 .62.63v3.49q0 .63-.63.63h-9.58q-.51 0-.51.51-.09 12.03-.02 23.96c.03 6.26 3.17 11.34 10.14 7.21q.6-.35.6.35v3.77q0 .54-.49.77c-7.11 3.37-15.3.15-15.37-8.59q-.12-13.71-.17-27.47 0-.49-.49-.5l-6.55-.04q-1.1-.01-.42-.87.96-1.22.06-2.63a.8.79 73.8 0 1 .67-1.22H543q.5 0 .5-.5v-9.41q0-.52.5-.68l4.13-1.31q.62-.19.62.46v10.94q0 .5.5.5ZM345.56 105.45c4.48-12.4 16.15-17.06 28.61-12.34q.58.22.58.84v4.31q0 .83-.74.43c-22.71-12.38-32.93 22.35-15.84 30.33 5.35 2.49 10.73 1.05 15.91-1.88q.68-.38.68.39l-.02 3.93q0 .6-.54.86c-19.09 9.53-35.49-7.93-28.64-26.87ZM404.91 98.17c7.78-9.43 24.2-9.1 31.11.48 4.93 6.85 5.46 18.42 1.49 25.97q-6.38 12.15-21.74 9.71c-16.54-2.62-20.22-24.81-10.86-36.16Zm10.45-1.33c-14.41 6-12.87 31.79 3.29 33.22 14.71 1.31 17.98-13.58 14.81-24.55-2.27-7.86-11.18-11.55-18.1-8.67ZM459.1 129.36c5.05-1.33 6.02-7.66 2.08-10.8-3.58-2.86-12.94-4.67-15.6-9.11q-4.08-6.83-.49-12.14c4.7-6.96 14.84-7.34 22.18-4.25q.48.2.48.72v4.67q0 .68-.58.33-6.21-3.73-12.64-2.52c-7.44 1.41-6.93 9.73-.48 12.66q8.18 3.72 10.41 5.09c5.26 3.22 6.37 11.57 2 16.2-5.5 5.84-15.89 5.42-22.65 2.21q-.56-.27-.56-.89v-4.8q0-.81.66-.33 7.03 5.12 15.19 2.96ZM472.67 109.45c1.41-11.98 10.56-19.38 22.61-18.01 16.65 1.89 20.77 20.6 14.55 33.37-5.95 12.21-23.91 13.26-32.34 3.8-4.67-5.23-5.63-12.28-4.82-19.16Zm17.61-13.03c-19.59 2.41-15.17 40.03 6.85 32.97 9.25-2.97 11.31-14.47 9.06-22.58q-3.32-11.94-15.91-10.39ZM384.69 92.89c.05.55-.11 6.74.21 6.79q.4.07.55-.31 3.59-8.97 13.43-7.66a1.58 1.57 3.7 0 1 1.37 1.56v3.95q0 .5-.46.32c-18.95-7.17-15.07 27.4-15.03 35.76q0 .7-.7.7h-3.81q-.75 0-.75-.75V92.87q0-.62.63-.62H384q.64 0 .69.64Z"/><rect width="5.5" height="41.76" x="333" y="92.25" fill="#002050" rx=".6"/><path fill="#002050" d="M0 345.19v-234l.25-.07q.17-.04.33.06l67.84 44.2a1.14 1.13 25.9 0 1 .46 1.31L9.9 332.35a.32.32 0 0 0 .53.32L213.5 122.32a.29.29 0 0 1 .5.2v105.96q0 .57-.5.85Q106.97 287.41.51 345.44q-.18.1-.29-.08-.09-.15-.22-.17Z"/><circle cx="702.75" cy="152.77" r="7.03" fill="#002050"/><path fill="#002050" d="M922.24 199.98c9.49 2.34 16.32 4.39 21.15 13.04 5.31 9.51 4.12 22.18-2.39 30.99-12.38 16.76-42.44 18.6-59.53 9.07q-.47-.27-.47-.81v-15.76a.29.29 0 0 1 .46-.23c10.67 8.03 28.97 12.24 40.52 3.38 8.84-6.77 9.25-20.94-.59-27.04-7.78-4.83-18.82-5.06-27.97-4.56q-1.42.08-1.42-1.34v-11.47q0-1.77 1.77-1.63c8.49.67 20.49.16 26.81-5.87q7.05-6.72 3.5-17.59c-1.86-5.72-7.26-8.35-13.16-9.24q-14.07-2.12-25.38 7.31a.33.33 0 0 1-.54-.25v-14.95q0-.58.52-.85c22.03-11.43 65.36-7.51 56.54 28.66-2.41 9.89-10.34 16.1-19.82 18.75a.2.2 0 0 0 0 .39ZM973.88 199.3c10.26-13.98 33.98-15.05 45.73-2.39 7.61 8.2 9.99 21.51 7.99 32.36-3.19 17.33-16.11 28.88-34.12 29.48-23.38.79-34.86-17.86-37.47-38.5-5.08-40.15 14.34-85.26 63.85-71.52q1.14.32 1.14 1.5v14.96a.33.33 0 0 1-.49.29c-13.33-7.5-31.4-6.73-40.24 7.83q-7.11 11.71-6.72 25.89.01.54.33.1Zm9.29 5.77c-18.89 11.68-5.23 47.36 16.93 37.49 11.88-5.29 13.01-25.12 5.52-34.42-5.28-6.55-15.62-7.3-22.45-3.07ZM1100 219.81v6.75c-2.84 26.91-26.39 34.36-49.75 31.67q-8.44-.97-14.03-3.51-.47-.21-.47-.73v-16.24q0-.65.56-.31c11.21 6.88 25.51 10.55 37.34 2.4 5.95-4.11 8.9-11.02 8.06-18.14-2.5-21.25-29.78-16.84-43.54-16.44q-.54.01-.5-.52l3.83-56.26q.03-.48.52-.48h52.57a.41.4 0 0 1 .41.4v14.35a.5.5 0 0 1-.5.5h-37.7q-.45 0-.48.45l-1.74 26.07q-.03.51.48.46c21.9-2.23 42.77 4.42 44.94 29.58ZM347.6 215.81c-5.4 26.24-27.69 40.52-53.54 41.08q-14.59.31-29.18.03-.63-.01-.63-.64V148.74a.49.48 0 0 1 .49-.48c16.26-.02 33.35-1.36 49.33 2.36 30.79 7.17 39.17 37.73 33.53 65.19Zm-35.52 28.06c21.41-7.73 28.21-29.55 25.79-50.26q-1.33-11.39-6.1-18.87c-12.31-19.34-37.05-17.4-56.79-17.21q-.48 0-.48.48v88.97q0 .46.46.47c12.48.25 25.19.73 37.12-3.58ZM439.45 192.27a.13.13 0 0 0 .24.07c14.97-24.26 51.73-19.15 51.97 13.1q.19 25.51.06 51.01a.3.3 0 0 1-.3.29l-9.11.01q-.53 0-.53-.52-.07-23.52-.08-46.97c-.01-3.97-.78-8-1.97-11.59-4.81-14.58-23.58-14.73-32.77-4.97-6.55 6.95-7.39 14.91-7.43 25.29q-.08 19.16-.01 38.39a.36.36 0 0 1-.36.36l-8.91.01a.5.5 0 0 1-.5-.5v-76.5q0-.5.5-.5h8.76q.52 0 .51.51l-.07 12.51ZM550.84 244.02a.3.3 0 0 0-.57-.15c-7.32 13.5-23.24 18.43-37.02 12.33-9.36-4.14-13.81-15.34-11.6-25.18 2.94-13.16 14.09-18.07 26.15-19.78q11.12-1.57 22.29-3.12a.7.69-2.5 0 0 .6-.65c1.65-28.56-27.42-24.33-41.52-11.94q-.67.59-.67-.3v-9.77q0-.61.52-.93 12.78-7.8 27.3-7.17c18.98.83 24.35 13.45 24.4 30.47q.07 24.25.01 48.59a.32.32 0 0 1-.32.32l-9.18.01a.52.52 0 0 1-.52-.52l.13-12.21ZM531.5 219.2c-9.48 1.28-19.66 3.63-19.97 15.56-.32 12.34 11.34 17.87 22.12 14.29 15.14-5.02 17.36-17.25 17.11-32.01a.56.55 85.1 0 0-.64-.54q-9.35 1.45-18.62 2.7ZM585.71 190.74a.29.29 0 0 0 .54.15c10.93-17.93 37.8-19.16 45.56 2.27q.25.71.63.05c7.2-12.53 17.8-18.39 32.63-15.01 12.73 2.89 17.68 15.36 17.82 27.25q.27 21.56.05 50.81-.01.49-.5.49h-8.89q-.52 0-.53-.53-.07-23.5-.03-46.96c.02-10.12-2.17-20.93-13.97-23.05-15.18-2.74-24.45 11.6-24.6 25.36q-.24 22.38-.16 44.82a.36.35 0 0 1-.36.35l-8.85.01q-.53 0-.53-.52-.07-23.15.01-46.22c.04-12.2-4.69-24.97-19.06-24.01-14.29.94-19.7 14.47-19.71 26.77q-.02 21.78-.01 43.63a.34.34 0 0 1-.34.34l-9.16.01a.5.5 0 0 1-.5-.5v-76.5q0-.5.5-.5h8.88q.64 0 .64.63l-.06 10.86ZM775.28 253.59c-22.78 12.17-50.22 2.93-55.57-23.87-4.65-23.3 6.06-47.65 31.37-51.87q12.08-2.01 24.12 2.85.55.23.55.82v9.45a.35.35 0 0 1-.54.3c-16.27-10.32-36.74-5.61-43.82 13.43-7.65 20.56 2 48.7 28.7 45.09q8.04-1.08 14.95-5.91.71-.5.71.37v8.56q0 .53-.47.78ZM830.36 232.53c4.34 26.91-30.73 30.76-47.46 21.38q-.4-.23-.4-.68v-10a.47.47 0 0 1 .75-.37q10.48 8.02 23.78 7c6.4-.5 11.94-3.12 13.34-9.79 1.96-9.27-6.11-13.66-13.64-16.7-6.92-2.79-15.41-6.46-19.82-12.02-6.17-7.75-5.18-20.18 2.43-26.95 10.02-8.91 26.41-8.7 38.23-3.55a.72.71 12.2 0 1 .43.65v9.27a.53.52 16.2 0 1-.81.44c-7.75-4.92-21.13-7.96-29.15-2.28-4.81 3.4-6.46 10.47-3.56 15.44q1.71 2.92 6.61 5.59c10.17 5.54 27.11 9.15 29.27 22.57ZM387.87 245.27q.19-.41.14-.88-.07-.6.14-1.16l24.23-63.56a.67.65 10.2 0 1 .62-.42h9.27a.56.55 11 0 1 .52.76Q404.8 225.06 386.76 270c-5.6 13.97-14.15 27.03-31.74 22.4q-.52-.13-.52-.67v-8.04q0-.72.69-.52 13.26 3.74 19.02-8.23 3.44-7.16 7.83-18.24.19-.49 0-.99l-29.31-76.03q-.27-.68.47-.68h9.76a.81.8-9.7 0 1 .76.53q10.83 30.12 21.78 60.38c.46 1.26.86 3.71 1.53 5.34q.4.97.84.02Z"/><rect width="10" height="77.5" x="697.75" y="179.25" fill="#002050" rx=".57"/></svg>