<?xml version="1.0" encoding="utf-8"?>
<!-- Generator: Adobe Illustrator 25.0.0, SVG Export Plug-In . SVG Version: 6.00 Build 0)  -->
<svg version="1.1" id="Layer_1" xmlns="http://www.w3.org/2000/svg" xmlns:xlink="http://www.w3.org/1999/xlink" x="0px" y="0px"
	 viewBox="0 0 800 800" style="enable-background:new 0 0 800 800;" xml:space="preserve">
<style type="text/css">
	.stmigra0{fill-rule:evenodd;clip-rule:evenodd;}
	.stmigra1{fill:none;stroke:#000000;stroke-width:20;stroke-linecap:round;stroke-linejoin:round;stroke-miterlimit:133.3333;}
</style>
<desc>Created with Sketch.</desc>
<g id="_x36_4px-Line">
	<g id="clo-server">
	</g>
	<path id="Shape" class="stmigra0" d="M662.5,61.8h-525C89.3,61.8,50,94.3,50,134.2s39.3,72.4,87.5,72.4h525c48.2,0,87.5-32.5,87.5-72.4
		S710.7,61.8,662.5,61.8L662.5,61.8z M662.5,186h-525C103,186,75,162.8,75,134.2s28-51.7,62.5-51.7h525c34.5,0,62.5,23.2,62.5,51.7
		S697,186,662.5,186L662.5,186z"/>
	<path id="Shape_1_" class="stmigra0" d="M162.5,103.2c-20.7,0-37.5,13.9-37.5,31s16.8,31,37.5,31s37.5-13.9,37.5-31
		S183.2,103.2,162.5,103.2L162.5,103.2z M162.5,144.6c-6.9,0-12.5-4.6-12.5-10.3s5.6-10.3,12.5-10.3s12.5,4.6,12.5,10.3
		S169.4,144.6,162.5,144.6L162.5,144.6z"/>
	<path id="Shape_2_" class="stmigra0" d="M662.5,123.9h-150c-6.9,0-12.5,4.6-12.5,10.3c0,5.7,5.6,10.3,12.5,10.3h150
		c6.9,0,12.5-4.6,12.5-10.3C675,128.5,669.4,123.9,662.5,123.9L662.5,123.9z"/>
	<path id="Shape_3_" class="stmigra0" d="M662.5,238.1h-525c-48.2,0-87.5,32.5-87.5,72.4c0,39.9,39.3,72.4,87.5,72.4h525
		c48.2,0,87.5-32.5,87.5-72.4C750,270.6,710.7,238.1,662.5,238.1L662.5,238.1z M662.5,362.3h-525C103,362.3,75,339,75,310.5
		s28-51.7,62.5-51.7h525c34.5,0,62.5,23.2,62.5,51.7S697,362.3,662.5,362.3L662.5,362.3z"/>
	<path id="Shape_4_" class="stmigra0" d="M162.5,279.5c-20.7,0-37.5,13.9-37.5,31s16.8,31,37.5,31s37.5-13.9,37.5-31
		S183.2,279.5,162.5,279.5L162.5,279.5z M162.5,320.9c-6.9,0-12.5-4.6-12.5-10.3s5.6-10.3,12.5-10.3s12.5,4.6,12.5,10.3
		S169.4,320.9,162.5,320.9L162.5,320.9z"/>
	<path id="Shape_5_" class="stmigra0" d="M662.5,300.2h-150c-6.9,0-12.5,4.6-12.5,10.3s5.6,10.3,12.5,10.3h150c6.9,0,12.5-4.6,12.5-10.3
		S669.4,300.2,662.5,300.2L662.5,300.2z"/>
	<path id="Shape_6_" class="stmigra0" d="M662.5,414.4h-525c-48.2,0-87.5,32.5-87.5,72.4s39.3,72.4,87.5,72.4h525
		c48.2,0,87.5-32.5,87.5-72.4S710.7,414.4,662.5,414.4L662.5,414.4z M662.5,538.5h-525c-34.5,0-62.5-23.2-62.5-51.7
		c0-28.5,28-51.7,62.5-51.7h525c34.5,0,62.5,23.2,62.5,51.7C725,515.3,697,538.5,662.5,538.5L662.5,538.5z"/>
	<path id="Shape_7_" class="stmigra0" d="M162.5,455.8c-20.7,0-37.5,13.9-37.5,31s16.8,31,37.5,31s37.5-13.9,37.5-31
		S183.2,455.8,162.5,455.8L162.5,455.8z M162.5,497.1c-6.9,0-12.5-4.6-12.5-10.3c0-5.7,5.6-10.3,12.5-10.3s12.5,4.6,12.5,10.3
		C175,492.5,169.4,497.1,162.5,497.1L162.5,497.1z"/>
	<path id="Shape_8_" class="stmigra0" d="M662.5,476.4h-150c-6.9,0-12.5,4.6-12.5,10.3s5.6,10.3,12.5,10.3h150c6.9,0,12.5-4.6,12.5-10.3
		S669.4,476.4,662.5,476.4L662.5,476.4z"/>
</g>
<g>
	<path class="stmigra1" d="M447.2,708.8h28.7 M630.8,708.8l-68.8-68.8 M630.8,708.8l-68.8,68.8 M630.8,708.8H510.3 M387.2,708.8h28.7"/>
	<path class="stmigra1" d="M324.1,658.8h28.7 M238.1,589.9l-68.8,68.8 M238.1,727.6l-68.8-68.8 M289.7,658.8H169.2 M384.1,658.8h28.7"/>
</g>
</svg>
