<?xml version="1.0" encoding="utf-8"?>
<!-- Generator: Adobe Illustrator 25.0.0, SVG Export Plug-In . SVG Version: 6.00 Build 0)  -->
<svg version="1.1" id="Layer_1" xmlns="http://www.w3.org/2000/svg" xmlns:xlink="http://www.w3.org/1999/xlink" x="0px" y="0px"
	 viewBox="0 0 800 265" style="enable-background:new 0 0 800 265;" xml:space="preserve">
<style type="text/css">
	.stobi0{fill:#F80000;}
</style>
<g>
	<path class="stobi0" d="M790.4,43c0.6,0,1.6,0,1.9-1c0.3-0.3,0.3-0.6,0.3-1c0-0.6-0.3-1.3-1-1.6c-0.7-0.3-1.3-0.3-2.2-0.3h-0.6v3.5
		h1.6 M789.4,37.6c1.6,0,2.6,0,3.2,0.3c2.2,0.6,2.2,2.9,2.2,3.5c0,0.3,0,0.6,0,1c0,0.6-0.3,1.6-1.6,2.2c0,0-0.3,0.3-0.6,0.3l2.9,5.1
		h-2.9l-2.2-4.8h-1.6V50h-2.6V37.5L789.4,37.6 M790.4,55.1c6.1,0,11.2-4.8,11.2-11.2s-4.8-11.2-11.2-11.2c-6.1,0-11.2,5.1-11.2,11.2
		S784.3,55.1,790.4,55.1 M781.7,43.9c0-4.8,3.8-8.6,8.9-8.6c4.8,0,8.6,3.8,8.6,8.6s-3.8,8.6-8.6,8.6
		C785.6,52.9,781.7,48.7,781.7,43.9 M704.1,115.2c-14.7,0-27.2-9.9-31-23.3h81.5l11.2-17.6h-92.7c3.8-13.4,16.3-23.3,31-23.3H760
		l11.2-17.6h-68.4c-27.5,0-49.5,22.4-49.5,49.5c0,27.5,22.4,49.5,49.5,49.5h58.8l11.2-17.6h-68.7 M470.7,132.5h59.1l11.2-17.6h-68.7
		c-17.9,0-32.3-14.4-32.3-32c0-17.9,14.4-32,32.3-32h55.9l11.2-17.6H471c-27.5,0-49.9,22.4-49.9,49.5
		C421.2,110.4,443.5,132.5,470.7,132.5 M108.5,115.2H53.2c-17.6,0-32-14.4-32-32c0-17.9,14.4-32,32-32h55c17.9,0,32.3,14.4,32.3,32
		S126.1,115.2,108.5,115.2 M51.9,132.5h57.5c27.5,0,49.5-22.1,49.5-49.5c0-27.5-22.1-49.5-49.5-49.5H51.9
		C24.8,33.4,2.4,55.8,2.4,82.9C2.4,110.4,24.8,132.5,51.9,132.5 M253,100.5c18.5,0,33.6-15,33.6-33.6s-15-33.6-33.6-33.6h-83.4v99.1
		h19.2V50.9h63c8.9,0,16,7,16,16s-7,16-16,16h-53.7l56.9,49.5h27.8l-38.4-32.2h8.6 M568.5,115.2V33.4h-19.2v89.8
		c0,2.6,1,4.8,2.9,6.7c1.9,1.9,4.5,2.9,7,2.9h86.9l11.2-17.6H568.5 M335.2,97.6H386l-26.8-43.5l-49.6,78.3h-22.7l60.1-94
		c2.6-3.8,7-6.1,11.8-6.1s8.9,2.2,11.5,6.1l60.4,94.3h-22.3l-10.5-17.6h-51.5L335.2,97.6"/>
	<path d="M4.5,166.9c1.1-0.2,2.7-0.4,4.8-0.5c2-0.1,4.1-0.2,6.2-0.2c2.6,0,4.9,0.2,7.1,0.7c2.1,0.5,4,1.2,5.5,2.2
		c1.5,1,2.7,2.3,3.5,3.9c0.8,1.6,1.3,3.6,1.3,5.9c0,1.4-0.2,2.7-0.6,3.9c-0.4,1.2-1,2.3-1.7,3.2c-0.7,0.9-1.6,1.7-2.5,2.3
		c-1,0.6-1.9,1.1-2.9,1.3c1.3,0.1,2.5,0.5,3.8,1s2.5,1.3,3.5,2.3c1,1,1.9,2.3,2.6,3.8c0.7,1.5,1,3.4,1,5.5c0,2.6-0.5,4.9-1.6,6.7
		c-1,1.8-2.5,3.3-4.2,4.5c-1.8,1.1-3.9,1.9-6.3,2.4c-2.4,0.5-5,0.7-7.8,0.7c-1.7,0-3.6-0.1-5.6-0.2c-2-0.2-4-0.4-5.8-0.6V166.9z
		 M16.3,187.3c3.1,0,5.4-0.7,7.1-2c1.6-1.3,2.4-3.3,2.4-6c0-2.6-0.9-4.5-2.6-5.8c-1.7-1.3-4.1-1.9-7.1-1.9c-0.9,0-1.8,0-2.6,0.1
		c-0.8,0-1.6,0.1-2.1,0.2v15.4H16.3z M11.3,210.4c0.6,0.1,1.4,0.2,2.4,0.2c1,0,1.9,0.1,2.9,0.1c1.6,0,3.2-0.1,4.6-0.4
		c1.4-0.3,2.7-0.7,3.8-1.4c1.1-0.7,1.9-1.5,2.6-2.7c0.6-1.1,1-2.5,1-4.2c0-1.7-0.3-3.1-0.9-4.2c-0.6-1.2-1.4-2.1-2.4-2.8
		c-1-0.7-2.2-1.2-3.6-1.5c-1.4-0.3-2.9-0.4-4.6-0.4h-5.7V210.4z"/>
	<path d="M47,166.9c1.1-0.1,2.3-0.2,3.5-0.2c1.2,0,2.4,0.1,3.4,0.2v27.7c0,2.8,0.2,5.2,0.5,7.2c0.4,2,1,3.6,1.8,4.9
		c0.8,1.2,1.9,2.2,3.2,2.8c1.3,0.6,3,0.9,4.9,0.9c1.9,0,3.6-0.3,4.9-0.9c1.3-0.6,2.4-1.5,3.2-2.8c0.8-1.2,1.4-2.9,1.8-4.9
		c0.4-2,0.5-4.4,0.5-7.2v-27.7c1.1-0.1,2.3-0.2,3.5-0.2c1.3,0,2.4,0.1,3.5,0.2v29c0,3.3-0.3,6.2-0.9,8.8c-0.6,2.6-1.6,4.8-3,6.5
		c-1.4,1.8-3.2,3.1-5.4,4c-2.2,0.9-4.9,1.4-8.1,1.4c-3.2,0-5.9-0.5-8.1-1.4c-2.2-0.9-4-2.3-5.4-4c-1.4-1.8-2.4-3.9-3-6.5
		c-0.6-2.6-0.9-5.5-0.9-8.8V166.9z"/>
	<path d="M94.6,208.4c1.5,0.5,3.1,1,4.7,1.4c1.6,0.4,3.6,0.6,6,0.6c3.7,0,6.5-0.8,8.3-2.3c1.8-1.5,2.8-3.6,2.8-6.2
		c0-1.3-0.2-2.4-0.6-3.3c-0.4-0.9-1-1.7-1.7-2.3c-0.8-0.7-1.7-1.3-2.9-1.8c-1.2-0.5-2.5-1.1-4-1.8l-3.9-1.6
		c-1.3-0.5-2.5-1.1-3.6-1.8s-2-1.5-2.8-2.4c-0.8-1-1.4-2.1-1.9-3.3c-0.5-1.2-0.7-2.7-0.7-4.5c0-4.1,1.4-7.4,4.2-9.7
		c2.8-2.3,6.8-3.5,11.8-3.5c2.2,0,4.2,0.2,6.2,0.5c1.9,0.4,3.7,0.8,5.2,1.4c-0.2,1.9-0.7,3.8-1.5,5.6c-1.2-0.5-2.6-0.9-4.2-1.2
		c-1.6-0.4-3.4-0.5-5.5-0.5c-2.9,0-5.1,0.6-6.6,1.7c-1.5,1.2-2.3,2.9-2.3,5.2c0,1,0.2,1.8,0.6,2.5c0.4,0.7,0.9,1.4,1.5,2
		c0.6,0.6,1.4,1.1,2.2,1.5c0.9,0.5,1.8,0.9,2.7,1.2l3.8,1.5c1.8,0.7,3.4,1.5,4.8,2.3c1.4,0.8,2.6,1.7,3.6,2.8c1,1.1,1.8,2.3,2.3,3.8
		c0.5,1.5,0.8,3.2,0.8,5.1c0,4.7-1.6,8.4-4.8,11c-3.2,2.7-7.7,4-13.5,4c-1.4,0-2.7,0-3.8-0.1c-1.1-0.1-2.2-0.2-3.2-0.4
		c-1-0.2-1.9-0.4-2.8-0.7c-0.9-0.3-1.8-0.6-2.8-0.9c0.1-1,0.3-2,0.6-3.1C93.9,210.4,94.3,209.4,94.6,208.4z"/>
	<path d="M135.5,166.9c0.5-0.1,1.1-0.2,1.7-0.2c0.6,0,1.2-0.1,1.8-0.1c0.6,0,1.2,0,1.8,0.1c0.6,0,1.2,0.1,1.7,0.2v48.9
		c-0.5,0.1-1.1,0.2-1.7,0.2c-0.6,0-1.2,0.1-1.8,0.1c-0.6,0-1.2,0-1.8-0.1c-0.6,0-1.2-0.1-1.7-0.2V166.9z"/>
	<path d="M157,166.9c0.5-0.1,1-0.2,1.6-0.2c0.6,0,1.1-0.1,1.6-0.1c0.5,0,1,0,1.6,0.1c0.6,0,1.1,0.1,1.6,0.2l21.3,36.7v-36.7
		c0.5-0.1,1.1-0.2,1.7-0.2c0.6,0,1.2-0.1,1.8-0.1c0.5,0,1,0,1.6,0.1s1.1,0.1,1.6,0.2v48.9c-0.5,0.1-1,0.2-1.6,0.2
		c-0.6,0-1.1,0.1-1.6,0.1c-0.5,0-1,0-1.6-0.1c-0.6,0-1.1-0.1-1.6-0.2l-21.4-36.5v36.5c-0.5,0.1-1,0.2-1.6,0.2
		c-0.6,0-1.1,0.1-1.7,0.1c-0.6,0-1.2,0-1.7-0.1c-0.6,0-1.1-0.1-1.5-0.2V166.9z"/>
	<path d="M205.8,166.9h26.9c0.1,0.9,0.2,1.9,0.2,3c0,0.5,0,1,0,1.6c0,0.5-0.1,1-0.2,1.5h-19.9v14h15.9c0.1,0.5,0.2,0.9,0.2,1.5
		c0,0.5,0.1,1,0.1,1.5c0,0.5,0,1-0.1,1.6c0,0.5-0.1,1-0.2,1.5h-15.9v16.7h20.5c0.1,0.9,0.2,1.9,0.2,3c0,0.5,0,1,0,1.6
		c0,0.5-0.1,1-0.2,1.5h-27.4V166.9z"/>
	<path d="M243.6,208.4c1.5,0.5,3.1,1,4.7,1.4c1.6,0.4,3.6,0.6,6,0.6c3.7,0,6.5-0.8,8.3-2.3c1.8-1.5,2.8-3.6,2.8-6.2
		c0-1.3-0.2-2.4-0.6-3.3c-0.4-0.9-1-1.7-1.7-2.3c-0.8-0.7-1.7-1.3-2.9-1.8c-1.2-0.5-2.5-1.1-4-1.8l-3.9-1.6
		c-1.3-0.5-2.5-1.1-3.6-1.8s-2-1.5-2.8-2.4c-0.8-1-1.4-2.1-1.9-3.3c-0.5-1.2-0.7-2.7-0.7-4.5c0-4.1,1.4-7.4,4.2-9.7
		c2.8-2.3,6.8-3.5,11.8-3.5c2.2,0,4.2,0.2,6.2,0.5c1.9,0.4,3.7,0.8,5.2,1.4c-0.2,1.9-0.7,3.8-1.5,5.6c-1.2-0.5-2.6-0.9-4.2-1.2
		c-1.6-0.4-3.4-0.5-5.5-0.5c-2.9,0-5.1,0.6-6.6,1.7c-1.5,1.2-2.3,2.9-2.3,5.2c0,1,0.2,1.8,0.6,2.5c0.4,0.7,0.9,1.4,1.5,2
		c0.6,0.6,1.4,1.1,2.2,1.5c0.9,0.5,1.8,0.9,2.7,1.2l3.8,1.5c1.8,0.7,3.4,1.5,4.8,2.3c1.4,0.8,2.6,1.7,3.6,2.8c1,1.1,1.8,2.3,2.3,3.8
		c0.5,1.5,0.8,3.2,0.8,5.1c0,4.7-1.6,8.4-4.8,11c-3.2,2.7-7.7,4-13.5,4c-1.4,0-2.7,0-3.8-0.1c-1.1-0.1-2.2-0.2-3.2-0.4
		c-1-0.2-1.9-0.4-2.8-0.7c-0.9-0.3-1.8-0.6-2.8-0.9c0.1-1,0.3-2,0.6-3.1C242.9,210.4,243.2,209.4,243.6,208.4z"/>
	<path d="M281.4,208.4c1.5,0.5,3.1,1,4.7,1.4c1.6,0.4,3.6,0.6,6,0.6c3.7,0,6.5-0.8,8.3-2.3c1.8-1.5,2.8-3.6,2.8-6.2
		c0-1.3-0.2-2.4-0.6-3.3c-0.4-0.9-1-1.7-1.7-2.3c-0.8-0.7-1.7-1.3-2.9-1.8c-1.2-0.5-2.5-1.1-4-1.8l-3.9-1.6
		c-1.3-0.5-2.5-1.1-3.6-1.8s-2-1.5-2.8-2.4c-0.8-1-1.4-2.1-1.9-3.3c-0.5-1.2-0.7-2.7-0.7-4.5c0-4.1,1.4-7.4,4.2-9.7
		c2.8-2.3,6.8-3.5,11.8-3.5c2.2,0,4.2,0.2,6.2,0.5c1.9,0.4,3.7,0.8,5.2,1.4c-0.2,1.9-0.7,3.8-1.5,5.6c-1.2-0.5-2.6-0.9-4.2-1.2
		c-1.6-0.4-3.4-0.5-5.5-0.5c-2.9,0-5.1,0.6-6.6,1.7c-1.5,1.2-2.3,2.9-2.3,5.2c0,1,0.2,1.8,0.6,2.5c0.4,0.7,0.9,1.4,1.5,2
		c0.6,0.6,1.4,1.1,2.2,1.5c0.9,0.5,1.8,0.9,2.7,1.2l3.8,1.5c1.8,0.7,3.4,1.5,4.8,2.3c1.4,0.8,2.6,1.7,3.6,2.8c1,1.1,1.8,2.3,2.3,3.8
		c0.5,1.5,0.8,3.2,0.8,5.1c0,4.7-1.6,8.4-4.8,11c-3.2,2.7-7.7,4-13.5,4c-1.4,0-2.7,0-3.8-0.1c-1.1-0.1-2.2-0.2-3.2-0.4
		c-1-0.2-1.9-0.4-2.8-0.7c-0.9-0.3-1.8-0.6-2.8-0.9c0.1-1,0.3-2,0.6-3.1C280.7,210.4,281.1,209.4,281.4,208.4z"/>
	<path d="M341,166.9c0.5-0.1,1.1-0.2,1.7-0.2c0.6,0,1.2-0.1,1.8-0.1c0.6,0,1.2,0,1.8,0.1c0.6,0,1.2,0.1,1.7,0.2v48.9
		c-0.5,0.1-1.1,0.2-1.7,0.2c-0.6,0-1.2,0.1-1.8,0.1c-0.6,0-1.2,0-1.8-0.1c-0.6,0-1.2-0.1-1.7-0.2V166.9z"/>
	<path d="M362.5,166.9c0.5-0.1,1-0.2,1.6-0.2c0.6,0,1.1-0.1,1.6-0.1s1,0,1.6,0.1c0.6,0,1.1,0.1,1.6,0.2l21.3,36.7v-36.7
		c0.5-0.1,1.1-0.2,1.7-0.2c0.6,0,1.2-0.1,1.8-0.1c0.5,0,1,0,1.6,0.1s1.1,0.1,1.6,0.2v48.9c-0.5,0.1-1,0.2-1.6,0.2
		c-0.6,0-1.1,0.1-1.6,0.1s-1,0-1.6-0.1c-0.6,0-1.1-0.1-1.6-0.2L369,179.3v36.5c-0.5,0.1-1,0.2-1.6,0.2c-0.6,0-1.1,0.1-1.7,0.1
		c-0.6,0-1.2,0-1.7-0.1c-0.6,0-1.1-0.1-1.5-0.2V166.9z"/>
	<path d="M419.7,172.9H407c-0.1-0.5-0.2-1-0.2-1.5c0-0.5-0.1-1.1-0.1-1.6c0-0.5,0-1,0.1-1.5c0-0.5,0.1-1,0.2-1.5h32.4
		c0.1,0.5,0.2,0.9,0.2,1.4c0,0.5,0.1,1,0.1,1.5s0,1-0.1,1.6c0,0.6-0.1,1.1-0.2,1.5h-12.7v42.8c-1,0.1-2.2,0.2-3.4,0.2
		c-1.3,0-2.4-0.1-3.5-0.2V172.9z"/>
	<path d="M449.6,166.9h26.9c0.1,0.9,0.2,1.9,0.2,3c0,0.5,0,1,0,1.6c0,0.5-0.1,1-0.2,1.5h-19.9v14h15.9c0.1,0.5,0.2,0.9,0.2,1.5
		c0,0.5,0.1,1,0.1,1.5c0,0.5,0,1-0.1,1.6c0,0.5-0.1,1-0.2,1.5h-15.9v16.7H477c0.1,0.9,0.2,1.9,0.2,3c0,0.5,0,1,0,1.6
		c0,0.5-0.1,1-0.2,1.5h-27.4V166.9z"/>
	<path d="M488.7,166.9c0.5-0.1,1-0.2,1.6-0.2c0.6,0,1.2-0.1,1.8-0.1c0.6,0,1.2,0,1.8,0.1c0.6,0,1.2,0.1,1.7,0.2v42.8h19.2
		c0.1,0.5,0.1,1,0.2,1.6c0,0.5,0,1,0,1.5c0,1.1-0.1,2.1-0.2,3.1h-26V166.9z"/>
	<path d="M524.9,166.9c0.5-0.1,1-0.2,1.6-0.2c0.6,0,1.2-0.1,1.8-0.1c0.6,0,1.2,0,1.8,0.1c0.6,0,1.2,0.1,1.7,0.2v42.8H551
		c0.1,0.5,0.1,1,0.2,1.6c0,0.5,0,1,0,1.5c0,1.1-0.1,2.1-0.2,3.1h-26V166.9z"/>
	<path d="M561.2,166.9c0.5-0.1,1.1-0.2,1.7-0.2s1.2-0.1,1.8-0.1c0.6,0,1.2,0,1.8,0.1c0.6,0,1.2,0.1,1.7,0.2v48.9
		c-0.5,0.1-1.1,0.2-1.7,0.2c-0.6,0-1.2,0.1-1.8,0.1c-0.6,0-1.2,0-1.8-0.1c-0.6,0-1.2-0.1-1.7-0.2V166.9z"/>
	<path d="M610.9,190.5c0.5-0.1,1.1-0.2,1.7-0.2c0.6,0,1.2-0.1,1.8-0.1c0.6,0,1.2,0,1.8,0.1c0.6,0,1.1,0.1,1.6,0.2v23.9
		c-1,0.4-2,0.8-3.1,1.1c-1.1,0.3-2.3,0.5-3.5,0.7c-1.2,0.2-2.4,0.3-3.7,0.4c-1.2,0.1-2.4,0.1-3.5,0.1c-3.6,0-6.9-0.6-9.8-1.7
		c-2.9-1.1-5.3-2.8-7.3-4.9c-2-2.2-3.5-4.8-4.6-7.9c-1.1-3.1-1.6-6.6-1.6-10.5c0-3.9,0.5-7.4,1.6-10.6c1.1-3.2,2.6-5.8,4.7-8.1
		c2-2.2,4.4-3.9,7.2-5.1c2.8-1.2,5.9-1.8,9.3-1.8c2.6,0,4.8,0.2,6.7,0.5c1.9,0.3,3.6,0.8,5.2,1.4c-0.1,1-0.3,2-0.6,2.9
		c-0.3,0.9-0.6,1.8-1.1,2.8c-1.3-0.4-2.6-0.8-4.1-1.1c-1.5-0.3-3.3-0.5-5.5-0.5c-2.4,0-4.6,0.4-6.6,1.3c-2,0.9-3.6,2.1-5,3.8
		c-1.4,1.7-2.5,3.7-3.2,6.1c-0.8,2.4-1.2,5.2-1.2,8.3c0,3.2,0.4,6,1.2,8.3c0.8,2.3,1.9,4.3,3.4,5.8c1.5,1.6,3.2,2.7,5.1,3.5
		c2,0.7,4.2,1.1,6.6,1.1c1.5,0,2.7-0.1,3.8-0.2c1.1-0.2,2-0.4,2.8-0.6V190.5z"/>
	<path d="M631.5,166.9h26.9c0.1,0.9,0.2,1.9,0.2,3c0,0.5,0,1,0,1.6c0,0.5-0.1,1-0.2,1.5h-19.9v14h15.9c0.1,0.5,0.2,0.9,0.2,1.5
		c0,0.5,0.1,1,0.1,1.5c0,0.5,0,1-0.1,1.6c0,0.5-0.1,1-0.2,1.5h-15.9v16.7h20.5c0.1,0.9,0.2,1.9,0.2,3c0,0.5,0,1,0,1.6
		c0,0.5-0.1,1-0.2,1.5h-27.4V166.9z"/>
	<path d="M670.6,166.9c0.5-0.1,1-0.2,1.6-0.2c0.6,0,1.1-0.1,1.6-0.1s1,0,1.6,0.1c0.6,0,1.1,0.1,1.6,0.2l21.3,36.7v-36.7
		c0.5-0.1,1.1-0.2,1.7-0.2c0.6,0,1.2-0.1,1.8-0.1c0.5,0,1,0,1.6,0.1s1.1,0.1,1.6,0.2v48.9c-0.5,0.1-1,0.2-1.6,0.2
		c-0.6,0-1.1,0.1-1.6,0.1s-1,0-1.6-0.1c-0.6,0-1.1-0.1-1.6-0.2l-21.4-36.5v36.5c-0.5,0.1-1,0.2-1.6,0.2c-0.6,0-1.1,0.1-1.7,0.1
		c-0.6,0-1.2,0-1.7-0.1c-0.6,0-1.1-0.1-1.5-0.2V166.9z"/>
	<path d="M750.6,208.6c1,1.9,1.6,3.8,1.9,5.6c-1.9,0.8-3.9,1.4-5.8,1.8c-2,0.4-4.1,0.5-6.5,0.5c-3.5,0-6.7-0.6-9.6-1.7
		c-2.8-1.2-5.2-2.8-7.2-5c-2-2.2-3.4-4.8-4.5-7.9c-1-3.1-1.6-6.5-1.6-10.4c0-3.9,0.5-7.4,1.6-10.6c1-3.2,2.5-5.8,4.5-8.1
		c1.9-2.2,4.3-3.9,7.1-5.1c2.8-1.2,6-1.8,9.5-1.8c2.6,0,4.8,0.2,6.7,0.5c1.9,0.4,3.5,0.8,5,1.3c-0.1,1-0.3,2-0.6,2.9
		c-0.3,0.9-0.6,1.8-1.1,2.8c-0.7-0.2-1.3-0.4-2-0.6c-0.6-0.2-1.3-0.3-2-0.5c-0.7-0.1-1.5-0.2-2.4-0.3c-0.9-0.1-1.9-0.1-3-0.1
		c-4.9,0-8.8,1.7-11.5,5c-2.7,3.4-4.1,8.2-4.1,14.5c0,3.2,0.4,6,1.2,8.4c0.8,2.4,1.9,4.3,3.3,5.8c1.4,1.5,3.1,2.7,5.1,3.5
		c2,0.8,4.2,1.2,6.6,1.2c1.9,0,3.6-0.2,5.2-0.5C747.8,209.7,749.3,209.2,750.6,208.6z"/>
	<path d="M764,166.9h26.9c0.1,0.9,0.2,1.9,0.2,3c0,0.5,0,1,0,1.6c0,0.5-0.1,1-0.2,1.5h-19.9v14h15.9c0.1,0.5,0.2,0.9,0.2,1.5
		c0,0.5,0.1,1,0.1,1.5c0,0.5,0,1-0.1,1.6c0,0.5-0.1,1-0.2,1.5h-15.9v16.7h20.5c0.1,0.9,0.2,1.9,0.2,3c0,0.5,0,1,0,1.6
		c0,0.5-0.1,1-0.2,1.5H764V166.9z"/>
</g>
</svg>
