<?xml version="1.0" encoding="utf-8"?>
<!-- Generator: Adobe Illustrator 25.0.0, SVG Export Plug-In . SVG Version: 6.00 Build 0)  -->
<svg version="1.1" id="Layer_1" xmlns="http://www.w3.org/2000/svg" xmlns:xlink="http://www.w3.org/1999/xlink" x="0px" y="0px"
	 viewBox="0 0 800 265" style="enable-background:new 0 0 800 265;" xml:space="preserve">
<style type="text/css">
	.ston0{fill:#F80000;}
</style>
<path class="ston0" d="M788,22.2c0.6,0,1.6,0,1.9-1c0.3-0.3,0.3-0.6,0.3-1c0-0.6-0.3-1.3-1-1.6s-1.3-0.3-2.2-0.3h-0.6v3.5h1.6
	 M787,16.8c1.6,0,2.6,0,3.2,0.3c2.2,0.6,2.2,2.9,2.2,3.5c0,0.3,0,0.6,0,1c0,0.6-0.3,1.6-1.6,2.2c0,0-0.3,0.3-0.6,0.3l2.9,5.1h-2.9
	l-2.2-4.8h-1.6v4.8h-2.6V16.7h3.2 M788,34.3c6.1,0,11.2-4.8,11.2-11.2c0-6.4-4.8-11.2-11.2-11.2c-6.1,0-11.2,5.1-11.2,11.2
	C776.8,29.2,781.9,34.3,788,34.3 M779.3,23.1c0-4.8,3.8-8.6,8.9-8.6c4.8,0,8.6,3.8,8.6,8.6s-3.8,8.6-8.6,8.6
	C783.2,32.1,779.3,27.9,779.3,23.1 M701.7,94.4c-14.7,0-27.2-9.9-31-23.3h81.5l11.2-17.6h-92.7c3.8-13.4,16.3-23.3,31-23.3h55.9
	l11.2-17.6h-68.4c-27.5,0-49.5,22.4-49.5,49.5c0,27.5,22.4,49.5,49.5,49.5h58.8L770.4,94h-68.7 M468.3,111.7h59.1l11.2-17.6h-68.7
	c-17.9,0-32.3-14.4-32.3-32c0-17.9,14.4-32,32.3-32h55.9L537,12.5h-68.4c-27.5,0-49.9,22.4-49.9,49.5
	C418.8,89.6,441.1,111.7,468.3,111.7 M106.1,94.4H50.8c-17.6,0-32-14.4-32-32c0-17.9,14.4-32,32-32h55c17.9,0,32.3,14.4,32.3,32
	S123.7,94.4,106.1,94.4 M49.5,111.7H107c27.5,0,49.5-22.1,49.5-49.5c0-27.5-22.1-49.5-49.5-49.5H49.5C22.4,12.6,0,35,0,62.1
	C0,89.6,22.4,111.7,49.5,111.7 M250.6,79.7c18.5,0,33.6-15,33.6-33.6s-15-33.6-33.6-33.6h-83.4v99.1h19.2V30.1h63c8.9,0,16,7,16,16
	s-7,16-16,16h-53.7l56.9,49.5h27.8L242,79.4h8.6 M566.1,94.4V12.6h-19.2v89.8c0,2.6,1,4.8,2.9,6.7c1.9,1.9,4.5,2.9,7,2.9h86.9
	l11.2-17.6L566.1,94.4 M332.8,76.8h50.8l-26.8-43.5l-49.6,78.3h-22.7l60.1-94c2.6-3.8,7-6.1,11.8-6.1s8.9,2.2,11.5,6.1l60.4,94.3
	H406l-10.5-17.6H344L332.8,76.8"/>
<polyline points="9.3,171.5 34.5,171.5 65.2,235.7 65.2,171.5 81.5,171.5 81.5,253.3 57.5,253.3 25.9,185.2 25.9,253 9.3,253 
	9.3,171.5 "/>
<polyline points="100,171.5 154.7,171.5 154.7,184.9 117.6,184.9 117.6,204.4 152.5,204.4 152.5,217.8 117.6,217.8 117.6,239.9 
	156,239.9 156,253.3 100,253.3 100,171.5 "/>
<polyline points="189.9,184.9 165.6,184.9 165.6,171.5 232.1,171.5 232.1,184.9 207.8,184.9 207.8,253.3 190.2,253.3 190.2,184.9 
	189.9,184.9 "/>
<path d="M253.2,229.3c0.3,5.8,1,16.3,19.8,16.3c16.9,0,19.2-10.5,19.2-14.7c0-9.3-7.3-10.9-18.9-13.7c-12.5-3.2-17.9-4.5-22.1-7.4
	c-6.7-4.5-8.6-10.5-8.6-16c0-16.6,15.7-24,31-24c5.4,0,16.3,1,23,8c4.5,5.1,4.8,10.5,5.1,14.1h-11.8c-0.6-10.2-9.3-12.5-17.3-12.5
	c-11.2,0-18.2,5.1-18.2,13.1c0,7.4,4.8,9.6,14.7,12.1c19.5,5.1,21.7,5.4,26.5,8.6c7.7,5.1,8,12.8,8,16.3c0,14.4-11.2,25.6-32.3,25.6
	c-6.1,0-18.9-1-25.2-9.3c-4.8-6.1-4.8-12.5-4.8-16.6h11.9"/>
<path d="M333.1,171.5V222c0,8.6,1.9,12.5,3.5,14.7c5.1,6.7,13.1,8,18.5,8c22.1,0,22.1-17.3,22.1-23.3v-49.9h10.9V222
	c0,4.5,0,13.4-6.7,21.7c-8,10.2-20.5,11.2-26.5,11.2c-7.7,0-21.4-2.2-28.8-13.1c-2.6-3.5-4.8-8.3-4.8-20.5v-49.9L333.1,171.5"/>
<polygon points="411.7,253.3 422.9,253.3 422.9,171.5 411.7,171.5 "/>
<polyline points="467,253.3 467,181 439.5,181 439.5,171.5 505.4,171.5 505.4,181 477.9,181 477.9,253.3 467,253.3 "/>
<polyline points="519.1,171.5 570.3,171.5 570.3,181 530.3,181 530.3,206.6 568.3,206.6 568.3,216.2 530.3,216.2 530.3,243.4 
	571.2,243.4 571.2,253.3 519.1,253.3 519.1,171.5 "/>
</svg>
