<?xml version="1.0" encoding="utf-8"?>
<!-- Generator: Adobe Illustrator 25.0.0, SVG Export Plug-In . SVG Version: 6.00 Build 0)  -->
<svg version="1.1" id="Layer_1" xmlns="http://www.w3.org/2000/svg" xmlns:xlink="http://www.w3.org/1999/xlink" x="0px" y="0px"
	 viewBox="0 0 800 800" style="enable-background:new 0 0 800 800;" xml:space="preserve">
<style type="text/css">
	.st0{fill:none;stroke:#000000;stroke-width:20;stroke-linecap:round;stroke-linejoin:round;stroke-miterlimit:128;}
	.st1{fill:none;stroke:#000000;stroke-width:10;stroke-miterlimit:213.3333;}
</style>
<path class="st0" d="M281.5,44.6h237c65.4,0,118.5,53,118.5,118.5V637c0,65.4-53,118.5-118.5,118.5h-237
	c-65.4,0-118.5-53-118.5-118.5V163C163,97.6,216.1,44.6,281.5,44.6z"/>
<path d="M400,704.7c-5.3,0-10.2-2.1-14-5.8c-3.7-3.7-5.8-8.7-5.8-14c0-3.9,1.1-7.7,3.3-11c2.2-3.3,5.2-5.8,8.9-7.3
	c2.4-1,5-1.5,7.6-1.5c1.3,0,2.6,0.1,3.9,0.4c3.8,0.8,7.3,2.6,10.1,5.4c2.8,2.8,4.6,6.3,5.4,10.1c0.8,3.8,0.4,7.8-1.1,11.4
	c-1.5,3.6-4,6.7-7.3,8.9C407.7,703.6,403.9,704.7,400,704.7z"/>
<path class="st1" d="M356.6,240.2h25.8 M317.8,279v-64.6c0-14.3,11.6-25.8,25.8-25.8H447c14.3,0,25.8,11.6,25.8,25.8v129.2
	c0,14.3-11.6,25.8-25.8,25.8H343.6c-14.3,0-25.8,11.6-25.8,25.8v129.2c0,14.3,11.6,25.8,25.8,25.8H447c14.3,0,25.8-11.6,25.8-25.8
	v-64.6 M408.2,291.9H240.3c-14.3,0-25.8,11.6-25.8,25.8v129.2c0,14.3,11.6,25.8,25.8,25.8h77.5 M382.4,446.9h167.9
	c14.3,0,25.8-11.6,25.8-25.8V291.9c0-14.3-11.6-25.8-25.8-25.8h-77.5 M408.2,498.6h25.8"/>
</svg>
