<?xml version="1.0" encoding="utf-8"?>
<!-- Generator: Adobe Illustrator 25.0.0, SVG Export Plug-In . SVG Version: 6.00 Build 0)  -->
<svg version="1.1" id="Layer_1" xmlns="http://www.w3.org/2000/svg" xmlns:xlink="http://www.w3.org/1999/xlink" x="0px" y="0px"
	 viewBox="0 0 800 800" style="enable-background:new 0 0 800 800;" xml:space="preserve">
<g>
	<path d="M481.6,541.3c-17.8,25.4-37.3,49.6-58.2,72.5c55.7,54.1,107.6,79.4,136.3,62.8c28.8-16.6,32.8-74.2,13.8-149.5
		C545.1,533.5,514.2,538.3,481.6,541.3z M437.9,544.2c-25.3,1-50.6,1-75.9,0c12.6,16.4,25.3,31.6,37.9,45.5
		C412.7,575.8,425.3,560.6,437.9,544.2z M605.9,281.1c88.8,25.5,146.8,67.8,146.8,118.9s-58,93.4-146.8,118.9
		c22.3,89.7,14.7,161.1-29.5,186.6c-44.3,25.6-109.9-3.5-176.4-67.7c-66.5,64.2-132.1,93.2-176.4,67.7
		c-44.2-25.5-51.9-96.9-29.5-186.6C105.2,493.4,47.2,451.1,47.2,400s58-93.4,146.8-118.9c-22.3-89.7-14.7-161.1,29.5-186.6
		C267.9,68.9,333.5,98,400,162.2C466.5,98,532.1,68.9,576.4,94.5C620.6,120,628.3,191.4,605.9,281.1L605.9,281.1z M573.5,272.8
		c19-75.3,15-132.9-13.8-149.5c-28.8-16.6-80.6,8.7-136.3,62.8c19.7,21.4,39.3,45.8,58.2,72.5C514.2,261.7,545.1,266.5,573.5,272.8z
		 M226.5,527.2c-19,75.3-15,132.9,13.8,149.5c28.8,16.6,80.6-8.7,136.3-62.8c-20.9-22.9-40.4-47.1-58.2-72.5
		C287.5,538.6,256.8,533.8,226.5,527.2z M362.1,255.8c25.3-1,50.6-1,75.9,0c-12-15.7-24.6-30.8-37.9-45.4
		C387.3,224.2,374.7,239.4,362.1,255.8L362.1,255.8z M318.4,258.7c17.9-25.4,37.3-49.6,58.3-72.5c-55.8-54.1-107.7-79.4-136.4-62.8
		c-28.8,16.6-32.8,74.2-13.8,149.5C254.9,266.5,285.8,261.7,318.4,258.7L318.4,258.7z M463.1,509.3C486.9,474.5,508,438,526.2,400
		c-18.3-38-39.4-74.5-63.1-109.3c-42-3.1-84.2-3.1-126.3,0C313.1,325.5,292,362,273.8,400c18.3,38,39.4,74.5,63.1,109.3
		C378.9,512.5,421.1,512.5,463.1,509.3L463.1,509.3z M505.9,505c20.5-2.7,40-6.1,58.3-10.1c-6-18.8-12.8-37.3-20.4-55.6
		C532.1,461.7,519.5,483.6,505.9,505L505.9,505z M294.1,295c-20.5,2.7-40,6.1-58.3,10.1c5.7,17.9,12.5,36.5,20.4,55.6
		C267.9,338.3,280.5,316.4,294.1,295L294.1,295z M235.7,494.8c18.3,4,37.8,7.4,58.3,10.1c-13.5-21.4-26.2-43.3-37.9-65.7
		C248.2,458.3,241.4,476.9,235.7,494.8z M203.1,486.6c8.7-27.8,20-56.9,33.7-86.7c-13.7-29.7-25-58.9-33.7-86.7
		C128.4,334.5,80.6,366.8,80.6,400S128.4,465.4,203.1,486.6L203.1,486.6z M564.3,305.1c-18.3-4-37.8-7.4-58.3-10.1
		c13.5,21.4,26.2,43.3,37.9,65.7C551.8,341.6,558.6,323,564.3,305.1z M596.9,313.3c-8.7,27.8-20,56.9-33.7,86.7
		c13.7,29.7,25,58.9,33.7,86.7c74.7-21.2,122.6-53.5,122.6-86.7S671.6,334.5,596.9,313.3L596.9,313.3z M400,462.7
		c-34.6,0-62.7-28.1-62.7-62.7s28.1-62.7,62.7-62.7l0,0c34.6,0,62.7,28.1,62.7,62.7S434.6,462.7,400,462.7z"/>
</g>
</svg>
