<?xml version="1.0" encoding="utf-8"?>
<!-- Generator: Adobe Illustrator 25.0.0, SVG Export Plug-In . SVG Version: 6.00 Build 0)  -->
<svg version="1.1" id="Layer_1" xmlns="http://www.w3.org/2000/svg" xmlns:xlink="http://www.w3.org/1999/xlink" x="0px" y="0px"
	 viewBox="0 0 100 100" style="enable-background:new 0 0 100 100;" xml:space="preserve">
<style type="text/css">
	.st0{fill:#088BB3;}
</style>
<path class="st0" d="M75.83,21.35c-2.25-6.3-8.23-10.5-14.7-10.5c-2.16,0-4.22,0.4-6.18,1.3c-4.61-4.5-10.59-6.9-16.96-6.9
	c-12.94,0-23.72,10.3-24.6,23.4c-7.74,3.3-12.84,11-12.84,19.7c0,11.8,9.41,21.4,20.98,21.4c2.25,0,4.9,0,7.74,0l1.27-8.5h-8.92
	c-6.86,0-12.55-5.9-12.55-13c0-5.9,3.92-11,9.61-12.4l3.53-0.8l-0.29-4v-0.1c0-0.2,0-0.5,0-0.7c0-9.1,7.25-16.4,16.08-16.4
	c5,0,9.61,2.3,12.74,6.4l2.55,3.4l0.1-0.2c1.47-2.7,4.31-4.3,7.25-4.3c4.61,0,8.43,3.8,8.43,8.6c0,0.9-0.39,2.9-0.39,2.9v0.2
	l0.2-0.1c0,0,3.23-0.9,6.67-0.9c8.43,0,15.29,7,15.29,15.6s-6.86,15.6-15.29,15.6h-5l-4.61,8.5c4.31,0,7.84,0,9.9,0l0,0l0,0
	c13.04-0.4,23.62-11.2,23.62-24.1C99.26,32.45,88.77,21.55,75.83,21.35z"/>
<polygon class="st0" points="42.8,36.95 58.18,36.95 49.75,61.25 62.3,61.25 43.68,94.75 47.5,69.85 37.01,69.85 "/>
</svg>
