<?xml version="1.0" encoding="utf-8"?>
<!-- Generator: Adobe Illustrator 25.0.0, SVG Export Plug-In . SVG Version: 6.00 Build 0)  -->
<svg version="1.1" id="Capa_1" xmlns="http://www.w3.org/2000/svg" xmlns:xlink="http://www.w3.org/1999/xlink" x="0px" y="0px"
	 viewBox="0 0 800 800" style="enable-background:new 0 0 800 800;" xml:space="preserve">
<g>
	<path d="M376.3,489.5v26.4h47.1v-26.3c-7.7,1.5-15.5,2.3-23.4,2.3C392,491.9,384.1,491,376.3,489.5z"/>
	<path d="M620.5,451.9l-96.6-28.8c-6.2,7.8-12.8,14.9-19.5,21.5L613,477c10.6,3.2,17.7,12.7,17.7,23.8v42.4
		c0,119.6-91.5,218.2-208.1,229.6l27.2-64.3l-26.2-175h-47.4l-26.2,175l27.2,64.3c-116.6-11.4-208.1-110-208.1-229.6v-42.4
		c0-11.1,7.1-20.6,17.7-23.8l108.6-32.4c-6.7-6.6-13.3-13.7-19.5-21.5l-96.5,28.8c-21.6,6.4-36.4,26.3-36.4,48.8v42.4
		C143.1,685,258.1,800,400,800c141.9,0,256.9-115,256.9-256.9v-42.4C656.9,478.2,642.1,458.3,620.5,451.9z"/>
	<path d="M261.2,348.8c26.9,57.7,76.4,116.9,138.8,116.9c62.3,0,111.8-59,138.7-116.7c21.3-4.2,41.6-24,51-51.2
		c11.7-33.7,3.6-66.7-18.1-80.1c0-0.5,0.2-1.1,0.1-1.6c-0.4-2.8-1.9-5.1-4-6.7c6.5-10.3,11.5-26.5,11.1-51.7
		c-0.2-9.3-1-19.7-2.8-31.7c-14.3-95.2-167.9-170.1-235.6-96c0,0-51.8-10.4-89.4,42.8c-15.2,21.4-36.9,64.3-35,100.2
		c0.7,14.1,5,27.2,15,37.5c-1.4,1.5-2.5,3.3-2.7,5.5c-0.1,0.6,0.1,1.1,0.1,1.6c-9.9,6.2-17.5,16.6-21.1,30c-4,15.2-3,33,3,50
		C219.6,324.7,239.5,344.4,261.2,348.8z M350.1,126c0,0,138.7,93.8,152.9,34.9c0,0,24.9,18.1,34.5,54.8
		c-10.1,5.7-18.3,13.3-24.3,20.2c-8.9-16.8-26.4-28.3-46.7-28.3c-20,0-37.2,11.2-46.3,27.5c-12.9-4.7-27.4-4.7-40.3,0
		c-9.1-16.3-26.3-27.5-46.3-27.5c-20.3,0-37.8,11.6-46.7,28.3c-5.9-6.7-13.8-14.2-23.7-19.9C271.2,192.1,295,137.9,350.1,126z
		 M439.7,247.3c-0.8-0.8-1.7-1.3-2.6-2.1c5.6-10.6,16.5-18.1,29.3-18.1c18.5,0,33.5,15,33.5,33.5c0,18.5-15.1,33.5-33.5,33.5
		c-17.4,0-31.3-13.5-32.9-30.5c2.2-0.2,4.4-0.9,6.2-2.6C443.5,257.4,443.6,251.2,439.7,247.3z M360.3,261.2c1.7,1.7,3.9,2.4,6.2,2.6
		c-1.6,17-15.5,30.5-32.9,30.5c-18.5,0-33.5-15-33.5-33.5c0-18.5,15.1-33.5,33.5-33.5c12.8,0,23.6,7.5,29.3,18.1
		c-0.8,0.7-1.8,1.3-2.6,2.1C356.4,251.2,356.5,257.4,360.3,261.2z M280.5,259.7c0,0.3-0.1,0.6-0.1,1c0,29.3,23.9,53.2,53.2,53.2
		c29.3,0,53.2-23.8,53.2-53.2c0-2.5-0.4-4.8-0.7-7.2c8.9-3.5,19.1-3.5,28,0c-0.3,2.4-0.7,4.7-0.7,7.2c0,29.3,23.9,53.2,53.2,53.2
		c29.3,0,53.2-23.8,53.2-53.2c0-0.3-0.1-0.6-0.1-1c2.9-4.5,12-17.1,24.9-25.3c2,1.9,4.6,3.2,7.5,3.5c0.8,0.1,2.4,0.2,3.2,0.5
		c11.6,4,18.5,25.9,9.8,50.8c-7.8,22.3-23.6,34.4-34.9,34.4c-0.1,0-0.2,0-0.3,0c-5.2,0-9.9,3.1-12,7.9
		c-22.8,52.2-65.7,108.1-117.9,108.1s-95.1-55.8-117.9-108.1c-2.1-4.8-7.3-7.9-12.6-7.9c-10.9,0-26.8-12.1-34.5-34.4
		c-4.2-12-5-24.7-2.4-34.8c1.3-4.9,4.6-13.4,12.2-16.1c0.8-0.3,2.4-0.4,3.2-0.5c2.9-0.3,5.5-1.6,7.5-3.5
		C268.5,242.6,277.5,255.2,280.5,259.7z"/>
</g>
</svg>
