<?xml version="1.0" encoding="utf-8"?>
<!-- Generator: Adobe Illustrator 25.0.0, SVG Export Plug-In . SVG Version: 6.00 Build 0)  -->
<svg version="1.1" id="Layer_1" xmlns="http://www.w3.org/2000/svg" xmlns:xlink="http://www.w3.org/1999/xlink" x="0px" y="0px"
	 viewBox="0 0 1570 1403" style="enable-background:new 0 0 1570 1403;" xml:space="preserve">
<style type="text/css">
	.stsernow0{fill-rule:evenodd;clip-rule:evenodd;fill:#7DAF9C;}
</style>
<path id="Layer" class="stsernow0" d="M1228.4,138.9c129.2,88.9,228.9,214.3,286.3,360.2c57.5,145.8,70,305.5,36,458.5
	S1437.8,1250,1324,1357.9c-13.3,12.9-28.8,23.4-45.8,30.8c-17,7.5-35.2,11.9-53.7,12.9c-18.5,1.1-37.1-1.1-54.8-6.6
	c-17.7-5.4-34.3-13.9-49.1-25.2c-48.2-35.9-101.8-63.8-158.8-82.6c-57.1-18.9-116.7-28.5-176.8-28.5s-119.8,9.6-176.8,28.5
	c-57,18.8-110.7,46.7-158.9,82.6c-14.6,11.2-31,19.8-48.6,25.3s-36,7.8-54.4,6.8c-18.4-0.9-36.5-5.1-53.4-12.4s-32.4-17.5-45.8-30.2
	C132.5,1251,53,1110.8,19,956.8s-20.9-314.6,37.6-461c58.5-146.5,159.6-272,290.3-360.3S631.8,0.1,789.6,0.5
	C946.4,1.8,1099.2,50.1,1228.4,138.9L1228.4,138.9z M936.6,1152.9c48.2-19.2,92-48,128.7-84.6c36.7-36.7,65.5-80.4,84.7-128.6
	c19.2-48.1,28.4-99.7,27-151.5c0-103.9-41.3-203.5-114.8-277S889,396.4,785,396.4s-203.7,41.3-277.2,114.8S393,684.3,393,788.2
	c-1.4,51.8,7.8,103.4,27,151.5c19.2,48.2,48,91.9,84.7,128.6c36.7,36.6,80.5,65.4,128.6,84.6c48.2,19.2,99.8,28.4,151.7,27
	C836.8,1181.3,888.4,1172.1,936.6,1152.9L936.6,1152.9z"/>
</svg>
