<?xml version="1.0" encoding="utf-8"?>
<!-- Generator: Adobe Illustrator 25.0.0, SVG Export Plug-In . SVG Version: 6.00 Build 0)  -->
<svg version="1.1" id="Layer_1" xmlns="http://www.w3.org/2000/svg" xmlns:xlink="http://www.w3.org/1999/xlink" x="0px" y="0px"
	 viewBox="0 0 800 800" style="enable-background:new 0 0 800 800;" xml:space="preserve">
<style type="text/css">
	.st0{fill:none;stroke:#204593;stroke-width:50;stroke-linecap:round;stroke-miterlimit:133.3333;}
	.st1{fill:none;stroke:#204593;stroke-width:50;stroke-miterlimit:133.3333;}
</style>
<path class="st0" d="M183.3,516.7c0-31.4,0-47.1,9.8-56.9c9.8-9.8,25.5-9.8,56.9-9.8h33.3c31.4,0,47.1,0,56.9,9.8
	c9.8,9.8,9.8,25.5,9.8,56.9V550c0,31.4,0,47.1-9.8,56.9c-9.8,9.8-25.5,9.8-56.9,9.8c-47.1,0-70.7,0-85.4-14.6"/>
<path class="st1" d="M183.3,283.3c0-47.1,0-70.7,14.6-85.4s38.2-14.6,85.4-14.6c31.4,0,47.1,0,56.9,9.8c9.8,9.8,9.8,25.5,9.8,56.9
	v33.3c0,31.4,0,47.1-9.8,56.9c-9.8,9.8-25.5,9.8-56.9,9.8H250c-31.4,0-47.1,0-56.9-9.8C183.3,330.5,183.3,314.8,183.3,283.3z"/>
<path class="st1" d="M450,516.7c0-31.4,0-47.1,9.8-56.9s25.5-9.8,56.9-9.8H550c31.4,0,47.1,0,56.9,9.8c9.8,9.8,9.8,25.5,9.8,56.9
	c0,47.1,0,70.7-14.6,85.4c-14.6,14.6-38.2,14.6-85.4,14.6c-31.4,0-47.1,0-56.9-9.8c-9.8-9.8-9.8-25.5-9.8-56.9V516.7z"/>
<path class="st0" d="M616.7,283.3c0,31.4,0,47.1-9.8,56.9c-9.8,9.8-25.5,9.8-56.9,9.8h-33.3c-31.4,0-47.1,0-56.9-9.8
	c-9.8-9.8-9.8-25.5-9.8-56.9V250c0-31.4,0-47.1,9.8-56.9c9.8-9.8,25.5-9.8,56.9-9.8c47.1,0,70.7,0,85.4,14.6"/>
<path class="st0" d="M733.3,466.7c0,11.6,0,22.7,0,33.3 M466.7,733.3c125.7,0,188.6,0,227.6-39.1c21.8-21.8,31.4-50.9,35.7-94.3"/>
<path class="st0" d="M333.3,733.3c-125.7,0-188.6,0-227.6-39.1c-39.1-39-39.1-101.9-39.1-227.6"/>
<path class="st0" d="M333.3,66.7c-125.7,0-188.6,0-227.6,39.1C83.9,127.5,74.3,156.7,70,200 M66.7,333.3c0-11.6,0-22.7,0-33.3"/>
<path class="st0" d="M466.7,66.7c125.7,0,188.6,0,227.6,39.1c39.1,39.1,39.1,101.9,39.1,227.6"/>
</svg>
