<?xml version="1.0" encoding="utf-8"?>
<!-- Generator: Adobe Illustrator 25.0.0, SVG Export Plug-In . SVG Version: 6.00 Build 0)  -->
<svg version="1.1" id="Layer_1" xmlns="http://www.w3.org/2000/svg" xmlns:xlink="http://www.w3.org/1999/xlink" x="0px" y="0px"
	 viewBox="0 0 800 800" style="enable-background:new 0 0 800 800;" xml:space="preserve">
<g>
	<g>
		<path d="M716.7,316.7c-8.5,0-16.8,1.4-24.9,4l-76.1-143.8c5.7-5.3,10.6-11.4,14.7-18.5c23-39.7,9.3-90.8-30.4-113.9l-0.1,0
			c-19.3-11.1-41.9-14.1-63.4-8.2c-21.5,5.8-39.4,19.6-50.3,38.7c-3,5-5.2,10.4-7,15.9H320.7c-1.8-5.5-4.1-10.9-7-15.9
			c-11.1-19.2-28.9-33-50.4-38.8c-21.6-5.8-44.1-2.9-63.4,8.3c-39.7,23.1-53.4,74.2-30.4,113.9c4.1,7.1,9.1,13.2,14.7,18.5
			l-76.1,143.7c-8-2.5-16.3-4-24.9-4C37.4,316.7,0,354.1,0,400s37.4,83.3,83.3,83.3c8.5,0,16.8-1.4,24.9-4l76.1,143.7
			c-5.7,5.3-10.6,11.4-14.7,18.4c-23,39.7-9.3,90.8,30.4,114c12.8,7.4,27.1,11.2,41.5,11.2c7.3,0,14.7-1,21.9-2.9
			c21.5-5.8,39.4-19.6,50.3-38.7c3-5,5.2-10.4,7-15.9h158.5c1.8,5.5,4,10.8,6.9,15.8c11.1,19.3,29,33.1,50.4,38.9
			c7.2,2,14.6,2.9,21.9,2.9c14.4,0,28.7-3.8,41.5-11.2c39.7-23.1,53.4-74.2,30.4-113.9c-4.1-7-9-13.1-14.7-18.4l76.1-143.7
			c8,2.5,16.3,4,24.9,4c45.9,0,83.3-37.4,83.3-83.3S762.6,316.7,716.7,316.7z M508.8,109.9L508.8,109.9c0.9-6.6,3-12.6,6.3-18.2
			c6.6-11.5,17.3-19.8,30.2-23.3c4.3-1.2,8.8-1.8,13.1-1.8c8.6,0,17.2,2.3,24.9,6.7c23.8,13.9,32,44.5,18.3,68.4
			c-4,7-9.4,12.5-16.2,16.7c-15.7,10.3-35.7,10.9-52,1.5c-2.2-1.3-4.3-2.7-6.3-4.3c-11.7-9.4-18.6-23.4-18.7-38.3
			C508.3,115,508.5,112.5,508.8,109.9z M216.7,73.4c7.7-4.4,16.2-6.7,24.9-6.7c4.4,0,8.8,0.6,13.1,1.8c12.8,3.5,23.6,11.7,30.2,23.3
			l0.1,0.2c3.2,5.5,5.3,11.5,6.2,18.1c2.8,20.1-6.8,39.8-24.5,50c-16.4,9.4-36.3,8.8-52.4-1.7l-0.1-0.1c-6.4-4-11.7-9.5-15.8-16.4
			C184.6,117.9,192.8,87.2,216.7,73.4z M107.8,443.6c-7.7,4.3-15.9,6.4-24.4,6.4c-27.6,0-50-22.4-50-50s22.4-50,50-50
			c8.5,0,16.7,2.2,24.4,6.4c15.8,8.8,25.6,25.5,25.6,43.6C133.3,418.1,123.5,434.8,107.8,443.6z M291.5,685
			c-0.1,1.7-0.1,3.4-0.3,5.1l0,0.1c-0.9,6.5-3,12.5-6.3,18.1c-6.6,11.5-17.3,19.8-30.2,23.3c-12.9,3.5-26.4,1.7-38-4.9
			c-23.9-13.9-32.1-44.6-18.3-68.4c4-7,9.4-12.5,16.2-16.7c3.8-2.5,7.8-4.3,12-5.7c0.2-0.1,0.5-0.2,0.7-0.3c4-1.2,8.1-1.8,12.2-2
			c0.5,0,0.9-0.1,1.4-0.1c2.8-0.1,5.7,0.5,8.5,0.9c1.6,0.2,3.2,0.2,4.8,0.6c4.2,1.1,8.3,2.7,12.3,5c0.1,0,0.1,0,0.2,0.1
			c1.1,0.7,2.1,1.5,3.2,2.2c1,0.7,2.1,1.3,3.1,2.1c0.1,0.1,0.2,0.2,0.2,0.2c1.9,1.5,3.6,3.1,5.2,4.8c0.1,0.1,0.1,0.1,0.1,0.2
			C287.3,659.1,292,671.8,291.5,685z M583.3,726.6c-11.6,6.7-25.1,8.4-38,4.9c-12.9-3.5-23.6-11.7-30.3-23.4
			c-3.2-5.5-5.3-11.5-6.2-18.1c-2.8-20.1,6.8-39.8,24.5-50.1c4-2.3,8.2-3.9,12.5-5.1c1.6-0.4,3.2-0.4,4.8-0.6c2.8-0.4,5.6-1,8.5-0.9
			c0.5,0,1,0.1,1.5,0.1c4.1,0.2,8.1,0.8,12.1,2c0.3,0.1,0.6,0.2,0.9,0.3c4.1,1.4,8.1,3.2,11.9,5.6l0.5,0.3c6.4,4,11.7,9.5,15.7,16.4
			C615.4,682.1,607.2,712.8,583.3,726.6z M634,410.3c0.1,1.1,0.4,2.1,0.5,3.2c0.4,2.3,0.8,4.6,1.4,6.9c0.3,1.2,0.6,2.3,1,3.5
			c0.7,2.2,1.4,4.3,2.2,6.4c0.4,1.1,0.8,2.1,1.3,3.2c1.1,2.4,2.3,4.8,3.6,7.1c0.3,0.6,0.6,1.3,1,1.9c1.7,2.9,3.6,5.7,5.7,8.4
			c0.5,0.6,1,1.2,1.6,1.8c1.6,2,3.3,3.9,5.1,5.8c0.8,0.8,1.7,1.6,2.5,2.4c0.9,0.8,1.7,1.7,2.7,2.5l-75.2,142c-1-0.4-2-0.6-3-1
			c-1.1-0.4-2.2-0.7-3.3-1c-2.5-0.7-5.1-1.3-7.6-1.8c-0.9-0.2-1.7-0.4-2.5-0.5c-3.5-0.5-7-0.9-10.5-1c0,0,0,0,0,0
			c-3.4-0.1-6.9,0.1-10.3,0.4c-0.9,0.1-1.9,0.3-2.8,0.4c-2.5,0.3-5,0.8-7.6,1.4c-1.1,0.2-2.2,0.5-3.2,0.8c-2.5,0.7-4.9,1.5-7.3,2.4
			c-0.9,0.4-1.9,0.7-2.8,1.1c-3.3,1.4-6.5,2.9-9.7,4.7c-3.4,2-6.6,4.2-9.6,6.5c-1,0.7-1.8,1.6-2.8,2.3c-2,1.7-3.9,3.5-5.8,5.3
			c-1,1-1.9,2-2.8,3c-1.7,1.9-3.2,3.9-4.7,5.9c-0.8,1-1.5,2-2.2,3.1c-1.7,2.5-3.2,5.1-4.5,7.8c-0.3,0.6-0.7,1.2-1,1.9
			c-1.6,3.3-2.9,6.7-4.1,10.2c-0.4,1.1-0.6,2.2-0.9,3.3c-0.7,2.5-1.3,5-1.8,7.6c-0.2,1.4-0.4,2.7-0.6,4.1c-0.2,1.2-0.4,2.3-0.5,3.5
			H324.7c-0.1-1.2-0.4-2.3-0.5-3.5c-0.2-1.4-0.4-2.7-0.6-4c-0.5-2.6-1.1-5.1-1.8-7.7c-0.3-1.1-0.5-2.2-0.9-3.2
			c-1.1-3.5-2.5-6.9-4.1-10.2c-0.3-0.7-0.7-1.3-1.1-2c-1.4-2.6-2.8-5.2-4.5-7.7c-0.7-1.1-1.5-2.2-2.3-3.2c-1.4-2-3-3.9-4.6-5.7
			c-0.9-1.1-1.9-2.1-2.9-3.1c-1.8-1.8-3.6-3.5-5.6-5.2c-1-0.8-1.9-1.7-2.9-2.5c-2.9-2.3-6-4.4-9.3-6.3c-0.1-0.1-0.2-0.1-0.3-0.2
			l-0.1,0c-3.1-1.8-6.3-3.3-9.6-4.7c-1.1-0.5-2.2-0.8-3.4-1.2c-2.2-0.8-4.4-1.5-6.6-2.1c-1.3-0.4-2.6-0.7-4-1
			c-2.1-0.5-4.2-0.8-6.3-1.1c-1.4-0.2-2.7-0.4-4.1-0.6c-2.4-0.2-4.7-0.3-7.1-0.3c-1.7,0-3.4,0-5.1,0.1c-2.6,0.1-5.1,0.3-7.6,0.7
			c-1.6,0.2-3.1,0.6-4.7,0.9c-1.8,0.4-3.5,0.8-5.3,1.2c-1.6,0.5-3.2,1-4.8,1.5c-0.7,0.3-1.5,0.4-2.3,0.7l-75.2-142
			c0.9-0.8,1.7-1.6,2.6-2.4c0.9-0.8,1.8-1.7,2.7-2.5c1.7-1.8,3.4-3.6,4.9-5.5c0.6-0.7,1.2-1.4,1.7-2.1c2-2.6,3.9-5.4,5.6-8.3
			c0.4-0.7,0.7-1.4,1.1-2.1c1.3-2.3,2.4-4.6,3.5-6.9c0.5-1.1,0.9-2.2,1.3-3.3c0.8-2.1,1.6-4.2,2.2-6.4c0.4-1.2,0.7-2.3,1-3.5
			c0.6-2.3,1-4.6,1.4-6.9c0.2-1.1,0.4-2.1,0.5-3.2c0.4-3.4,0.7-6.8,0.7-10.3c0-3.5-0.3-6.9-0.7-10.3c-0.1-1.1-0.4-2.1-0.5-3.2
			c-0.4-2.3-0.8-4.6-1.4-6.9c-0.3-1.2-0.6-2.3-1-3.5c-0.7-2.2-1.4-4.3-2.2-6.5c-0.4-1-0.8-2.1-1.3-3.1c-1.1-2.5-2.3-4.9-3.6-7.3
			c-0.3-0.6-0.6-1.2-0.9-1.7c-1.7-2.9-3.6-5.7-5.7-8.4c-0.4-0.6-0.9-1.1-1.4-1.6c-1.7-2.1-3.5-4.1-5.4-6c-0.8-0.8-1.5-1.5-2.3-2.2
			c-0.9-0.9-1.8-1.8-2.8-2.6l75.2-142c1.3,0.5,2.5,0.8,3.8,1.2c1.1,0.3,2.1,0.7,3.2,1c3.2,0.9,6.4,1.6,9.6,2.1
			c0.3,0,0.6,0.1,0.9,0.2c3.5,0.5,7.1,0.7,10.6,0.8c0.4,0,0.7,0.1,1.1,0.1c0.9,0,1.7-0.1,2.6-0.2c2.1-0.1,4.1-0.2,6.2-0.4
			c1.3-0.1,2.6-0.3,4-0.5c2-0.3,4.1-0.7,6.1-1.2c1.3-0.3,2.6-0.6,3.8-1c2.2-0.6,4.3-1.4,6.4-2.2c1.1-0.4,2.1-0.7,3.2-1.2
			c3.1-1.3,6.2-2.8,9.3-4.6c3.4-2,6.6-4.2,9.6-6.5c1-0.8,1.8-1.6,2.8-2.4c2-1.7,3.9-3.5,5.8-5.3c0.9-1,1.9-2,2.7-3
			c1.7-1.9,3.3-3.9,4.7-5.9c0.7-1,1.5-2,2.2-3c1.7-2.6,3.3-5.2,4.7-8c0.3-0.6,0.6-1.1,0.9-1.7c1.6-3.3,3-6.8,4.1-10.3
			c0.3-1,0.6-2.1,0.9-3.2c0.7-2.5,1.4-5.1,1.8-7.7c0.2-1.3,0.4-2.7,0.6-4c0.2-1.2,0.4-2.3,0.5-3.5h150.7c0.1,1.2,0.4,2.4,0.5,3.5
			c0.2,1.3,0.4,2.7,0.6,4c0.5,2.6,1.1,5.2,1.8,7.8c0.3,1,0.5,2.1,0.9,3.1c1.2,3.5,2.5,7,4.1,10.3c0.3,0.6,0.7,1.1,1,1.7
			c1.4,2.7,2.9,5.4,4.6,8c0.7,1,1.5,2,2.2,3c1.5,2,3.1,4,4.8,5.9c0.9,1,1.8,2,2.7,3c1.8,1.9,3.8,3.6,5.8,5.3
			c0.9,0.8,1.8,1.6,2.8,2.4c3,2.4,6.2,4.6,9.6,6.5c3,1.7,6.1,3.2,9.3,4.6c1,0.4,2.1,0.8,3.1,1.2c2.1,0.8,4.3,1.6,6.4,2.2
			c1.3,0.4,2.6,0.7,3.9,1c1.9,0.5,3.9,0.8,5.8,1.2c1.4,0.2,2.9,0.4,4.3,0.6c1.8,0.2,3.6,0.3,5.4,0.4c1.1,0,2.1,0.2,3.2,0.2
			c0.5,0,0.9-0.1,1.4-0.1c2.7-0.1,5.5-0.3,8.2-0.6c1.8-0.2,3.6-0.5,5.4-0.8c2.2-0.4,4.4-0.9,6.6-1.4c1.6-0.4,3.1-0.9,4.6-1.5
			c1-0.3,2-0.6,3-0.9l75.2,142c-0.9,0.8-1.8,1.7-2.7,2.5c-0.9,0.8-1.7,1.6-2.5,2.4c-1.8,1.8-3.5,3.7-5.1,5.7
			c-0.5,0.6-1.1,1.2-1.6,1.9c-2.1,2.7-3.9,5.4-5.7,8.3c-0.4,0.6-0.7,1.3-1,2c-1.3,2.3-2.5,4.6-3.5,7c-0.5,1.1-0.9,2.1-1.3,3.2
			c-0.8,2.1-1.6,4.2-2.2,6.4c-0.3,1.2-0.7,2.3-1,3.5c-0.6,2.3-1,4.6-1.4,6.9c-0.2,1.1-0.4,2.1-0.5,3.2c-0.4,3.4-0.7,6.8-0.7,10.3
			C633.3,403.5,633.6,406.9,634,410.3z M716.7,450c-8.5,0-16.7-2.2-24.4-6.4c-15.8-8.8-25.6-25.5-25.6-43.6
			c0-18.1,9.8-34.8,25.6-43.6c7.7-4.2,15.9-6.4,24.4-6.4c27.6,0,50,22.4,50,50S744.2,450,716.7,450z"/>
	</g>
</g>
<g>
	<path d="M461.2,256.7c-1-3.1-3.3-5.7-6.2-7.2s-6.4-1.8-9.5-0.7l-51.9,16.9c-6.5,2.1-10.1,9.1-8,15.7l2.6,8l-131.9,96.8l-52,16.9
		c-3.1,1-5.7,3.3-7.2,6.2s-1.8,6.4-0.7,9.5l31.7,97.3c1.7,5.2,6.5,8.6,11.8,8.6c1.3,0,2.5-0.2,3.8-0.6l52-16.9l26.8,0.2
		c5.4,25.4,27.9,44.5,54.9,44.5c26.8,0,49.1-18.8,54.7-43.9l27.4,0.2l2.6,8c1,3.1,3.3,5.7,6.2,7.2c1.8,0.9,3.7,1.4,5.6,1.4
		c1.3,0,2.6-0.2,3.8-0.6l51.9-16.9c6.5-2.1,10.1-9.1,8-15.7L461.2,256.7z M247.7,496.7l-24-73.7L254,413l24,73.7L247.7,496.7z
		 M377.2,526.9c-13.1,0-24.3-8.1-29-19.5l57.8,0.3C401.3,519,390.2,526.9,377.2,526.9z M302.6,482.4l-13.1-40.1l-13.1-40.1
		l119.8-87.9L433,427.2l18.2,56L302.6,482.4z M481.7,496.6l-1.6-4.7l0,0l-32.8-100.8l-34.3-105.6l28.3-9.2L510,487.4L481.7,496.6z"
		/>
	<path d="M502.9,317c1.8,0.9,3.8,1.4,5.6,1.4c4.5,0,8.9-2.4,11.1-6.8l22.3-43.6c3.1-6.1,0.7-13.5-5.4-16.7
		c-6.1-3.1-13.5-0.7-16.7,5.4l-22.3,43.6C494.4,306.5,496.8,313.9,502.9,317z"/>
	<path d="M596.2,435l-43.6-22.3c-6.1-3.1-13.5-0.7-16.6,5.4c-3.1,6.1-0.7,13.5,5.4,16.6l43.6,22.3c1.8,0.9,3.8,1.4,5.6,1.4
		c4.5,0,8.9-2.4,11.1-6.8C604.7,445.6,602.3,438.1,596.2,435z"/>
	<path d="M533.4,363c1.7,5.2,6.5,8.6,11.8,8.6c1.3,0,2.5-0.2,3.8-0.6l46.6-15.2c6.5-2.1,10.1-9.1,8-15.7s-9.1-10-15.7-8l-46.6,15.2
		C534.9,349.5,531.3,356.5,533.4,363z"/>
</g>
</svg>
