<?xml version="1.0" encoding="utf-8"?>
<!-- Generator: Adobe Illustrator 25.0.0, SVG Export Plug-In . SVG Version: 6.00 Build 0)  -->
<svg version="1.1" id="Layer_1" xmlns="http://www.w3.org/2000/svg" xmlns:xlink="http://www.w3.org/1999/xlink" x="0px" y="0px"
	 viewBox="0 0 800 800" style="enable-background:new 0 0 800 800;" xml:space="preserve">
<style type="text/css">
	.stwm0{fill:#1F4592;}
	.stwm1{fill:#06ABE1;}
</style>
<g>
	<g>
		<path class="stwm0" d="M742.8,253.7h-55.6V75.9c0-9-7.3-16.3-16.3-16.3H16.3C7.3,59.6,0,66.9,0,75.9v479.5c0,9,7.3,16.3,16.3,16.3
			h250.1l-8.8,58.2h-38.2c-9,0-16.3,7.3-16.3,16.3c0,9,7.3,16.3,16.3,16.3h52.3h143.9h0h52.3c9,0,16.3-7.3,16.3-16.3
			s-7.3-16.3-16.3-16.3h-38.2l-8.8-58.2h68.5v91.3v20.2c0,31.5,25.6,57.2,57.2,57.2h196.4c31.5,0,57.2-25.7,57.2-57.2v-20.2V328.6
			v-17.7C800,279.4,774.4,253.7,742.8,253.7z M290.6,629.9l8.8-58.2h88.4l8.8,58.2H290.6z M489.3,310.9v17.7v137
			c-2.9-2.5-6.6-4-10.7-4h-51c-9,0-16.3,7.3-16.3,16.3c0,9,7.3,16.3,16.3,16.3h51c4.1,0,7.9-1.5,10.7-4.1v48.8h-87.4H285.4H32.7
			v-44.8h351.9c9,0,16.3-7.3,16.3-16.3c0-9-7.3-16.3-16.3-16.3H32.7V92.2h621.9v161.5H546.5C514.9,253.7,489.3,279.4,489.3,310.9z
			 M546.5,707.8L546.5,707.8c-13.5,0-24.5-11-24.5-24.5v-3.8h111.8c-4.3,3.3-7,8.4-7,14.2c0,5.8,2.8,10.9,7,14.2H546.5z
			 M648.7,707.8h-8.1c-6.2-1.8-10.7-7.4-10.7-14.2c0-6.7,4.5-12.4,10.7-14.2h8.1c6.2,1.8,10.7,7.4,10.7,14.2S654.9,706,648.7,707.8z
			 M767.3,683.2c0,13.5-11,24.5-24.5,24.5h-87.3c4.3-3.3,7-8.4,7-14.2c0-5.8-2.8-10.9-7-14.2h111.8L767.3,683.2L767.3,683.2z
			 M767.3,646.7H522v-91.3V345h245.4V646.7z M767.3,312.3L767.3,312.3H522v-1.4c0-13.5,11-24.5,24.5-24.5h124.5h71.9
			c13.5,0,24.5,11,24.5,24.5L767.3,312.3L767.3,312.3z"/>
	</g>
</g>
<g>
	<g>
		<path class="stwm1" d="M736.7,360.2H551.9c-9,0-16.3,7.3-16.3,16.3v119c0,9,7.3,16.3,16.3,16.3h184.8c9,0,16.3-7.3,16.3-16.3v-119
			C753,367.5,745.7,360.2,736.7,360.2z M720.4,479.2H568.2v-86.3h152.1L720.4,479.2L720.4,479.2z"/>
	</g>
</g>
<g>
	<g>
		<path class="stwm1" d="M736.7,538.7H551.9c-9,0-16.3,7.3-16.3,16.3s7.3,16.3,16.3,16.3h184.8c9,0,16.3-7.3,16.3-16.3
			C753,546,745.7,538.7,736.7,538.7z"/>
	</g>
</g>
<g>
	<g>
		<path class="stwm1" d="M736.7,590.3H551.9c-9,0-16.3,7.3-16.3,16.3c0,9,7.3,16.3,16.3,16.3h184.8c9,0,16.3-7.3,16.3-16.3
			C753,597.6,745.7,590.3,736.7,590.3z"/>
	</g>
</g>
<g>
	<g>
		<path class="stwm1" d="M284.2,130H99.4c-9,0-16.3,7.3-16.3,16.3v119c0,9,7.3,16.3,16.3,16.3h184.8c9,0,16.3-7.3,16.3-16.3v-119
			C300.5,137.4,293.2,130,284.2,130z M267.8,249H115.7v-86.3h152.1L267.8,249L267.8,249z"/>
	</g>
</g>
<g>
	<g>
		<path class="stwm1" d="M453.1,308.6H99.3c-9,0-16.3,7.3-16.3,16.3c0,9,7.3,16.3,16.3,16.3h353.7c9,0,16.3-7.3,16.3-16.3
			C469.4,315.9,462.1,308.6,453.1,308.6z"/>
	</g>
</g>
<g>
	<g>
		<path class="stwm1" d="M453.1,360.2H99.3c-9,0-16.3,7.3-16.3,16.3s7.3,16.3,16.3,16.3h353.7c9,0,16.3-7.3,16.3-16.3
			C469.4,367.5,462.1,360.2,453.1,360.2z"/>
	</g>
</g>
<g>
	<g>
		<path class="stwm1" d="M453.1,411.8H99.3c-9,0-16.3,7.3-16.3,16.3c0,9,7.3,16.3,16.3,16.3h353.7c9,0,16.3-7.3,16.3-16.3
			C469.4,419.1,462.1,411.8,453.1,411.8z"/>
	</g>
</g>
</svg>
