<svg width="24" height="24" viewBox="0 0 24 24" fill="none" xmlns="http://www.w3.org/2000/svg">
<path d="M2.77148 5.53453V16.6822H21.2294V5.53453C21.2291 5.26271 21.1209 5.0021 20.9287 4.8099C20.7365 4.61769 20.4759 4.50958 20.2041 4.50928H3.79673C3.52491 4.50958 3.26431 4.61769 3.0721 4.8099C2.8799 5.0021 2.77178 5.26271 2.77148 5.53453ZM7.55573 10.2442C7.55573 10.1447 7.59524 10.0493 7.66557 9.97899C7.7359 9.90866 7.83128 9.86915 7.93073 9.86915H8.64998C8.71086 9.67719 8.78828 9.49086 8.88136 9.31228L8.37248 8.8034C8.33763 8.76861 8.30998 8.72728 8.29111 8.68179C8.27224 8.63629 8.26253 8.58753 8.26253 8.53828C8.26253 8.48903 8.27224 8.44026 8.29111 8.39477C8.30998 8.34927 8.33763 8.30795 8.37248 8.27315L9.34261 7.30303C9.3774 7.26817 9.41873 7.24052 9.46422 7.22165C9.50972 7.20279 9.55848 7.19308 9.60773 7.19308C9.65698 7.19308 9.70575 7.20279 9.75124 7.22165C9.79674 7.24052 9.83806 7.26817 9.87286 7.30303L10.3817 7.8119C10.5603 7.71888 10.7467 7.64147 10.9386 7.58053V6.86128C10.9386 6.76182 10.9781 6.66644 11.0484 6.59611C11.1188 6.52579 11.2142 6.48628 11.3136 6.48628H12.6861C12.7856 6.48628 12.8809 6.52579 12.9513 6.59611C13.0216 6.66644 13.0611 6.76182 13.0611 6.86128V7.58053C13.2531 7.64134 13.4394 7.71875 13.618 7.8119L14.1269 7.30303C14.1617 7.26817 14.203 7.24052 14.2485 7.22165C14.294 7.20279 14.3427 7.19308 14.392 7.19308C14.4412 7.19308 14.49 7.20279 14.5355 7.22165C14.581 7.24052 14.6223 7.26817 14.6571 7.30303L15.6272 8.27315C15.6621 8.30795 15.6897 8.34927 15.7086 8.39477C15.7275 8.44026 15.7372 8.48903 15.7372 8.53828C15.7372 8.58753 15.7275 8.63629 15.7086 8.68179C15.6897 8.72728 15.6621 8.76861 15.6272 8.8034L15.1184 9.31228C15.2117 9.49153 15.289 9.67753 15.3497 9.86915H16.069C16.1684 9.86915 16.2638 9.90866 16.3341 9.97899C16.4045 10.0493 16.444 10.1447 16.444 10.2442V11.6167C16.444 11.7161 16.4045 11.8115 16.3341 11.8818C16.2638 11.9521 16.1684 11.9917 16.069 11.9917H15.3497C15.2889 12.1836 15.2114 12.3699 15.1184 12.5485L15.6272 13.0578C15.6621 13.0926 15.6897 13.1339 15.7086 13.1794C15.7275 13.2249 15.7372 13.2737 15.7372 13.3229C15.7372 13.3722 15.7275 13.4209 15.7086 13.4664C15.6897 13.5119 15.6621 13.5532 15.6272 13.588L14.6571 14.5582C14.6223 14.593 14.581 14.6207 14.5355 14.6395C14.49 14.6584 14.4412 14.6681 14.392 14.6681C14.3427 14.6681 14.294 14.6584 14.2485 14.6395C14.203 14.6207 14.1617 14.593 14.1269 14.5582L13.618 14.0493C13.4394 14.1423 13.2531 14.2197 13.0611 14.2807V14.9999C13.0611 15.0994 13.0216 15.1947 12.9513 15.2651C12.8809 15.3354 12.7856 15.3749 12.6861 15.3749H11.3136C11.2142 15.3749 11.1188 15.3354 11.0484 15.2651C10.9781 15.1947 10.9386 15.0994 10.9386 14.9999V14.2807C10.7466 14.2198 10.5603 14.1424 10.3817 14.0493L9.87286 14.5582C9.83806 14.593 9.79674 14.6207 9.75124 14.6395C9.70575 14.6584 9.65698 14.6681 9.60773 14.6681C9.55848 14.6681 9.50972 14.6584 9.46422 14.6395C9.41873 14.6207 9.3774 14.593 9.34261 14.5582L8.37248 13.588C8.33763 13.5532 8.30998 13.5119 8.29111 13.4664C8.27224 13.4209 8.26253 13.3722 8.26253 13.3229C8.26253 13.2737 8.27224 13.2249 8.29111 13.1794C8.30998 13.1339 8.33763 13.0926 8.37248 13.0578L8.88136 12.5485C8.78828 12.3699 8.71086 12.1836 8.64998 11.9917H7.93073C7.83128 11.9917 7.7359 11.9521 7.66557 11.8818C7.59524 11.8115 7.55573 11.7161 7.55573 11.6167V10.2442Z" fill="#386EC9"/>
<path d="M9.30262 11.5348C9.37225 11.8453 9.49533 12.1414 9.66638 12.4097C9.76013 12.5578 9.73875 12.7517 9.61462 12.8758L9.168 13.3228L9.60788 13.7627L10.0549 13.3157C10.1152 13.2554 10.1942 13.2175 10.2789 13.2082C10.3636 13.1988 10.449 13.2186 10.521 13.2643C10.7893 13.4352 11.0852 13.5582 11.3955 13.6277C11.4787 13.6463 11.5531 13.6927 11.6064 13.7592C11.6597 13.8257 11.6888 13.9085 11.6888 13.9937V14.6248H12.3113V13.9937C12.3112 13.9085 12.3403 13.8257 12.3936 13.7592C12.4469 13.6927 12.5213 13.6463 12.6045 13.6277C12.9149 13.5583 13.2108 13.4354 13.479 13.2643C13.5509 13.2186 13.6363 13.1987 13.7211 13.2081C13.8058 13.2174 13.8849 13.2554 13.9451 13.3157L14.3921 13.7627L14.832 13.3228L14.3854 12.8758C14.3252 12.8155 14.2873 12.7365 14.2779 12.6518C14.2684 12.5671 14.2881 12.4818 14.3336 12.4097C14.5047 12.1414 14.6278 11.8453 14.6974 11.5348C14.716 11.4516 14.7623 11.3772 14.8289 11.3239C14.8954 11.2706 14.9781 11.2416 15.0634 11.2416H15.6945V10.6191H15.0634C14.9781 10.6191 14.8954 10.59 14.8289 10.5367C14.7623 10.4834 14.716 10.409 14.6974 10.3258C14.6278 10.0153 14.5047 9.7193 14.3336 9.45096C14.288 9.37894 14.2683 9.29354 14.2777 9.20883C14.2872 9.12411 14.3251 9.04512 14.3854 8.98484L14.832 8.53784L14.3921 8.09796L13.9451 8.54497C13.8849 8.60529 13.8058 8.64327 13.7211 8.65261C13.6363 8.66195 13.5509 8.6421 13.479 8.59634C13.2107 8.42547 12.9148 8.30252 12.6045 8.23296C12.5213 8.21438 12.4469 8.168 12.3936 8.10146C12.3403 8.03493 12.3112 7.95222 12.3113 7.86697V7.23584H11.6888V7.86697C11.6888 7.95222 11.6597 8.03493 11.6064 8.10146C11.5531 8.168 11.4787 8.21438 11.3955 8.23296C11.0861 8.30196 10.7917 8.42421 10.521 8.59634C10.449 8.64203 10.3636 8.66184 10.2789 8.6525C10.1942 8.64316 10.1152 8.60523 10.0549 8.54497L9.60788 8.09796L9.168 8.53784L9.61462 8.98484C9.73875 9.10896 9.76013 9.30246 9.66638 9.45096C9.49545 9.71936 9.37238 10.0154 9.30262 10.3258C9.28404 10.409 9.23766 10.4834 9.17112 10.5367C9.10459 10.59 9.02188 10.6191 8.93662 10.6191H8.3055V11.2416H8.93662C9.02188 11.2416 9.10459 11.2706 9.17112 11.3239C9.23766 11.3772 9.28404 11.4516 9.30262 11.5348ZM12 8.99984C13.0646 8.99984 13.9305 9.86609 13.9305 10.9303C13.9305 11.9946 13.0643 12.8608 12 12.8608C10.9357 12.8608 10.0695 11.9946 10.0695 10.9303C10.0695 9.86609 10.9357 8.99984 12 8.99984ZM1.5 17.8986C1.5005 18.3207 1.66841 18.7254 1.96691 19.0239C2.2654 19.3224 2.67011 19.4903 3.09225 19.4908H20.9078C21.3299 19.4903 21.7346 19.3224 22.0331 19.0239C22.3316 18.7254 22.4995 18.3207 22.5 17.8986V17.4317H1.5V17.8986ZM9.375 17.986H14.625C14.7245 17.986 14.8198 18.0255 14.8902 18.0958C14.9605 18.1661 15 18.2615 15 18.361C15 18.4604 14.9605 18.5558 14.8902 18.6261C14.8198 18.6965 14.7245 18.736 14.625 18.736H9.375C9.27554 18.736 9.18016 18.6965 9.10983 18.6261C9.03951 18.5558 9 18.4604 9 18.361C9 18.2615 9.03951 18.1661 9.10983 18.0958C9.18016 18.0255 9.27554 17.986 9.375 17.986Z" fill="#386EC9"/>
<path d="M11.9998 12.111C12.6508 12.111 13.1803 11.5811 13.1803 10.9305C13.1803 10.2799 12.6508 9.75 11.9998 9.75C11.3488 9.75 10.8193 10.2795 10.8193 10.9305C10.8193 11.5815 11.3488 12.111 11.9998 12.111Z" fill="#386EC9"/>
</svg>
