<svg width="24" height="24" viewBox="0 0 24 24" fill="none" xmlns="http://www.w3.org/2000/svg">
<path fill-rule="evenodd" clip-rule="evenodd" d="M12.2733 3.23492C10.5282 3.17636 8.80871 3.66656 7.35681 4.63652C5.72435 5.72792 4.5288 7.35979 3.98028 9.24532C3.83175 9.22719 3.65388 9.23519 3.44268 9.29492C2.65415 9.51892 2.06135 10.1648 1.79468 10.7339C1.44855 11.4755 1.30268 12.4565 1.45655 13.4688C1.60935 14.4781 2.03575 15.3101 2.56908 15.8267C3.10401 16.3435 3.70801 16.5115 4.30801 16.3853C5.20135 16.1947 5.64428 16.052 5.51921 15.22L4.91388 11.1853C4.97536 10.0872 5.2913 9.01845 5.83675 8.06342C6.38221 7.10839 7.14224 6.29325 8.05681 5.68239C9.28937 4.85781 10.7494 4.44046 12.2316 4.48906C13.7137 4.53766 15.1433 5.04977 16.3192 5.95332C17.1311 6.57577 17.7987 7.36647 18.2762 8.27118C18.7538 9.17588 19.03 10.1732 19.0859 11.1947L18.6624 14.0168C18.203 15.2763 17.3958 16.3797 16.3346 17.1991C15.2735 18.0185 14.0017 18.5202 12.6669 18.6461H10.8627C10.7523 18.6459 10.6429 18.6674 10.5409 18.7096C10.4388 18.7517 10.3461 18.8135 10.268 18.8916C10.1899 18.9696 10.128 19.0623 10.0858 19.1643C10.0436 19.2664 10.022 19.3757 10.0221 19.4861V19.9293C10.0219 20.0398 10.0435 20.1491 10.0857 20.2512C10.1279 20.3532 10.1898 20.446 10.2679 20.524C10.346 20.6021 10.4387 20.664 10.5408 20.7061C10.6429 20.7483 10.7523 20.7698 10.8627 20.7696H13.1376C13.2479 20.7698 13.3572 20.7481 13.4591 20.706C13.561 20.6638 13.6536 20.6019 13.7315 20.5239C13.8094 20.4458 13.8712 20.3531 13.9132 20.2512C13.9552 20.1492 13.9766 20.0399 13.9763 19.9296V19.6976C16.0202 19.1971 17.8009 17.9456 18.964 16.192L19.6928 16.3853C20.2859 16.5392 20.8971 16.3432 21.4317 15.8267C21.9651 15.3099 22.3912 14.4781 22.5443 13.4688C22.6989 12.4563 22.5485 11.4771 22.2067 10.7339C21.8635 9.99066 21.3523 9.51866 20.7621 9.34932C20.5149 9.27812 20.2467 9.25199 20.0165 9.24532C19.5212 7.54001 18.4945 6.03731 17.0859 4.95599C15.7012 3.89302 14.0181 3.29108 12.2733 3.23492Z" fill="#348FA1"/>
<path fill-rule="evenodd" clip-rule="evenodd" d="M14.9364 10.4933C15.2254 10.4937 15.5025 10.6086 15.7068 10.813C15.9111 11.0174 16.026 11.2944 16.0263 11.5834C16.0258 11.8724 15.9108 12.1494 15.7065 12.3537C15.5021 12.5581 15.2251 12.6731 14.9362 12.6736C14.6469 12.6736 14.3694 12.5589 14.1647 12.3545C13.96 12.15 13.8448 11.8727 13.8444 11.5834C13.8445 11.4402 13.8728 11.2983 13.9277 11.1659C13.9826 11.0336 14.063 10.9133 14.1644 10.8121C14.2658 10.7108 14.3861 10.6305 14.5186 10.5758C14.651 10.5211 14.7929 10.4929 14.9362 10.493L14.9364 10.4933ZM12.0004 10.4933C12.216 10.4934 12.4267 10.5574 12.6059 10.6773C12.7851 10.7971 12.9247 10.9674 13.0072 11.1666C13.0896 11.3658 13.1111 11.5849 13.069 11.7963C13.0269 12.0078 12.9231 12.202 12.7706 12.3544C12.6182 12.5068 12.424 12.6106 12.2125 12.6526C12.0011 12.6947 11.782 12.6731 11.5828 12.5906C11.3836 12.5081 11.2134 12.3684 11.0936 12.1892C10.9738 12.01 10.9098 11.7993 10.9098 11.5837C10.9096 11.4404 10.9377 11.2985 10.9925 11.1662C11.0473 11.0338 11.1276 10.9135 11.2289 10.8122C11.3302 10.7109 11.4505 10.6305 11.5829 10.5758C11.7153 10.521 11.8572 10.4932 12.0004 10.4933ZM9.06523 10.4933C9.21042 10.4901 9.35478 10.5159 9.48985 10.5693C9.62493 10.6226 9.74798 10.7024 9.8518 10.8039C9.95562 10.9055 10.0381 11.0267 10.0944 11.1606C10.1507 11.2945 10.1797 11.4382 10.1797 11.5834C10.1797 11.7287 10.1507 11.8724 10.0944 12.0063C10.0381 12.1401 9.95562 12.2614 9.8518 12.3629C9.74798 12.4645 9.62493 12.5443 9.48985 12.5976C9.35478 12.651 9.21042 12.6768 9.06523 12.6736C8.77903 12.6691 8.50606 12.5523 8.30525 12.3483C8.10443 12.1443 7.99188 11.8695 7.99188 11.5833C7.99188 11.2971 8.10443 11.0223 8.30525 10.8183C8.50606 10.6143 8.77903 10.4978 9.06523 10.4933ZM12.0004 5.80957C8.8031 5.80957 6.22656 8.3013 6.22656 11.5832C6.22656 13.1594 6.82256 14.5525 7.7935 15.5746L7.44896 17.1192C7.33536 17.6274 7.6879 17.9693 8.14496 17.7149L9.65296 16.8736C10.3939 17.1944 11.193 17.3591 12.0004 17.3573C15.1988 17.3573 17.7738 14.8672 17.7738 11.584C17.7738 8.30184 15.1988 5.8101 12.0004 5.8101V5.80957Z" fill="#348FA1"/>
</svg>
