<svg width="24" height="24" viewBox="0 0 24 24" fill="none" xmlns="http://www.w3.org/2000/svg">
<path fill-rule="evenodd" clip-rule="evenodd" d="M14.0857 18.4838C14.2464 18.4507 14.4049 18.4081 14.5605 18.3562C15.7436 17.9607 17.64 16.8824 19.2316 15.9858C19.5635 15.7989 19.9728 15.8753 20.2149 16.1693L20.2511 16.2132C20.3767 16.3652 20.4398 16.5594 20.4276 16.7562C20.4155 16.9531 20.3289 17.138 20.1855 17.2735C18.9505 18.4436 17.2376 19.9022 15.8332 20.8127C14.8704 21.437 13.6377 22.1804 12.4734 22.2753C11.5498 22.3505 10.6357 22.0125 9.71064 21.8792C8.46749 21.7 7.15479 21.7 5.86483 21.714C5.85914 21.7142 5.85348 21.7132 5.8482 21.711C5.84292 21.7089 5.83814 21.7057 5.83416 21.7016C5.83005 21.6977 5.82679 21.6929 5.82459 21.6877C5.8224 21.6824 5.82131 21.6768 5.82139 21.6711V17.8193L5.82125 17.802C5.82102 17.7922 5.8242 17.7826 5.83025 17.7748C5.83629 17.767 5.84483 17.7616 5.85442 17.7594C6.22949 17.6716 6.59991 17.5837 6.96912 17.4831C8.07739 17.1811 8.84861 16.2941 10.0764 16.6642L12.8665 17.5054C13.3086 17.6387 13.5641 18.1043 13.4425 18.5472L13.4422 18.5482C13.3524 18.847 13.0436 18.9632 12.7524 18.902C12.0776 18.7602 11.198 18.507 10.5607 18.5255C10.4382 18.5291 10.3189 18.5395 10.2023 18.5562C10.1187 18.5693 10.0437 18.6147 9.99334 18.6827C9.94302 18.7507 9.92149 18.8358 9.9334 18.9195C9.94532 19.0033 9.98973 19.079 10.057 19.1302C10.1243 19.1815 10.2091 19.2042 10.293 19.1934C10.4875 19.1656 10.666 19.1586 10.857 19.1768C11.3321 19.222 12.0808 19.418 12.6215 19.5316C13.2263 19.6588 13.8451 19.3724 14.0509 18.7607C14.0769 18.6863 14.0791 18.6116 14.0538 18.5402C14.0516 18.5345 14.0508 18.5283 14.0513 18.5222C14.0519 18.516 14.0537 18.5101 14.0569 18.5048C14.0598 18.4994 14.0639 18.4947 14.0689 18.491C14.0739 18.4874 14.0796 18.4849 14.0857 18.4838ZM19.6821 6.91324C19.764 6.89297 19.8505 6.90564 19.9232 6.94855C19.9958 6.99145 20.0487 7.06116 20.0705 7.14267C20.0923 7.22417 20.0812 7.31098 20.0397 7.3844C19.9981 7.45782 19.9294 7.512 19.8483 7.53528L19.7446 7.56307C19.7261 7.56801 19.7135 7.5838 19.7128 7.60296C19.7121 7.62211 19.7235 7.63881 19.7416 7.6451C20.9955 8.0831 22.3055 8.78942 22.3055 9.83712C22.3055 11.2581 19.8956 12.0512 18.4843 12.3985C18.4432 12.4089 18.4004 12.4111 18.3584 12.4049C18.3165 12.3987 18.2762 12.3842 18.2398 12.3624C18.2034 12.3406 18.1718 12.3117 18.1466 12.2776C18.1214 12.2435 18.1032 12.2047 18.0931 12.1635C18.083 12.1223 18.0811 12.0795 18.0876 12.0376C18.094 11.9957 18.1087 11.9555 18.1308 11.9193C18.1529 11.8831 18.1819 11.8516 18.2162 11.8266C18.2505 11.8017 18.2894 11.7838 18.3307 11.7739C19.4117 11.5078 20.2866 11.1773 20.8789 10.8047C21.9193 10.1503 21.9193 9.52397 20.8789 8.86963C20.5628 8.67077 20.1661 8.4839 19.7007 8.3124C19.6823 8.30563 19.6623 8.31173 19.6509 8.32766C19.6395 8.3436 19.6401 8.36448 19.6524 8.37974C19.704 8.44399 19.7291 8.52559 19.7225 8.60776C19.7158 8.68993 19.6779 8.76642 19.6166 8.82151C19.5552 8.8766 19.4752 8.90611 19.3927 8.90396C19.3103 8.90181 19.2319 8.86818 19.1735 8.80996L18.1796 7.81603L18.1798 7.81579C18.0066 7.64299 18.0834 7.34164 18.3244 7.27708L19.6821 6.91324ZM4.34846 11.2945C4.29682 11.2303 4.27175 11.1487 4.27842 11.0665C4.28508 10.9844 4.32297 10.9079 4.38429 10.8528C4.44562 10.7977 4.52572 10.7682 4.60813 10.7703C4.69053 10.7725 4.76899 10.8061 4.82736 10.8643L5.8213 11.8583C5.97686 12.0138 5.93597 12.2819 5.72914 12.3778C5.72694 12.3788 5.72466 12.3796 5.72232 12.3803L4.3187 12.761C4.23681 12.7813 4.15023 12.7686 4.07758 12.7257C4.00494 12.6828 3.95203 12.6131 3.93025 12.5316C3.90847 12.4501 3.91955 12.3633 3.96111 12.2899C4.00267 12.2165 4.07139 12.1623 4.15248 12.139L4.25621 12.1112C4.27474 12.1063 4.28731 12.0905 4.28803 12.0713C4.28875 12.0522 4.27738 12.0355 4.25923 12.0291C3.00533 11.5911 1.69531 10.8848 1.69531 9.83712C1.69531 8.41612 4.10525 7.62307 5.5165 7.27579C5.55761 7.26539 5.60038 7.26322 5.64234 7.26942C5.6843 7.27561 5.72461 7.29005 5.76097 7.31189C5.79733 7.33373 5.829 7.36254 5.85418 7.39668C5.87935 7.43081 5.89753 7.46958 5.90766 7.51077C5.91779 7.55195 5.91967 7.59473 5.91319 7.63665C5.90672 7.67856 5.89202 7.71879 5.86994 7.755C5.84786 7.79121 5.81884 7.82269 5.78454 7.84764C5.75024 7.87259 5.71135 7.89051 5.6701 7.90036C4.58904 8.16648 3.71419 8.497 3.12182 8.86958C2.08147 9.52392 2.08147 10.1503 3.12182 10.8047C3.43795 11.0035 3.83462 11.1903 4.30008 11.3618C4.3089 11.3652 4.31857 11.3655 4.32758 11.3627C4.33659 11.36 4.34443 11.3543 4.34986 11.3466C4.35545 11.339 4.35835 11.3297 4.3581 11.3203C4.35785 11.3109 4.35446 11.3018 4.34846 11.2945ZM11.9805 1.69233L6.61983 4.50643C6.61282 4.50999 6.60695 4.51544 6.60289 4.52217C6.59882 4.5289 6.59672 4.53663 6.59683 4.54449V9.75734C6.59683 11.4376 7.34779 12.883 8.7228 13.8488L11.9757 16.1338C11.9829 16.1389 11.9915 16.1417 12.0004 16.1417C12.0093 16.1417 12.0179 16.1389 12.0251 16.1338L15.278 13.8488C16.653 12.883 17.404 11.4377 17.404 9.75734V4.54449C17.4041 4.53664 17.402 4.52891 17.3979 4.52218C17.3939 4.51546 17.388 4.51 17.381 4.50643L12.0204 1.69233C12.0143 1.689 12.0074 1.68726 12.0004 1.68726C11.9935 1.68726 11.9866 1.689 11.9805 1.69233ZM10.261 9.10747C10.2018 9.04674 10.169 8.96518 10.1696 8.88044C10.1702 8.79569 10.2041 8.71458 10.264 8.65466C10.3239 8.59473 10.405 8.56081 10.4898 8.56024C10.5745 8.55968 10.6561 8.5925 10.7168 8.65161L11.903 9.83784C11.912 9.84676 11.923 9.85099 11.9356 9.85036C11.9482 9.84974 11.9587 9.84441 11.9667 9.83467L15.3667 5.67485C15.4213 5.61015 15.4991 5.56951 15.5833 5.56171C15.6676 5.5539 15.7515 5.57957 15.817 5.63315C15.8825 5.68673 15.9243 5.76393 15.9334 5.84806C15.9424 5.9322 15.918 6.01651 15.8654 6.0828L12.2172 10.5462L12.2168 10.5467C12.0917 10.7048 11.8686 10.7151 11.7326 10.5791L10.261 9.10747ZM8.69189 10.6131C8.6574 10.5363 8.65444 10.4489 8.68366 10.3699C8.71287 10.2909 8.77192 10.2265 8.84812 10.1905C8.92431 10.1546 9.01157 10.1499 9.09114 10.1776C9.17071 10.2053 9.23624 10.2631 9.27365 10.3386C9.6312 11.0951 10.1552 11.6169 10.9621 11.9009C12.7182 12.5192 14.6853 11.4533 15.0879 9.57821C15.0897 9.5703 15.0892 9.56205 15.0864 9.55444C15.0836 9.54683 15.0787 9.54018 15.0722 9.53529C14.6532 9.20817 14.7799 8.52609 15.3078 8.38468C15.6581 8.29084 16.0181 8.49869 16.112 8.84894C16.1959 9.16219 16.0385 9.48321 15.7537 9.61468C15.7475 9.61746 15.7421 9.62171 15.7379 9.62708C15.7337 9.63244 15.7309 9.63875 15.7296 9.64545C15.3309 11.6785 13.3772 13.0114 11.3547 12.6654C10.3555 12.4944 9.48567 11.9387 8.94591 11.0797C8.84779 10.9235 8.7648 10.7672 8.69189 10.6131ZM8.24703 8.21832C8.25325 8.21556 8.25871 8.21131 8.26292 8.20596C8.26713 8.2006 8.26996 8.1943 8.27117 8.1876C8.38837 7.59201 8.64602 7.03299 9.02271 6.55699C10.2805 4.96718 12.5481 4.65321 14.1943 5.81395C14.2289 5.83826 14.2583 5.86914 14.2809 5.90482C14.3036 5.9405 14.3189 5.98029 14.3262 6.02192C14.3334 6.06355 14.3324 6.10619 14.3232 6.14742C14.3139 6.18865 14.2967 6.22766 14.2724 6.26222C14.2481 6.29678 14.2172 6.32621 14.1815 6.34884C14.1458 6.37146 14.106 6.38684 14.0644 6.39408C14.0228 6.40133 13.9801 6.40031 13.9389 6.39108C13.8977 6.38184 13.8587 6.36458 13.8241 6.34027C13.4447 6.07212 13.0111 5.89065 12.5538 5.80872C10.8725 5.508 9.26755 6.60461 8.91298 8.25475C8.91119 8.26265 8.91171 8.2709 8.91448 8.27851C8.91726 8.28612 8.92217 8.29277 8.92863 8.29766C9.34762 8.62478 9.22099 9.30681 8.69304 9.44827C8.34278 9.54211 7.98274 9.33427 7.8889 8.98396C7.80495 8.67081 7.96234 8.34979 8.24703 8.21832ZM4.0477 17.3434H4.69862C4.96042 17.3434 5.17454 17.5575 5.17454 17.8193V21.8369C5.17454 22.0987 4.96042 22.3128 4.69862 22.3128H4.0477C3.78595 22.3128 3.57178 22.0986 3.57178 21.8369V17.8193C3.57178 17.5575 3.78595 17.3434 4.0477 17.3434Z" fill="#B345D0"/>
</svg>
