<svg width="24" height="24" viewBox="0 0 24 24" fill="none" xmlns="http://www.w3.org/2000/svg">
<g clip-path="url(#clip0_2003_2)">
<path fill-rule="evenodd" clip-rule="evenodd" d="M4.43671 9.0614C4.31807 9.28662 4.08165 9.44031 3.80955 9.44031C3.41859 9.44031 3.10122 9.1229 3.10122 8.73198C3.10122 8.34102 3.41859 8.02361 3.80955 8.02361C4.08165 8.02361 4.31807 8.1773 4.43671 8.40257H5.90513C5.9925 8.40257 6.07628 8.43728 6.13806 8.49906C6.19984 8.56083 6.23454 8.64462 6.23454 8.73198V9.34803H7.16796C7.2056 9.40544 7.24965 9.45989 7.3001 9.51034C7.44316 9.6534 7.48414 9.83909 7.4481 10.0069H5.90513C5.81777 10.0069 5.73398 9.97215 5.6722 9.91037C5.61043 9.8486 5.57572 9.76481 5.57572 9.67744V9.0614H4.43671ZM19.9087 9.0614H18.4155V9.67744C18.4155 9.76481 18.3808 9.8486 18.319 9.91037C18.2572 9.97215 18.1734 10.0069 18.0861 10.0069H16.5432C16.5071 9.83909 16.5481 9.6534 16.6911 9.51034C16.7406 9.4609 16.7849 9.40651 16.8233 9.34803H17.7567V8.73198C17.7567 8.64462 17.7914 8.56083 17.8531 8.49906C17.9149 8.43728 17.9987 8.40257 18.0861 8.40257H19.9087C20.0273 8.1773 20.2638 8.02361 20.5358 8.02361C20.9268 8.02361 21.2442 8.34102 21.2442 8.73198C21.2442 9.1229 20.9268 9.44031 20.5358 9.44031C20.2638 9.44031 20.0273 9.28662 19.9087 9.0614ZM19.5621 12.2389C19.5591 12.239 19.5561 12.239 19.5531 12.239H18.0922V11.5802H19.5446C19.6602 11.3459 19.9015 11.1845 20.1802 11.1845C20.5712 11.1845 20.8886 11.502 20.8886 11.8929C20.8886 12.2839 20.5712 12.6013 20.1802 12.6013C19.9149 12.6013 19.6834 12.4551 19.5621 12.2389ZM20.2343 15.5928C20.2164 15.5957 20.1983 15.5972 20.1802 15.5972H18.0861C17.9987 15.5972 17.9149 15.5625 17.8531 15.5007C17.7914 15.439 17.7567 15.3552 17.7567 15.2678V14.6517H16.8232C16.7848 14.5933 16.7406 14.5389 16.6911 14.4894C16.5481 14.3464 16.5071 14.1607 16.5432 13.9929H18.0861C18.1734 13.9929 18.2572 14.0276 18.319 14.0894C18.3808 14.1512 18.4155 14.235 18.4155 14.3223V14.9384H20.1802C20.1986 14.9384 20.2167 14.9399 20.2343 14.9429C20.3521 14.7152 20.5899 14.5595 20.8638 14.5595C21.2547 14.5595 21.5721 14.8769 21.5721 15.2678C21.5721 15.6588 21.2547 15.9762 20.8638 15.9762C20.5899 15.9762 20.3521 15.8205 20.2343 15.5928ZM4.1088 15.5972C3.99012 15.8225 3.7537 15.9762 3.4816 15.9762C3.09068 15.9762 2.77327 15.6588 2.77327 15.2678C2.77327 14.8769 3.09068 14.5595 3.4816 14.5595C3.7537 14.5595 3.99012 14.7132 4.1088 14.9384H5.57572V14.3223C5.57572 14.235 5.61043 14.1512 5.6722 14.0894C5.73398 14.0276 5.81777 13.9929 5.90513 13.9929H7.4481C7.48414 14.1607 7.44316 14.3464 7.3001 14.4894C7.25062 14.5389 7.20637 14.5933 7.16805 14.6517H6.23454V15.2678C6.23454 15.3552 6.19984 15.439 6.13806 15.5007C6.07628 15.5625 5.9925 15.5972 5.90513 15.5972H4.1088ZM4.81713 12.3293C4.6985 12.5545 4.46203 12.7083 4.18998 12.7083C3.79901 12.7083 3.4816 12.3909 3.4816 11.9999C3.4816 11.6089 3.79901 11.2915 4.18998 11.2915C4.46203 11.2915 4.6985 11.4453 4.81713 11.6705H5.89901V12.3293H4.81713ZM22.7693 7.94911L22.9718 6.95603C22.9893 6.87045 23.0401 6.79532 23.1129 6.74714C23.1858 6.69896 23.2748 6.68168 23.3604 6.69909C23.446 6.71659 23.5211 6.76736 23.5693 6.84022C23.6175 6.91309 23.6348 7.0021 23.6174 7.0877L23.1597 9.33189C23.1482 9.38856 23.1219 9.4412 23.0836 9.48451C23.0452 9.52782 22.9962 9.56027 22.9413 9.57859C22.8865 9.59691 22.8278 9.60047 22.7711 9.58889C22.7144 9.57731 22.6618 9.55101 22.6185 9.51264L20.9039 7.9942C20.8385 7.93626 20.7988 7.85474 20.7935 7.76755C20.7882 7.68036 20.8177 7.59463 20.8756 7.52921C20.9336 7.46385 21.0151 7.42416 21.1023 7.41887C21.1895 7.41358 21.2752 7.44311 21.3406 7.50097L22.1745 8.23937C20.6437 4.10187 16.661 1.1493 11.9942 1.1493C6.92075 1.1493 2.65586 4.63867 1.47087 9.34643C1.44951 9.43113 1.39539 9.50389 1.32042 9.54871C1.24544 9.59354 1.15574 9.60676 1.07101 9.58549C0.986306 9.56414 0.913544 9.51002 0.868717 9.43504C0.82389 9.36006 0.810667 9.27036 0.831954 9.18563C2.08894 4.19198 6.61266 0.490479 11.9942 0.490479C16.921 0.490479 21.1289 3.59293 22.7693 7.94911ZM1.80908 15.7474C3.33628 19.8917 7.32245 22.8505 11.9942 22.8505C17.0676 22.8505 21.3325 19.3611 22.5175 14.6533C22.5388 14.5686 22.5929 14.4959 22.6679 14.4511C22.7429 14.4062 22.8326 14.393 22.9173 14.4143C23.002 14.4356 23.0748 14.4898 23.1196 14.5647C23.1644 14.6397 23.1777 14.7294 23.1564 14.8142C21.8994 19.8078 17.3757 23.5093 11.9942 23.5093C7.0721 23.5093 2.86758 20.4129 1.22381 16.0634L1.02951 17.0445C1.01249 17.1301 0.962158 17.2056 0.889564 17.2542C0.81697 17.3027 0.728055 17.3205 0.642354 17.3036C0.556671 17.2866 0.481247 17.2363 0.432654 17.1637C0.384061 17.0911 0.366274 17.0022 0.383201 16.9165L0.828284 14.6697C0.839521 14.613 0.865491 14.5602 0.903584 14.5167C0.941677 14.4732 0.99055 14.4405 1.04529 14.4219C1.10003 14.4033 1.15871 14.3994 1.21544 14.4106C1.27216 14.4218 1.32492 14.4478 1.36842 14.4859L3.09158 15.9947C3.22838 16.1144 3.24221 16.3227 3.12245 16.4595C3.00268 16.5963 2.79435 16.6101 2.6576 16.4903L1.80908 15.7474ZM17.0763 12.9007C16.0056 12.9007 15.468 14.1981 16.2253 14.9553C16.3646 15.0947 16.3646 15.3214 16.2253 15.4607L15.4565 16.2295C15.3171 16.3689 15.0904 16.3689 14.951 16.2295C14.1937 15.4723 12.8964 16.0099 12.8964 17.0805C12.8964 17.1275 12.8872 17.1739 12.8693 17.2173C12.8514 17.2606 12.8251 17.3 12.7919 17.3332C12.7587 17.3663 12.7194 17.3926 12.676 17.4106C12.6327 17.4285 12.5862 17.4377 12.5393 17.4376H11.4519C11.405 17.4377 11.3585 17.4285 11.3152 17.4106C11.2719 17.3926 11.2325 17.3663 11.1993 17.3332C11.1661 17.3 11.1398 17.2606 11.1219 17.2173C11.104 17.1739 11.0948 17.1275 11.0948 17.0805C11.0948 16.0086 9.79807 15.4717 9.04019 16.2295C9.00704 16.2627 8.9677 16.289 8.92439 16.3069C8.88108 16.3249 8.83467 16.3341 8.78779 16.3341C8.74091 16.3341 8.6945 16.3249 8.65119 16.3069C8.60789 16.289 8.56854 16.2627 8.53539 16.2295L7.76593 15.4607C7.62659 15.3214 7.62659 15.0947 7.76593 14.9553C8.5232 14.1981 7.98626 12.9007 6.91492 12.9007C6.82022 12.9007 6.7294 12.863 6.66244 12.7961C6.59547 12.7291 6.55785 12.6383 6.55784 12.5436V11.4562C6.55785 11.3615 6.59547 11.2707 6.66244 11.2037C6.7294 11.1368 6.82022 11.0991 6.91492 11.0991C7.98626 11.0991 8.5232 9.80173 7.76593 9.0445C7.69901 8.97754 7.66142 8.88675 7.66142 8.79208C7.66142 8.69741 7.69901 8.60662 7.76593 8.53966L8.53539 7.77024C8.56854 7.7371 8.60789 7.7108 8.65119 7.69286C8.6945 7.67493 8.74091 7.66569 8.78779 7.66569C8.83467 7.66569 8.88108 7.67493 8.92439 7.69286C8.9677 7.7108 9.00704 7.7371 9.04019 7.77024C9.79746 8.52747 11.0948 7.99053 11.0948 6.91923C11.0948 6.82453 11.1325 6.73371 11.1994 6.66675C11.2664 6.59979 11.3572 6.56216 11.4519 6.56215H12.5393C12.634 6.56216 12.7248 6.59979 12.7918 6.66675C12.8587 6.73371 12.8964 6.82453 12.8964 6.91923C12.8964 7.99053 14.1937 8.52747 14.951 7.77024C15.0904 7.63085 15.3171 7.63085 15.4565 7.77024L16.2253 8.53966C16.2922 8.60662 16.3298 8.69741 16.3298 8.79208C16.3298 8.88675 16.2922 8.97754 16.2253 9.0445C15.468 9.80173 16.0056 11.0991 17.0763 11.0991C17.1232 11.099 17.1697 11.1083 17.213 11.1262C17.2563 11.1441 17.2957 11.1704 17.3289 11.2036C17.3621 11.2368 17.3884 11.2762 17.4063 11.3195C17.4242 11.3629 17.4334 11.4093 17.4334 11.4562V12.5436C17.4334 12.5905 17.4242 12.6369 17.4063 12.6803C17.3884 12.7236 17.3621 12.763 17.3289 12.7962C17.2957 12.8294 17.2563 12.8557 17.213 12.8736C17.1697 12.8915 17.1232 12.9007 17.0763 12.9007ZM11.996 15.2784C13.801 15.2784 15.2741 13.8053 15.2741 12.0003C15.2741 10.1943 13.801 8.72205 11.996 8.72205C10.1901 8.72205 8.71779 10.1943 8.71779 12.0003C8.71779 13.8053 10.1901 15.2784 11.996 15.2784ZM11.996 14.6196C10.553 14.6196 9.37661 13.4426 9.37661 12.0003C9.37661 10.5573 10.553 9.38088 11.996 9.38088C13.4383 9.38088 14.6153 10.5573 14.6153 12.0003C14.6153 13.4426 13.4383 14.6196 11.996 14.6196ZM10.6334 12.1237L11.428 12.918C11.4885 12.9784 11.57 13.013 11.6554 13.0144C11.7409 13.0158 11.8235 12.984 11.8859 12.9256L13.3506 11.5561C13.4834 11.4319 13.4904 11.2233 13.3662 11.0905C13.242 10.9577 13.0334 10.9507 12.9006 11.0749L11.6686 12.2269L11.0992 11.6577C11.0374 11.596 10.9536 11.5613 10.8663 11.5613C10.7789 11.5613 10.6951 11.596 10.6334 11.6578C10.5716 11.7196 10.537 11.8034 10.537 11.8907C10.537 11.9781 10.5717 12.0619 10.6334 12.1237Z" fill="#F26E85"/>
</g>
<defs>
<clipPath id="clip0_2003_2">
<rect width="24" height="24" fill="white"/>
</clipPath>
</defs>
</svg>
