<svg width="24" height="24" viewBox="0 0 24 24" fill="none" xmlns="http://www.w3.org/2000/svg">
<path d="M6.91738 10.9834C6.98113 10.8221 7.0566 10.6651 7.14238 10.5137C7.23145 10.3562 7.33129 10.2043 7.44145 10.0595C8.06348 9.24148 8.9616 8.70476 9.95723 8.54258C10.5099 7.42742 11.6471 6.70789 12.9254 6.70789C13.1475 6.70789 13.3669 6.72945 13.5816 6.77258C13.8807 6.34414 14.2589 5.97711 14.6991 5.68836C14.9308 5.5366 15.177 5.40816 15.4341 5.30492C14.8322 4.79164 14.0588 4.49398 13.2488 4.4907C13.1227 2.73758 11.656 1.34961 9.87145 1.34961C8.5627 1.34961 7.38801 2.0982 6.82645 3.25133C6.50965 3.11672 6.16893 3.04753 5.82473 3.04789C4.69645 3.04789 3.71488 3.78195 3.38113 4.83289C1.66176 4.89523 0.282227 6.3132 0.282227 8.04711C0.282227 9.82086 1.72504 11.2637 3.49879 11.2637H6.81707C6.8466 11.1695 6.88035 11.0757 6.91738 10.9834ZM11.6391 5.30773C11.6171 5.31148 11.5955 5.31336 11.5739 5.31336C11.3954 5.31336 11.2369 5.18492 11.205 5.00305C11.0916 4.35992 10.613 3.86914 9.98535 3.75336C9.43738 3.65211 9.03145 3.74398 8.70801 4.04305C8.55566 4.18367 8.31848 4.17383 8.17785 4.02195C8.03723 3.86961 8.04707 3.63242 8.19895 3.4918C8.69723 3.03195 9.3441 2.87211 10.1218 3.01555C11.0602 3.18945 11.7755 3.91836 11.9433 4.8732C11.9794 5.07711 11.843 5.27164 11.6391 5.30773ZM3.0202 9.63336C2.98512 9.6744 2.94155 9.70734 2.89251 9.72992C2.84347 9.7525 2.79012 9.76417 2.73613 9.76414C2.6463 9.76419 2.55944 9.73191 2.49145 9.6732C2.0016 9.25133 1.72082 8.64476 1.72082 8.00867C1.72082 7.42414 1.95238 6.87195 2.37238 6.45477C2.5191 6.30852 2.75676 6.30945 2.90254 6.45617C3.04879 6.60289 3.04785 6.84055 2.90113 6.98633C2.62363 7.26195 2.47082 7.62523 2.47082 8.00867C2.47082 8.42633 2.65691 8.8257 2.98082 9.10461C3.13785 9.23961 3.15566 9.4768 3.0202 9.63336ZM23.7207 12.287C23.7207 10.4246 22.2099 8.90867 20.3494 8.90023C20.2229 7.14758 18.7561 5.75961 16.9716 5.75961C16.6318 5.75961 16.3008 5.81023 15.9872 5.90539C15.7398 5.98011 15.5018 6.08313 15.278 6.21242C14.6931 6.54944 14.2226 7.05393 13.9271 7.66086C13.6102 7.52662 13.2695 7.45759 12.9254 7.45789C11.7971 7.45789 10.815 8.19195 10.4813 9.24289C9.48566 9.27898 8.60395 9.76976 8.03816 10.5137C7.86321 10.7433 7.72019 10.9956 7.61301 11.2637C7.46441 11.6326 7.38285 12.0357 7.38285 12.4571C7.38285 14.2309 8.82566 15.6737 10.5989 15.6737H11.2332V12.8199C11.2332 12.1998 11.738 11.6949 12.3582 11.6949C12.9783 11.6949 13.4832 12.1998 13.4832 12.8199V14.1737H13.5624V12.9118C13.5624 12.2916 14.0672 11.7868 14.6874 11.7868C15.3075 11.7868 15.8124 12.2916 15.8124 12.9118V14.1737H15.8911V12.8199C15.8911 12.1998 16.396 11.6949 17.0161 11.6949C17.6363 11.6949 18.1411 12.1998 18.1411 12.8199V15.6737H20.3344C22.2014 15.6737 23.7207 14.1545 23.7207 12.287ZM10.0032 10.8662C10.1489 11.0129 10.1485 11.2505 10.0013 11.3963C9.72426 11.672 9.57145 12.0352 9.57145 12.4187C9.57145 12.8363 9.75707 13.2357 10.081 13.5146C10.1564 13.5794 10.2029 13.6716 10.2104 13.7707C10.2179 13.8699 10.1857 13.968 10.1208 14.0434C10.1058 14.0612 10.0894 14.0766 10.0716 14.0907C10.005 14.1444 9.9219 14.1737 9.83629 14.1737C9.74957 14.1737 9.66285 14.1441 9.5916 14.0832C9.10223 13.6613 8.82145 13.0548 8.82145 12.4187C8.82145 11.8341 9.05254 11.282 9.47254 10.8643C9.54074 10.7967 9.63231 10.7578 9.72834 10.7557C9.82437 10.7536 9.91755 10.7884 9.98863 10.853C9.99379 10.8568 9.99848 10.8615 10.0032 10.8662ZM17.0855 8.16336C16.538 8.06211 16.1321 8.15398 15.8082 8.45305C15.6558 8.5932 15.4186 8.58383 15.278 8.43195C15.2654 8.41789 15.2536 8.40336 15.2433 8.38789C15.193 8.31354 15.171 8.2236 15.1813 8.13441C15.1916 8.04522 15.2336 7.96268 15.2996 7.9018C15.5564 7.66461 15.8527 7.50711 16.186 7.43023C16.2043 7.4218 16.2225 7.41383 16.2413 7.40586L16.3125 7.38148L16.3252 7.37305C16.5324 7.29758 16.7494 7.25961 16.9716 7.25961C17.7638 7.25961 18.4439 7.75039 18.7229 8.44414C18.8794 8.69305 18.99 8.97664 19.0439 9.2832C19.0683 9.42289 19.0121 9.55836 18.9085 9.64086C18.8597 9.68036 18.8016 9.70667 18.7397 9.71726C18.7177 9.72148 18.6957 9.72336 18.6741 9.72336C18.4955 9.72336 18.3371 9.59492 18.3052 9.41305C18.1922 8.76992 17.7132 8.27914 17.0855 8.16336ZM22.9683 18.9132C22.9683 19.5259 22.47 20.0246 21.8574 20.0246C21.3024 20.0246 20.8407 19.6149 20.7591 19.0824L20.7577 19.073C20.7554 19.0576 20.7535 19.0421 20.7521 19.0266C20.7507 19.0112 20.7493 18.9957 20.7488 18.9798C20.7483 18.9784 20.7483 18.977 20.7483 18.9755C20.7479 18.9732 20.7479 18.9704 20.7479 18.968C20.7469 18.9498 20.7464 18.9315 20.7464 18.9132C20.7464 18.8954 20.7469 18.878 20.7479 18.8607C20.7479 18.8574 20.7479 18.8541 20.7483 18.8509C20.7488 18.8415 20.7493 18.8321 20.7502 18.8227C20.7516 18.804 20.7535 18.7852 20.7563 18.767C20.7577 18.7552 20.7596 18.7435 20.7614 18.7318C20.7643 18.714 20.768 18.6962 20.7718 18.6784C20.7752 18.6615 20.7793 18.6448 20.7839 18.6282C20.7839 18.6268 20.7844 18.6249 20.7849 18.6235C20.9124 18.151 21.345 17.8023 21.8574 17.8023C22.47 17.8023 22.9683 18.3005 22.9683 18.9132ZM20.0607 18.428C20.018 18.5862 19.9964 18.7494 19.9964 18.9132C19.9964 19.0032 20.003 19.0918 20.0152 19.178H17.0161C16.8089 19.178 16.6411 19.0102 16.6411 18.803V12.8199C16.6411 12.6127 16.8089 12.4449 17.0161 12.4449C17.2233 12.4449 17.3911 12.6127 17.3911 12.8199V18.428H20.0607ZM12.7332 12.8199V18.803C12.7332 19.0102 12.5654 19.178 12.3582 19.178H9.35957C9.36285 19.1532 9.36613 19.1284 9.36848 19.1035C9.36895 19.103 9.36895 19.1026 9.36848 19.1021V19.1016C9.37082 19.0796 9.3727 19.0576 9.3741 19.0351C9.37551 19.0168 9.37645 18.9985 9.37691 18.9802C9.37785 18.9582 9.37832 18.9357 9.37832 18.9132C9.37832 18.8766 9.37691 18.8387 9.37457 18.797L9.37223 18.7613C9.37082 18.744 9.36895 18.7262 9.36707 18.7088C9.3652 18.6915 9.36332 18.6741 9.36051 18.6568C9.35582 18.6221 9.3502 18.5879 9.34316 18.5541C9.33941 18.5354 9.3352 18.5166 9.33098 18.4979C9.3277 18.4834 9.32441 18.4693 9.32066 18.4552C9.31879 18.4459 9.31645 18.437 9.3141 18.428H11.9832V12.8199C11.9832 12.6127 12.151 12.4449 12.3582 12.4449C12.5654 12.4449 12.7332 12.6127 12.7332 12.8199ZM8.62598 18.8415C8.62738 18.8654 8.62832 18.8893 8.62832 18.9132C8.62832 18.9357 8.62785 18.9577 8.62645 18.9798C8.62441 19.0141 8.62082 19.0484 8.61566 19.0824C8.53363 19.6149 8.07191 20.0246 7.51691 20.0246C6.90426 20.0246 6.40598 19.5259 6.40598 18.9132C6.40598 18.3005 6.90426 17.8023 7.51691 17.8023C8.02551 17.8023 8.45582 18.1454 8.58707 18.6127C8.59129 18.6282 8.59551 18.6437 8.59879 18.6591C8.60113 18.668 8.60301 18.6774 8.60488 18.6868C8.6077 18.7004 8.61004 18.714 8.61285 18.7276C8.61898 18.7653 8.62336 18.8033 8.62598 18.8415ZM14.6874 18.9235C14.5589 18.9235 14.4333 18.9366 14.3124 18.9615V12.9118C14.3124 12.7046 14.4802 12.5368 14.6874 12.5368C14.8946 12.5368 15.0624 12.7046 15.0624 12.9118V18.9615C14.9414 18.9366 14.8158 18.9235 14.6874 18.9235ZM15.7983 20.7849C15.7983 21.3976 15.3 21.8959 14.6874 21.8959C14.0747 21.8959 13.576 21.3976 13.576 20.7849C13.576 20.2491 13.9575 19.8001 14.4633 19.696C14.5355 19.6815 14.6105 19.6735 14.6874 19.6735C14.7643 19.6735 14.8393 19.6815 14.9114 19.696C15.4172 19.8001 15.7983 20.2491 15.7983 20.7849Z" fill="#28C06E"/>
</svg>
