<svg width="60" height="60" viewBox="0 0 60 60" fill="none" xmlns="http://www.w3.org/2000/svg">
<g clip-path="url(#clip0_2003_60)">
<path d="M33 23C33 22.2044 32.6839 21.4413 32.1213 20.8787C31.5587 20.3161 30.7957 20 30 20C29.2044 20 28.4413 20.3161 27.8787 20.8787C27.3161 21.4413 27 22.2044 27 23V25H33V23ZM35 27H25C24.7348 27 24.4804 27.1054 24.2929 27.2929C24.1054 27.4804 24 27.7348 24 28V37C24 37.2652 24.1054 37.5196 24.2929 37.7071C24.4804 37.8946 24.7348 38 25 38H35C35.2652 38 35.5196 37.8946 35.7071 37.7071C35.8946 37.5196 36 37.2652 36 37V28C36 27.7348 35.8946 27.4804 35.7071 27.2929C35.5196 27.1054 35.2652 27 35 27ZM31 34.82V35C31 35.2652 30.8946 35.5196 30.7071 35.7071C30.5196 35.8946 30.2652 36 30 36C29.7348 36 29.4804 35.8946 29.2929 35.7071C29.1054 35.5196 29 35.2652 29 35V34.82C28.3328 34.5841 27.7704 34.1199 27.4124 33.5095C27.0543 32.8991 26.9235 32.1818 27.0432 31.4843C27.1629 30.7868 27.5253 30.154 28.0663 29.6979C28.6074 29.2418 29.2923 28.9916 30 28.9916C30.7077 28.9916 31.3926 29.2418 31.9337 29.6979C32.4747 30.154 32.8371 30.7868 32.9568 31.4843C33.0765 32.1818 32.9457 32.8991 32.5876 33.5095C32.2296 34.1199 31.6672 34.5841 31 34.82Z" fill="#06ABE1"/>
<path d="M30 15C21.716 15 15 21.716 15 30C15 38.284 21.716 45 30 45C38.284 45 45 38.284 45 30C44.99 21.72 38.28 15.01 30 15ZM38 37C37.9976 37.7949 37.6808 38.5566 37.1187 39.1187C36.5566 39.6808 35.7949 39.9976 35 40H25C24.2051 39.9976 23.4434 39.6808 22.8813 39.1187C22.3192 38.5566 22.0024 37.7949 22 37V28C22.0024 27.2051 22.3192 26.4434 22.8813 25.8813C23.4434 25.3192 24.2051 25.0024 25 25V23C25 21.6739 25.5268 20.4021 26.4645 19.4645C27.4021 18.5268 28.6739 18 30 18C31.3261 18 32.5979 18.5268 33.5355 19.4645C34.4732 20.4021 35 21.6739 35 23V25C35.7949 25.0024 36.5566 25.3192 37.1187 25.8813C37.6808 26.4434 37.9976 27.2051 38 28V37Z" fill="#06ABE1"/>
<path d="M30 33C30.5523 33 31 32.5523 31 32C31 31.4477 30.5523 31 30 31C29.4477 31 29 31.4477 29 32C29 32.5523 29.4477 33 30 33Z" fill="#06ABE1"/>
<path d="M10 6C10.3495 5.99895 10.6926 5.906 10.9948 5.73048C11.2971 5.55496 11.5479 5.30304 11.722 5H21V11.672C21 11.712 21.019 11.751 21.024 11.791C21.034 11.895 21.061 11.996 21.103 12.091C21.1655 12.2254 21.2591 12.3429 21.376 12.434C21.4659 12.5079 21.5677 12.5661 21.677 12.606C21.748 12.629 21.822 12.643 21.897 12.65C21.9299 12.659 21.9633 12.666 21.997 12.671C22.1403 12.668 22.2812 12.6339 22.41 12.571C23.6282 12.0428 24.8985 11.6439 26.2 11.381C26.46 11.328 26.6884 11.1738 26.8347 10.9524C26.9811 10.731 27.0335 10.4605 26.9805 10.2005C26.9275 9.94045 26.7733 9.71213 26.5519 9.56576C26.3305 9.41939 26.06 9.36696 25.8 9.42C24.85 9.614 23.914 9.875 23 10.2V5C23 4.46957 22.7893 3.96086 22.4142 3.58579C22.0391 3.21071 21.5304 3 21 3H11.722C11.5462 2.6956 11.2934 2.44289 10.9889 2.26733C10.6843 2.09178 10.3389 1.99958 9.98743 2.00003C9.63594 2.00047 9.29076 2.09354 8.98669 2.26987C8.68262 2.44619 8.43038 2.69954 8.2554 3.00439C8.08042 3.30923 7.98887 3.65481 7.98997 4.00631C7.99108 4.3578 8.0848 4.7028 8.26169 5.00654C8.43859 5.31028 8.69241 5.56204 8.99758 5.73645C9.30276 5.91086 9.64851 6.00176 10 6ZM50 54C49.6505 54.0011 49.3074 54.094 49.0052 54.2695C48.7029 54.445 48.4521 54.697 48.278 55H39V48.955C41.2358 47.9025 43.2673 46.4619 45 44.7C45.0941 44.6067 45.1688 44.4956 45.2196 44.3732C45.2704 44.2508 45.2964 44.1196 45.296 43.987C45.2956 43.8545 45.2689 43.7234 45.2174 43.6013C45.1659 43.4792 45.0907 43.3685 44.9961 43.2757C44.9014 43.183 44.7893 43.1099 44.6662 43.0608C44.5431 43.0118 44.4115 42.9877 44.279 42.9899C44.1465 42.9922 44.0157 43.0208 43.8944 43.074C43.773 43.1272 43.6634 43.2041 43.572 43.3C41.8741 45.0359 39.8586 46.4294 37.635 47.405C37.5007 47.4583 37.3798 47.5406 37.281 47.646C37.27 47.658 37.264 47.674 37.253 47.688C37.1799 47.7694 37.1207 47.8623 37.078 47.963C37.0584 48.0258 37.0453 48.0905 37.039 48.156C37.0204 48.2126 37.0074 48.2709 37 48.33V55C37 55.5304 37.2107 56.0391 37.5858 56.4142C37.9609 56.7893 38.4696 57 39 57H48.278C48.4538 57.3044 48.7066 57.5571 49.0111 57.7327C49.3157 57.9082 49.6611 58.0004 50.0126 58C50.3641 57.9995 50.7092 57.9065 51.0133 57.7301C51.3174 57.5538 51.5696 57.3005 51.7446 56.9956C51.9196 56.6908 52.0111 56.3452 52.01 55.9937C52.0089 55.6422 51.9152 55.2972 51.7383 54.9935C51.5614 54.6897 51.3076 54.438 51.0024 54.2635C50.6972 54.0891 50.3515 53.9982 50 54ZM4 22C4.34951 21.9989 4.6926 21.906 4.99484 21.7305C5.29709 21.555 5.54786 21.303 5.722 21H12.717C12.816 20.994 12.913 20.974 13.006 20.941C13.0499 20.927 13.0927 20.9096 13.134 20.889C13.1873 20.8609 13.2376 20.8274 13.284 20.789C13.3683 20.7253 13.4414 20.6479 13.5 20.56C13.513 20.541 13.53 20.527 13.542 20.507C14.8242 18.2819 16.545 16.3403 18.6 14.8C18.7051 14.7212 18.7936 14.6225 18.8605 14.5095C18.9274 14.3965 18.9714 14.2714 18.99 14.1414C19.0085 14.0114 19.0013 13.879 18.9687 13.7518C18.9361 13.6246 18.8788 13.5051 18.8 13.4C18.7212 13.2949 18.6225 13.2064 18.5095 13.1395C18.3965 13.0726 18.2714 13.0286 18.1414 13.0101C18.0114 12.9915 17.879 12.9987 17.7518 13.0313C17.6246 13.0639 17.5051 13.1212 17.4 13.2C15.2955 14.7852 13.5087 16.7529 12.133 19H5.722C5.54625 18.6956 5.29337 18.4429 4.98885 18.2673C4.68434 18.0918 4.33893 17.9996 3.98743 18C3.63594 18.0005 3.29076 18.0935 2.98669 18.2699C2.68262 18.4462 2.43038 18.6995 2.2554 19.0044C2.08042 19.3092 1.98887 19.6548 1.98997 20.0063C1.99108 20.3578 2.0848 20.7028 2.26169 21.0065C2.43859 21.3103 2.69241 21.562 2.99758 21.7365C3.30276 21.9109 3.64851 22.0018 4 22ZM56 38C55.6505 38.0011 55.3074 38.094 55.0052 38.2695C54.7029 38.445 54.4521 38.697 54.278 39H48.978C49.7049 37.4712 50.2422 35.8592 50.578 34.2C50.631 33.94 50.5786 33.6695 50.4322 33.4481C50.2859 33.2267 50.0575 33.0725 49.7975 33.0195C49.5375 32.9665 49.267 33.0189 49.0456 33.1653C48.8242 33.3116 48.67 33.54 48.617 33.8C48.2113 35.8047 47.4818 37.7299 46.457 39.5V39.513C46.3972 39.6187 46.3579 39.7347 46.341 39.855C46.341 39.866 46.341 39.876 46.334 39.887C46.324 39.924 46.316 39.962 46.31 40C46.316 40.0786 46.3315 40.1561 46.356 40.231C46.385 40.3531 46.4376 40.4682 46.511 40.57C46.521 40.585 46.529 40.6 46.54 40.614C46.6077 40.6974 46.6888 40.7691 46.78 40.826C46.796 40.837 46.806 40.854 46.823 40.864C46.84 40.874 46.847 40.873 46.858 40.879C46.902 40.902 46.948 40.921 46.996 40.936C47.0889 40.9695 47.1863 40.989 47.285 40.994C47.294 40.994 47.301 40.999 47.31 40.999H54.278C54.4536 41.3036 54.7064 41.5565 55.0109 41.7322C55.3154 41.9079 55.6609 42.0003 56.0124 42C56.364 41.9997 56.7093 41.9067 57.0135 41.7304C57.3176 41.5541 57.57 41.3007 57.745 40.9959C57.9201 40.691 58.0117 40.3453 58.0106 39.9938C58.0095 39.6422 57.9158 39.2971 57.7388 38.9933C57.5619 38.6895 57.308 38.4378 57.0027 38.2634C56.6974 38.089 56.3516 37.9981 56 38ZM37 11.652V11.67C37.0061 11.729 37.0178 11.7873 37.035 11.844C37.041 11.91 37.055 11.974 37.074 12.037C37.117 12.137 37.176 12.231 37.249 12.312C37.26 12.325 37.266 12.342 37.277 12.354C37.376 12.459 37.497 12.542 37.631 12.595C39.8542 13.5691 41.8697 14.9609 43.568 16.695C43.6585 16.7935 43.7679 16.8728 43.8896 16.9282C44.0113 16.9837 44.1429 17.0142 44.2766 17.0179C44.4103 17.0215 44.5434 16.9984 44.668 16.9497C44.7926 16.901 44.9062 16.8279 45.002 16.7345C45.0978 16.6412 45.1739 16.5296 45.2258 16.4063C45.2777 16.283 45.3044 16.1506 45.3042 16.0168C45.304 15.8831 45.277 15.7507 45.2247 15.6276C45.1725 15.5045 45.0961 15.3931 45 15.3C43.2673 13.5381 41.2358 12.0975 39 11.045V5H48.278C48.4981 5.38128 48.8379 5.67928 49.2447 5.84776C49.6514 6.01624 50.1024 6.0458 50.5277 5.93185C50.953 5.8179 51.3287 5.56681 51.5968 5.21752C51.8648 4.86823 52.0101 4.44027 52.0101 4C52.0101 3.55973 51.8648 3.13177 51.5968 2.78248C51.3287 2.43319 50.953 2.1821 50.5277 2.06815C50.1024 1.9542 49.6514 1.98376 49.2447 2.15224C48.8379 2.32072 48.4981 2.61872 48.278 3H39C38.4696 3 37.9609 3.21071 37.5858 3.58579C37.2107 3.96086 37 4.46957 37 5V11.651V11.652ZM23 48.347V48.33C22.9936 48.2738 22.9826 48.2183 22.967 48.164C22.9599 48.0962 22.9462 48.0292 22.926 47.964C22.8839 47.8648 22.8258 47.7733 22.754 47.693C22.741 47.678 22.735 47.66 22.722 47.646C22.6228 47.5406 22.5016 47.4583 22.367 47.405C19.7494 46.2497 17.4238 44.5228 15.561 42.351C15.4768 42.2474 15.3728 42.1617 15.255 42.0989C15.1372 42.0362 15.008 41.9976 14.8751 41.9856C14.7421 41.9735 14.6081 41.9882 14.4809 42.0288C14.3538 42.0693 14.236 42.1349 14.1346 42.2217C14.0332 42.3085 13.9502 42.4147 13.8904 42.5341C13.8307 42.6535 13.7955 42.7836 13.7869 42.9168C13.7783 43.05 13.7964 43.1836 13.8402 43.3097C13.884 43.4358 13.9526 43.5518 14.042 43.651C15.9651 45.8895 18.3352 47.7009 21 48.969V55H11.722C11.5019 54.6187 11.1621 54.3207 10.7553 54.1522C10.3486 53.9838 9.89758 53.9542 9.47231 54.0681C9.04704 54.1821 8.67126 54.4332 8.40324 54.7825C8.13522 55.1318 7.98995 55.5597 7.98995 56C7.98995 56.4403 8.13522 56.8682 8.40324 57.2175C8.67126 57.5668 9.04704 57.8179 9.47231 57.9319C9.89758 58.0458 10.3486 58.0162 10.7553 57.8478C11.1621 57.6793 11.5019 57.3813 11.722 57H21C21.5304 57 22.0391 56.7893 22.4142 56.4142C22.7893 56.0391 23 55.5304 23 55V48.347ZM33.8 48.62C31.2917 49.1237 28.7083 49.1237 26.2 48.62C26.07 48.5902 25.9354 48.5867 25.8041 48.6096C25.6727 48.6326 25.5473 48.6817 25.4351 48.7538C25.323 48.826 25.2265 48.9199 25.1511 49.0299C25.0758 49.14 25.0233 49.264 24.9966 49.3946C24.9699 49.5253 24.9697 49.6599 24.9958 49.7907C25.0219 49.9215 25.074 50.0457 25.1488 50.156C25.2237 50.2664 25.3199 50.3607 25.4317 50.4333C25.5435 50.5059 25.6687 50.5555 25.8 50.579C26.856 50.784 27.925 50.909 29 50.95V59C29 59.2652 29.1054 59.5196 29.2929 59.7071C29.4804 59.8946 29.7348 60 30 60C30.2652 60 30.5196 59.8946 30.7071 59.7071C30.8946 59.5196 31 59.2652 31 59V50.95C32.0746 50.9082 33.1444 50.7842 34.2 50.579C34.4544 50.5206 34.676 50.3651 34.8173 50.1456C34.9586 49.9261 35.0084 49.66 34.9562 49.4043C34.904 49.1485 34.7538 48.9233 34.5378 48.7767C34.3217 48.6302 34.057 48.5739 33.8 48.62ZM30 11C31.276 11 32.55 11.127 33.8 11.38C34.057 11.4261 34.3217 11.3698 34.5378 11.2233C34.7538 11.0767 34.904 10.8515 34.9562 10.5957C35.0084 10.34 34.9586 10.0739 34.8173 9.85442C34.676 9.63492 34.4544 9.47937 34.2 9.421C33.1444 9.21582 32.0746 9.09179 31 9.05V1C31 0.734784 30.8946 0.48043 30.7071 0.292893C30.5196 0.105357 30.2652 0 30 0C29.7348 0 29.4804 0.105357 29.2929 0.292893C29.1054 0.48043 29 0.734784 29 1V10C29 10.2652 29.1054 10.5196 29.2929 10.7071C29.4804 10.8946 29.7348 11 30 11ZM12.69 41C12.698 41 12.705 40.995 12.714 40.995C12.8135 40.9905 12.9116 40.9706 13.005 40.936C13.0516 40.9207 13.0971 40.902 13.141 40.88C13.152 40.874 13.165 40.872 13.176 40.865C13.187 40.858 13.204 40.837 13.22 40.826C13.3107 40.7701 13.3912 40.699 13.458 40.616C13.4698 40.6006 13.4808 40.5845 13.491 40.568C13.5557 40.4769 13.6044 40.3755 13.635 40.268C13.635 40.253 13.641 40.238 13.644 40.223C13.6682 40.1508 13.6836 40.0759 13.69 40C13.6848 39.9622 13.6772 39.9248 13.667 39.888C13.667 39.875 13.667 39.863 13.66 39.849C13.643 39.7317 13.6047 39.6185 13.547 39.515L13.542 39.499C12.5166 37.729 11.7864 35.8038 11.38 33.799C11.3537 33.6703 11.3024 33.548 11.2289 33.4392C11.1554 33.3303 11.0611 33.237 10.9515 33.1646C10.842 33.0922 10.7192 33.042 10.5903 33.0171C10.4613 32.9921 10.3287 32.9927 10.2 33.019C10.0713 33.0453 9.94904 33.0966 9.84019 33.1701C9.73135 33.2437 9.63804 33.3379 9.56561 33.4475C9.49318 33.557 9.44305 33.6798 9.41806 33.8087C9.39308 33.9377 9.39374 34.0703 9.42 34.199C9.756 35.858 10.294 37.469 11.02 38.999H5.72C5.49987 38.6177 5.16007 38.3197 4.75332 38.1512C4.34656 37.9828 3.89558 37.9532 3.47031 38.0672C3.04504 38.1811 2.66926 38.4322 2.40124 38.7815C2.13322 39.1308 1.98795 39.5587 1.98795 39.999C1.98795 40.4393 2.13322 40.8672 2.40124 41.2165C2.66926 41.5658 3.04504 41.8169 3.47031 41.9309C3.89558 42.0448 4.34656 42.0152 4.75332 41.8468C5.16007 41.6783 5.49987 41.3803 5.72 40.999L12.69 41ZM59 29H50.967C50.8359 26.2273 50.1561 23.5082 48.967 21H54.276C54.4961 21.3813 54.8359 21.6793 55.2427 21.8478C55.6494 22.0162 56.1004 22.0458 56.5257 21.9319C56.951 21.8179 57.3267 21.5668 57.5948 21.2175C57.8628 20.8682 58.008 20.4403 58.008 20C58.008 19.5597 57.8628 19.1318 57.5948 18.7825C57.3267 18.4332 56.951 18.1821 56.5257 18.0681C56.1004 17.9542 55.6494 17.9838 55.2427 18.1522C54.8359 18.3207 54.4961 18.6187 54.276 19H47.31C47.291 19 47.276 19.01 47.258 19.01C47.2 19.0163 47.1428 19.028 47.087 19.045C47.0049 19.0612 46.9252 19.0881 46.85 19.125C46.842 19.125 46.832 19.125 46.823 19.135C46.814 19.145 46.797 19.162 46.78 19.173C46.6888 19.2299 46.6077 19.3016 46.54 19.385C46.529 19.399 46.521 19.414 46.511 19.429C46.4448 19.5196 46.395 19.6212 46.364 19.729C46.364 19.742 46.364 19.755 46.356 19.768C46.3314 19.8432 46.316 19.9211 46.31 20C46.315 20.038 46.323 20.076 46.332 20.114C46.332 20.125 46.337 20.135 46.339 20.146C46.356 20.266 46.395 20.382 46.455 20.488V20.501C48.1228 23.3889 49.0005 26.6651 49 30C49 30.2652 49.1054 30.5196 49.2929 30.7071C49.4804 30.8946 49.7348 31 50 31H59C59.2652 31 59.5196 30.8946 59.7071 30.7071C59.8946 30.5196 60 30.2652 60 30C60 29.7348 59.8946 29.4804 59.7071 29.2929C59.5196 29.1054 59.2652 29 59 29ZM11 30C10.9979 27.9795 11.3182 25.9716 11.949 24.052C11.99 23.9272 12.0061 23.7956 11.9963 23.6647C11.9864 23.5337 11.9509 23.406 11.8917 23.2887C11.8325 23.1715 11.7508 23.0671 11.6513 22.9814C11.5517 22.8957 11.4363 22.8305 11.3115 22.7895C11.1867 22.7485 11.0551 22.7324 10.9242 22.7422C10.7932 22.7521 10.6655 22.7876 10.5482 22.8468C10.431 22.906 10.3266 22.9877 10.2409 23.0872C10.1552 23.1868 10.09 23.3022 10.049 23.427C9.46154 25.2304 9.12176 27.1052 9.039 29H1C0.734784 29 0.48043 29.1054 0.292893 29.2929C0.105357 29.4804 0 29.7348 0 30C0 30.2652 0.105357 30.5196 0.292893 30.7071C0.48043 30.8946 0.734784 31 1 31H10C10.2652 31 10.5196 30.8946 10.7071 30.7071C10.8946 30.5196 11 30.2652 11 30Z" fill="#06ABE1"/>
</g>
<defs>
<clipPath id="clip0_2003_60">
<rect width="60" height="60" fill="white"/>
</clipPath>
</defs>
</svg>
