<svg width="60" height="60" viewBox="0 0 60 60" fill="none" xmlns="http://www.w3.org/2000/svg">
<path d="M22.5797 14.6157C34.7653 14.6157 41.4188 11.941 41.4188 10.5676C41.4188 9.20447 34.7653 6.52979 22.5797 6.52979C10.3941 6.52979 3.75 9.20447 3.75 10.5676C3.75 11.941 10.3931 14.6157 22.5797 14.6157Z" fill="#06ABE1"/>
<path d="M22.5797 25.712C24.4472 25.712 26.2444 25.652 27.9206 25.5208C29.5654 23.82 31.5359 22.4678 33.7145 21.5449C35.8931 20.622 38.2352 20.1472 40.6012 20.1489C40.8731 20.1489 41.1459 20.1592 41.4188 20.1695V13.3745C34.035 17.7479 11.1337 17.7508 3.75 13.3745V21.5626C3.75814 21.5957 3.7613 21.6299 3.75938 21.6639C3.75938 23.0364 10.4034 25.712 22.5797 25.712ZM22.5797 38.837C15.1687 38.837 7.34438 37.8076 3.75 35.5764V43.7636C3.75814 43.7967 3.7613 43.8308 3.75938 43.8648C3.51563 45.8814 15.87 48.5776 26.0325 47.8323C24.1924 45.1733 23.1263 42.0557 22.9528 38.8267C22.8309 38.837 22.6997 38.837 22.5797 38.837Z" fill="#06ABE1"/>
<path d="M42.4284 22.2799C40.2346 22.0287 38.0124 22.2431 35.907 22.9091C33.8016 23.5752 31.8604 24.6778 30.2101 26.1451C28.5599 27.6124 27.2377 29.4113 26.33 31.4243C25.4222 33.4373 24.9493 35.6192 24.9422 37.8274C25.8178 58.5836 55.3725 58.593 56.25 37.8274C56.2447 33.9944 54.8356 30.2961 52.2889 27.4314C49.7422 24.5667 46.2344 22.7341 42.4284 22.2799ZM30.6066 40.4224C30.3413 40.4622 30.0711 40.3953 29.8552 40.2363C29.6392 40.0772 29.4951 39.8391 29.4544 39.574C28.3106 32.9805 33.8962 26.4368 40.6012 26.6111C42.6036 26.6054 44.5705 27.1387 46.2956 28.1552L45.8812 26.1865C45.853 26.0571 45.8508 25.9234 45.8748 25.7932C45.8988 25.663 45.9484 25.5389 46.0208 25.4281C46.0932 25.3173 46.187 25.222 46.2966 25.1478C46.4063 25.0736 46.5296 25.0219 46.6594 24.9958C46.9215 24.9402 47.195 24.9908 47.42 25.1364C47.6449 25.2821 47.8029 25.511 47.8594 25.773C47.8594 25.773 48.8156 30.3921 48.8297 30.4268C48.8588 30.5711 48.8561 30.72 48.8218 30.8631C48.7874 31.0063 48.7223 31.1402 48.6309 31.2556C48.5395 31.371 48.4241 31.4651 48.2926 31.5313C48.1611 31.5975 48.0168 31.6342 47.8697 31.639L43.125 31.7796C42.8646 31.7762 42.6155 31.6723 42.4297 31.4897C42.244 31.3071 42.1359 31.0599 42.1281 30.7995C42.1202 30.5392 42.2132 30.2859 42.3876 30.0924C42.5619 29.8989 42.8043 29.7803 43.0641 29.7611L44.9419 29.7105C38.4112 26.0908 30.2081 31.8996 31.4541 39.2711C31.4744 39.4025 31.4686 39.5366 31.4369 39.6657C31.4052 39.7948 31.3483 39.9163 31.2694 40.0233C31.1906 40.1303 31.0913 40.2207 30.9774 40.2892C30.8635 40.3577 30.7381 40.4029 30.6066 40.4224ZM48.5663 45.844C46.8471 47.5545 44.6238 48.6673 42.2241 49.0181C39.8244 49.3688 37.3756 48.939 35.2388 47.7921L35.7338 49.3671C35.8141 49.6228 35.7895 49.9 35.6655 50.1376C35.5414 50.3752 35.3281 50.5538 35.0723 50.6341C34.8166 50.7144 34.5395 50.6899 34.3018 50.5658C34.0642 50.4418 33.8856 50.2284 33.8053 49.9727L32.4122 45.5205C32.3615 45.3973 32.3357 45.2653 32.3362 45.1321C32.3367 44.9989 32.3635 44.8671 32.4151 44.7443C32.4666 44.6215 32.542 44.51 32.6367 44.4164C32.7315 44.3228 32.8438 44.2488 32.9672 44.1986C33.0516 44.1536 37.935 43.5321 37.935 43.5321C38.1996 43.5024 38.4652 43.5781 38.6744 43.7428C38.8836 43.9075 39.0195 44.148 39.0526 44.4122C39.0858 44.6763 39.0136 44.9429 38.8516 45.1542C38.6896 45.3656 38.4509 45.5046 38.1872 45.5411L35.865 45.8336C37.4122 46.7511 39.1931 47.198 40.9902 47.1198C42.7872 47.0416 44.5226 46.4416 45.9843 45.3933C47.446 44.345 48.5707 42.8936 49.221 41.2165C49.8713 39.5395 50.0191 37.7093 49.6463 35.9496C49.5901 35.6885 49.6399 35.4158 49.7847 35.1915C49.9296 34.9671 50.1577 34.8095 50.4187 34.7533C50.6798 34.6971 50.9525 34.747 51.1769 34.8918C51.4012 35.0367 51.5588 35.2648 51.615 35.5258C52.0105 37.3634 51.9387 39.2708 51.4062 41.0734C50.8738 42.876 49.8967 44.5162 48.5663 45.844ZM22.5797 36.8177C22.7109 36.8177 22.8319 36.8177 22.9528 36.8083C23.1331 33.5147 24.2428 30.3396 26.1534 27.6508C18.7406 28.0615 7.80188 27.1061 3.75 24.469V32.6674C3.75814 32.7005 3.7613 32.7346 3.75938 32.7686C3.75938 34.1411 10.4034 36.8177 22.5797 36.8177Z" fill="#06ABE1"/>
</svg>
