<svg width="60" height="60" viewBox="0 0 60 60" fill="none" xmlns="http://www.w3.org/2000/svg">
<g clip-path="url(#clip0_2003_72)">
<path d="M58.5826 36.9194L54.9814 33.6847C55.4353 31.2491 55.4354 28.7506 54.9816 26.3149L58.5826 23.0805C58.8833 22.8105 59.082 22.4453 59.1455 22.0461C59.2089 21.647 59.1333 21.2381 58.9312 20.8881L55.0119 14.0999C54.8098 13.7499 54.4936 13.48 54.1162 13.3354C53.7388 13.1908 53.3232 13.1803 52.9389 13.3056L48.3336 14.8082C46.4542 13.1979 44.2802 11.9412 41.9545 11.1209L40.9542 6.38615C40.8707 5.99071 40.6538 5.63599 40.3398 5.38145C40.0259 5.12691 39.634 4.98801 39.2298 4.98804H35.3105V15.529H35.3109C43.2901 15.529 49.7816 22.0206 49.7816 29.9996C49.7816 37.9792 43.2901 44.471 35.3109 44.471H35.3105V55.012H39.2298C39.634 55.012 40.0259 54.8731 40.3398 54.6185C40.6537 54.364 40.8707 54.0093 40.9542 53.6139L41.9545 48.8791C44.2804 48.0587 46.4543 46.802 48.3336 45.1917L52.9388 46.6943C53.323 46.8197 53.7387 46.8093 54.1161 46.6647C54.4936 46.5201 54.8098 46.2501 55.0118 45.9L58.9311 39.1118C59.1332 38.7618 59.2089 38.3529 59.1454 37.9538C59.082 37.5546 58.8833 37.1894 58.5826 36.9194Z" fill="#06ABE1"/>
<path d="M35.3109 22.5789C39.4028 22.5789 42.7317 25.9079 42.7317 29.9996C42.7317 34.0918 39.4028 37.421 35.3109 37.421H35.3105V40.946H35.3109C41.3464 40.946 46.2567 36.0355 46.2567 29.9996C46.2567 23.9642 41.3464 19.054 35.3109 19.054H35.3105V22.5789H35.3109Z" fill="#06ABE1"/>
<path d="M39.2074 29.9995C39.2074 27.8514 37.4597 26.1038 35.3115 26.1038H35.3111V33.896H35.3115C37.4597 33.896 39.2074 32.148 39.2074 29.9995ZM0.833984 54.6006C0.833984 57.5778 3.25609 59.9999 6.23326 59.9999H26.387C29.3642 59.9999 31.7863 57.5778 31.7863 54.6006V47.9255H0.833984V54.6006ZM16.31 50.1764C17.4278 50.1764 18.3338 51.0826 18.3338 52.2002C18.3338 53.3179 17.4277 54.224 16.31 54.224C15.1924 54.224 14.2862 53.3179 14.2862 52.2002C14.2862 51.0826 15.1924 50.1764 16.31 50.1764ZM12.4242 29.1604C13.4516 30.0944 14.8156 30.6642 16.3101 30.6642C17.8047 30.6642 19.1686 30.0942 20.196 29.1604L16.3101 26.9168L12.4242 29.1604ZM21.9603 26.1088C22.0481 25.7057 22.0924 25.2943 22.0926 24.8817C22.0926 22.3076 20.4017 20.1219 18.0725 19.3748V23.8641L21.9603 26.1088ZM14.5476 19.3749C12.2185 20.122 10.5276 22.3077 10.5276 24.8818C10.5276 25.3029 10.574 25.7131 10.6599 26.1088L14.5476 23.8642V19.3749Z" fill="#06ABE1"/>
<path d="M0.833984 11.8255V44.4008H31.7862V11.8255H0.833984ZM22.2816 40.6518H10.3385C9.36518 40.6518 8.57606 39.8627 8.57606 38.8893C8.57606 37.916 9.36518 37.1269 10.3385 37.1269H22.2816C23.255 37.1269 24.0441 37.916 24.0441 38.8893C24.0441 39.8627 23.255 40.6518 22.2816 40.6518ZM16.3101 34.1894C11.1779 34.1894 7.00264 30.0141 7.00264 24.8819C7.00264 19.7498 11.1779 15.5745 16.31 15.5744C21.4421 15.5744 25.6174 19.7497 25.6174 24.8819C25.6174 30.0141 21.4422 34.1894 16.3101 34.1894ZM31.7862 5.39928C31.7862 2.42211 29.3641 0 26.3869 0H6.23315C3.25609 0 0.833984 2.42211 0.833984 5.39928V8.30043H31.7862V5.39928Z" fill="#06ABE1"/>
</g>
<defs>
<clipPath id="clip0_2003_72">
<rect width="60" height="60" fill="white"/>
</clipPath>
</defs>
</svg>
