<svg width="60" height="60" viewBox="0 0 60 60" fill="none" xmlns="http://www.w3.org/2000/svg">
<path d="M48.8388 46.8001C48.8388 48.2401 47.6388 49.3201 46.3188 49.3201H40.1988C38.7588 49.3201 37.6788 48.1201 37.6788 46.8001V45.2401L36.5988 46.3201C36.1188 46.8001 35.5188 47.0401 34.7988 47.0401C34.0788 47.0401 33.4788 46.8001 32.9988 46.3201L28.4388 42.0001C27.9588 41.5201 27.7188 40.8001 27.7188 40.2001C27.7188 39.4801 27.9588 38.8801 28.4388 38.4001L29.5188 37.3201H27.9588C26.5188 37.3201 25.4388 36.1201 25.4388 34.8001V28.6801C25.4388 27.2401 26.6388 26.1601 27.9588 26.1601H29.5188L28.4388 25.0801C27.9588 24.4801 27.7188 23.8801 27.7188 23.2801C27.7188 22.5601 27.9588 21.9601 28.4388 21.4801L32.8788 17.1601C33.3588 16.6801 34.0788 16.4401 34.6788 16.4401C35.3988 16.4401 35.9988 16.6801 36.4788 17.1601L37.5588 18.2401V16.6801C37.5588 15.2401 38.7588 14.1601 40.0788 14.1601H46.1988C47.6388 14.1601 48.7188 15.3601 48.7188 16.6801V18.0001L49.6788 17.1601V11.0401C49.6788 9.00007 47.9988 7.32007 45.9588 7.32007H27.9588C28.0788 7.56007 28.0788 7.92007 28.0788 8.16007V13.2001C28.0788 16.3201 25.6788 18.6001 22.6788 18.6001H17.6388C17.3988 18.6001 17.0388 18.6001 16.7988 18.4801V49.8001C16.7988 51.8401 18.4788 53.5201 20.5188 53.5201H45.9588C47.9988 53.5201 49.6788 51.8401 49.6788 49.8001V46.4401L48.7188 45.6001V46.8001H48.8388Z" fill="#06ABE1"/>
<path d="M17.7597 16.44H22.7997C24.8397 16.44 26.5197 14.76 26.5197 12.72V7.68005C26.5197 7.32005 26.2797 6.96005 26.0397 6.84005C25.6797 6.72005 25.3197 6.84005 25.0797 7.08005L17.2797 14.88C17.0397 15.12 16.9197 15.48 17.0397 15.84C17.1597 16.32 17.5197 16.44 17.7597 16.44ZM10.5597 37.08C10.1997 36.72 9.71969 36.72 9.35969 37.08L7.19969 39.24C6.83969 39.6 6.83969 40.08 7.19969 40.44L9.35969 42.6C9.47969 42.72 9.71969 42.84 9.95969 42.84C10.1997 42.84 10.4397 42.72 10.5597 42.6L12.4797 40.68H14.9997V39H12.4797L10.5597 37.08Z" fill="#06ABE1"/>
<path d="M5.51961 28.4401V26.0401C5.51961 25.5601 5.15961 25.2001 4.67961 25.2001H1.43961C0.959609 25.2001 0.599609 25.5601 0.599609 26.0401V29.2801C0.599609 29.7601 0.959609 30.1201 1.43961 30.1201H4.67961L7.07961 32.5201L4.55961 35.0401H1.43961C0.959609 35.0401 0.599609 35.4001 0.599609 35.8801V39.1201C0.599609 39.6001 0.959609 39.9601 1.43961 39.9601H4.67961C5.15961 39.9601 5.51961 39.6001 5.51961 39.1201V36.6001L8.75961 33.3601H15.2396V31.6801H8.63961L5.51961 28.4401ZM10.5596 22.2001C10.1996 21.8401 9.71961 21.8401 9.35961 22.2001L7.19961 24.3601C6.83961 24.7201 6.83961 25.2001 7.19961 25.5601L9.35961 27.7201C9.59961 27.9601 9.83961 28.0801 9.95961 28.0801C10.1996 28.0801 10.4396 27.9601 10.5596 27.8401L12.4796 25.9201H14.9996V24.2401H12.4796L10.5596 22.2001ZM58.5596 27.4801H54.9596C54.7196 26.8801 54.5996 26.4001 54.3596 25.9201L56.8796 23.4001C56.9996 23.2801 57.1196 23.0401 57.1196 22.8001C57.1196 22.5601 56.9996 22.3201 56.8796 22.2001L52.5596 17.8801C52.1996 17.5201 51.7196 17.5201 51.3596 17.8801L48.8396 20.4001C48.3596 20.1601 47.8796 19.9201 47.2796 19.8001V16.2001C47.2796 15.7201 46.9196 15.3601 46.4396 15.3601H40.3196C39.8396 15.3601 39.4796 15.7201 39.4796 16.2001V19.8001C38.8796 20.0401 38.3996 20.1601 37.9196 20.4001L35.3996 17.8801C35.2796 17.7601 35.0396 17.6401 34.7996 17.6401C34.5596 17.6401 34.3196 17.7601 34.1996 17.8801L29.7596 22.2001C29.6396 22.3201 29.5196 22.5601 29.5196 22.8001C29.5196 23.0401 29.6396 23.2801 29.7596 23.4001L32.2796 25.9201C32.0396 26.4001 31.7996 26.8801 31.6796 27.4801H27.9596C27.4796 27.4801 27.1196 27.8401 27.1196 28.3201V34.4401C27.1196 34.9201 27.4796 35.2801 27.9596 35.2801H31.6796C31.7996 35.7601 32.0396 36.3601 32.2796 36.8401L29.7596 39.3601C29.6396 39.4801 29.5196 39.7201 29.5196 39.9601C29.5196 40.2001 29.6396 40.4401 29.7596 40.5601L34.1996 44.8801C34.5596 45.2401 35.0396 45.2401 35.3996 44.8801L37.9196 42.3601C38.3996 42.6001 38.9996 42.8401 39.4796 42.9601V46.5601C39.4796 47.0401 39.8396 47.4001 40.3196 47.4001H46.4396C46.9196 47.4001 47.2796 47.0401 47.2796 46.5601V42.9601C47.7596 42.8401 48.3596 42.6001 48.8396 42.3601L51.3596 44.8801C51.7196 45.2401 52.1996 45.2401 52.5596 44.8801L56.8796 40.5601C56.9996 40.4401 57.1196 40.2001 57.1196 39.9601C57.1196 39.7201 56.9996 39.4801 56.8796 39.3601L54.3596 36.8401C54.5996 36.3601 54.8396 35.8801 54.9596 35.2801H58.6796C59.1596 35.2801 59.5196 34.9201 59.5196 34.4401V28.3201C59.3996 27.9601 59.0396 27.4801 58.5596 27.4801ZM43.1996 36.9601C40.0796 36.9601 37.6796 34.5601 37.6796 31.4401C37.6796 28.3201 40.0796 25.9201 43.1996 25.9201C46.3196 25.9201 48.7196 28.3201 48.7196 31.4401C48.7196 34.5601 46.1996 36.9601 43.1996 36.9601Z" fill="#06ABE1"/>
</svg>
