<svg width="60" height="60" viewBox="0 0 60 60" fill="none" xmlns="http://www.w3.org/2000/svg">
<g clip-path="url(#clip0_2003_38)">
<path d="M47.8604 34.2221L45.5144 32.8677C45.7221 31.8574 45.8209 30.924 45.8209 30C45.8209 29.076 45.7221 28.1426 45.5145 27.1322L47.8605 25.7777C48.2642 25.5446 48.5588 25.1607 48.6795 24.7105C48.8001 24.2602 48.737 23.7803 48.5039 23.3766L44.9883 17.2874C44.5027 16.4466 43.4279 16.1585 42.5871 16.644L40.2624 17.9862C38.8053 16.7501 37.1142 15.7841 35.2741 15.137V12.4219C35.2741 11.4511 34.4871 10.6641 33.5163 10.6641H26.4851C25.5143 10.6641 24.7272 11.4511 24.7272 12.4219V15.137C22.8872 15.7841 21.1959 16.7502 19.7389 17.9862L17.4143 16.644C16.5734 16.1584 15.4984 16.4467 15.0131 17.2874L11.4975 23.3766C11.2644 23.7803 11.2013 24.2601 11.322 24.7104C11.4426 25.1606 11.7372 25.5446 12.1408 25.7777L14.4868 27.1322C14.279 28.1426 14.1802 29.076 14.1802 30C14.1802 30.924 14.279 31.8574 14.4866 32.8678L12.1406 34.2223C11.7369 34.4554 11.4423 34.8393 11.3216 35.2895C11.201 35.7398 11.2642 36.2197 11.4972 36.6234L15.0129 42.7126C15.4984 43.5536 16.5734 43.8416 17.414 43.356L19.7387 42.0138C21.1958 43.2499 22.8869 44.2159 24.727 44.863V47.5781C24.727 48.5489 25.514 49.3359 26.4848 49.3359H33.5161C34.4868 49.3359 35.2739 48.5489 35.2739 47.5781V44.863C37.114 44.2159 38.8052 43.2498 40.2622 42.0138L42.5868 43.356C43.4276 43.8415 44.5025 43.5533 44.988 42.7126L48.5036 36.6234C48.6191 36.4235 48.6941 36.2029 48.7242 35.974C48.7544 35.7451 48.7392 35.5125 48.6794 35.2895C48.6197 35.0666 48.5166 34.8575 48.3761 34.6744C48.2356 34.4912 48.0603 34.3376 47.8604 34.2221ZM30.0006 35.2734C27.0928 35.2734 24.7271 32.9078 24.7271 30C24.7271 27.0922 27.0928 24.7266 30.0006 24.7266C32.9083 24.7266 35.274 27.0922 35.274 30C35.274 32.9078 32.9083 35.2734 30.0006 35.2734Z" fill="#06ABE1"/>
<path d="M54.0409 12.0428L51.555 4.58496C51.248 3.66398 50.2525 3.16605 49.3315 3.4732C48.4105 3.78023 47.9128 4.77562 48.2197 5.69672L48.431 6.33059C46.8456 5.12373 45.1491 4.07021 43.3644 3.18422C39.1646 1.10109 34.5434 0 30 0C22.0301 0 14.5085 3.13242 8.82059 8.82059C3.13242 14.5085 0 22.0302 0 30C0 33.6809 0.77332 37.4518 2.29816 41.2082C2.57543 41.8911 3.2332 42.3052 3.92742 42.3052C4.14762 42.3052 4.37156 42.2636 4.58813 42.1757C5.48766 41.8105 5.92078 40.7852 5.55563 39.8857C4.20188 36.5514 3.51562 33.2254 3.51562 30C3.51562 15.3964 15.3964 3.51562 30 3.51562C35.3602 3.51562 40.7712 5.29875 45.2668 8.39133C44.4075 8.21496 43.5323 8.70363 43.2479 9.55664C42.941 10.4775 43.4387 11.4731 44.3597 11.7802L51.8175 14.2662C52.1272 14.3693 52.4595 14.3842 52.7771 14.3092C53.0948 14.2342 53.3853 14.0722 53.6161 13.8414C53.8469 13.6106 54.0089 13.3201 54.0839 13.0024C54.159 12.6847 54.1441 12.3525 54.0409 12.0428ZM57.7018 18.7918C57.3366 17.8922 56.3112 17.4594 55.4119 17.8243C54.5123 18.1895 54.0792 19.2148 54.4444 20.1143C55.7981 23.4486 56.4844 26.7746 56.4844 30C56.4844 44.6036 44.6036 56.4844 30 56.4844C24.6398 56.4844 19.2288 54.7013 14.7332 51.6087C15.5924 51.7849 16.4677 51.2965 16.7521 50.4434C17.059 49.5225 16.5613 48.5269 15.6403 48.2198L8.1825 45.7338C7.8728 45.6305 7.54044 45.6155 7.2227 45.6905C6.90495 45.7655 6.61436 45.9275 6.38351 46.1584C6.15266 46.3892 5.99066 46.6798 5.91568 46.9975C5.8407 47.3153 5.85569 47.6476 5.95898 47.9573L8.44488 55.4152C8.69051 56.1518 9.37617 56.6177 10.1123 56.6176C10.2966 56.6176 10.4841 56.5884 10.6684 56.527C11.5894 56.22 12.0871 55.2246 11.7802 54.3035L11.5689 53.6696C13.1543 54.8765 14.8508 55.93 16.6355 56.816C20.8354 58.8989 25.4566 60 30 60C37.9699 60 45.4915 56.8676 51.1794 51.1794C56.8676 45.4915 60 37.9698 60 30C60 26.3191 59.2267 22.5482 57.7018 18.7918Z" fill="#06ABE1"/>
</g>
<defs>
<clipPath id="clip0_2003_38">
<rect width="60" height="60" fill="white"/>
</clipPath>
</defs>
</svg>
