<svg width="60" height="60" viewBox="0 0 60 60" fill="none" xmlns="http://www.w3.org/2000/svg">
<path fill-rule="evenodd" clip-rule="evenodd" d="M10.8908 55.5805H49.1091V52.634C49.1091 51.0135 47.4497 49.6877 45.4214 49.6877H38.8392V42.8173H53.8007C56.179 42.8173 58.1249 40.8714 58.1249 38.493V8.74401C58.1249 6.36569 56.179 4.41968 53.8007 4.41968H6.19922C3.8209 4.41968 1.875 6.36558 1.875 8.74401V38.493C1.875 40.8714 3.8209 42.8173 6.19922 42.8173H21.1607V49.6876H14.5785C12.5502 49.6876 10.8908 51.0134 10.8908 52.6339V55.5805ZM21.8041 14.2379C22.9054 14.4544 23.9524 14.8884 24.8839 15.5145L26.5263 14.785L27.9402 16.1989L27.2109 17.8408C27.8372 18.7725 28.2713 19.8198 28.4878 20.9213L30.1634 21.5662V23.5658L28.4873 24.2109C28.2708 25.3122 27.8368 26.3592 27.2107 27.2907L27.9402 28.9331L26.5263 30.3469L24.8844 29.6177C23.9527 30.244 22.9055 30.6781 21.8039 30.8946L21.1589 32.5702H19.1593L18.5142 30.8942C17.413 30.6776 16.3659 30.2436 15.4344 29.6176L13.792 30.3471L12.3782 28.9332L13.1074 27.2913C12.4811 26.3596 12.047 25.3123 11.8305 24.2108L10.1549 23.5659V21.5663L11.8308 20.9212C12.0473 19.8198 12.4813 18.7727 13.1075 17.8412L12.3782 16.1989L13.792 14.785L15.4344 15.5145C16.3659 14.8884 17.4129 14.4544 18.5142 14.2379L19.1593 12.5619H21.1588L21.8041 14.2379ZM20.1593 18.1494C22.5986 18.1494 24.576 20.1268 24.576 22.566C24.576 25.0053 22.5986 26.9827 20.1593 26.9827C17.72 26.9827 15.7426 25.0053 15.7426 22.566C15.7426 20.1268 17.72 18.1494 20.1593 18.1494ZM41.9046 12.5977C42.7596 11.1169 44.2707 10.3948 45.8184 10.4789L43.6823 14.1787L44.7902 16.0978H47.0061L49.1422 12.3979C49.989 13.6962 50.1191 15.366 49.2642 16.8468C48.4093 18.3276 46.6957 19.1469 45.0492 18.9386L39.9109 27.8383C40.9145 29.1601 41.0619 31.0536 40.2069 32.5345C39.3519 34.0153 37.8408 34.7375 36.2931 34.6533L38.4292 30.9536L37.3213 29.0346H35.1054L32.9693 32.7344C32.1226 31.4361 31.9924 29.7663 32.8473 28.2855C33.7022 26.8047 35.4159 25.9855 37.0623 26.1937L42.2006 17.294C41.197 15.9723 41.0496 14.0785 41.9046 12.5977ZM6.09082 8.03573H53.9092C54.2391 8.03573 54.5089 8.30573 54.5089 8.6355V37.0964H5.49105V8.6355C5.49105 8.30562 5.76094 8.03573 6.09082 8.03573Z" fill="#06ABE1"/>
</svg>
