<svg width="27" height="34" viewBox="0 0 27 34" fill="none" xmlns="http://www.w3.org/2000/svg">
<path d="M13.5022 7.24835C12.3333 7.24835 11.1906 7.59498 10.2187 8.24438C9.24681 8.89379 8.4893 9.81682 8.04198 10.8967C7.59466 11.9767 7.47762 13.165 7.70566 14.3114C7.93371 15.4579 8.49659 16.511 9.32313 17.3375C10.1497 18.164 11.2027 18.7269 12.3492 18.955C13.4956 19.183 14.684 19.066 15.7639 18.6187C16.8438 18.1713 17.7668 17.4138 18.4163 16.4419C19.0657 15.47 19.4123 14.3273 19.4123 13.1584C19.4123 11.591 18.7896 10.0877 17.6813 8.97938C16.5729 7.87102 15.0696 7.24835 13.5022 7.24835ZM13.5022 16.7045C12.8008 16.7045 12.1153 16.4965 11.5321 16.1069C10.949 15.7172 10.4945 15.1634 10.2261 14.5155C9.95767 13.8675 9.88745 13.1545 10.0243 12.4666C10.1611 11.7788 10.4988 11.1469 10.9948 10.651C11.4907 10.1551 12.1225 9.81735 12.8104 9.68053C13.4983 9.5437 14.2113 9.61392 14.8592 9.88232C15.5072 10.1507 16.061 10.6052 16.4506 11.1884C16.8403 11.7715 17.0482 12.4571 17.0482 13.1584C17.0482 14.0989 16.6746 15.0009 16.0096 15.6659C15.3446 16.3309 14.4427 16.7045 13.5022 16.7045ZM13.5022 0.15625C10.055 0.160161 6.75011 1.53129 4.31257 3.96882C1.87504 6.40636 0.503911 9.71125 0.5 13.1584C0.5 17.7979 2.64388 22.7151 6.70559 27.3796C8.53066 29.4874 10.5848 31.3854 12.8299 33.0385C13.0287 33.1777 13.2654 33.2524 13.5081 33.2524C13.7508 33.2524 13.9875 33.1777 14.1863 33.0385C16.4273 31.3847 18.4774 29.4867 20.2988 27.3796C24.3546 22.7151 26.5044 17.7979 26.5044 13.1584C26.5005 9.71125 25.1293 6.40636 22.6918 3.96882C20.2543 1.53129 16.9494 0.160161 13.5022 0.15625ZM13.5022 30.5932C11.0598 28.6724 2.86403 21.6173 2.86403 13.1584C2.86403 10.337 3.98484 7.63117 5.97988 5.63613C7.97492 3.64109 10.6808 2.52028 13.5022 2.52028C16.3236 2.52028 19.0295 3.64109 21.0245 5.63613C23.0195 7.63117 24.1403 10.337 24.1403 13.1584C24.1403 21.6143 15.9445 28.6724 13.5022 30.5932Z" fill="#016D85"/>
</svg>
