<svg width="46" height="46" viewBox="0 0 46 46" fill="none" xmlns="http://www.w3.org/2000/svg">
<path d="M26.7981 36.2992C35.0981 34.4992 41.1981 26.9992 41.1981 18.4992C41.1981 8.39922 32.9981 0.199219 22.9981 0.199219C13.0981 0.199219 4.89811 8.29922 4.79811 18.1992C4.69811 26.7992 10.6981 34.3992 19.1981 36.1992C19.5981 36.2992 19.9981 36.4992 20.0981 36.8992L20.7981 38.1992C17.9981 38.6992 16.1981 40.0992 16.1981 41.7992C16.1981 43.9992 19.1981 45.5992 23.0981 45.5992C26.9981 45.5992 29.9981 43.8992 29.9981 41.7992C29.9981 39.9992 28.1981 38.5992 25.3981 38.1992L26.0981 36.8992C26.0981 36.5992 26.3981 36.3992 26.7981 36.2992ZM28.3981 41.8992C28.3981 42.9992 26.0981 44.1992 22.9981 44.1992C19.8981 44.1992 17.5981 42.9992 17.5981 41.8992C17.5981 40.8992 19.1981 39.8992 21.3981 39.6992L22.2981 41.2992C22.3981 41.4992 22.6981 41.6992 22.9981 41.6992C23.2981 41.6992 23.4981 41.5992 23.6981 41.2992L24.5981 39.6992C26.6981 39.9992 28.3981 40.8992 28.3981 41.8992ZM24.5981 36.2992L22.9981 39.3992L21.3981 36.2992C20.9981 35.4992 20.2981 34.9992 19.3981 34.7992C11.6981 33.0992 6.09811 26.1992 6.19811 18.2992C6.39811 9.19922 13.8981 1.69922 22.9981 1.69922C32.1981 1.69922 39.6981 9.19922 39.6981 18.3992C39.6981 26.1992 34.1981 33.0992 26.4981 34.7992C25.6981 34.9992 24.9981 35.4992 24.5981 36.2992Z" fill="#b345d0"/>
<path d="M32.2977 26.1992V21.3992C32.9977 20.9992 33.6977 20.1992 33.6977 18.3992V13.1992C33.6977 11.8992 32.5977 10.7992 31.2977 10.7992H27.4977V7.99922C27.4977 7.59922 27.1977 7.19922 26.6977 7.19922H19.1977C18.7977 7.19922 18.3977 7.49922 18.3977 7.99922V10.7992H14.4977C13.1977 10.7992 12.0977 11.8992 12.0977 13.1992V18.3992C12.0977 20.2992 12.7977 21.0992 13.4977 21.3992V26.1992C13.4977 27.5992 14.5977 28.6992 15.9977 28.6992H29.6977C31.1977 28.7992 32.2977 27.5992 32.2977 26.1992ZM19.9977 8.79922H25.9977V10.8992H19.9977V8.79922ZM13.7977 18.3992V13.1992C13.7977 12.6992 14.1977 12.2992 14.6977 12.2992H31.3977C31.8977 12.2992 32.2977 12.6992 32.2977 13.1992V18.3992C32.2977 20.1992 31.4977 20.1992 31.1977 20.1992H27.6977V19.0992C27.6977 18.6992 27.3977 18.2992 26.8977 18.2992C26.3977 18.2992 26.0977 18.5992 26.0977 19.0992V20.1992H19.7977V19.0992C19.7977 18.6992 19.4977 18.2992 18.9977 18.2992C18.4977 18.2992 18.1977 18.5992 18.1977 19.0992V20.1992H14.6977C14.4977 20.1992 13.7977 20.1992 13.7977 18.3992ZM15.1977 26.1992V21.6992H18.3977V22.3992C18.3977 22.7992 18.6977 23.1992 19.1977 23.1992C19.6977 23.1992 19.9977 22.8992 19.9977 22.3992V21.6992H26.2977V22.3992C26.2977 22.7992 26.5977 23.1992 27.0977 23.1992C27.5977 23.1992 27.8977 22.8992 27.8977 22.3992V21.6992H31.0977V26.1992C31.0977 26.7992 30.6977 27.1992 30.0977 27.1992H16.1977C15.5977 27.1992 15.1977 26.7992 15.1977 26.1992Z" fill="#b345d0"/>
</svg>
