<svg width="45" height="45" viewBox="0 0 45 45" fill="none" xmlns="http://www.w3.org/2000/svg">
<path fill-rule="evenodd" clip-rule="evenodd" d="M15.1367 5.29688C14.3072 5.29688 13.623 5.98104 13.623 6.81053V10.7241C13.623 11.4522 13.0328 12.0425 12.3047 12.0425C11.5766 12.0425 10.9863 11.4522 10.9863 10.7241V6.81053C10.9863 4.52482 12.851 2.66016 15.1367 2.66016H29.8633C32.1491 2.66016 34.0137 4.52485 34.0137 6.81053V10.7241C34.0137 11.4522 33.4234 12.0425 32.6953 12.0425C31.9672 12.0425 31.377 11.4522 31.377 10.7241V6.81053C31.377 5.98101 30.6929 5.29688 29.8633 5.29688H15.1367ZM41.9238 22.062C42.6519 22.062 43.2422 22.6523 43.2422 23.3804V38.3877C43.2422 40.5657 41.4652 42.3428 39.2871 42.3428H5.71289C3.53493 42.3428 1.75781 40.5661 1.75781 38.3877V23.4683C1.75781 22.7402 2.34806 22.1499 3.07617 22.1499C3.80428 22.1499 4.39453 22.7402 4.39453 23.4683V38.3877C4.39453 39.1097 4.99098 39.7061 5.71289 39.7061H39.2871C40.0089 39.7061 40.6055 39.1095 40.6055 38.3877V23.3804C40.6055 22.6523 41.1957 22.062 41.9238 22.062Z" fill="#e27100"/>
<path fill-rule="evenodd" clip-rule="evenodd" d="M3.95508 12.2852C3.23091 12.2852 2.63672 12.8794 2.63672 13.6035V19.8435C2.63672 21.3525 3.97338 22.9035 7.16323 24.2065C10.2322 25.4602 14.4893 26.2423 19.0596 26.5036C19.7866 26.5452 20.3421 27.1682 20.3006 27.8951C20.259 28.622 19.636 29.1776 18.9091 29.136C14.1816 28.8657 9.60572 28.0526 6.16611 26.6475C2.84742 25.2917 0 23.1203 0 19.8435V13.6035C0 11.4232 1.77463 9.64844 3.95508 9.64844H41.0449C43.2253 9.64844 45 11.4233 45 13.6035V19.8435C45 23.1405 42.1184 25.3184 38.7682 26.674C35.2937 28.0799 30.6741 28.8876 25.9113 29.146C25.1842 29.1854 24.5629 28.628 24.5234 27.901C24.484 27.174 25.0414 26.5526 25.7684 26.5132C30.3735 26.2633 34.6748 25.4859 37.7792 24.2298C41.0079 22.9234 42.3633 21.3624 42.3633 19.8435V13.6035C42.3633 12.8795 41.769 12.2852 41.0449 12.2852H3.95508Z" fill="#e27100"/>
<path fill-rule="evenodd" clip-rule="evenodd" d="M17.9297 25.2051C17.9297 24.477 18.5199 23.8867 19.248 23.8867H25.752C26.4801 23.8867 27.0703 24.477 27.0703 25.2051V28.2373C27.0703 30.6331 25.1156 32.5879 22.7197 32.5879H22.2803C19.8844 32.5879 17.9297 30.6331 17.9297 28.2373V25.2051ZM20.5664 26.5234V28.2373C20.5664 29.1769 21.3407 29.9512 22.2803 29.9512H22.7197C23.6593 29.9512 24.4336 29.1769 24.4336 28.2373V26.5234H20.5664Z" fill="#e27100"/>
</svg>
