<svg width="45" height="45" viewBox="0 0 45 45" fill="none" xmlns="http://www.w3.org/2000/svg">
<path fill-rule="evenodd" clip-rule="evenodd" d="M22.8367 14.6355C20.277 14.6355 18.2019 16.7106 18.2019 19.2703C18.2019 21.83 20.277 23.905 22.8367 23.905C25.3964 23.905 27.4714 21.83 27.4714 19.2703C27.4714 16.7106 25.3964 14.6355 22.8367 14.6355ZM16.0586 19.2703C16.0586 15.5268 19.0932 12.4922 22.8367 12.4922C26.5801 12.4922 29.6147 15.5268 29.6147 19.2703C29.6147 23.0137 26.5801 26.0483 22.8367 26.0483C19.0932 26.0483 16.0586 23.0137 16.0586 19.2703Z" fill="#b345d0"/>
<path fill-rule="evenodd" clip-rule="evenodd" d="M22.85 5.14334C16.4881 5.13904 10.2326 8.83717 8.56218 16.1788C6.59168 24.8843 11.9906 32.3957 16.9844 37.2087C20.2652 40.3589 25.4242 40.356 28.684 37.2098L28.6849 37.2089L28.6859 37.2079C33.6978 32.3951 39.0961 24.9017 37.1255 16.1966L37.1255 16.1966C35.4638 8.85459 29.2123 5.14764 22.85 5.14334ZM39.2159 15.7234C37.2928 7.22649 30.019 3.00485 22.8515 3C15.6838 2.99516 8.40499 7.20712 6.47209 15.704L6.47184 15.7051C4.23606 25.5814 10.3957 33.8355 15.4976 38.7525L15.4983 38.7532L15.499 38.7538C19.6069 42.6991 26.079 42.702 30.1715 38.7529C35.2919 33.8355 41.4518 25.6 39.2159 15.7234Z" fill="#b345d0"/>
</svg>
