<svg width="60" height="60" viewBox="0 0 60 60" fill="none" xmlns="http://www.w3.org/2000/svg">
<g clip-path="url(#clip0_384_105)">
<path d="M56.834 24.359C58.753 22.897 60 20.594 60 18C60 13.589 56.411 10 52 10C47.589 10 44 13.589 44 18C44 20.39 45.059 22.533 46.726 24H41.414L34.707 17.293C34.6142 17.2 34.504 17.1263 34.3827 17.076C34.2614 17.0256 34.1313 16.9997 34 16.9997C33.8687 16.9997 33.7386 17.0256 33.6173 17.076C33.496 17.1263 33.3858 17.2 33.293 17.293L29.293 21.293C29.2 21.3858 29.1263 21.496 29.076 21.6173C29.0256 21.7386 28.9997 21.8687 28.9997 22C28.9997 22.1313 29.0256 22.2614 29.076 22.3827C29.1263 22.504 29.2 22.6142 29.293 22.707L38.293 31.707C38.3857 31.8001 38.4959 31.8739 38.6172 31.9241C38.7386 31.9744 38.8687 32.0002 39 32H47V39H29.868L34.832 31.555L33.168 30.446L27.465 39H25V34C25 33.447 24.553 33 24 33H16V29C16 26.892 14.684 25.093 12.834 24.359C14.753 22.897 16 20.594 16 18C16 13.589 12.411 10 8 10C3.589 10 0 13.589 0 18C0 20.594 1.247 22.897 3.166 24.359C1.316 25.093 0 26.892 0 29V43C0 45.757 2.243 48 5 48V60H7V48H14V59C14 59.553 14.447 60 15 60H22C22.553 60 23 59.553 23 59V44C23 42.875 22.627 41.836 21.998 41H29V58H25V60H35V58H31V41H38.026C37.391 41.838 37 42.87 37 44V59C37 59.553 37.447 60 38 60H45C45.553 60 46 59.553 46 59V48H53V60H55V48C57.757 48 60 45.757 60 43V29C60 26.892 58.684 25.093 56.834 24.359ZM2 18C2 14.691 4.691 12 8 12C11.309 12 14 14.691 14 18C14 21.309 11.309 24 8 24C4.691 24 2 21.309 2 18ZM23 39H10V31H8V40C8 40.553 8.447 41 9 41H18C19.654 41 21 42.346 21 44V58H16V47C16 46.447 15.553 46 15 46H5C3.346 46 2 44.654 2 43V29C2 27.346 3.346 26 5 26H11C12.654 26 14 27.346 14 29V34C14 34.553 14.447 35 15 35H23V39ZM46 18C46 14.691 48.691 12 52 12C55.309 12 58 14.691 58 18C58 21.309 55.309 24 52 24C48.691 24 46 21.309 46 18ZM58 43C58 44.654 56.654 46 55 46H45C44.447 46 44 46.447 44 47V58H39V44C39 42.346 40.346 41 42 41H48C48.553 41 49 40.553 49 40V31C49 30.447 48.553 30 48 30H39.414L31.414 22L34 19.414L40.293 25.707C40.3857 25.8001 40.4959 25.8739 40.6172 25.9241C40.7386 25.9744 40.8687 26.0002 41 26H55C56.654 26 58 27.346 58 29V43Z" fill="#F9C000"/>
<path d="M40 0H20C18.346 0 17 1.346 17 3V11C17 12.654 18.346 14 20 14H21V20C20.9999 20.1314 21.0256 20.2615 21.0759 20.3828C21.1261 20.5042 21.1997 20.6145 21.2926 20.7074C21.3855 20.8003 21.4958 20.8739 21.6172 20.9241C21.7385 20.9744 21.8686 21.0001 22 21C22.26 21 22.516 20.898 22.707 20.707L29.414 14H40C41.654 14 43 12.654 43 11V3C43 1.346 41.654 0 40 0ZM41 11C41 11.552 40.552 12 40 12H29C28.734 12 28.48 12.105 28.293 12.293L23 17.586V13C23 12.447 22.553 12 22 12H20C19.448 12 19 11.552 19 11V3C19 2.448 19.448 2 20 2H40C40.552 2 41 2.448 41 3V11Z" fill="#F9C000"/>
<path d="M21 4H27V6H21V4ZM21 8H39V10H21V8ZM29 4H39V6H29V4Z" fill="#F9C000"/>
</g>
<defs>
<clipPath id="clip0_384_105">
<rect width="60" height="60" fill="white"/>
</clipPath>
</defs>
</svg>
