<svg width="60" height="60" viewBox="0 0 60 60" fill="none" xmlns="http://www.w3.org/2000/svg">
<path d="M21.6105 31.4035C22.8408 31.402 24.0203 30.9126 24.8902 30.0426C25.7602 29.1726 26.2496 27.9931 26.2511 26.7628C26.2471 24.4963 25.5426 22.2864 24.2341 20.4358C22.9256 18.5852 21.0769 17.1843 18.9414 16.425C24.4933 12.6656 21.8045 3.73595 15.002 3.75002C8.20047 3.74064 5.51078 12.6591 11.0645 16.425C8.92881 17.1842 7.07999 18.585 5.77127 20.4356C4.46255 22.2862 3.75793 24.4962 3.75391 26.7628C3.75539 27.9931 4.24479 29.1726 5.11476 30.0426C5.98472 30.9126 7.16422 31.402 8.39453 31.4035H21.6105ZM9.92547 10.7025C10.1383 3.99189 19.8677 3.99377 20.0805 10.7025C19.8667 17.4131 10.1373 17.4113 9.92547 10.7025ZM5.62891 26.7619C6.01891 14.6269 23.9889 14.6325 24.377 26.7619C24.3763 27.4952 24.0847 28.1984 23.5662 28.717C23.0478 29.2356 22.3448 29.5275 21.6114 29.5285H8.39359C7.66041 29.5275 6.95754 29.2358 6.4391 28.7173C5.92066 28.1989 5.62896 27.496 5.62797 26.7628L5.62891 26.7619ZM36.452 24.3731L35.7245 25.8281C35.655 25.9713 35.6227 26.1297 35.6308 26.2887C35.6389 26.4476 35.6871 26.6019 35.7708 26.7373C35.8545 26.8727 35.9711 26.9847 36.1097 27.0629C36.2483 27.1411 36.4044 27.183 36.5636 27.1847C36.6855 27.4172 41.4367 24.4266 41.6355 24.3722H50.6242C51.3697 24.3715 52.0845 24.075 52.6118 23.548C53.1391 23.0209 53.4357 22.3062 53.4367 21.5606V6.56252C53.436 5.81682 53.1394 5.10189 52.6121 4.5746C52.0848 4.04732 51.3699 3.75076 50.6242 3.75002H33.7511C33.0054 3.75076 32.2905 4.04732 31.7632 4.5746C31.2359 5.10189 30.9393 5.81682 30.9386 6.56252V21.5606C30.9393 22.3063 31.2359 23.0213 31.7632 23.5486C32.2905 24.0758 33.0054 24.3724 33.7511 24.3731H36.452ZM32.8136 21.5606V6.56252C32.8138 6.31395 32.9127 6.07564 33.0885 5.89988C33.2642 5.72412 33.5025 5.62526 33.7511 5.62502H50.6242C50.8728 5.62526 51.1111 5.72412 51.2869 5.89988C51.4626 6.07564 51.5615 6.31395 51.5617 6.56252V21.5606C51.5615 21.8092 51.4626 22.0475 51.2869 22.2233C51.1111 22.399 50.8728 22.4979 50.6242 22.4981H41.3805C41.0148 22.425 39.1445 23.7075 38.8089 23.8519C38.8779 23.7088 38.9096 23.5506 38.9011 23.3919C38.8927 23.2333 38.8443 23.0794 38.7606 22.9444C38.6768 22.8094 38.5604 22.6977 38.422 22.6197C38.2836 22.5417 38.1278 22.4999 37.9689 22.4981H33.7511C33.5025 22.4979 33.2642 22.399 33.0885 22.2233C32.9127 22.0475 32.8138 21.8092 32.8136 21.5606ZM48.9386 41.2669C54.4895 37.5056 51.8008 28.5769 44.9992 28.5919C38.1967 28.5825 35.508 37.5 41.0617 41.2669C38.9262 42.026 37.0774 43.4267 35.7687 45.2771C34.46 47.1276 33.7553 49.3373 33.7511 51.6038C33.7526 52.8341 34.242 54.0136 35.1119 54.8835C35.9819 55.7535 37.1614 56.2429 38.3917 56.2444H51.6077C52.838 56.2429 54.0175 55.7535 54.8874 54.8835C55.7574 54.0136 56.2468 52.8341 56.2483 51.6038C56.2441 49.3374 55.5396 47.1278 54.231 45.2773C52.9225 43.4269 51.074 42.0261 48.9386 41.2669ZM39.9217 35.5435C40.1355 28.8338 49.8648 28.8347 50.0767 35.5435C49.8639 42.2541 40.1345 42.2531 39.9217 35.5435ZM51.6077 54.3703H38.3917C37.6585 54.3693 36.9557 54.0776 36.4372 53.5592C35.9188 53.0408 35.6271 52.3379 35.6261 51.6047C35.6286 49.19 36.5888 46.8749 38.2961 45.1672C40.0033 43.4596 42.3183 42.4989 44.733 42.496H45.2664C47.6809 42.4989 49.9957 43.4595 51.703 45.1669C53.4102 46.8743 54.3706 49.1892 54.3733 51.6038C54.3723 52.337 54.0806 53.0398 53.5622 53.5583C53.0437 54.0767 52.3408 54.3693 51.6077 54.3703ZM26.2511 32.8097H9.37797C8.63228 32.8104 7.91734 33.107 7.39005 33.6343C6.86277 34.1616 6.56621 34.8765 6.56547 35.6222V50.6203C6.56621 51.366 6.86277 52.081 7.39005 52.6082C7.91734 53.1355 8.63228 53.4321 9.37797 53.4328H18.3677L22.967 56.1169C23.1416 56.214 23.3425 56.2531 23.5408 56.2287C23.7391 56.2042 23.9245 56.1174 24.0703 55.9808C24.216 55.8442 24.3147 55.6649 24.3519 55.4686C24.3892 55.2723 24.3632 55.0693 24.2777 54.8888L23.5502 53.4328H26.2511C26.9968 53.4321 27.7117 53.1355 28.239 52.6082C28.7663 52.081 29.0628 51.366 29.0636 50.6203V35.6222C29.0628 34.8765 28.7663 34.1616 28.239 33.6343C27.7117 33.107 26.9968 32.8104 26.2511 32.8097ZM27.1886 50.6203C27.1883 50.8689 27.0895 51.1072 26.9137 51.283C26.738 51.4587 26.4997 51.5576 26.2511 51.5578H22.0323C21.8736 51.5598 21.7179 51.6017 21.5796 51.6798C21.4413 51.7578 21.325 51.8695 21.2414 52.0045C21.1577 52.1394 21.1094 52.2933 21.101 52.4519C21.0926 52.6104 21.1244 52.7685 21.1933 52.9116C20.8408 52.7625 18.9948 51.4847 18.6208 51.5578H9.37797C9.1294 51.5576 8.89109 51.4587 8.71533 51.283C8.53957 51.1072 8.44072 50.8689 8.44047 50.6203V35.6222C8.44072 35.3736 8.53957 35.1353 8.71533 34.9596C8.89109 34.7838 9.1294 34.685 9.37797 34.6847H26.2511C26.4997 34.685 26.738 34.7838 26.9137 34.9596C27.0895 35.1353 27.1883 35.3736 27.1886 35.6222V50.6203Z" fill="#0883C3"/>
<path d="M39.2917 12.2146C39.5404 12.2146 39.7788 12.1158 39.9546 11.94C40.1304 11.7642 40.2292 11.5257 40.2292 11.2771C40.231 10.7958 40.4097 10.3319 40.7314 9.97387C41.053 9.6158 41.4951 9.3885 41.9734 9.33523C42.4518 9.28197 42.933 9.40646 43.3255 9.68501C43.718 9.96356 43.9944 10.3767 44.102 10.8458C44.2017 11.3036 44.1354 11.7819 43.9151 12.1954C43.6948 12.6089 43.3348 12.9307 42.8992 13.1033C42.4188 13.2825 42.0041 13.6033 41.71 14.0234C41.4158 14.4434 41.2562 14.9428 41.252 15.4555V16.0424C41.252 16.291 41.3508 16.5295 41.5266 16.7053C41.7024 16.8811 41.9409 16.9799 42.1895 16.9799C42.4382 16.9799 42.6766 16.8811 42.8524 16.7053C43.0283 16.5295 43.127 16.291 43.127 16.0424C43.1233 15.6018 43.0398 15.0346 43.5836 14.8499C48.9217 12.4011 44.5436 4.86458 39.7755 8.30052C38.7733 8.98677 37.3633 11.9455 39.2927 12.2155L39.2917 12.2146ZM42.2073 18.6927C41.9587 18.6927 41.7202 18.7915 41.5444 18.9673C41.3686 19.1431 41.2698 19.3816 41.2698 19.6302C41.2698 19.8788 41.3686 20.1173 41.5444 20.2931C41.7202 20.4689 41.9587 20.5677 42.2073 20.5677C42.456 20.5677 42.6944 20.4689 42.8703 20.2931C43.0461 20.1173 43.1448 19.8788 43.1448 19.6302C43.1448 19.3816 43.0461 19.1431 42.8703 18.9673C42.6944 18.7915 42.456 18.6927 42.2073 18.6927ZM11.2539 44.0455H22.503C22.7516 44.0455 22.9901 43.9467 23.1659 43.7709C23.3417 43.5951 23.4405 43.3567 23.4405 43.108C23.4405 42.8594 23.3417 42.6209 23.1659 42.4451C22.9901 42.2693 22.7516 42.1705 22.503 42.1705H11.2539C11.0053 42.1705 10.7668 42.2693 10.591 42.4451C10.4152 42.6209 10.3164 42.8594 10.3164 43.108C10.3164 43.3567 10.4152 43.5951 10.591 43.7709C10.7668 43.9467 11.0053 44.0455 11.2539 44.0455ZM24.377 47.3146H11.2548C11.0062 47.3146 10.7677 47.4134 10.5919 47.5892C10.4161 47.765 10.3173 48.0034 10.3173 48.2521C10.3173 48.5007 10.4161 48.7392 10.5919 48.915C10.7677 49.0908 11.0062 49.1896 11.2548 49.1896H24.3789C24.6275 49.1896 24.866 49.0908 25.0418 48.915C25.2176 48.7392 25.3164 48.5007 25.3164 48.2521C25.3164 48.0034 25.2176 47.765 25.0418 47.5892C24.866 47.4134 24.6275 47.3146 24.3789 47.3146H24.377ZM11.2539 38.9015H17.8164C18.065 38.9015 18.3035 38.8027 18.4793 38.6269C18.6551 38.4511 18.7539 38.2126 18.7539 37.964C18.7539 37.7153 18.6551 37.4769 18.4793 37.301C18.3035 37.1252 18.065 37.0265 17.8164 37.0265H11.2539C11.0053 37.0265 10.7668 37.1252 10.591 37.301C10.4152 37.4769 10.3164 37.7153 10.3164 37.964C10.3164 38.2126 10.4152 38.4511 10.591 38.6269C10.7668 38.8027 11.0053 38.9015 11.2539 38.9015Z" fill="#0883C3"/>
</svg>
