<svg width="45" height="45" viewBox="0 0 45 45" fill="none" xmlns="http://www.w3.org/2000/svg">
<path d="M34.8034 18.7238V3.05363C34.8034 1.3698 33.4335 0 31.7496 0H6.92082C5.23699 0 3.86719 1.3698 3.86719 3.05363V35.6166C3.86719 37.3004 5.23699 38.6702 6.92082 38.6702H25.6631V43.5919C25.6631 44.6673 26.8276 45.3494 27.767 44.8128L31.991 42.3991C36.6564 45.065 36.4125 44.9981 36.9126 44.9981C37.6892 44.9981 38.3188 44.3676 38.3188 43.5919V34.0099C43.3238 29.2016 41.3413 20.8431 34.8034 18.7238ZM6.92082 35.8578C6.85685 35.8578 6.79553 35.8323 6.7503 35.7871C6.70508 35.7419 6.67964 35.6805 6.67957 35.6166V3.05363C6.67964 2.98967 6.70508 2.92834 6.7503 2.88312C6.79553 2.83789 6.85685 2.81245 6.92082 2.81238H31.7497C31.8137 2.81245 31.875 2.83789 31.9202 2.88312C31.9655 2.92834 31.9909 2.98967 31.991 3.05363V18.2805C26.951 18.2805 22.8507 22.3807 22.8507 27.4207C22.8507 30.007 23.9307 32.3456 25.6631 34.0099V35.8578H6.92082ZM35.5065 41.1687L32.6886 39.5586C32.4761 39.4372 32.2357 39.3733 31.9909 39.3733C31.7462 39.3733 31.5057 39.4372 31.2932 39.5586L28.4754 41.1687V35.8574C30.7177 36.7952 33.2611 36.7965 35.5064 35.8574L35.5065 41.1687ZM31.991 33.7485C28.5018 33.7485 25.6631 30.9099 25.6631 27.4207C25.6631 23.9315 28.5018 21.0928 31.991 21.0928C35.4802 21.0928 38.3188 23.9315 38.3188 27.4207C38.3188 30.9099 35.4802 33.7485 31.991 33.7485Z" fill="#f26e85"/>
<path d="M31.2869 31.0245C30.7376 31.0245 30.6676 30.8946 28.3989 29.382C27.7527 28.9512 27.578 28.0781 28.0089 27.432C28.4397 26.7858 29.3128 26.6112 29.9589 27.0419L30.8982 27.6681L32.9306 24.6196C33.3613 23.9734 34.2346 23.7988 34.8806 24.2296C35.5269 24.6604 35.7015 25.5335 35.2707 26.1796L32.4583 30.3982C32.1872 30.8046 31.7412 31.0245 31.2869 31.0245ZM24.2572 9.84363H12.3046C11.5281 9.84363 10.8984 9.21401 10.8984 8.43744C10.8984 7.66087 11.5281 7.03125 12.3046 7.03125H24.2572C25.0339 7.03125 25.6634 7.66087 25.6634 8.43744C25.6634 9.21401 25.0338 9.84363 24.2572 9.84363ZM24.2572 15.4684H12.3046C11.5281 15.4684 10.8984 14.8388 10.8984 14.0622C10.8984 13.2856 11.5281 12.656 12.3046 12.656H24.2572C25.0339 12.656 25.6634 13.2856 25.6634 14.0622C25.6634 14.8388 25.0338 15.4684 24.2572 15.4684ZM19.3356 21.0931H12.3046C11.5281 21.0931 10.8984 20.4635 10.8984 19.687C10.8984 18.9104 11.5281 18.2808 12.3046 18.2808H19.3356C20.1121 18.2808 20.7418 18.9104 20.7418 19.687C20.7418 20.4635 20.1121 21.0931 19.3356 21.0931Z" fill="#f26e85"/>
</svg>
