<svg width="45" height="45" viewBox="0 0 45 45" fill="none" xmlns="http://www.w3.org/2000/svg">
<path fill-rule="evenodd" clip-rule="evenodd" d="M42.2397 41.2362C43.8107 39.6545 43.8107 37.09 42.2397 35.5082L37.0627 30.2958C36.9118 30.1439 36.7072 30.0586 36.4938 30.0586C36.2805 30.0586 36.0758 30.1439 35.9249 30.2958L30.8216 35.4341C30.7469 35.5094 30.6876 35.5987 30.6472 35.6969C30.6068 35.7952 30.5859 35.9006 30.5859 36.007C30.5859 36.1133 30.6068 36.2187 30.6472 36.317C30.6876 36.4153 30.7469 36.5046 30.8216 36.5798L35.9986 41.7922C37.5696 43.374 40.1167 43.374 41.6875 41.7922L42.2397 41.2362ZM36.4939 32.0142L32.5283 36.0069L37.1365 40.6466C38.0789 41.5957 39.6072 41.5957 40.5498 40.6466L41.1019 40.0906C42.0445 39.1417 42.0445 37.6029 41.1019 36.6538L36.4939 32.0142Z" fill="#204593"/>
<path fill-rule="evenodd" clip-rule="evenodd" d="M37.3725 29.9841L37.3726 29.9842L42.5496 35.1966C44.2908 36.9497 44.2908 39.7908 42.5496 41.544L41.9974 42.0999C40.2547 43.8547 37.4277 43.8547 35.6849 42.0999L30.5079 36.8875C30.3925 36.7714 30.3011 36.6336 30.2388 36.4822C30.1766 36.3309 30.1445 36.1687 30.1445 36.005C30.1445 35.8413 30.1766 35.6792 30.2388 35.5278C30.3011 35.3764 30.3925 35.2387 30.5079 35.1225C30.5079 35.1225 30.5079 35.1225 30.5079 35.1225L35.6112 29.9841C35.8443 29.7495 36.161 29.6172 36.4919 29.6172C36.8227 29.6172 37.1394 29.7495 37.3725 29.9841ZM30.8197 36.5778L35.9967 41.7902C37.5677 43.372 40.1147 43.372 41.6856 41.7902L42.2378 41.2343C43.8088 39.6525 43.8088 37.088 42.2378 35.5063L37.0608 30.2938C36.9099 30.142 36.7052 30.0566 36.4919 30.0566C36.2785 30.0566 36.0739 30.142 35.9229 30.2938L30.8197 35.4322C30.745 35.5074 30.6857 35.5967 30.6452 35.695C30.6048 35.7933 30.584 35.8986 30.584 36.005C30.584 36.1114 30.6048 36.2167 30.6452 36.315C30.6857 36.4133 30.745 36.5026 30.8197 36.5778ZM37.4463 40.335C38.2169 41.111 39.4653 41.111 40.236 40.335C40.2361 40.335 40.236 40.335 40.236 40.335L40.7881 39.779L40.7882 39.7789C41.5605 39.0014 41.5606 37.7393 40.7881 36.9616L36.4919 32.6358L33.1457 36.0049L37.4463 40.335ZM32.5264 36.0049L36.4919 32.0122L41.0999 36.6519C42.0426 37.601 42.0426 39.1397 41.0999 40.0886L40.5479 40.6446C39.6053 41.5937 38.077 41.5937 37.1345 40.6446L32.5264 36.0049Z" fill="#204593"/>
<path fill-rule="evenodd" clip-rule="evenodd" d="M19.332 2.02344C9.53341 2.02344 1.57812 9.99838 1.57812 19.8212C1.57812 29.6442 9.53341 37.6191 19.332 37.6191C29.1307 37.6191 37.0859 29.6442 37.0859 19.8212C37.0859 9.99838 29.1307 2.02344 19.332 2.02344ZM19.332 3.6414C28.2399 3.6414 35.472 10.8913 35.472 19.8212C35.472 28.7511 28.2399 36.001 19.332 36.001C10.4241 36.001 3.1921 28.7511 3.1921 19.8212C3.1921 10.8913 10.4241 3.6414 19.332 3.6414Z" fill="#204593"/>
<path fill-rule="evenodd" clip-rule="evenodd" d="M1.14062 19.8193C1.14062 9.75474 9.29164 1.58203 19.334 1.58203C29.3763 1.58203 37.5273 9.75474 37.5273 19.8193C37.5273 29.8839 29.3763 38.0566 19.334 38.0566C9.29163 38.0566 1.14062 29.8839 1.14062 19.8193ZM35.0345 19.8193C35.0345 11.131 27.9982 4.0789 19.334 4.0789C10.6698 4.0789 3.63351 11.131 3.63351 19.8193C3.63351 28.5075 10.6698 35.5596 19.334 35.5596C27.9982 35.5596 35.0345 28.5075 35.0345 19.8193ZM1.58008 19.8193C1.58008 9.99642 9.53536 2.02148 19.334 2.02148C29.1326 2.02148 37.0879 9.99642 37.0879 19.8193C37.0879 29.6422 29.1326 37.6172 19.334 37.6172C9.53536 37.6172 1.58008 29.6422 1.58008 19.8193ZM35.4739 19.8193C35.4739 10.8894 28.2419 3.63945 19.334 3.63945C10.4261 3.63945 3.19406 10.8894 3.19406 19.8193C3.19406 28.7492 10.4261 35.9991 19.334 35.9991C28.2419 35.9991 35.4739 28.7492 35.4739 19.8193Z" fill="#204593"/>
<path fill-rule="evenodd" clip-rule="evenodd" d="M12.6588 23.8904C13.0868 23.2788 13.5666 22.6663 13.8988 22.3867C14.1032 22.2147 14.4308 22.0497 14.7981 21.92C15.4951 21.6739 16.34 21.5295 16.34 21.5295C16.4685 21.5076 16.6006 21.522 16.7214 21.5709C16.8422 21.6198 16.947 21.7014 17.0241 21.8065C17.0241 21.8065 17.8478 22.9241 19.2738 22.9241C20.6961 22.9241 21.5067 21.8103 21.5067 21.8103C21.5837 21.7038 21.6891 21.621 21.8109 21.5714C21.9327 21.5218 22.0659 21.5074 22.1955 21.5298C22.1955 21.5298 23.0362 21.676 23.7327 21.9217C24.0976 22.0504 24.4242 22.2131 24.6294 22.3824C24.9718 22.6648 25.4762 23.2879 25.9183 23.9122C26.1156 24.1582 26.2545 24.4457 26.3248 24.7531C26.395 25.0605 26.3946 25.3798 26.3237 25.687C26.2515 25.9997 26.1082 26.2916 25.905 26.54C25.7018 26.7883 25.444 26.9865 25.1518 27.1192C23.7394 27.7569 21.5473 28.542 19.4008 28.542C17.2279 28.542 14.9364 27.7352 13.4684 27.1006C13.176 26.9722 12.9168 26.7786 12.7106 26.5348C12.5044 26.2909 12.3566 26.0032 12.2785 25.6935C12.2004 25.3839 12.1941 25.0605 12.26 24.748C12.3259 24.4355 12.4623 24.1422 12.6588 23.8904ZM16.2025 22.9883C15.9715 23.0377 15.7424 23.096 15.5159 23.1631C15.2379 23.2467 14.9531 23.3351 14.8032 23.4613C14.5303 23.691 14.1498 24.2083 13.7988 24.7106C13.79 24.7231 13.7809 24.7354 13.7712 24.7473C13.7048 24.8303 13.6584 24.9273 13.6355 25.0311C13.6126 25.1348 13.6138 25.2424 13.6391 25.3456C13.6641 25.4482 13.7123 25.5437 13.78 25.6247C13.8477 25.7058 13.933 25.7703 14.0295 25.8132C15.3572 26.3871 17.4305 27.1375 19.4008 27.1375C21.3331 27.1375 23.3023 26.4132 24.5721 25.8399C24.6677 25.7964 24.7519 25.7316 24.8184 25.6504C24.8848 25.5691 24.9317 25.4737 24.9553 25.3714C24.9788 25.2692 24.9786 25.1628 24.9544 25.0607C24.9303 24.9586 24.883 24.8634 24.8161 24.7825C24.8048 24.7688 24.794 24.7547 24.7837 24.7403C24.4204 24.2259 24.0176 23.6984 23.7355 23.4657C23.5825 23.3394 23.2952 23.2491 23.0147 23.1646C22.7896 23.0978 22.562 23.0394 22.3325 22.9897C21.8424 23.4871 20.789 24.3286 19.2738 24.3286C17.7568 24.3286 16.6948 23.4839 16.2025 22.9883Z" fill="#204593"/>
<path fill-rule="evenodd" clip-rule="evenodd" d="M14.6499 21.5076C14.2604 21.6451 13.8764 21.8315 13.6138 22.0525ZM16.264 21.0982L16.2645 21.0982C16.4734 21.0627 16.688 21.086 16.8844 21.1655C17.0801 21.2448 17.2499 21.3767 17.3751 21.5467C17.3757 21.5474 17.3768 21.5488 17.3784 21.5509C17.3822 21.5558 17.389 21.5644 17.3988 21.5762C17.4184 21.5998 17.4495 21.636 17.4918 21.6805C17.5767 21.7699 17.7043 21.8908 17.8707 22.0119C18.2045 22.2546 18.6782 22.4866 19.2718 22.4866C19.8634 22.4866 20.3326 22.2557 20.6621 22.0145C20.8265 21.8942 20.9522 21.774 21.0358 21.6852C21.0774 21.641 21.108 21.6051 21.1272 21.5817C21.1367 21.57 21.1434 21.5615 21.1472 21.5566C21.1487 21.5546 21.1497 21.5533 21.1503 21.5525C21.2753 21.3804 21.4461 21.2466 21.6432 21.1663C21.8412 21.0857 22.0579 21.0623 22.2685 21.0988L22.1936 21.5313C22.2688 21.0988 22.2688 21.0988 22.2688 21.0988L22.2722 21.0994L22.2804 21.1009C22.2874 21.1021 22.2975 21.104 22.3104 21.1063C22.3363 21.1111 22.3735 21.1181 22.4201 21.1272C22.5132 21.1454 22.6444 21.1722 22.7979 21.2069C23.1026 21.2759 23.5055 21.3782 23.8769 21.5092C24.2632 21.6454 24.6449 21.8289 24.9072 22.0455C25.2971 22.3671 25.8269 23.0284 26.2677 23.6499C26.502 23.9453 26.6672 24.2895 26.7512 24.6572C26.8362 25.0293 26.8358 25.4159 26.75 25.7878C26.6626 26.1663 26.4891 26.5196 26.2431 26.8202C25.9972 27.1208 25.6852 27.3607 25.3315 27.5213L25.3307 27.5217C23.8981 28.1685 21.6382 28.9834 19.3988 28.9834C17.1341 28.9834 14.7754 28.1471 13.2921 27.5059L13.2909 27.5054L13.2897 27.5049C12.936 27.3495 12.6225 27.1154 12.3731 26.8205C12.1237 26.5255 11.9449 26.1775 11.8505 25.8029C11.756 25.4284 11.7483 25.0372 11.828 24.6593C11.9069 24.2852 12.0693 23.9338 12.303 23.6315C12.7275 23.0255 13.2338 22.3724 13.6138 22.0525M12.6568 23.8924C13.0848 23.2807 13.5646 22.6683 13.8968 22.3887C14.1012 22.2167 14.4289 22.0517 14.7962 21.922C15.4932 21.6759 16.3381 21.5314 16.3381 21.5314C16.4666 21.5096 16.5986 21.5239 16.7195 21.5729C16.8403 21.6218 16.9451 21.7034 17.0222 21.8085C17.0222 21.8085 17.8458 22.926 19.2718 22.926C20.6941 22.926 21.5047 21.8123 21.5047 21.8123C21.5818 21.7057 21.6872 21.6229 21.8089 21.5733C21.9307 21.5238 22.064 21.5094 22.1935 21.5318C22.1935 21.5318 23.0342 21.6779 23.7307 21.9236C24.0956 22.0523 24.4223 22.215 24.6274 22.3844C24.9699 22.6668 25.4742 23.2898 25.9164 23.9141C26.1136 24.1601 26.2526 24.4476 26.3228 24.755C26.393 25.0624 26.3927 25.3817 26.3218 25.689C26.2496 26.0017 26.1063 26.2935 25.903 26.5419C25.6998 26.7903 25.4421 26.9885 25.1499 27.1211C23.7374 27.7589 21.5453 28.544 19.3988 28.544C17.2259 28.544 14.9345 27.7371 13.4664 27.1026C13.174 26.9741 12.9149 26.7806 12.7087 26.5367C12.5024 26.2929 12.3547 26.0051 12.2766 25.6955C12.1985 25.3858 12.1921 25.0624 12.258 24.7499C12.3239 24.4375 12.4603 24.1441 12.6568 23.8924ZM17.3748 21.5463C17.3746 21.546 17.3746 21.546 17.3748 21.5463ZM16.264 21.0982L16.3381 21.5314ZM14.064 25.2428L14.0642 25.2435C14.0732 25.2809 14.0908 25.3156 14.1154 25.3451C14.1396 25.3741 14.1701 25.3973 14.2045 25.4129C15.5206 25.9815 17.5237 26.7 19.3988 26.7C21.2359 26.7 23.1356 26.0073 24.3887 25.4416C24.4227 25.4261 24.4526 25.403 24.4763 25.3741C24.5 25.3451 24.5167 25.3111 24.5251 25.2746C24.5335 25.2381 24.5334 25.2002 24.5248 25.1637C24.5162 25.1273 24.4993 25.0933 24.4754 25.0644C24.4571 25.0423 24.4396 25.0194 24.423 24.9959L24.4228 24.9957C24.0519 24.4706 23.6823 23.9951 23.4539 23.8067L23.4537 23.8066C23.4326 23.7891 23.3758 23.7553 23.2619 23.7111C23.1542 23.6693 23.0279 23.6301 22.8869 23.5876C22.7469 23.5461 22.606 23.508 22.4643 23.4734C21.876 24.015 20.7859 24.77 19.2718 24.77C17.7552 24.77 16.6577 24.0114 16.0673 23.4713C15.9238 23.5059 15.7812 23.5443 15.6395 23.5862C15.4991 23.6284 15.3746 23.6668 15.2684 23.7079C15.1559 23.7516 15.1023 23.7843 15.0842 23.7995C14.9845 23.8834 14.8444 24.0397 14.6742 24.2568C14.5087 24.4679 14.3314 24.7148 14.1573 24.9639C14.1429 24.9846 14.1278 25.0047 14.112 25.0244C14.0879 25.0546 14.071 25.09 14.0626 25.1278C14.0543 25.1657 14.0547 25.2051 14.064 25.2428ZM13.7693 24.7493C13.7789 24.7374 13.7881 24.7251 13.7968 24.7125C14.1479 24.2103 14.5283 23.6929 14.8013 23.4633C14.9512 23.3371 15.236 23.2486 15.5139 23.1651C15.7405 23.098 15.9695 23.0397 16.2005 22.9902C16.6929 23.4859 17.7548 24.3305 19.2718 24.3305C20.787 24.3305 21.8405 23.489 22.3305 22.9916C22.5601 23.0414 22.7876 23.0997 23.0127 23.1666C23.2932 23.251 23.5805 23.3414 23.7335 23.4677C24.0156 23.7004 24.4185 24.2279 24.7818 24.7422C24.792 24.7567 24.8028 24.7708 24.8141 24.7844C24.881 24.8653 24.9283 24.9605 24.9525 25.0627C24.9766 25.1648 24.9769 25.2711 24.9533 25.3734C24.9297 25.4756 24.8829 25.5711 24.8164 25.6523C24.75 25.7336 24.6657 25.7984 24.5702 25.8418C23.3003 26.4152 21.3312 27.1395 19.3988 27.1395C17.4286 27.1395 15.3553 26.389 14.0275 25.8151C13.9311 25.7722 13.8457 25.7078 13.778 25.6267C13.7104 25.5456 13.6622 25.4502 13.6372 25.3476C13.6119 25.2444 13.6106 25.1368 13.6335 25.033C13.6564 24.9293 13.7029 24.8322 13.7693 24.7493ZM16.3381 21.5314C16.264 21.0982 16.264 21.0982 16.264 21.0982ZM16.264 21.0982L16.2638 21.0983ZM16.2638 21.0983L16.2636 21.0983ZM16.2636 21.0983L16.2629 21.0984ZM16.2629 21.0984L16.2606 21.0988ZM16.2606 21.0988L16.2523 21.1003ZM16.2523 21.1003C16.2452 21.1015 16.2351 21.1033 16.2221 21.1057ZM16.2221 21.1057C16.1961 21.1104 16.1587 21.1173 16.1119 21.1263ZM16.1119 21.1263C16.0183 21.1444 15.8866 21.171 15.7324 21.2056ZM15.7324 21.2056C15.4265 21.2742 15.0219 21.3763 14.6499 21.5076Z" fill="#204593"/>
<path fill-rule="evenodd" clip-rule="evenodd" d="M15.1192 16.1735C15.1042 15.7152 15.0697 11.25 19.3698 11.25C23.6717 11.25 23.5561 15.704 23.531 16.1842C23.5242 17.6534 22.6907 19.1086 21.6621 20.0325C20.9171 20.7016 20.0695 21.0814 19.3698 21.0814C18.6745 21.0814 17.815 20.7039 17.0534 20.0389C15.9916 19.1119 15.1223 17.6481 15.1192 16.1735ZM16.5236 16.1657C16.5236 16.1657 16.2573 12.6545 19.3698 12.6545C22.4678 12.6545 22.1266 16.1455 22.1266 16.1657C22.1266 17.2484 21.4815 18.3068 20.7235 18.9875C20.2746 19.3908 19.7914 19.6769 19.3698 19.6769C18.9436 19.6769 18.4438 19.3886 17.9772 18.981C17.1988 18.3013 16.5236 17.2466 16.5236 16.1657Z" fill="#204593"/>
<path fill-rule="evenodd" clip-rule="evenodd" d="M21.9538 20.3613L21.9538 20.3613C21.1589 21.0753 20.2113 21.5228 19.3678 21.5228C18.531 21.5228 17.5727 21.0794 16.7624 20.3719C15.636 19.3884 14.6838 17.816 14.6778 16.183C14.6697 15.9174 14.6599 14.617 15.2235 13.3618C15.5107 12.7223 15.9533 12.0799 16.6335 11.5982C17.3173 11.1139 18.2126 10.8125 19.3678 10.8125C20.5231 10.8125 21.4148 11.1131 22.0922 11.5981C22.7663 12.0806 23.1985 12.7243 23.4747 13.3651C24.0141 14.6167 23.9825 15.9151 23.9684 16.1986C23.9571 17.818 23.0474 19.379 21.9538 20.3613ZM23.5291 16.1862C23.5542 15.7059 23.6697 11.252 19.3678 11.252C15.0678 11.252 15.1023 15.7172 15.1172 16.1754C15.1204 17.65 15.9897 19.1138 17.0515 20.0409C17.813 20.7059 18.6726 21.0833 19.3678 21.0833C20.0676 21.0833 20.9151 20.7036 21.6602 20.0344C22.6887 19.1105 23.5222 17.6554 23.5291 16.1862ZM16.9612 16.1511V16.1677C16.9612 17.0767 17.5413 18.0207 18.2643 18.652L18.2643 18.652C18.7168 19.0471 19.1112 19.2394 19.3678 19.2394C19.6168 19.2394 19.9936 19.0527 20.4279 18.6625L20.428 18.6625C21.127 18.0347 21.6853 17.0863 21.6853 16.1677C21.6853 16.1627 21.6859 16.1516 21.6869 16.135C21.6967 15.9704 21.7391 15.2623 21.4926 14.5478C21.3597 14.1626 21.1506 13.8048 20.8287 13.5435C20.5126 13.2869 20.0542 13.0959 19.3678 13.0959C18.6781 13.0959 18.2107 13.2881 17.8841 13.5486C17.5516 13.8138 17.3325 14.1761 17.1901 14.5636C17.0475 14.9517 16.9889 15.347 16.967 15.6506C16.9562 15.801 16.9547 15.9257 16.9558 16.0113C16.9563 16.054 16.9575 16.0868 16.9585 16.1079C16.9589 16.1185 16.9594 16.1261 16.9597 16.1306L16.9599 16.1348L16.9599 16.135L16.9599 16.1351L16.96 16.1353L16.9612 16.1511ZM20.7216 18.9894C21.4795 18.3087 22.1247 17.2504 22.1247 16.1677C22.1247 16.1673 22.1249 16.1651 22.1252 16.1614C22.1381 15.9953 22.3976 12.6564 19.3678 12.6564C16.2554 12.6564 16.5217 16.1677 16.5217 16.1677C16.5217 17.2486 17.1968 18.3033 17.9752 18.983C18.4419 19.3905 18.9417 19.6788 19.3678 19.6788C19.7895 19.6788 20.2726 19.3928 20.7216 18.9894Z" fill="#204593"/>
<path fill-rule="evenodd" clip-rule="evenodd" d="M33.9569 31.8393L32.6718 30.5542C32.3977 30.2801 32.3977 29.835 32.6718 29.561C32.9458 29.287 33.3909 29.287 33.6649 29.561L35.4466 31.3427C35.5118 31.4079 35.5636 31.4853 35.5989 31.5705C35.6342 31.6557 35.6523 31.747 35.6523 31.8393C35.6523 31.9315 35.6342 32.0228 35.5989 32.108C35.5636 32.1932 35.5118 32.2706 35.4466 32.3358L32.9491 34.8332C32.8839 34.8984 32.8065 34.9502 32.7213 34.9855C32.6361 35.0208 32.5448 35.0389 32.4526 35.0389C32.3604 35.0389 32.2691 35.0208 32.1839 34.9855C32.0987 34.9502 32.0213 34.8984 31.9561 34.8332L30.1743 33.0515C30.0427 32.9198 29.9688 32.7412 29.9688 32.555C29.9688 32.3687 30.0427 32.1901 30.1743 32.0584C30.306 31.9268 30.4846 31.8529 30.6708 31.8529C30.8571 31.8529 31.0357 31.9268 31.1674 32.0584L32.4526 33.3435L33.9569 31.8393Z" fill="#204593"/>
</svg>
