<svg width="60" height="60" viewBox="0 0 60 60" fill="none" xmlns="http://www.w3.org/2000/svg">
<path d="M23.0346 21.2935C24.6551 22.7309 26.798 23.5235 29.0748 23.5235C31.3516 23.5235 33.4944 22.7309 35.115 21.2935C36.9364 19.6681 37.9542 17.3709 38.048 14.6439V14.617V14.5901C37.9542 11.8631 36.9364 9.5525 35.115 7.94045C33.4944 6.47618 31.3516 5.68359 29.0748 5.68359C26.798 5.68359 24.6551 6.47618 23.0346 7.91359C21.2132 9.53906 20.1953 11.8362 20.1016 14.5767V14.6036V14.6304C20.1953 17.3709 21.2132 19.6681 23.0346 21.2935ZM29.0748 7.56431C32.3694 7.56431 35.9855 9.76744 36.173 14.6036C35.9855 19.4397 32.3694 21.6428 29.0748 21.6428C25.7801 21.6428 22.1507 19.4397 21.9766 14.6036C22.1507 9.76744 25.7801 7.56431 29.0748 7.56431Z" fill="#269D38"/>
<path d="M31.917 43.7981L28.1804 47.5058L26.7206 45.9475C26.4393 45.652 25.9706 45.6251 25.6626 45.9072C25.3679 46.1893 25.3411 46.6595 25.6224 46.9685L27.6045 49.091C27.7385 49.2388 27.926 49.3194 28.1268 49.3328H28.1402C28.3411 49.3328 28.5286 49.2522 28.6626 49.1179L32.9483 44.8728C33.2429 44.5773 33.2429 44.1071 32.9483 43.8116C32.6804 43.5026 32.2117 43.5026 31.917 43.7981Z" fill="#269D38"/>
<path d="M45.6284 43.0445C45.4676 38.074 43.606 33.8962 40.231 30.9676C37.2444 28.3749 33.2801 26.9375 29.0614 26.9375C24.8426 26.9375 20.8783 28.3749 17.8917 30.9676C14.5301 33.8962 12.6685 38.0875 12.5078 43.0579V43.0982V43.1251C12.5212 44.4147 13.0301 45.6103 13.9408 46.5238C14.865 47.4507 16.0837 47.9612 17.3962 47.9612H21.1194C21.3069 48.7941 21.6417 49.5867 22.0837 50.339C22.5792 51.1584 23.1953 51.8704 23.9319 52.4615L24.3873 52.8242H24.4275C25.7935 53.7914 27.4007 54.3019 29.0882 54.3019C31.0703 54.3019 32.9721 53.5765 34.4587 52.2734C35.0882 51.7227 35.6373 51.0778 36.0792 50.339C36.5212 49.6001 36.8426 48.7941 37.0435 47.9612H40.7667C42.0659 47.9612 43.298 47.4507 44.2221 46.5238C45.1462 45.5969 45.6417 44.3744 45.6551 43.0714V43.0579L45.6284 43.0445ZM29.6775 52.6361C29.6507 52.6361 29.6239 52.6361 29.5971 52.6361C29.5435 52.6361 29.49 52.6496 29.423 52.6496C29.3025 52.6496 29.1819 52.663 29.0614 52.663C27.6417 52.663 26.3025 52.2063 25.1775 51.3465L24.9498 51.1719C24.3739 50.7017 23.8783 50.1375 23.49 49.4792C23.1953 48.9956 22.981 48.4851 22.8203 47.9612H22.8605C22.6864 47.3701 22.5926 46.7522 22.5926 46.1074C22.5926 46.0939 22.5926 46.0939 22.5926 46.0805H22.5391C22.5525 44.0789 23.4364 42.225 24.99 41.0026C26.1417 40.0756 27.5882 39.5652 29.0614 39.5652C29.0748 39.5652 29.0748 39.5652 29.0882 39.5652C29.1016 39.5652 29.1016 39.5652 29.115 39.5652C32.7176 39.5652 35.6373 42.4937 35.6373 46.1074C35.6373 49.5464 33.0123 52.354 29.6775 52.6361ZM42.8828 45.2073C42.3069 45.785 41.5569 46.0939 40.7534 46.0939H37.2444C37.2444 44.1998 36.5748 42.3594 35.3962 40.9354C33.8426 39.0278 31.5391 37.9263 29.0748 37.9263C27.2266 37.9263 25.4185 38.5711 23.9855 39.7264C22.0435 41.2712 20.9185 43.5818 20.9185 46.0939H17.3962C16.5926 46.0939 15.8292 45.7715 15.2667 45.2073C14.7176 44.6565 14.3962 43.9177 14.3828 43.1251C14.7042 33.2916 22.2176 28.8182 29.0748 28.8182C35.9185 28.8182 43.4319 33.2916 43.7667 43.0982C43.7533 43.8908 43.4453 44.6431 42.8828 45.2073Z" fill="#269D38"/>
</svg>
