<svg width="60" height="60" viewBox="0 0 60 60" fill="none" xmlns="http://www.w3.org/2000/svg">
<path d="M50.626 20.625C47.5248 20.625 45.001 18.1012 45.001 15C45.001 11.8987 47.5248 9.375 50.626 9.375C53.7273 9.375 56.251 11.8987 56.251 15C56.251 18.1012 53.7273 20.625 50.626 20.625ZM50.626 11.25C48.5579 11.25 46.876 12.9319 46.876 15C46.876 17.0681 48.5579 18.75 50.626 18.75C52.6941 18.75 54.376 17.0681 54.376 15C54.376 12.9319 52.6941 11.25 50.626 11.25ZM33.2729 58.125C33.132 58.1249 32.9929 58.0931 32.866 58.0318C32.7391 57.9706 32.6276 57.8815 32.5399 57.7712C32.4521 57.661 32.3904 57.5324 32.3592 57.3949C32.328 57.2575 32.3282 57.1148 32.3598 56.9775L35.7348 42.2325C35.9345 41.4175 36.4018 40.693 37.0619 40.1749C37.7221 39.6569 38.5369 39.3752 39.376 39.375H46.876V36.5625C46.876 36.3139 46.9748 36.0754 47.1506 35.8996C47.3264 35.7238 47.5649 35.625 47.8135 35.625C48.0622 35.625 48.3006 35.7238 48.4764 35.8996C48.6522 36.0754 48.751 36.3139 48.751 36.5625V40.3125C48.751 40.5611 48.6522 40.7996 48.4764 40.9754C48.3006 41.1512 48.0622 41.25 47.8135 41.25H39.376C38.958 41.25 38.552 41.3897 38.2225 41.6469C37.893 41.904 37.6588 42.2639 37.5573 42.6694L34.186 57.3956C34.1392 57.6028 34.0233 57.7879 33.8573 57.9204C33.6914 58.053 33.4853 58.1251 33.2729 58.125Z" fill="#6C5EA6"/>
<path d="M36.8437 58.125C36.6893 58.1249 36.5373 58.0867 36.4012 58.0137C36.2651 57.9408 36.1492 57.8353 36.0637 57.7067C35.9781 57.5782 35.9257 57.4305 35.911 57.2768C35.8963 57.123 35.9198 56.9681 35.9794 56.8256L40.7062 45.5756C40.7783 45.4053 40.8988 45.26 41.0529 45.1576C41.2069 45.0553 41.3876 45.0005 41.5725 45H51.5625C54.1481 45 56.25 42.8981 56.25 40.3125V27.1875C56.25 25.6369 54.9881 24.375 53.4375 24.375C52.483 24.3778 51.5421 24.6007 50.6878 25.0264C49.8335 25.4521 49.0889 26.0691 48.5119 26.8294L43.0369 31.6425C42.8664 31.7924 42.6471 31.8751 42.42 31.875H36.5625C36.0469 31.875 35.625 32.2969 35.625 32.8125C35.625 33.3281 36.0469 33.75 36.5625 33.75H43.125C43.3517 33.7499 43.5707 33.668 43.7419 33.5194C43.8335 33.4326 43.9418 33.3653 44.0601 33.3213C44.1784 33.2774 44.3043 33.2578 44.4304 33.2637C44.5565 33.2697 44.68 33.301 44.7937 33.3558C44.9074 33.4107 45.0088 33.4879 45.0919 33.5829C45.175 33.6778 45.2381 33.7886 45.2773 33.9086C45.3166 34.0285 45.3312 34.1551 45.3204 34.2809C45.3095 34.4066 45.2734 34.5289 45.2142 34.6403C45.1549 34.7517 45.0738 34.85 44.9756 34.9294C44.4637 35.3783 43.8059 35.6256 43.125 35.625H36.5625C35.0119 35.625 33.75 34.3631 33.75 32.8125C33.75 31.2619 35.0119 30 36.5625 30H42.0694L47.1544 25.5506C48.5925 23.6587 50.9287 22.5 53.4375 22.5C56.0231 22.5 58.125 24.6019 58.125 27.1875V40.3125C58.125 43.9312 55.1812 46.875 51.5625 46.875H42.195L37.7081 57.5494C37.6372 57.7201 37.5172 57.866 37.3633 57.9684C37.2095 58.0709 37.0286 58.1254 36.8437 58.125Z" fill="#6C5EA6"/>
<path d="M43.125 35.625H36.5625C35.0119 35.625 33.75 34.3631 33.75 32.8125C33.75 31.2619 35.0119 30 36.5625 30H42.42C42.6686 30 42.9071 30.0988 43.0829 30.2746C43.2587 30.4504 43.3575 30.6889 43.3575 30.9375C43.3575 31.1861 43.2587 31.4246 43.0829 31.6004C42.9071 31.7762 42.6686 31.875 42.42 31.875H36.5625C36.0469 31.875 35.625 32.2969 35.625 32.8125C35.625 33.3281 36.0469 33.75 36.5625 33.75H43.125C43.3517 33.7499 43.5707 33.668 43.7419 33.5194L51.0169 28.3013C51.1164 28.2231 51.2308 28.1658 51.353 28.133C51.4753 28.1002 51.6029 28.0925 51.7282 28.1104C51.8536 28.1282 51.974 28.1713 52.0822 28.2369C52.1904 28.3026 52.2842 28.3895 52.358 28.4923C52.4317 28.5952 52.4839 28.712 52.5113 28.8356C52.5387 28.9591 52.5408 29.087 52.5174 29.2114C52.4941 29.3358 52.4458 29.4542 52.3754 29.5595C52.3051 29.6647 52.2141 29.7546 52.1081 29.8237L44.9044 34.9856C44.4067 35.4045 43.7755 35.6313 43.125 35.625ZM9.375 20.625C6.27375 20.625 3.75 18.1012 3.75 15C3.75 11.8987 6.27375 9.375 9.375 9.375C12.4762 9.375 15 11.8987 15 15C15 18.1012 12.4762 20.625 9.375 20.625ZM9.375 11.25C7.30687 11.25 5.625 12.9319 5.625 15C5.625 17.0681 7.30687 18.75 9.375 18.75C11.4431 18.75 13.125 17.0681 13.125 15C13.125 12.9319 11.4431 11.25 9.375 11.25ZM26.7281 58.125C26.5157 58.1251 26.3096 58.053 26.1437 57.9204C25.9777 57.7879 25.8618 57.6028 25.815 57.3956L22.44 42.6506C22.3359 42.2488 22.101 41.893 21.7724 41.6394C21.4438 41.3858 21.0401 41.2488 20.625 41.25H12.1875C11.9389 41.25 11.7004 41.1512 11.5246 40.9754C11.3488 40.7996 11.25 40.5611 11.25 40.3125V36.5625C11.25 36.3139 11.3488 36.0754 11.5246 35.8996C11.7004 35.7238 11.9389 35.625 12.1875 35.625C12.4361 35.625 12.6746 35.7238 12.8504 35.8996C13.0262 36.0754 13.125 36.3139 13.125 36.5625V39.375H20.625C22.3481 39.375 23.8444 40.5431 24.2625 42.2156L27.6412 56.9794C27.6725 57.1166 27.6724 57.2591 27.6411 57.3962C27.6098 57.5334 27.548 57.6618 27.4603 57.7718C27.3726 57.8819 27.2612 57.9708 27.1345 58.0319C27.0077 58.093 26.8688 58.1249 26.7281 58.125Z" fill="#6C5EA6"/>
<path d="M23.1562 58.125C22.9715 58.1249 22.7909 58.0702 22.6371 57.9678C22.4833 57.8654 22.3632 57.7198 22.2919 57.5494L17.805 46.875H8.4375C4.81875 46.875 1.875 43.9312 1.875 40.3125V27.1875C1.875 24.6019 3.97688 22.5 6.5625 22.5C7.80357 22.5013 9.02758 22.7892 10.1392 23.3411C11.2508 23.893 12.22 24.694 12.9713 25.6819L17.9306 30H23.4375C24.9881 30 26.25 31.2619 26.25 32.8125C26.25 34.3631 24.9881 35.625 23.4375 35.625H16.875C16.1944 35.625 15.5362 35.3775 15.0244 34.9312C14.9267 34.8519 14.846 34.7538 14.7871 34.6427C14.7282 34.5315 14.6922 34.4097 14.6814 34.2844C14.6706 34.159 14.685 34.0328 14.724 33.9132C14.7629 33.7936 14.8256 33.6831 14.9081 33.5882C14.9907 33.4933 15.0915 33.416 15.2046 33.3608C15.3176 33.3057 15.4406 33.2739 15.5663 33.2673C15.6919 33.2607 15.8175 33.2795 15.9358 33.3225C16.054 33.3654 16.1623 33.4318 16.2544 33.5175C16.4269 33.6675 16.6481 33.75 16.875 33.75H23.4375C23.9531 33.75 24.375 33.3281 24.375 32.8125C24.375 32.2969 23.9531 31.875 23.4375 31.875H17.58C17.3529 31.8751 17.1336 31.7924 16.9631 31.6425L11.6119 26.9606C10.2806 25.2694 8.48625 24.375 6.5625 24.375C5.01187 24.375 3.75 25.6369 3.75 27.1875V40.3125C3.75 42.8981 5.85188 45 8.4375 45H18.4275C18.6123 45.0001 18.7929 45.0548 18.9467 45.1572C19.1005 45.2596 19.2206 45.4052 19.2919 45.5756L24.0188 56.8256C24.0783 56.9679 24.1018 57.1227 24.0872 57.2763C24.0726 57.4299 24.0203 57.5774 23.935 57.706C23.8497 57.8345 23.734 57.94 23.5981 58.0131C23.4623 58.0862 23.3105 58.1246 23.1562 58.125Z" fill="#6C5EA6"/>
<path d="M23.437 35.6267H16.8745C16.1939 35.6267 15.5357 35.3792 15.0239 34.933L7.89135 29.8255C7.79128 29.7539 7.70631 29.6633 7.64129 29.5589C7.57628 29.4544 7.53251 29.3382 7.51248 29.2168C7.49245 29.0954 7.49656 28.9712 7.52457 28.8514C7.55259 28.7316 7.60395 28.6185 7.67573 28.5186C7.74681 28.4179 7.83719 28.3324 7.94163 28.2669C8.04606 28.2015 8.16246 28.1575 8.28406 28.1374C8.40566 28.1173 8.53003 28.1216 8.64995 28.1501C8.76987 28.1785 8.88295 28.2305 8.9826 28.303L16.1845 33.4649C16.3712 33.6423 16.617 33.7445 16.8745 33.7517H23.437C23.9526 33.7517 24.3745 33.3299 24.3745 32.8142C24.3745 32.2986 23.9526 31.8767 23.437 31.8767H17.5795C17.3308 31.8767 17.0924 31.778 16.9166 31.6021C16.7408 31.4263 16.642 31.1879 16.642 30.9392C16.642 30.6906 16.7408 30.4521 16.9166 30.2763C17.0924 30.1005 17.3308 30.0017 17.5795 30.0017H23.437C24.9876 30.0017 26.2495 31.2636 26.2495 32.8142C26.2495 34.3649 24.9876 35.6267 23.437 35.6267Z" fill="#6C5EA6"/>
<path d="M19.6875 33.75H40.3125V35.625H19.6875V33.75ZM25.3125 24.375C25.0645 24.373 24.8271 24.2736 24.6518 24.0982C24.4764 23.9229 24.377 23.6855 24.375 23.4375V18.75H21.5625C20.0119 18.75 18.75 17.4881 18.75 15.9375V4.6875C18.75 3.13687 20.0119 1.875 21.5625 1.875H38.4375C39.9881 1.875 41.25 3.13687 41.25 4.6875V15.9375C41.25 17.4881 39.9881 18.75 38.4375 18.75H30.4387L26.0306 24.0375C25.9435 24.1435 25.8338 24.2288 25.7096 24.2872C25.5854 24.3456 25.4497 24.3756 25.3125 24.375ZM21.5625 3.75C21.0469 3.75 20.625 4.17188 20.625 4.6875V15.9375C20.625 16.4531 21.0469 16.875 21.5625 16.875H25.3125C25.5611 16.875 25.7996 16.9738 25.9754 17.1496C26.1512 17.3254 26.25 17.5639 26.25 17.8125V20.8481L29.28 17.2125C29.3677 17.1066 29.4777 17.0214 29.6022 16.9631C29.7267 16.9047 29.8625 16.8747 30 16.875H38.4375C38.9531 16.875 39.375 16.4531 39.375 15.9375V4.6875C39.375 4.17188 38.9531 3.75 38.4375 3.75H21.5625Z" fill="#6C5EA6"/>
<path d="M30.9375 13.125H23.4375C23.1889 13.125 22.9504 13.0262 22.7746 12.8504C22.5988 12.6746 22.5 12.4361 22.5 12.1875C22.5 11.9389 22.5988 11.7004 22.7746 11.5246C22.9504 11.3488 23.1889 11.25 23.4375 11.25H30.9375C31.1861 11.25 31.4246 11.3488 31.6004 11.5246C31.7762 11.7004 31.875 11.9389 31.875 12.1875C31.875 12.4361 31.7762 12.6746 31.6004 12.8504C31.4246 13.0262 31.1861 13.125 30.9375 13.125ZM27.1875 9.375H23.4375C23.1889 9.375 22.9504 9.27623 22.7746 9.10041C22.5988 8.9246 22.5 8.68614 22.5 8.4375C22.5 8.18886 22.5988 7.9504 22.7746 7.77459C22.9504 7.59877 23.1889 7.5 23.4375 7.5H27.1875C27.4361 7.5 27.6746 7.59877 27.8504 7.77459C28.0262 7.9504 28.125 8.18886 28.125 8.4375C28.125 8.68614 28.0262 8.9246 27.8504 9.10041C27.6746 9.27623 27.4361 9.375 27.1875 9.375ZM36.5625 9.375H30.9375C30.6889 9.375 30.4504 9.27623 30.2746 9.10041C30.0988 8.9246 30 8.68614 30 8.4375C30 8.18886 30.0988 7.9504 30.2746 7.77459C30.4504 7.59877 30.6889 7.5 30.9375 7.5H36.5625C36.8111 7.5 37.0496 7.59877 37.2254 7.77459C37.4012 7.9504 37.5 8.18886 37.5 8.4375C37.5 8.68614 37.4012 8.9246 37.2254 9.10041C37.0496 9.27623 36.8111 9.375 36.5625 9.375Z" fill="#6C5EA6"/>
</svg>
