<svg width="60" height="60" viewBox="0 0 60 60" fill="none" xmlns="http://www.w3.org/2000/svg">
<g clip-path="url(#clip0_2011_330)">
<path d="M49.1242 33.7172C49.8555 34.4485 50.3102 35.461 50.3102 36.5778C50.3102 37.6969 49.8555 38.7071 49.1242 39.4407C48.3906 40.1719 47.3805 40.6231 46.2637 40.6231C45.1445 40.6231 44.1344 40.1719 43.4008 39.4407C42.6695 38.7071 42.2184 37.6969 42.2184 36.5778C42.2184 35.4622 42.6707 34.4485 43.4008 33.7172C44.1344 32.986 45.1445 32.5313 46.2637 32.5313C47.3805 32.5313 48.3906 32.986 49.1242 33.7172ZM60.0004 35.727V37.4309C60.0004 37.9395 59.6852 38.3743 59.2 38.5301L57.9906 38.9215C57.6121 39.0446 57.3426 39.3235 57.2371 39.7055C56.9967 40.5476 56.6601 41.3592 56.234 42.1243C56.0418 42.47 56.0348 42.8579 56.2141 43.2106L56.7918 44.3461C57.0238 44.7973 56.9383 45.3258 56.5797 45.6879L55.3738 46.8938C55.0152 47.2524 54.4867 47.3356 54.032 47.1059L52.8965 46.5282C52.5449 46.3454 52.1559 46.3524 51.8102 46.5481C51.0458 46.9748 50.234 47.3103 49.3914 47.5477C49.0094 47.6579 48.7305 47.9262 48.6109 48.3047L48.216 49.5141C48.0602 49.9993 47.6277 50.311 47.1168 50.311H45.4129C44.9043 50.311 44.4695 49.9981 44.3137 49.5141L43.9223 48.3047C43.7992 47.9262 43.5203 47.6567 43.1383 47.5477C42.2958 47.3101 41.484 46.9746 40.7195 46.5481C40.3738 46.3559 39.9859 46.3454 39.6332 46.5282L38.4977 47.1059C38.0453 47.3356 37.518 47.2524 37.1559 46.8938L35.95 45.6879C35.5914 45.3258 35.5082 44.7973 35.7379 44.3461L36.3156 43.2106C36.4984 42.859 36.4914 42.47 36.2957 42.1243C35.869 41.3599 35.5335 40.5481 35.2961 39.7055C35.1859 39.3235 34.9176 39.0446 34.5391 38.9215L33.3297 38.5301C32.8445 38.3743 32.5328 37.9383 32.5328 37.4309V35.727C32.5328 35.2149 32.8445 34.7836 33.3297 34.6278L34.5426 34.2329C34.9176 34.1098 35.1871 33.8344 35.2961 33.4524C35.5353 32.6104 35.8707 31.7988 36.2957 31.0336C36.4914 30.6879 36.4984 30.3 36.3156 29.9473L35.7379 28.8118C35.5082 28.3571 35.5914 27.8286 35.95 27.47L37.1559 26.2641C37.518 25.9055 38.0465 25.8188 38.4977 26.052L39.6332 26.6297C39.9848 26.809 40.3738 26.802 40.7195 26.6098C41.4766 26.1879 42.2875 25.8493 43.1383 25.6067C43.5203 25.5 43.7992 25.2317 43.9223 24.8532L44.3137 23.6438C44.4695 23.1586 44.9055 22.8434 45.4129 22.8434H47.1168C47.6289 22.8434 48.0602 23.1586 48.216 23.6438L48.6109 24.8532C48.7305 25.2317 49.0094 25.5012 49.3914 25.6067C50.2335 25.8471 51.0451 26.1837 51.8102 26.6098C52.1559 26.802 52.5438 26.809 52.8965 26.6297L54.032 26.052C54.4867 25.82 55.0152 25.9055 55.3738 26.2641L56.5797 27.47C56.9383 27.8286 57.025 28.3571 56.7918 28.8118L56.2141 29.9473C56.0348 30.2989 56.0418 30.6879 56.234 31.0336C56.6559 31.7907 56.9945 32.6016 57.2371 33.4524C57.3438 33.8344 57.6121 34.1133 57.9906 34.2329L59.2 34.6278C59.6852 34.7836 60.0004 35.2149 60.0004 35.727ZM52.2438 36.5778C52.2438 34.9266 51.5758 33.4325 50.493 32.3497C49.4102 31.2668 47.9148 30.5954 46.2637 30.5954C44.609 30.5954 43.1148 31.2668 42.032 32.3497C40.9492 33.4325 40.2812 34.9278 40.2812 36.5778C40.2812 38.2325 40.9492 39.7266 42.032 40.8094C43.1148 41.8922 44.6102 42.5602 46.2637 42.5602C47.9148 42.5602 49.409 41.8922 50.493 40.8094C51.5758 39.7266 52.2438 38.2313 52.2438 36.5778ZM33.2594 49.3735H29.0301L27.741 45.7793H18.516L17.2305 49.3735H13.0012C12.4668 49.3735 12.0309 49.8059 12.0309 50.3403C12.0309 50.8747 12.4656 51.3106 13.0012 51.3106H33.2582C33.7926 51.3106 34.2285 50.8758 34.2285 50.3403C34.2297 49.8047 33.7949 49.3735 33.2594 49.3735ZM30.6355 35.195H-0.00195312V11.72C-0.00195312 10.0524 1.36328 8.69067 3.03086 8.69067H43.232C44.8996 8.69067 46.2648 10.0524 46.2648 11.72V20.9051H45.4117C44.0629 20.9051 42.8875 21.7618 42.4715 23.045L42.202 23.8653C41.4941 24.0915 40.8062 24.3774 40.1453 24.7196L39.3742 24.327C38.1754 23.7153 36.7363 23.9415 35.7836 24.8954L34.5777 26.1012C33.6238 27.0516 33.3988 28.4895 34.0094 29.6918L34.4008 30.4629C34.0621 31.1239 33.7762 31.8118 33.55 32.5196L32.7262 32.7856C31.6187 33.1454 30.8277 34.0758 30.6355 35.195ZM12.182 22.4262L18.5934 18.845C19.0586 18.586 19.2273 17.9977 18.9684 17.5325C18.7094 17.0672 18.1211 16.8985 17.6559 17.1575L9.74336 21.5754C9.582 21.6647 9.44854 21.7969 9.35781 21.9575C9.09883 22.4227 9.26758 23.011 9.73281 23.27L17.6559 27.695C18.1211 27.954 18.7094 27.7875 18.9684 27.32C19.2273 26.8547 19.0586 26.2665 18.5934 26.0075L12.182 22.4262ZM25.0012 14.2711C24.4797 14.1516 23.9617 14.4774 23.8422 14.9989L20.5375 29.4258C20.418 29.9438 20.7437 30.4618 21.2617 30.5813C21.7832 30.7008 22.3012 30.375 22.4207 29.8536L25.7254 15.4301C25.8449 14.9086 25.5191 14.3907 25.0012 14.2711ZM28.6059 27.695L36.5289 23.27C36.9941 23.011 37.1629 22.4227 36.9039 21.9575C36.8135 21.7967 36.68 21.6644 36.5184 21.5754L28.6059 17.1575C28.1406 16.8985 27.5523 17.0672 27.2934 17.5325C27.0344 17.9977 27.2031 18.586 27.6684 18.845L34.0797 22.4262L27.6684 26.0075C27.2031 26.2665 27.0344 26.8547 27.2934 27.32C27.5523 27.7875 28.1406 27.954 28.6059 27.695ZM32.7285 40.3711C31.4465 39.9563 30.5922 38.7797 30.5922 37.4309V37.1321H-0.00195312V40.8129C-0.00195312 42.477 1.36328 43.8422 3.03086 43.8422H33.8477C33.8945 43.7157 33.9473 43.5903 34.0105 43.4672L34.402 42.6961C34.0629 42.0344 33.7772 41.3467 33.5477 40.6395L32.7285 40.3711Z" fill="#386EC9"/>
</g>
<defs>
<clipPath id="clip0_2011_330">
<rect width="60" height="60" fill="white"/>
</clipPath>
</defs>
</svg>
