<svg width="60" height="60" viewBox="0 0 60 60" fill="none" xmlns="http://www.w3.org/2000/svg">
<g clip-path="url(#clip0_2011_334)">
<path d="M1.75781 60H17.6953V54.7266C17.6953 49.8724 13.7604 45.8203 8.90625 45.8203C4.05211 45.8203 0 49.8724 0 54.7266V58.2422C0 59.2131 0.786914 60 1.75781 60ZM14.1797 40.5469C14.1797 37.6345 11.8186 35.2734 8.90625 35.2734C5.99391 35.2734 3.51562 37.6345 3.51562 40.5469C3.51562 43.4592 5.99391 45.8203 8.90625 45.8203C11.8186 45.8203 14.1797 43.4592 14.1797 40.5469ZM21.2109 54.7266V60H38.9062V54.7266C38.9062 49.8724 34.8541 45.8203 30 45.8203C25.1459 45.8203 21.2109 49.8724 21.2109 54.7266ZM35.3906 40.5469C35.3906 37.6345 32.9123 35.2734 30 35.2734C27.0877 35.2734 24.7266 37.6345 24.7266 40.5469C24.7266 43.4592 27.0877 45.8203 30 45.8203C32.9123 45.8203 35.3906 43.4592 35.3906 40.5469ZM51.2109 45.8203C46.3568 45.8203 42.4219 49.8724 42.4219 54.7266V60H58.2422C59.2131 60 60 59.2131 60 58.2422V54.7266C60 49.8724 56.0651 45.8203 51.2109 45.8203ZM56.4844 40.5469C56.4844 43.4592 54.1233 45.8203 51.2109 45.8203C48.2986 45.8203 45.9375 43.4592 45.9375 40.5469C45.9375 37.6345 48.2986 35.2734 51.2109 35.2734C54.1233 35.2734 56.4844 37.6345 56.4844 40.5469ZM56.4844 12.4219C56.4844 15.3342 54.1233 17.6953 51.2109 17.6953C48.2986 17.6953 45.9375 15.3342 45.9375 12.4219C45.9375 9.50953 48.2986 7.14844 51.2109 7.14844C54.1233 7.14844 56.4844 9.50953 56.4844 12.4219Z" fill="#B345D0"/>
<path d="M51.2109 17.6953C46.3568 17.6953 42.4219 21.6302 42.4219 26.4844V40.5469C42.4219 35.7009 46.365 31.7578 51.2109 31.7578C56.0569 31.7578 60 35.7009 60 40.5469V26.4844C60 21.6302 56.0651 17.6953 51.2109 17.6953ZM1.75781 28.2422H38.9062V26.4844C38.9062 23.1445 40.2539 20.1196 42.4219 17.9004V1.75781C42.4219 0.786328 41.6355 0 40.6641 0H1.75781C0.786328 0 0 0.786328 0 1.75781V26.4844C0 27.4559 0.786328 28.2422 1.75781 28.2422ZM21.2109 8.90625C21.2109 7.93477 21.9973 7.14844 22.9688 7.14844C23.9402 7.14844 24.7266 7.93477 24.7266 8.90625V19.4531C24.7266 20.4246 23.9402 21.2109 22.9688 21.2109C21.9973 21.2109 21.2109 20.4246 21.2109 19.4531V8.90625ZM14.1797 12.4219C14.1797 11.4504 14.966 10.6641 15.9375 10.6641C16.909 10.6641 17.6953 11.4504 17.6953 12.4219V19.4531C17.6953 20.4246 16.909 21.2109 15.9375 21.2109C14.966 21.2109 14.1797 20.4246 14.1797 19.4531V12.4219ZM7.14844 15.9375C7.14844 14.966 7.93477 14.1797 8.90625 14.1797C9.87773 14.1797 10.6641 14.966 10.6641 15.9375V19.4531C10.6641 20.4246 9.87773 21.2109 8.90625 21.2109C7.93477 21.2109 7.14844 20.4246 7.14844 19.4531V15.9375Z" fill="#B345D0"/>
</g>
<defs>
<clipPath id="clip0_2011_334">
<rect width="60" height="60" fill="white"/>
</clipPath>
</defs>
</svg>
