<svg width="60" height="60" viewBox="0 0 60 60" fill="none" xmlns="http://www.w3.org/2000/svg">
<path d="M31.4062 9.375C31.4062 13.4438 22.8563 14.5312 17.8125 14.5312C12.7687 14.5312 4.21875 13.4438 4.21875 9.375C4.21875 5.30625 12.7687 4.21875 17.8125 4.21875C22.8563 4.21875 31.4062 5.30625 31.4062 9.375ZM4.93125 19.2188C8.71875 21.825 15.75 22.0312 17.8125 22.0312C19.875 22.0312 26.9062 21.825 30.6 19.275C30.8625 19.125 31.1437 18.9563 31.4062 18.7875V14.3438C27.4688 17.0625 20.5125 17.3438 17.8125 17.3438C15.1125 17.3438 8.15625 17.0438 4.21875 14.3438V18.7875C4.4625 18.9375 4.70625 19.0875 4.93125 19.2188ZM17.8125 24.8438C15.075 24.8438 8.53125 24.525 4.21875 22.05V24.375C4.21875 28.4438 12.7687 29.5312 17.8125 29.5312C22.8563 29.5312 31.4062 28.4438 31.4062 24.375V22.05C27.1688 24.525 20.5688 24.8438 17.8125 24.8438ZM42.1875 30.4688C37.1437 30.4688 28.5938 31.5562 28.5938 35.625C28.5938 39.6938 37.1437 40.7812 42.1875 40.7812C47.2313 40.7812 55.7812 39.6938 55.7812 35.625C55.7812 31.5562 47.2313 30.4688 42.1875 30.4688ZM29.3063 45.4688C33.0938 48.075 40.125 48.2812 42.1875 48.2812C44.25 48.2812 51.2812 48.075 54.975 45.525C55.2375 45.375 55.5187 45.2063 55.7812 45.0375V40.5937C51.8438 43.3125 44.8875 43.5938 42.1875 43.5938C39.4875 43.5938 32.5312 43.2937 28.5938 40.5937V45.0375C28.8375 45.1875 29.0813 45.3375 29.3063 45.4688ZM42.1875 51.0938C39.45 51.0938 32.9062 50.775 28.5938 48.3V50.625C28.5938 54.6938 37.1437 55.7812 42.1875 55.7812C47.2313 55.7812 55.7812 54.6938 55.7812 50.625V48.3C51.5438 50.775 44.9438 51.0938 42.1875 51.0938ZM44.0625 26.25V15.4688C44.0625 12.6188 41.7562 10.3125 38.9062 10.3125H35.625C34.8563 10.3125 34.2188 10.95 34.2188 11.7188C34.2188 12.4875 34.8563 13.125 35.625 13.125H38.9062C40.2 13.125 41.25 14.175 41.25 15.4688V26.25C41.25 27.0187 41.8875 27.6562 42.6562 27.6562C43.425 27.6562 44.0625 27.0187 44.0625 26.25ZM25.7812 48.2812C25.7812 47.5125 25.1437 46.875 24.375 46.875H21.0938C19.8 46.875 18.75 45.825 18.75 44.5312V33.75C18.75 32.9813 18.1125 32.3438 17.3438 32.3438C16.575 32.3438 15.9375 32.9813 15.9375 33.75V44.5312C15.9375 47.3812 18.2438 49.6875 21.0938 49.6875H24.375C25.1437 49.6875 25.7812 49.05 25.7812 48.2812Z" fill="#E27100"/>
</svg>
