<svg width="60" height="60" viewBox="0 0 60 60" fill="none" xmlns="http://www.w3.org/2000/svg">
<g clip-path="url(#clip0_2011_321)">
<path d="M8.78906 50.625V54.7266C8.78906 57.6343 11.1547 60 14.0625 60H17.5781C20.4859 60 22.8516 57.6343 22.8516 54.7266V50.625H8.78906ZM15.8203 14.2969C7.09699 14.2969 0 21.3939 0 30.1172C0 34.8102 2.06543 39.2318 5.66648 42.2486C7.18617 43.5214 8.20875 45.2345 8.60473 47.1094H14.0625V35.5328L10.4757 31.9461C9.78926 31.2596 9.78926 30.1467 10.4757 29.4602C11.1622 28.7737 12.2752 28.7737 12.9616 29.4602L15.8203 32.3188L18.679 29.4601C19.3655 28.7736 20.4784 28.7736 21.1649 29.4601C21.8514 30.1466 21.8514 31.2595 21.1649 31.946L17.5781 35.5328V47.1094H23.0359C23.4319 45.2344 24.4545 43.5214 25.9741 42.2486C29.5752 39.2318 31.6406 34.8102 31.6406 30.1172C31.6406 21.3939 24.5436 14.2969 15.8203 14.2969ZM57.8113 46.6908C57.8306 46.4311 57.84 46.1829 57.84 45.9375C57.84 45.6921 57.8306 45.4438 57.8113 45.1841L59.4641 43.5859C59.7459 43.3134 59.9286 42.9545 59.983 42.5663C60.0374 42.1781 59.9605 41.7828 59.7645 41.4434L56.8348 36.3689C56.6387 36.0295 56.3348 35.7653 55.9714 35.6184C55.608 35.4714 55.2059 35.4501 54.829 35.5577L52.6152 36.191C52.1981 35.9125 51.7635 35.661 51.3141 35.4382L50.7561 33.2064C50.661 32.8261 50.4415 32.4885 50.1326 32.2473C49.8236 32.006 49.4428 31.875 49.0508 31.875H43.1914C42.7994 31.875 42.4187 32.006 42.1097 32.2473C41.8007 32.4886 41.5812 32.8262 41.4861 33.2065L40.9282 35.4383C40.4788 35.6611 40.0442 35.9125 39.6271 36.1911L37.4133 35.5579C37.0364 35.45 36.6342 35.4713 36.2708 35.6183C35.9074 35.7653 35.6035 36.0295 35.4075 36.369L32.4778 41.4435C32.2818 41.783 32.2049 42.1782 32.2593 42.5664C32.3137 42.9546 32.4964 43.3135 32.7782 43.586L34.431 45.1842C34.4116 45.4439 34.4023 45.6922 34.4023 45.9376C34.4023 46.183 34.4116 46.4312 34.431 46.6909L32.7782 48.2891C32.4964 48.5616 32.3137 48.9205 32.2593 49.3087C32.2049 49.6969 32.2818 50.0922 32.4778 50.4316L35.4075 55.5061C35.6036 55.8455 35.9075 56.1097 36.2709 56.2567C36.6343 56.4036 37.0364 56.425 37.4133 56.3173L39.627 55.684C40.0441 55.9626 40.4788 56.2141 40.9282 56.4369L41.4861 58.6688C41.5812 59.0491 41.8007 59.3867 42.1097 59.628C42.4186 59.8692 42.7994 60.0003 43.1914 60.0002H49.0508C49.4428 60.0002 49.8236 59.8692 50.1326 59.6279C50.4416 59.3867 50.6611 59.0491 50.7561 58.6688L51.3141 56.4369C51.7635 56.2141 52.1982 55.9626 52.6153 55.684L54.829 56.3173C55.2059 56.4251 55.6081 56.4039 55.9715 56.2569C56.3349 56.1099 56.6388 55.8457 56.8348 55.5061L59.7645 50.4316C59.9605 50.0922 60.0374 49.6969 59.9829 49.3087C59.9285 48.9205 59.7459 48.5616 59.4641 48.2891L57.8113 46.6908ZM46.1211 51.2109C43.2134 51.2109 40.8477 48.8453 40.8477 45.9375C40.8477 43.0297 43.2134 40.6641 46.1211 40.6641C49.0289 40.6641 51.3946 43.0297 51.3946 45.9375C51.3946 48.8453 49.0289 51.2109 46.1211 51.2109Z" fill="#F16E84"/>
<path d="M52.0516 20.4368C51.3652 19.7503 50.2522 19.7503 49.5657 20.4368L47.8789 22.1236V8.78906C47.8789 3.94277 43.9362 0 39.0899 0H22.8516C18.0053 0 14.0625 3.94277 14.0625 8.78906V10.862C14.6416 10.8095 15.2277 10.7812 15.8203 10.7812C16.4129 10.7812 16.999 10.8095 17.5781 10.862V8.78906C17.5781 5.88129 19.9438 3.51562 22.8516 3.51562H39.0899C41.9977 3.51562 44.3633 5.88129 44.3633 8.78906V22.1235L42.6765 20.4367C41.99 19.7502 40.8771 19.7502 40.1906 20.4367C39.5041 21.1232 39.5041 22.2361 40.1906 22.9226L44.8781 27.6101C45.5646 28.2966 46.6775 28.2966 47.364 27.6101L52.0515 22.9226C52.7381 22.2362 52.7381 21.1232 52.0516 20.4368Z" fill="#F16E84"/>
</g>
<defs>
<clipPath id="clip0_2011_321">
<rect width="60" height="60" fill="white"/>
</clipPath>
</defs>
</svg>
