<?xml version="1.0" encoding="utf-8"?>
<!-- Generator: Adobe Illustrator 25.0.0, SVG Export Plug-In . SVG Version: 6.00 Build 0)  -->
<svg version="1.1" id="Layer_1" xmlns="http://www.w3.org/2000/svg" xmlns:xlink="http://www.w3.org/1999/xlink" x="0px" y="0px"
	 viewBox="0 0 800 800" style="enable-background:new 0 0 800 800;" xml:space="preserve">
<g>
	<g>
		<g>
			<path d="M733.3,333.3c-27.9,0-51.8,17.2-61.8,41.5H567.6c-4.2-28.3-15.4-54.4-31.8-76.4l57.6-57.6c7.5,3,15.5,4.5,23.5,4.5
				c16.3,0,32.6-6.2,45-18.6c24.8-24.8,24.8-65.2,0-90c-24.8-24.8-65.2-24.8-90,0h0c-18.5,18.5-23.2,45.6-14.1,68.5l-57.6,57.6
				c-21.9-16.2-47.9-27.3-76-31.5V129.5c24.3-10,41.5-33.9,41.5-61.8c0-36.8-29.9-66.7-66.7-66.7S332.2,31,332.2,67.8
				c0,27.9,17.2,51.8,41.5,61.8v101.8c-28,4.2-53.8,15.2-75.6,31.2l-57.3-57.3c9.1-22.9,4.4-50-14.1-68.5c-24.8-24.8-65.2-24.8-90,0
				s-24.8,65.2,0,90c12.4,12.4,28.7,18.6,45,18.6c8,0,16-1.5,23.5-4.5l57.1,57.1c-16.6,22.1-27.9,48.3-32.1,76.8H128.5
				c-10-24.3-33.9-41.5-61.8-41.5C29.9,333.3,0,363.2,0,400s29.9,66.7,66.7,66.7c27.9,0,51.8-17.2,61.8-41.5h101.8
				c4.2,28.2,15.3,54.1,31.5,76l-56.6,56.6c-22.9-9.1-50-4.4-68.5,14.1c-24.8,24.8-24.8,65.2,0,90c12.4,12.4,28.7,18.6,45,18.6
				s32.6-6.2,45-18.6c18.5-18.5,23.2-45.6,14.1-68.5l56.5-56.5c22,16.4,48.1,27.6,76.4,31.8v101.8c-24.3,10-41.5,33.9-41.5,61.8
				c0,36.8,29.9,66.7,66.7,66.7s66.7-29.9,66.7-66.7c0-27.9-17.2-51.8-41.5-61.8V568.7c28.5-4.2,54.7-15.5,76.8-32.1l58.2,58.2
				c-9.1,22.9-4.4,50,14.1,68.5c12.4,12.4,28.7,18.6,45,18.6s32.6-6.2,45-18.6c24.8-24.8,24.8-65.2,0-90c-12-12-28-18.6-45-18.6
				c-8.2,0-16.1,1.6-23.5,4.5l-58.3-58.3c16.1-21.8,27.1-47.6,31.2-75.6h103.9c10,24.3,33.9,41.5,61.8,41.5
				c36.8,0,66.7-29.9,66.7-66.7C800,363.2,770.1,333.3,733.3,333.3z M607.5,172.3c5.2-5.2,13.6-5.2,18.8,0c2.5,2.5,3.9,5.8,3.9,9.4
				s-1.4,6.9-3.9,9.4c-5.2,5.2-13.6,5.2-18.8,0C602.3,185.9,602.3,177.5,607.5,172.3z M191.1,191.1c-5.2,5.2-13.6,5.2-18.8,0
				c-5.2-5.2-5.2-13.6,0-18.8c2.6-2.6,6-3.9,9.4-3.9c3.4,0,6.8,1.3,9.4,3.9C196.3,177.5,196.3,185.9,191.1,191.1z M66.7,416.4
				c-9,0-16.4-7.3-16.4-16.4s7.3-16.4,16.4-16.4S83.1,391,83.1,400S75.7,416.4,66.7,416.4z M191.1,626.3c-5.2,5.2-13.6,5.2-18.8,0
				c-5.2-5.2-5.2-13.6,0-18.8c2.6-2.6,6-3.9,9.4-3.9c3.4,0,6.8,1.3,9.4,3.9C196.3,612.7,196.3,621.1,191.1,626.3z M398.9,51.4
				c9,0,16.4,7.3,16.4,16.4s-7.3,16.4-16.4,16.4s-16.4-7.3-16.4-16.4S389.9,51.4,398.9,51.4z M398.9,748.6c-9,0-16.4-7.3-16.4-16.4
				s7.3-16.4,16.4-16.4s16.4,7.3,16.4,16.4S408,748.6,398.9,748.6z M398.9,520.2c-66.3,0-120.2-53.9-120.2-120.2
				s53.9-120.2,120.2-120.2c66.3,0,120.2,53.9,120.2,120.2S465.2,520.2,398.9,520.2z M608.9,608.9c2.5-2.5,5.8-3.9,9.4-3.9
				c3.5,0,6.9,1.4,9.4,3.9c5.2,5.2,5.2,13.6,0,18.8c-5.2,5.2-13.6,5.2-18.8,0C603.7,622.5,603.7,614.1,608.9,608.9z M733.3,416.4
				c-9,0-16.4-7.3-16.4-16.4s7.3-16.4,16.4-16.4s16.4,7.3,16.4,16.4S742.3,416.4,733.3,416.4z"/>
		</g>
	</g>
</g>
</svg>
