<?xml version="1.0" encoding="utf-8"?>
<!-- Generator: Adobe Illustrator 25.0.0, SVG Export Plug-In . SVG Version: 6.00 Build 0)  -->
<svg version="1.1" id="Layer_1" xmlns="http://www.w3.org/2000/svg" xmlns:xlink="http://www.w3.org/1999/xlink" x="0px" y="0px"
	 viewBox="0 0 200 73" style="enable-background:new 0 0 200 73;" xml:space="preserve">
<style type="text/css">
</style>
<g id="Layer_1_1_">
	<g id="Page-1">
		<g id="active-campaign-logo">
			<path id="Path" class="st0" d="M147.9,27h-1.3v1.3c0,0.3,0.1,0.7,0.8,0.7h1.3v-1.3C148.7,27.4,148.6,27,147.9,27z"/>
			<path id="Path_1_" class="st0" d="M147.8,31.2h-1v10.7c0,0.4,0.3,0.7,0.7,0.8l0,0h1.2V31.9C148.6,31.5,148.3,31.2,147.8,31.2z"/>
			<path id="Path_2_" class="st0" d="M84.8,39.6c-0.4-0.4-1-0.3-1.3,0c-1.4,1.2-2.6,1.6-4.3,1.6c-3.3,0-5.9-2.8-5.9-6.3
				s2.5-6.2,5.9-6.2c1.6,0,2.9,0.5,4.2,1.6c0.3,0.3,0.8,0.4,1.2,0c0.3-0.3,0.7-0.7,0.7-0.7l0.1-0.1l-0.1-0.1c-1.3-1.3-3-2.5-6.1-2.5
				c-4.4,0-7.8,3.6-7.8,8.1c0,4.6,3.3,8,7.8,8c2.5,0,4.3-0.8,6.2-2.8v-0.1V40C85.3,40.1,85.2,39.9,84.8,39.6z"/>
			<path id="Path_3_" class="st0" d="M113.1,30.9c-1.6,0-2.9,0.7-3.9,2.1c-0.4-0.9-1.5-2.2-3.6-2.2c-1.9,0-2.9,1-3.6,1.9v-0.8
				c0-0.6-0.3-0.9-0.9-0.9h-1v11.6h1c0.5,0,0.8-0.1,0.8-0.8V36c0-2,1.3-3.5,3-3.5c1.8,0,2.8,1.2,2.8,3.3v5.9c0,0.6,0.3,0.8,0.8,0.8
				h1V36c0-2.4,1.5-3.4,3-3.4c1.8,0,2.9,1.2,2.9,3.3v5.8c0,0.5,0.1,0.9,0.9,0.9h1v-7.1C117.4,32.7,115.7,30.9,113.1,30.9z"/>
			<path id="Shape" class="st0" d="M126.5,30.9c-1.7,0-3.1,0.7-4.3,2.3V32c0-0.6-0.3-0.9-0.9-0.9h-0.9v14.2c0,0.6,0.3,0.8,0.8,0.8h1
				v-5.5c1.2,1.5,2.5,2.2,4.3,2.2c2.7,0,5.5-2.1,5.5-6S129.2,30.9,126.5,30.9z M130.1,36.9c0,2.5-1.6,4.3-3.9,4.3c-2,0-4-1.6-4-4.3
				s2-4.3,4-4.3C128.1,32.6,130.1,34.1,130.1,36.9z"/>
			<path id="Shape_1_" class="st0" d="M160.9,32v1c-0.8-1-2.2-2.1-4.3-2.1c-1.4,0-2.8,0.5-3.8,1.4c-1.1,1-1.7,2.5-1.7,4
				c0,3.5,2.8,5.4,5.4,5.4c1.7,0,3.2-0.7,4.4-2.2v1.1c0,2.5-1.5,4-4,4c-1.2,0-2.4-0.3-3.5-0.9c-0.3-0.2-0.5-0.3-0.7-0.3
				s-0.4,0.1-0.6,0.4c-0.3,0.5-0.4,0.7-0.4,0.7v0.1h0.1c1.5,1.1,3.3,1.6,5.2,1.6c3.7,0,5.9-2,5.9-5.6v-9.5h-1
				C161.4,31.1,160.9,31.4,160.9,32z M161,36.4c0,2.4-2.1,3.8-4.1,3.8c-2.2,0-3.8-1.6-3.8-3.8s1.6-3.8,3.8-3.8
				C158.9,32.6,161,33.9,161,36.4z"/>
			<path id="Path_4_" class="st0" d="M171.5,30.9c-1.6,0-2.9,0.7-3.8,2v-1c0-0.6-0.4-0.8-0.9-0.8h-1v11.6h1.9v-6.6
				c0-2,1.4-3.5,3.3-3.5c1.9,0,3,1.2,3,3.3V42c0,0.6,0.3,0.8,0.7,0.8h1.1v-7.2C176,32.7,174.2,30.9,171.5,30.9z"/>
			<path id="Path_5_" class="st0" d="M139,31c-1.4,0-2.8,0.3-4.2,0.9h-0.1V32c0,0,0.2,0.5,0.3,0.9s0.6,0.4,0.9,0.3
				c1-0.4,1.8-0.6,2.8-0.6c2.1,0,3.3,1.1,3.3,3v2.8c0,1.7-1.6,3-3.7,3c-1.3,0-2.8-0.7-2.8-2.2c0-1.4,1.2-2.2,3.2-2.2h0.9
				c0.6,0,0.8-0.3,0.8-0.8v-0.6h-1.9c-3.2,0-4.9,1.3-4.9,3.6c0,1.7,1.3,3.7,4.3,3.7c1.6,0,3-0.6,4-1.8v0.8c0,0.5,0.3,0.7,0.8,0.7h1
				v-7.1C143.9,32.7,142.1,31,139,31z"/>
			<path id="Path_6_" class="st0" d="M92.2,31c-1.8,0-3,0.4-4.2,0.9L87.9,32v0.1c0,0,0.2,0.5,0.3,0.9c0.1,0.4,0.6,0.4,0.9,0.3
				c1-0.4,1.8-0.6,2.8-0.6c2.1,0,3.3,1.1,3.3,3v2.8c0,1.7-1.6,3-3.7,3c-1.3,0-2.8-0.7-2.8-2.2c0-1.4,1.2-2.2,3.2-2.2H93
				c0.6,0,0.8-0.3,0.8-0.8v-0.6h-1.9c-3.2,0-5,1.3-5,3.6c0,1.7,1.3,3.7,4.3,3.7c1.6,0,3-0.6,4.1-1.8V42c0,0.5,0.3,0.7,0.8,0.7h1
				v-7.1C97.1,32.7,95.3,31,92.2,31z"/>
			<path id="Path_7_" class="st0" d="M195.1,35.3c-0.3-0.2-10.9-7.6-11.3-7.9l-0.1-0.1v1.8c0,0.6,0.3,0.8,0.7,1.1h0.1
				c0.5,0.4,8.1,5.6,9.1,6.3c-1,0.7-8.7,6-9.1,6.3c-0.6,0.4-0.6,0.6-0.6,1.2v1.7c0,0,11.3-7.8,11.5-8l0,0c0.5-0.4,0.6-0.9,0.6-1.2
				v-0.2C195.7,36,195.5,35.6,195.1,35.3z"/>
			<path id="Path_8_" class="st0" d="M188.4,37.3c0.3,0,0.6-0.1,0.9-0.3c0.4-0.3,0.7-0.5,0.7-0.5l0.1-0.1l-0.1-0.1
				c0,0-5-3.5-5.5-3.8c-0.2-0.2-0.5-0.2-0.7-0.1c-0.2,0.1-0.3,0.3-0.3,0.6v1.2l0,0c0,0,3.4,2.4,4.1,2.8
				C187.9,37.3,188.2,37.3,188.4,37.3z"/>
			<path id="Path_9_" class="st0" d="M30.8,40c-0.4-0.4-0.9-0.1-1.2,0c-0.9,0.8-1.8,1.2-2.9,1.2c-2.3,0-4.1-1.9-4.1-4.3
				c0-2.4,1.7-4.3,3.9-4.3c1.3,0,2.1,0.6,2.8,1.1c0.5,0.4,0.9,0.4,1.2,0.1c0.3-0.3,0.6-0.7,0.6-0.7l0.1-0.1l-0.1-0.1
				c-1.3-1.4-2.8-2-4.6-2c-3.3,0-5.9,2.6-5.9,6c0,3.3,2.7,6,5.9,6c2.4,0,3.8-1.2,4.7-2.3h0.1l-0.1-0.1C31.4,40.6,31.2,40.4,30.8,40z
				"/>
			<path id="Path_10_" class="st0" d="M43.1,27h-1.3v1.3c0,0.3,0.1,0.7,0.8,0.7H44v-1.2C44,27.3,43.7,27,43.1,27z"/>
			<path id="Path_11_" class="st0" d="M43,31.2h-1.1v10.7c0,0.4,0.3,0.7,0.7,0.8l0,0h1.2V31.9C43.9,31.5,43.6,31.2,43,31.2z"/>
			<path id="Path_12_" class="st0" d="M55.2,31.8c-0.1,0.4-3,7.2-3.5,8.5c-0.5-1.3-3.3-8.1-3.5-8.5c-0.2-0.4-0.6-0.7-1-0.7h-1.3
				l0.1,0.1c0,0.1,4.5,10.5,4.7,10.9c0.2,0.5,0.5,0.6,1,0.6h0.2c0.4,0,0.7-0.2,0.9-0.6s4.7-10.7,4.7-10.8l0.1-0.1h-1.3
				C55.7,31.2,55.4,31.4,55.2,31.8z"/>
			<path id="Path_13_" class="st0" d="M66.9,36.3h-4.4c-0.5,0-0.8,0.3-0.8,0.8v0.7h0.1c2.1,0,4.6,0,5.6,0c0.6,0,1-0.1,1.4-0.5
				c0.3-0.3,0.4-0.9,0.4-1.4c-0.3-3-2.5-4.9-5.4-4.9c-3.2,0-5.6,2.6-5.6,6c0,3.5,2.5,6,5.8,6c1.9,0,3.4-0.7,4.8-2.2l0.1-0.1
				l-0.1-0.1c0,0-0.3-0.2-0.6-0.5c-0.4-0.4-0.9-0.2-1.1,0c-0.8,0.7-1.8,1.1-3,1.1c-2.1,0-3.7-1.5-3.9-3.8c0,0,0-0.3,0-0.6
				c0-0.4,0-0.6,0-0.6c0.2-2.2,1.7-3.8,3.6-3.8c1.9,0,3.3,1.3,3.5,3.2c0,0.2,0,0.3,0,0.4C67,36.2,67,36.3,66.9,36.3z"/>
			<path id="Path_14_" class="st0" d="M13.4,27.6L13.4,27.6c-0.2-0.4-0.5-0.6-1-0.6H12c-0.4,0-0.7,0.2-0.9,0.6
				c-0.1,0.3-6.7,14.8-6.8,15l-0.1,0.1h1.2c0.5,0,0.9-0.2,1.1-0.7c0.2-0.4,1.3-2.9,1.5-3.3h4.8c0.6,0,1-0.4,1-0.9V37h-5l3.4-7.6
				c0.7,1.6,5.4,12.3,5.6,12.8c0.3,0.6,1,0.6,1.2,0.6h1.1L20,42.7C20.1,42.4,13.6,28,13.4,27.6z"/>
			<path id="Path_15_" class="st0" d="M39.2,41.1C39,41,38.8,41,38.5,41c-0.4,0.1-0.7,0.2-1.1,0.2c-1.2,0-1.8-0.6-1.8-1.8v-6.5h3.6
				v-0.8c0-0.6-0.5-0.9-1-0.9h-2.7v-3.3c0-0.5-0.4-0.9-0.9-0.9h-0.9v12.6c0,2.1,1.2,3.3,3.3,3.3c0.8,0,1.7-0.2,2.3-0.5l0,0l0,0
				c0,0,0-0.3,0-0.7C39.4,41.3,39.3,41.2,39.2,41.1z"/>
		</g>
	</g>
</g>
</svg>
