<?xml version="1.0" encoding="utf-8"?>
<!-- Generator: Adobe Illustrator 25.0.0, SVG Export Plug-In . SVG Version: 6.00 Build 0)  -->
<svg version="1.1" id="Layer_1" xmlns="http://www.w3.org/2000/svg" xmlns:xlink="http://www.w3.org/1999/xlink" x="0px" y="0px"
	 viewBox="0 0 800 800" style="enable-background:new 0 0 800 800;" xml:space="preserve">
<g id="Layer_2_1_">
	<g id="Q3_icons">
		<g>
			<path d="M726.7,150L405,35h-10L71.7,150c-5,1.7-5,5-5,10S110,545,115,598.3c-1,4.5,1.8,8.9,6.3,9.9c0.1,0,0.2,0,0.3,0.1
				L393.3,765c5,1.7,8.3,3.3,11.7,0l273.3-156.7c3.1-2,5.4-4.9,6.7-8.3c5-43.3,45-408.3,48.3-443.3C735,151.7,730,151.7,726.7,150z
				 M605,570h-65c-4.5,1-8.9-1.8-9.9-6.3c0-0.1,0-0.2-0.1-0.3l-35-96.7c-0.8-4.5-5.1-7.5-9.7-6.7c-0.1,0-0.2,0-0.3,0.1H313.3
				c-5,0-6.7,1.7-8.3,6.7l-35,95c-3.3,6.7-5,8.3-11.7,8.3h-71.7C258.3,411.7,328.3,255,400,96.7l211.7,471.7L605,570z"/>
			<path d="M463.3,396.7H336.7c20-50,41.7-100,63.3-150L463.3,396.7z"/>
		</g>
	</g>
</g>
</svg>
