<?xml version="1.0" encoding="utf-8"?>
<!-- Generator: Adobe Illustrator 25.0.0, SVG Export Plug-In . SVG Version: 6.00 Build 0)  -->
<svg version="1.1" id="Layer_1" xmlns="http://www.w3.org/2000/svg" xmlns:xlink="http://www.w3.org/1999/xlink" x="0px" y="0px"
	 viewBox="0 0 448 512" style="enable-background:new 0 0 448 512;" xml:space="preserve">
<path d="M257.1,101.2L136.7,216H424c13.3,0,24,10.7,24,24v32c0,13.3-10.7,24-24,24H136.6l120.5,114.8c9.7,9.3,9.9,24.8,0.4,34.3
	l-22.2,22.2c-9.3,9.4-24.5,9.4-33.9,0L7,272.9c-9.4-9.3-9.4-24.5,0-33.9L201.4,44.7c9.3-9.4,24.5-9.4,33.9,0l22.2,22.2
	C267.1,76.4,267,91.9,257.1,101.2z"/>
</svg>
