<?xml version="1.0" encoding="utf-8"?>
<!-- Generator: Adobe Illustrator 25.0.0, SVG Export Plug-In . SVG Version: 6.00 Build 0)  -->
<svg version="1.1" id="Layer_1" xmlns="http://www.w3.org/2000/svg" xmlns:xlink="http://www.w3.org/1999/xlink" x="0px" y="0px"
	 viewBox="0 0 800 800" style="enable-background:new 0 0 800 800;" xml:space="preserve">
<style type="text/css">
	.stclients01{stroke-width:40;stroke-miterlimit:333.3333;}
	.stclients1{stroke-width:40;stroke-linecap:square;stroke-miterlimit:333.3333;}
</style>
<g id="briefcase_alternatif">
	<path class="stclients01" d="M400,482L400,482c-17.9,0-35.4-4.9-50.8-14L114.5,327.3c-9.7-5.8-15.6-16.2-15.6-27.5v-10.5
		c0.6-29.8,25-53.6,54.8-53.6h492.6c30.2,0,54.8,24.5,54.8,54.8l0,0V301c0,11.3-5.9,21.7-15.6,27.5L450.8,469.1
		C435.3,477.9,417.8,482.4,400,482z"/>
	<line class="stclients1" x1="400" y1="454.8" x2="400" y2="509.5"/>
	<path class="st1" d="M468.4,235.7H331.6c-20.9,0-36.2-18.6-31.1-37.7l11.4-42.6c3.6-13.5,16.4-22.9,31.1-22.9h114
		c14.7,0,27.5,9.4,31.1,22.9l11.4,42.6C504.6,217.1,489.3,235.7,468.4,235.7z"/>
	<path class="stclients01" d="M185.8,235.7h428.5c48,0,86.8,38.9,86.8,86.8v264.2c0,48-38.9,86.8-86.8,86.8H185.8c-48,0-86.8-38.9-86.8-86.8
		V322.5C98.9,274.6,137.8,235.7,185.8,235.7z"/>
</g>
</svg>
