<?xml version="1.0" encoding="utf-8"?>
<!-- Generator: Adobe Illustrator 25.0.0, SVG Export Plug-In . SVG Version: 6.00 Build 0)  -->
<svg version="1.1" id="Layer_1" xmlns="http://www.w3.org/2000/svg" xmlns:xlink="http://www.w3.org/1999/xlink" x="0px" y="0px"
	 viewBox="0 0 800 800" style="enable-background:new 0 0 800 800;" xml:space="preserve">
<g>
	<g>
		<g>
			<path d="M783.7,333.8H492.6v-73.5c0-9-7.3-16.3-16.3-16.3h-48.8c-2.7-8-6-15.9-9.8-23.5l34.5-34.5c6.4-6.4,6.4-16.7,0-23
				l-63.6-63.6c-6.4-6.4-16.7-6.4-23,0l-34.5,34.5c-7.6-3.8-15.5-7-23.5-9.8V75.2c0-9-7.3-16.3-16.3-16.3h-90
				c-9,0-16.3,7.3-16.3,16.3V124c-8,2.7-15.9,6-23.5,9.8L127,99.3c-6.4-6.4-16.7-6.4-23,0l-63.6,63.6c-6.4,6.4-6.4,16.7,0,23
				l34.5,34.5c-3.8,7.6-7,15.5-9.8,23.5H16.3c-9,0-16.3,7.3-16.3,16.3v90c0,9,7.3,16.3,16.3,16.3h48.8c2.7,8,6,15.9,9.8,23.5
				l-34.5,34.5c-6.4,6.4-6.4,16.7,0,23l63.6,63.6c6.4,6.4,16.7,6.4,23,0l34.5-34.5c7.6,3.8,15.5,7,23.5,9.8v48.8
				c0,9,7.3,16.3,16.3,16.3h44.8v173.2c0,9,7.3,16.3,16.3,16.3h521.3c9,0,16.3-7.3,16.3-16.3V350.1
				C800,341.1,792.7,333.8,783.7,333.8z M700.7,366.4V399h-422v-32.6H700.7z M246.1,519h-28.5v0v-44.6c0-7.4-5-13.8-12.1-15.7
				c-13.5-3.6-26.6-9-38.7-16.1c-6.4-3.7-14.5-2.7-19.7,2.6l-31.6,31.6l-40.6-40.6l31.6-31.6c5.2-5.2,6.3-13.3,2.6-19.7
				c-7.1-12.2-12.5-25.2-16.1-38.7C91,338.9,84.6,334,77.2,334H32.6v-57.4h44.6c7.4,0,13.8-5,15.7-12.1c3.6-13.6,9-26.6,16.1-38.7
				c3.7-6.4,2.7-14.5-2.6-19.7l-31.6-31.6l40.6-40.6l31.6,31.6c5.2,5.2,13.3,6.3,19.7,2.6c12.2-7.1,25.2-12.5,38.7-16.1
				c7.1-1.9,12.1-8.4,12.1-15.7V91.5H275v44.6c0,7.4,5,13.8,12.1,15.7c13.5,3.6,26.6,9,38.7,16.1c6.4,3.7,14.5,2.7,19.7-2.6
				l31.6-31.6l40.6,40.6L386.2,206c-5.2,5.2-6.3,13.3-2.6,19.7c7.1,12.1,12.5,25.2,16.1,38.7c1.9,7.1,8.4,12.1,15.7,12.1H460v57.3
				H353.9c2.4-9.1,3.7-18.7,3.7-28.5c0-61.4-49.9-111.3-111.3-111.3S135,243.9,135,305.3c0,61.3,49.8,111.2,111.1,111.3L246.1,519
				L246.1,519z M246.1,350.1V384c-43.3-0.1-78.5-35.4-78.5-78.7c0-43.4,35.3-78.7,78.7-78.7c43.4,0,78.7,35.3,78.7,78.7
				c0,10.1-1.9,19.7-5.4,28.5h-57.2C253.4,333.8,246.1,341.1,246.1,350.1z M767.4,708.5H278.7V431.5h488.7L767.4,708.5L767.4,708.5z
				 M767.4,399h-34.2v-32.6h34.2V399z"/>
			<g>
				<path d="M378.6,628.4c-9.2,0-17.3-2-24.2-6.1c-6.9-4.1-12.3-9.8-16.1-17.2c-3.8-7.4-5.7-16-5.7-25.9v-36.2
					c0-9.9,1.9-18.6,5.7-26c3.8-7.4,9.2-13.1,16.1-17.2c6.9-4.1,15-6.1,24.2-6.1c7.6,0,14.6,1.6,20.9,4.9s11.6,7.8,15.9,13.7
					c4.3,5.9,7.2,12.7,8.7,20.6h-19c-1.2-4.2-3.1-7.9-5.8-11.1c-2.7-3.2-5.9-5.6-9.5-7.4c-3.6-1.8-7.4-2.6-11.3-2.6
					c-8.1,0-14.6,2.9-19.6,8.6c-4.9,5.7-7.4,13.3-7.4,22.7v36.2c0,9.4,2.5,16.9,7.4,22.6c4.9,5.7,11.5,8.5,19.6,8.5
					c5.8,0,11.2-1.8,16.3-5.4s8.5-8.9,10.3-15.7h19c-1.5,7.9-4.4,14.7-8.7,20.6c-4.3,5.9-9.6,10.4-15.9,13.7
					C393.2,626.7,386.2,628.4,378.6,628.4z"/>
				<path d="M521.7,582.1l38.8-87.2h17.3V627h-18.1v-98.9l0.9,5.8l-32.5,74.7h-12.9l-32.5-72.9l0.9-7.6V627h-18.1V494.9h17.3
					L521.7,582.1z"/>
				<path d="M667.1,628.4c-6.4,0-12.5-0.6-18.1-1.8c-5.7-1.2-11-3-15.9-5.4c-4.9-2.4-9.6-5.4-13.8-9.1l11.5-14.2
					c5,4.4,10.6,7.6,16.6,9.8c6.1,2.2,12.6,3.3,19.7,3.3c9.6,0,17-1.8,22.3-5.4c5.3-3.6,7.9-8.6,7.9-15v-0.1c0-5-1.3-8.9-4-11.5
					c-2.7-2.7-6.2-4.6-10.5-5.9c-4.3-1.3-9.1-2.4-14.2-3.2c-5-0.8-10-1.8-15-3c-5.1-1.1-9.7-3-13.9-5.4c-4.2-2.5-7.6-6-10.2-10.6
					c-2.6-4.6-3.9-10.7-3.9-18.4v-0.1c0-12.3,4.1-21.8,12.3-28.6c8.2-6.8,19.7-10.1,34.6-10.1c7.1,0,14,1.1,20.8,3.4
					c6.8,2.3,13.4,5.7,19.8,10.4l-10.5,14.7c-5-3.8-10-6.5-15-8.4c-5-1.8-10-2.7-15-2.7c-9,0-16,1.8-21,5.4c-5,3.6-7.5,8.7-7.5,15.3
					v0.1c0,5,1.5,8.8,4.4,11.4c2.9,2.6,6.7,4.5,11.4,5.8c4.7,1.2,9.7,2.4,15.1,3.5c4.8,1,9.7,2.1,14.5,3.5c4.8,1.4,9.2,3.3,13.2,5.9
					c4,2.6,7.1,6.1,9.5,10.6c2.4,4.5,3.6,10.3,3.6,17.5v0.2c0,12.2-4.2,21.6-12.7,28.2C694.4,625,682.5,628.4,667.1,628.4z"/>
			</g>
		</g>
	</g>
</g>
</svg>
