<?xml version="1.0" encoding="utf-8"?>
<!-- Generator: Adobe Illustrator 25.0.0, SVG Export Plug-In . SVG Version: 6.00 Build 0)  -->
<svg version="1.1" id="Layer_1" xmlns="http://www.w3.org/2000/svg" xmlns:xlink="http://www.w3.org/1999/xlink" x="0px" y="0px"
	 viewBox="0 0 800 800" style="enable-background:new 0 0 800 800;" xml:space="preserve">
<style type="text/css">
	.st0{fill:none;stroke:#06ABE1;stroke-width:25;stroke-linecap:round;stroke-linejoin:round;stroke-miterlimit:133.3333;}
</style>
<path class="st0" d="M31.7,400c0,203.4,164.9,368.3,368.3,368.3c101.7,0,193.8-41.2,260.4-107.9 M31.7,400
	C31.7,196.6,196.6,31.7,400,31.7 M31.7,400H400 M400,31.7c203.4,0,368.3,164.9,368.3,368.3c0,101.7-41.2,193.8-107.9,260.4
	 M400,31.7V400 M660.4,660.4L400,400"/>
<path class="st0" d="M149.2,387.4c0-57.6,46.7-104.2,104.2-104.2c57.6,0,104.2,46.7,104.2,104.2 M313,179
	c0,32.9-26.7,59.5-59.5,59.5c-32.9,0-59.5-26.7-59.5-59.5s26.7-59.5,59.5-59.5C286.3,119.4,313,146.1,313,179z"/>
<path class="st0" d="M256.1,707.8c0-57.6,46.7-104.2,104.2-104.2c57.6,0,104.2,46.7,104.2,104.2 M419.8,499.4
	c0,32.9-26.7,59.5-59.5,59.5c-32.9,0-59.5-26.7-59.5-59.5s26.7-59.5,59.5-59.5C393.2,439.9,419.8,466.5,419.8,499.4z"/>
<path class="st0" d="M491.1,442c0-57.6,46.7-104.2,104.2-104.2c57.6,0,104.2,46.7,104.2,104.2 M654.8,233.6
	c0,32.9-26.7,59.5-59.5,59.5c-32.9,0-59.5-26.7-59.5-59.5s26.7-59.5,59.5-59.5C628.1,174,654.8,200.7,654.8,233.6z"/>
</svg>
