<?xml version="1.0" encoding="utf-8"?>
<!-- Generator: Adobe Illustrator 25.0.0, SVG Export Plug-In . SVG Version: 6.00 Build 0)  -->
<svg version="1.1" id="Layer_1" xmlns="http://www.w3.org/2000/svg" xmlns:xlink="http://www.w3.org/1999/xlink" x="0px" y="0px"
	 viewBox="0 0 800 800" style="enable-background:new 0 0 800 800;" xml:space="preserve">
<style type="text/css">
	.st0{fill:none;stroke:#06ABE1;stroke-width:15;stroke-miterlimit:133.3333;}
	.st1{fill:none;stroke:#06ABE1;stroke-width:20;stroke-linecap:round;stroke-linejoin:round;stroke-miterlimit:133.3333;}
</style>
<g>
	<circle class="st0" cx="641.1" cy="167.6" r="37.3"/>
	<path class="st0" d="M604.3,292.8c-18,14.5-32.7,26.3-79.4-31.8c-46.7-58.1-32-69.8-14-84.3c18-14.5,53.6-0.2,79.4,31.8
		C616.1,240.5,622.4,278.3,604.3,292.8z"/>
</g>
<g>
	<circle class="st0" cx="386.8" cy="80.7" r="44.5"/>
	
		<ellipse transform="matrix(0.7097 -0.7045 0.7045 0.7097 -30.5568 259.7619)" class="st0" cx="299.9" cy="167" rx="44.5" ry="77.9"/>
</g>
<g>
	<circle class="st0" cx="726.2" cy="433.4" r="44.5"/>
	
		<ellipse transform="matrix(0.8577 -0.5142 0.5142 0.8577 -166.8073 390.0833)" class="st0" cx="621.2" cy="496.3" rx="44.5" ry="77.9"/>
</g>
<path class="st1" d="M184.7,282.5l43.8-37.4c14.5-12.4,36.3-10.7,48.7,3.9l29.9,35.1c12.4,14.5,10.7,36.3-3.9,48.7l-43.8,37.4
	 M184.7,282.5l-70.1,59.8C89.7,363.6,70.4,389,57,416.7 M184.7,282.5l74.7,87.6 M259.5,370.1l-70.1,59.8
	c-48.4,41.3-54.2,114-12.9,162.4c16.8,19.7,38.9,32.4,62.4,37.6 M409,545.4l43.8-37.4c14.5-12.4,36.3-10.7,48.7,3.9l29.9,35.1
	c12.4,14.5,10.7,36.3-3.9,48.7l-43.8,37.4 M409,545.4l-70.1,59.8 M409,545.4l74.7,87.6 M483.7,633.1l-70.1,59.8
	c-96.8,82.6-242.2,71-324.8-25.8C55.2,627.6,37.2,580,34.2,532"/>
</svg>
