<?xml version="1.0" encoding="utf-8"?>
<!-- Generator: Adobe Illustrator 25.0.0, SVG Export Plug-In . SVG Version: 6.00 Build 0)  -->
<svg version="1.1" id="Layer_1" xmlns="http://www.w3.org/2000/svg" xmlns:xlink="http://www.w3.org/1999/xlink" x="0px" y="0px"
	 viewBox="0 0 800 800" style="enable-background:new 0 0 800 800;" xml:space="preserve">
<style type="text/css">
	.st0{fill:none;stroke:#000000;stroke-width:35;stroke-linecap:round;stroke-linejoin:round;stroke-miterlimit:133.3333;}
</style>
<g>
	<g>
		<path d="M786.5,342.3l-83.3-34.3c-6-19.7-13.9-38.7-23.6-56.9l34.7-83.3c3.5-8.3,1.6-18-4.9-24.3l-52.6-52.6
			c-6.3-6.3-15.9-8.2-24.3-4.9l-83.3,34.7c-18.3-9.8-37.3-17.6-56.9-23.6l-34.3-83.3C454.4,5.4,446.4,0,437.4,0h-74.5
			c-9,0-17.2,5.4-20.5,13.7L308.1,97c-19.7,6-38.7,13.9-56.9,23.6L167.9,86c-8.3-3.5-18-1.6-24.3,4.9l-52.8,52.6
			c-6.3,6.3-8.2,15.9-4.9,24.3l34.7,83.3c-9.8,18.3-17.6,37.3-23.6,56.9l-83.3,34.3C5.4,345.7,0,353.8,0,362.7v74.5
			c0,9,5.4,17.2,13.7,20.5L97,492.1c6,19.7,13.9,38.7,23.6,56.9L86,632.2c-3.5,8.3-1.6,18,4.9,24.3l52.6,52.6
			c6.3,6.3,15.9,8.3,24.3,4.9l83.3-34.7c18.3,9.8,37.3,17.6,56.9,23.6l34.3,83.3c3.5,8.3,11.5,13.7,20.5,13.7h74.5
			c9,0,17.2-5.4,20.5-13.7l34.3-83.3c19.7-6,38.7-13.9,56.9-23.6l83.3,34.7c8.3,3.5,18,1.6,24.3-4.9l52.6-52.6
			c6.3-6.3,8.2-15.9,4.9-24.3l-34.7-83.3c9.8-18.3,17.6-37.3,23.6-56.9l83.3-34.3c8.3-3.5,13.7-11.5,13.7-20.5v-74.5
			C800.2,353.9,794.8,345.7,786.5,342.3z M755.7,422.4l-79.5,32.8c-6.5,2.7-11.2,8.2-13.1,14.8c-6.1,23.2-15.4,45.5-27.6,66.5
			c-3.5,6-3.9,13.2-1.3,19.7l33.1,79.5l-31.7,31.7l-79.5-33.1c-6.5-2.7-13.7-2.2-19.7,1.3c-20.9,12.1-43.3,21.4-66.5,27.6
			c-6.8,1.7-12.1,6.6-14.8,13.1l-32.8,79.5h-44.7l-32.8-79.5c-2.7-6.5-8.2-11.2-14.8-13.1c-23.2-6.1-45.5-15.4-66.5-27.6
			c-6-3.5-13.2-3.9-19.7-1.3l-79.4,33.1l-31.7-31.7l33.1-79.5c2.7-6.5,2.2-13.7-1.3-19.7c-12.1-20.9-21.4-43.3-27.6-66.5
			c-1.7-6.8-6.6-12.1-13.1-14.8l-79.4-32.8v-44.7l79.2-32.8c6.5-2.7,11.2-8.2,13.1-14.8c6.1-23.2,15.4-45.5,27.6-66.5
			c3.5-6,3.9-13.2,1.3-19.7l-33.1-79.5l31.7-31.7l79.4,33.1c6.5,2.7,13.7,2.2,19.7-1.3c20.9-12.1,43.3-21.4,66.5-27.6
			c6.8-1.7,12.1-6.6,14.8-13.1l32.8-79.5h44.7l32.9,79.5c2.7,6.5,8.2,11.2,14.8,13.1c23.2,6.1,45.5,15.4,66.5,27.6
			c6,3.5,13.2,3.9,19.7,1.3l79.5-33.1l31.7,31.7L634.3,244c-2.7,6.5-2.2,13.7,1.3,19.7c12.1,20.9,21.4,43.3,27.6,66.5
			c1.7,6.8,6.6,12.1,13.1,14.8l79.5,32.8V422.4z"/>
	</g>
</g>
<path class="st0" d="M247,382.6v16.9c0,84.2,68.3,152.5,152.5,152.5c84.2,0,152.5-68.3,152.5-152.5v-16.9 M331.7,314.8l67.8-67.8
	 M399.5,247l67.8,67.8 M399.5,247v203.3"/>
</svg>
