<?xml version="1.0" encoding="utf-8"?>
<!-- Generator: Adobe Illustrator 25.0.0, SVG Export Plug-In . SVG Version: 6.00 Build 0)  -->
<svg version="1.1" id="Layer_1" xmlns="http://www.w3.org/2000/svg" xmlns:xlink="http://www.w3.org/1999/xlink" x="0px" y="0px"
	 viewBox="0 0 500 500" style="enable-background:new 0 0 500 500;" xml:space="preserve">
<path d="M495.69,188.81c-3.2,9.04-9.99,14.38-18.33,18.41c-19.82,9.59-39.47,19.51-59.31,29.05c-3.64,1.75-5.04,3.68-5.02,7.85
	c0.19,35.37,0,70.73,0.21,106.1c0.04,6.05-1.84,10.68-5.76,15.13c-30.56,34.63-68.39,56.83-113.65,65.44
	c-62.28,11.86-120.08,0.88-171.39-37.51c-11.67-8.73-21.67-19.78-31.9-30.28c-2.45-2.51-3.87-7.1-3.9-10.74
	c-0.28-36.48-0.21-72.97-0.1-109.46c0.01-3.29-0.84-5.11-3.95-6.53c-8.39-3.82-16.6-8.06-25.4-12.38c-0.19,1.63-0.44,2.79-0.44,3.94
	c-0.02,24.16-0.07,48.33,0.09,72.49c0.01,1.67,1.08,4.07,2.42,4.87c20.06,12.12,19.92,37.28-0.38,48.88
	c-0.4,0.23-0.72,0.59-1.45,1.19c8.3,26.48,16.63,53.07,25.07,80c-23.77,0-46.9,0-70.63,0c1.76-5.71,3.41-11.15,5.11-16.57
	c6.21-19.81,12.39-39.63,18.73-59.4c0.95-2.96,0.93-4.53-2.18-6.44c-18.11-11.14-17.6-36.41,0.88-46.99
	c2.47-1.41,3.25-2.86,3.25-5.58c-0.09-27.52-0.1-55.05,0.02-82.58c0.01-2.86-1-4.2-3.46-5.37c-5.9-2.81-11.89-5.54-17.4-9.02
	c-9.83-6.2-13.68-15.28-10.79-24.34c2.17-6.81,7.08-11.39,13.27-14.43c16.89-8.31,33.86-16.45,50.84-24.58
	c49.35-23.63,98.68-47.33,148.11-70.8c23.03-10.93,46.29-10.9,69.26,0.31c62.8,30.64,125.51,61.46,188.34,92.05
	c9.25,4.51,17,10.03,19.87,20.53C495.69,184.33,495.69,186.57,495.69,188.81z M22.8,184.4c-0.23,0.7-0.47,1.4-0.7,2.1
	c1.29,0.68,2.55,1.42,3.87,2.03c11.49,5.29,21.69,12.55,36.16,10.29c31.35-4.9,63.01-7.82,94.55-11.55
	c30.43-3.6,60.85-7.24,91.28-10.78c5.99-0.7,10.18,2.31,10.96,7.46c0.76,5-2.57,8.98-8.74,9.85c-8.37,1.18-16.79,2.05-25.19,3.03
	c-40.09,4.72-80.19,9.42-120.28,14.15c-8.09,0.95-16.16,1.98-25.63,3.15c2.74,1.38,4.13,2.11,5.53,2.79
	c46.86,22.53,93.7,45.12,140.6,67.56c18.07,8.65,36.29,8.74,54.41-0.1c42.65-20.81,85.32-41.59,127.96-62.45
	c21.06-10.3,42.1-20.67,63.05-31.2c2.56-1.29,4.55-3.74,6.8-5.65c-2.2-1.91-4.39-3.83-6.62-5.7c-0.48-0.4-1.13-0.59-1.7-0.87
	c-63.32-31-126.62-62.05-189.99-92.95c-17.42-8.49-35.13-8.21-52.69-0.2c-8.56,3.9-16.96,8.15-25.44,12.23
	c-56.48,27.19-112.97,54.36-169.44,81.59C28.49,180.65,25.71,182.65,22.8,184.4z M105.42,246.47c-0.24,1.09-0.36,1.4-0.36,1.71
	c-0.02,33.92-0.07,67.83,0.04,101.75c0.01,1.7,0.9,3.86,2.12,5.02c8.89,8.47,17.27,17.7,27.11,24.91
	c50.64,37.09,106.92,46.27,167.21,31.19c35.73-8.94,65.97-27.74,90.62-55.26c1.69-1.89,2.78-5.03,2.79-7.6
	c0.19-32,0.12-63.99,0.11-95.99c0-1.53-0.13-3.06-0.22-5.26c-2.32,1.1-4.15,1.95-5.96,2.84c-34.22,16.79-68.41,33.65-102.67,50.36
	c-22.54,11-45.35,10.81-67.85,0.21c-35.93-16.91-71.66-34.25-107.48-51.39C109.19,248.15,107.48,247.41,105.42,246.47z"/>
</svg>
