<?xml version="1.0" encoding="utf-8"?>
<!-- Generator: Adobe Illustrator 25.0.0, SVG Export Plug-In . SVG Version: 6.00 Build 0)  -->
<svg version="1.1" id="Layer_1" xmlns="http://www.w3.org/2000/svg" xmlns:xlink="http://www.w3.org/1999/xlink" x="0px" y="0px"
	 viewBox="0 0 500 500" style="enable-background:new 0 0 500 500;" xml:space="preserve">
<path d="M3.78,322.58c3.5-5.29,8.35-7.01,14.69-6.89c17.33,0.33,34.67,0.11,52.01,0.11c9.81,0,12,1.5,15.36,10.78
	c9.95-1.65,19.97-3.31,29.99-4.97c0.3-0.49,0.6-0.98,0.9-1.47c-4.81-4.45-9.81-8.7-14.39-13.37
	c-39.8-40.65-49.83-104.86-24.26-155.71c1.13-2.24,3.28-4.82,5.46-5.42c2.12-0.58,6.14,0.48,7.06,2.1c1.33,2.34,1.69,6.34,0.57,8.76
	c-5.82,12.63-10.13,25.65-11.63,39.49c-4.03,37.21,5.44,70.28,30.81,98.24c6.9,7.6,14.21,14.84,21.59,21.99
	c1.29,1.25,3.94,1.94,5.76,1.65c19.63-3.13,39.25-6.36,58.81-9.87c19.48-3.5,38.65-1.62,57.79,2.43c7.84,1.66,15.85,2.56,23.62,4.5
	c14.85,3.72,26.56,11.66,31.02,27.11c4.81,16.64-5.86,33.09-23.95,36.14c-8.06,1.36-16.6,0.66-24.84-0.03
	c-11.5-0.96-22.93-2.74-34.38-4.26c-7.3-0.97-11.48,1.52-12.61,7.73c-1.02,5.59,2.8,10.07,9.76,11.3
	c22.58,3.98,45.05,8.88,67.79,11.42c10.14,1.13,20.83-2.44,31.24-4.09c1.2-0.19,2.27-1.69,3.27-2.71
	c33.34-34.08,67.28-67.6,99.81-102.44c33.13-35.49,40.21-77.5,26.34-123.49c-0.27-0.88-0.76-1.7-1.15-2.55
	c-53.43,25.82-111.01-7-122.92-58.61c-5.81,2.95-11.93,5.11-16.93,8.79c-10.29,7.58-20.33,15.6-29.84,24.14
	c-10.74,9.64-14.43,10.18-24.45-0.13c-17-17.49-36.32-31.12-60.35-36.86c-32.06-7.66-60.77-1.81-84.69,22.11
	c-3.88,3.88-7.74,4.21-11,1.17c-3.28-3.06-3.04-7.48,0.85-11.41c23.89-24.13,52.98-32.87,86.17-28.26
	c28.99,4.02,53.31,17.65,74.01,38.01c2.28,2.24,4.22,4.84,6.49,7.47c4.21-4.01,7.65-7.32,11.13-10.6
	c12.63-11.92,27-21.15,43.19-27.41c2.9-1.12,3.8-2.47,3.81-5.51c0.02-12.51,2.62-24.51,8.03-35.84c2.54-5.33,5.99-7.13,10.13-5.33
	c4.31,1.87,5.34,5.89,2.94,11.38c-18.23,41.67,3.6,87.8,46.89,99.11c39.33,10.28,79.36-15.05,87.55-55.39
	c8.03-39.56-19.75-78.49-59.94-84.02c-19.19-2.64-36.59,1.84-52.25,13.19c-0.78,0.56-1.53,1.17-2.35,1.67
	c-3.87,2.36-7.85,1.72-10.19-1.62c-2.19-3.12-1.89-7.51,1.67-9.79c7.26-4.64,14.51-9.67,22.46-12.77
	c39.35-15.37,83.46,0.31,104.65,36.62c21.1,36.18,13.08,81.89-19.3,108.84c-2.64,2.19-2.73,3.86-1.78,6.86
	c17.25,54.02,7.77,102.29-31.82,143.62c-26.54,27.7-53.57,54.93-80.38,82.38c-1.09,1.11-2.08,2.31-3.93,4.37
	c12.3-2.39,23.43-4.53,34.55-6.73c7.7-1.53,15.32-3.58,23.08-4.57c4.83-0.61,10.02-0.36,14.78,0.69
	c19.28,4.27,27.32,23.81,17.07,40.91c-5.49,9.16-13.96,14.29-23.91,17.47c-38,12.14-75.97,24.38-113.98,36.52
	c-9.61,3.07-19.27,6-28.96,8.82c-18.57,5.41-37,4.37-55.52-0.76c-42.16-11.69-84.4-23.07-126.61-34.56
	c-0.9-0.25-1.85-0.33-2.72-0.48c-3.54,9.04-5.8,10.56-15.42,10.56c-17.66,0-35.32-0.13-52.97,0.07c-6.26,0.07-10.92-1.91-13.66-7.7
	C3.78,411.2,3.78,366.89,3.78,322.58z M85.1,436.77c1.3,0.5,2.31,0.99,3.38,1.28c44.35,12.11,88.71,24.2,133.06,36.29
	c14.69,4.01,29.56,4.94,44.17,0.36c49.06-15.37,98.05-30.98,146.95-46.89c4.41-1.43,8.76-5.02,11.63-8.76
	c6.96-9.07,2.78-18.69-8.45-20.58c-2.96-0.5-6.11-0.6-9.06-0.16c-5.06,0.75-10.02,2.14-15.04,3.14
	c-24.21,4.79-48.38,9.77-72.66,14.17c-10.02,1.82-20.52,4.33-30.38,3.09c-24.14-3.04-48.09-7.72-71.98-12.45
	c-12.71-2.52-19.96-15.05-17.51-27.94c2.43-12.75,13.18-20.54,26.43-18.96c11.3,1.34,22.56,3.2,33.89,4.19
	c7.91,0.69,16.17,1.6,23.82,0.11c12.73-2.48,16.23-15.39,7.65-25.22c-4.95-5.67-11.39-8.67-18.73-9.97
	c-6.63-1.17-13.27-2.29-19.86-3.66c-17.37-3.6-34.75-5.78-52.5-2.72c-36.8,6.34-73.64,12.52-110.49,18.54
	c-3.56,0.58-4.39,1.82-4.37,5.16c0.13,21.5,0.07,43.01,0.07,64.51C85.1,419.11,85.1,427.93,85.1,436.77z M70.48,330.63
	c-17.65,0-34.85,0-51.98,0c0,39.45,0,78.52,0,117.65c17.45,0,34.63,0,51.98,0C70.48,408.91,70.48,369.96,70.48,330.63z"/>
<path d="M269.25,210.64c-8.97,15.66-17.56,30.69-26.17,45.7c-4.88,8.5-10.42,8.57-15.69,0.22c-5.02-7.95-10.02-15.92-15.52-24.65
	c-4.19,6.96-8.09,13.14-11.68,19.5c-2.31,4.1-5.45,5.78-10.18,5.71c-13.48-0.2-26.96-0.05-40.44-0.08c-6.02-0.01-9.23-2.66-9.14-7.4
	c0.09-4.56,3.17-7.01,9.01-7.03c11.88-0.03,23.76,0.11,35.63-0.14c1.78-0.04,4.21-1.41,5.18-2.91c4.96-7.67,9.5-15.61,14.26-23.41
	c4.33-7.08,9.96-7.11,14.46-0.07c5.24,8.18,10.39,16.42,15.94,25.2c1.35-2.24,2.33-3.83,3.26-5.45
	c7.97-13.91,15.89-27.85,23.91-41.73c4.45-7.7,10.54-7.64,14.84,0.17c11.21,20.36,22.36,40.76,33.54,61.14
	c0.83,1.52,1.76,2.98,2.91,4.93c5.94-9.97,11.74-19.37,17.18-28.97c2.51-4.43,5.74-6.22,10.88-6.16c18.29,0.24,36.59,0.08,54.89,0.1
	c6.15,0,9.34,2.47,9.36,7.15c0.02,4.69-3.21,7.27-9.28,7.28c-16.21,0.03-32.42,0.17-48.63-0.1c-4.13-0.07-6.22,1.32-8.19,4.81
	c-6.15,10.89-12.67,21.56-19.12,32.28c-4.6,7.65-10.6,7.57-14.88-0.2c-11.06-20.08-22.05-40.2-33.08-60.29
	C271.56,214.55,270.57,212.92,269.25,210.64z"/>
<path d="M404.17,85c0-7.05-0.05-13.28,0.01-19.51c0.06-5.84,2.57-8.85,7.16-8.83c4.6,0.02,7.15,3.04,7.24,8.86
	c0.09,6.23,0.02,12.47,0.02,19.47c5.56,0,10.79-0.02,16.01,0.01c2.08,0.01,4.2-0.07,6.23,0.28c4.03,0.69,6.27,3.22,6.06,7.36
	c-0.2,4.14-2.67,6.53-6.76,6.69c-5.61,0.22-11.22,0.07-16.84,0.12c-1.4,0.01-2.81,0.16-4.7,0.28c0,5.9,0.02,11.48-0.01,17.07
	c-0.01,1.76,0.04,3.56-0.31,5.26c-0.82,4.02-3.48,6.18-7.55,5.86c-3.8-0.3-6.27-2.64-6.43-6.54c-0.23-5.93-0.26-11.87-0.09-17.8
	c0.09-3.07-0.8-4.33-4.05-4.2c-5.44,0.22-10.9,0.13-16.36,0.03c-5.04-0.09-8.05-2.72-8.2-6.88c-0.15-4.34,2.95-7.35,8.18-7.48
	C390.35,84.87,396.91,85,404.17,85z"/>
</svg>
