<?xml version="1.0" encoding="utf-8"?>
<!-- Generator: Adobe Illustrator 25.0.0, SVG Export Plug-In . SVG Version: 6.00 Build 0)  -->
<svg version="1.1" id="Layer_1" xmlns="http://www.w3.org/2000/svg" xmlns:xlink="http://www.w3.org/1999/xlink" x="0px" y="0px"
	 viewBox="0 0 200 73" style="enable-background:new 0 0 200 73;" xml:space="preserve">
<style type="text/css">
	.sthmh0{fill:#33475B;}
	.sthmh1{fill:#FF7A59;}
</style>
<g id="Layer_1_1_">
	<g>
		<path class="sthmh0" d="M58.5,14.5V23h-7.8v-8.5H47v20.2h3.7v-8.2h7.8v8.2h3.7V14.5H58.5z M74,28.2c0,1.7-1.4,3.1-3.1,3.1
			s-3.1-1.4-3.1-3.1v-8.7h-3.5v8.7c0,3.6,2.9,6.6,6.6,6.6c3.6,0,6.6-2.9,6.6-6.6v-8.7H74V28.2z M100,20.4c0-1.8,1.2-2.3,2.5-2.3
			c1,0,2.4,0.8,3.3,1.7l2.3-2.7c-1.2-1.6-3.5-2.6-5.5-2.6c-3.8,0-6.6,2.2-6.6,5.9c0,6.9,8.4,4.7,8.4,8.5c0,1.2-1.1,2.2-2.5,2.2
			c-2.1,0-2.7-1-3.7-2.1l-2.4,2.7c1.6,2,3.6,3,6,3c3.6,0,6.5-2.3,6.5-5.8C108.3,21.2,100,23.7,100,20.4 M151.8,31.5
			c-2.1,0-2.7-0.9-2.7-2.3v-6.1h3.2V20h-3.2v-4.1l-3.6,1.6v12.4c0,3.2,2.2,4.8,5.2,4.8c0.5,0,0.9,0,1.4-0.1l0.9-3.2
			C152.6,31.4,152.1,31.5,151.8,31.5 M87.3,19.6c-1.7,0-2.9,0.5-4.1,1.7v-6.7h-3.5v12.3c0,4.6,3.3,7.8,7.1,7.8
			c4.2,0,7.8-3.2,7.8-7.6C94.6,22.9,91.3,19.6,87.3,19.6 M87.3,31.2c-2.2,0-4-1.8-4-4s1.8-4,4-4s4,1.8,4,4S89.5,31.2,87.3,31.2
			L87.3,31.2 M125.5,27c0-4.3-3.7-7.6-7.8-7.6c-3.8,0-7.1,3.2-7.1,7.8v12.4h3.5v-6.7c1.2,1.1,2.4,1.7,4.1,1.7
			C122.1,34.5,125.4,31.2,125.5,27 M122.1,26.9c0,2.2-1.8,4-4,4s-4-1.8-4-4l0,0c0-2.2,1.8-4,4-4C120.3,23,122.1,24.7,122.1,26.9"/>
		<path class="sthmh1" d="M136.8,19.2v-3.5c1-0.4,1.6-1.4,1.6-2.4v-0.2c0-1.5-1.2-2.7-2.7-2.7h-0.1c-1.5,0-2.7,1.2-2.7,2.7l0,0v0.1
			c0,1.1,0.6,2,1.6,2.4v3.5c-1.3,0.2-2.6,0.8-3.7,1.6l-9.7-7.5c0.1-0.2,0.1-0.5,0.1-0.8c0-1.7-1.4-3.1-3.1-3.1s-3.1,1.4-3.1,3.1
			s1.4,3.1,3.1,3.1l0,0c0.5,0,1-0.1,1.5-0.4l9.5,7.4c-1.8,2.6-1.7,6.1,0.1,8.7l-2.9,2.9c-0.2-0.1-0.5-0.1-0.7-0.1
			c-1.4,0-2.5,1.1-2.5,2.5s1.1,2.5,2.5,2.5s2.5-1.1,2.5-2.5c0-0.2,0-0.5-0.1-0.7l2.9-2.9c3.4,2.6,8.2,2,10.8-1.4s2-8.2-1.4-10.8
			C139.3,20,138.1,19.4,136.8,19.2 M135.6,30.9c-2.2,0.1-4-1.7-4.1-3.9s1.7-4,3.9-4.1c0.1,0,0.1,0,0.2,0c2.2,0.1,3.9,1.9,3.8,4.1
			C139.4,29.1,137.7,30.8,135.6,30.9"/>
	</g>
	<g>
		<path class="sthmh0" d="M35.5,41.9v15.9h-1.6V45l-5.7,12.7H27l-5.7-12.6v12.6h-1.5V41.9h1.7l6.1,13.8l6.2-13.8H35.5z"/>
		<path class="sthmh0" d="M39.2,48c0.5-1,1.2-1.7,2.1-2.3c0.9-0.5,1.9-0.8,3.1-0.8c1.2,0,2.2,0.3,3.1,0.8c0.9,0.6,1.5,1.3,1.9,2.1V45
			H51v12.6h-1.6v-2.8c-0.4,0.9-1,1.6-1.9,2.1c-0.9,0.6-1.9,0.8-3.1,0.8c-1.1,0-2.2-0.3-3.1-0.8c-0.9-0.5-1.6-1.3-2.1-2.3
			s-0.8-2.1-0.8-3.4S38.7,49,39.2,48z M48.8,48.8c-0.4-0.8-1-1.4-1.7-1.8c-0.7-0.4-1.5-0.6-2.4-0.6S43,46.6,42.3,47s-1.3,1-1.7,1.7
			c-0.4,0.8-0.6,1.7-0.6,2.7s0.2,1.9,0.6,2.7c0.4,0.8,1,1.4,1.7,1.8c0.7,0.4,1.5,0.6,2.4,0.6s1.6-0.2,2.4-0.6c0.7-0.4,1.3-1,1.7-1.8
			s0.6-1.7,0.6-2.7C49.4,50.5,49.2,49.5,48.8,48.8z"/>
		<path class="sthmh0" d="M57.9,45.5c0.7-0.4,1.6-0.6,2.7-0.6v1.7h-0.4c-1.2,0-2.1,0.3-2.8,0.9s-1.1,1.7-1.1,3.2v7h-1.6V45.2h1.6v2.2
			C56.6,46.5,57.2,46,57.9,45.5z"/>
		<path class="sthmh0" d="M69.8,57.7l-5.2-5.6v5.6H63v-17h1.6v10.1l5.1-5.6H72l-6,6.3l6,6.3h-2.2V57.7z"/>
		<path class="sthmh0" d="M85.3,52H74.9c0,1,0.3,1.8,0.7,2.4c0.4,0.7,1,1.2,1.6,1.5c0.7,0.3,1.4,0.5,2.2,0.5c1,0,1.9-0.3,2.6-0.8
			s1.2-1.2,1.4-2h1.7c-0.3,1.2-1,2.2-2,3s-2.3,1.2-3.8,1.2c-1.2,0-2.2-0.3-3.2-0.8c-0.9-0.5-1.7-1.3-2.2-2.3s-0.8-2.1-0.8-3.4
			c0-1.3,0.3-2.4,0.8-3.4s1.2-1.7,2.2-2.3s2-0.8,3.2-0.8s2.2,0.3,3.1,0.8s1.6,1.2,2.1,2.1s0.7,1.9,0.7,2.9
			C85.4,51.4,85.4,51.8,85.3,52z M83.2,48.4c-0.4-0.7-0.9-1.2-1.6-1.5s-1.4-0.5-2.2-0.5c-1.2,0-2.2,0.4-3.1,1.2
			c-0.8,0.8-1.3,1.8-1.4,3.2h8.9C83.8,49.8,83.6,49,83.2,48.4z"/>
		<path class="sthmh0" d="M90.4,46.5v7.8c0,0.8,0.1,1.3,0.4,1.6s0.8,0.4,1.5,0.4h1.5v1.4h-1.7c-1.1,0-2-0.3-2.5-0.8s-0.8-1.4-0.8-2.6
			v-7.8h-1.7V45h1.7v-3.2h1.6V45h3.4v1.4L90.4,46.5L90.4,46.5z"/>
		<path class="sthmh0" d="M96.5,42.5c-0.2-0.2-0.3-0.5-0.3-0.9c0-0.3,0.1-0.6,0.3-0.8c0.2-0.2,0.5-0.3,0.8-0.3s0.6,0.1,0.8,0.3
			c0.2,0.2,0.3,0.5,0.3,0.8s-0.1,0.6-0.3,0.9c-0.2,0.2-0.5,0.3-0.8,0.3S96.7,42.7,96.5,42.5z M98.1,45.2v12.6h-1.6V45.2H98.1z"/>
		<path class="sthmh0" d="M111.4,46.2c1,0.9,1.4,2.3,1.4,4v7.4h-1.6v-7.2c0-1.4-0.3-2.4-1-3.1c-0.7-0.7-1.6-1.1-2.8-1.1
			c-1.2,0-2.2,0.4-2.9,1.1c-0.7,0.8-1.1,1.9-1.1,3.4v6.9h-1.6V45.2h1.6v2.1c0.4-0.8,1-1.4,1.7-1.8s1.6-0.6,2.6-0.6
			C109.2,45,110.4,45.4,111.4,46.2z"/>
		<path class="sthmh0" d="M124.7,45.8c0.9,0.6,1.5,1.2,1.9,2.1v-2.7h1.6V58c0,1.1-0.2,2.2-0.7,3.1c-0.5,0.9-1.2,1.6-2.1,2.1
			s-1.9,0.7-3,0.7c-1.6,0-2.9-0.4-4-1.2s-1.7-1.8-2-3.1h1.6c0.3,0.9,0.8,1.6,1.6,2.1c0.8,0.5,1.7,0.8,2.8,0.8c0.8,0,1.5-0.2,2.2-0.5
			c0.6-0.3,1.2-0.9,1.5-1.5c0.4-0.7,0.6-1.5,0.6-2.4V55c-0.4,0.9-1,1.6-1.9,2.1s-1.9,0.8-3.1,0.8s-2.2-0.3-3.1-0.8s-1.6-1.3-2.1-2.3
			s-0.8-2.1-0.8-3.4s0.3-2.4,0.8-3.4s1.2-1.7,2.1-2.3c0.9-0.5,1.9-0.8,3.1-0.8C122.8,45,123.8,45.2,124.7,45.8z M126,48.8
			c-0.4-0.8-1-1.4-1.7-1.8s-1.5-0.6-2.4-0.6s-1.7,0.2-2.4,0.6c-0.7,0.4-1.3,1-1.7,1.7c-0.4,0.8-0.6,1.7-0.6,2.7s0.2,1.9,0.6,2.7
			s1,1.4,1.7,1.8s1.5,0.6,2.4,0.6s1.6-0.2,2.4-0.6s1.3-1,1.7-1.8c0.4-0.8,0.6-1.7,0.6-2.7C126.6,50.5,126.4,49.5,126,48.8z"/>
		<path class="sthmh0" d="M150.1,41.7v16.1h-1.6v-7.5h-8.7v7.5h-1.6V41.7h1.6v7.2h8.7v-7.2H150.1z"/>
		<path class="sthmh0" d="M164.7,45.2v12.6h-1.6v-2.3c-0.4,0.8-0.9,1.4-1.7,1.8c-0.8,0.4-1.6,0.6-2.6,0.6c-1.5,0-2.7-0.5-3.7-1.4
			s-1.4-2.3-1.4-4v-7.3h1.6v7.2c0,1.4,0.3,2.4,1,3.1c0.7,0.7,1.6,1.1,2.8,1.1s2.2-0.4,2.9-1.1c0.7-0.8,1.1-1.9,1.1-3.4v-6.8
			L164.7,45.2L164.7,45.2z"/>
		<path class="sthmh0" d="M171.9,45.8c0.9-0.6,1.9-0.8,3.1-0.8c1.2,0,2.2,0.3,3.1,0.8c0.9,0.5,1.6,1.3,2.1,2.3s0.8,2.1,0.8,3.4
			s-0.3,2.4-0.8,3.4s-1.2,1.7-2.1,2.3c-0.9,0.5-1.9,0.8-3.1,0.8c-1.2,0-2.2-0.3-3.1-0.8c-0.9-0.5-1.5-1.3-1.9-2.1v2.8h-1.6v-17h1.6
			v7.2C170.4,47,171,46.4,171.9,45.8z M178.7,48.7c-0.4-0.8-1-1.3-1.7-1.7s-1.5-0.6-2.4-0.6s-1.6,0.2-2.4,0.6s-1.3,1-1.7,1.8
			s-0.6,1.7-0.6,2.7s0.2,1.9,0.6,2.7c0.4,0.8,1,1.4,1.7,1.8s1.5,0.6,2.4,0.6s1.7-0.2,2.4-0.6c0.7-0.4,1.3-1,1.7-1.8s0.6-1.7,0.6-2.7
			C179.3,50.4,179.1,49.5,178.7,48.7z"/>
	</g>
</g>
</svg>
