<?xml version="1.0" encoding="utf-8"?>
<!-- Generator: Adobe Illustrator 25.0.0, SVG Export Plug-In . SVG Version: 6.00 Build 0)  -->
<svg version="1.1" id="Layer_1" xmlns="http://www.w3.org/2000/svg" xmlns:xlink="http://www.w3.org/1999/xlink" x="0px" y="0px"
	 viewBox="0 0 800 800" style="enable-background:new 0 0 800 800;" xml:space="preserve">
<style type="text/css">
	.st0{fill:none;stroke:#000000;stroke-width:25;stroke-linecap:round;stroke-linejoin:round;stroke-miterlimit:133.3333;}
</style>
<g>
	<path class="st0" d="M584.7,687.4c-8.7,0-16.1-6.5-17.6-15.3c-1.3-7.1-6.3-13-13-15.2c-5.5-1.9-10.9-4.2-16.1-6.8
		c-6.2-3.3-13.6-2.8-19.4,1.3c-7,5.1-16.5,4.3-22.6-1.9l-23.6-24.2c-6.3-6.5-7.2-16.8-1.9-24.2c4-6,4.6-13.8,1.5-20.4
		c-2-4.6-3.8-9.3-5.4-14c-2.2-7.5-8.3-13.2-15.8-14.6c-9.1-1.5-15.8-9.5-15.8-18.9v-30.2c0-10.9,7.6-20.2,18.1-21.9
		c7.9-1.5,14.6-7.1,17.6-14.8c0.9-2.2,1.9-4.3,2.9-6.4c4-8,3.5-17.5-1.4-25c-6.2-8.8-5.2-20.8,2.2-28.5l17.3-17.8
		c8.5-8.8,22-9.9,31.8-2.7l0.5,0.4c7.3,5.1,16.7,6,24.8,2.4c8.7-3.2,15.1-10.9,16.9-20.2l0.2-0.8c2-12.3,12.3-21.4,24.5-21.4h20.9
		c12.5,0,23.2,9.3,25.2,21.9l0.4,1.7c1.7,8.9,7.8,16.3,16.1,19.5c8,3.5,17.2,2.6,24.4-2.4l1.2-0.9c10.1-7.4,23.9-6.3,32.7,2.7
		l15.9,16.4c8,8.2,9,21.2,2.4,30.6c-5.2,7.9-5.8,18-1.7,26.5l1,2.4c3.3,8.3,10.5,14.4,19.2,16c11.3,1.9,19.5,11.8,19.6,23.5v27.1
		c0,10.3-7.3,19.1-17.2,20.8c-8.2,1.6-14.8,7.7-17.3,15.8c-1.1,3.2-2.3,6.5-3.7,9.7c-3.2,7.1-2.5,15.5,1.9,21.9
		c5.7,8.1,4.8,19.3-2.1,26.4l-22.1,22.7c-6.3,6.5-16.3,7.3-23.6,2c-6.1-4.3-13.9-4.7-20.4-1.2c-4.6,2.4-9.4,4.4-14.3,6.3
		c-6.8,2.4-11.8,8.4-13.1,15.6c-1.4,9.1-9,15.9-18,15.9H584.7z"/>
	<path class="st0" d="M656.8,516.8c0,31.4-24.8,56.9-55.4,56.9s-55.4-25.5-55.4-56.9c0-31.4,24.8-56.9,55.4-56.9
		S656.8,485.4,656.8,516.8z"/>
	<path class="st0" d="M601.4,64.9v273.9 M601.4,64.9l-97.5,97.5 M601.4,64.9l97.5,97.5"/>
</g>
<g>
	<path class="st0" d="M183.6,687.4c-8.7,0-16.1-6.5-17.6-15.3c-1.3-7.1-6.3-13-13-15.2c-5.5-1.9-10.9-4.2-16.1-6.8
		c-6.2-3.3-13.6-2.8-19.4,1.3c-7,5.1-16.5,4.3-22.6-1.9l-23.6-24.2c-6.3-6.5-7.2-16.8-1.9-24.2c4-6,4.6-13.8,1.5-20.4
		c-2-4.6-3.8-9.3-5.4-14c-2.2-7.5-8.3-13.2-15.8-14.6c-9.1-1.5-15.8-9.5-15.8-18.9v-30.2c0-10.9,7.6-20.2,18.1-21.9
		c7.9-1.5,14.6-7.1,17.6-14.8c0.9-2.2,1.9-4.3,2.9-6.4c4-8,3.5-17.5-1.4-25c-6.2-8.8-5.2-20.8,2.2-28.5l17.3-17.8
		c8.5-8.8,22-9.9,31.8-2.7l0.5,0.4c7.3,5.1,16.7,6,24.8,2.4c8.7-3.2,15.1-10.9,16.9-20.2l0.2-0.8c2-12.3,12.3-21.4,24.5-21.4h20.9
		c12.5,0,23.2,9.3,25.2,21.9l0.4,1.7c1.7,8.9,7.8,16.3,16.1,19.5c8,3.5,17.2,2.6,24.4-2.4l1.2-0.9c10.1-7.4,23.9-6.3,32.7,2.7
		l15.9,16.4c8,8.2,9,21.2,2.4,30.6c-5.2,7.9-5.8,18-1.7,26.5l1,2.4c3.3,8.3,10.5,14.4,19.2,16c11.3,1.9,19.5,11.8,19.6,23.5v27.1
		c0,10.3-7.3,19.1-17.2,20.8c-8.2,1.6-14.8,7.7-17.3,15.8c-1.1,3.2-2.3,6.5-3.7,9.7c-3.2,7.1-2.5,15.5,1.9,21.9
		c5.7,8.1,4.8,19.3-2.1,26.4L306,648.8c-6.3,6.5-16.3,7.3-23.6,2c-6.1-4.3-13.9-4.7-20.4-1.2c-4.6,2.4-9.4,4.4-14.3,6.3
		c-6.8,2.4-11.8,8.4-13.1,15.6c-1.4,9.1-9,15.9-18,15.9H183.6z"/>
	<path class="st0" d="M255.7,516.8c0,31.4-24.8,56.9-55.4,56.9s-55.4-25.5-55.4-56.9c0-31.4,24.8-56.9,55.4-56.9
		S255.7,485.4,255.7,516.8z"/>
	<path class="st0" d="M200.2,64.9v273.9 M200.2,64.9l-97.5,97.5 M200.2,64.9l97.5,97.5"/>
</g>
</svg>
