<?xml version="1.0" encoding="utf-8"?>
<!-- Generator: Adobe Illustrator 25.0.0, SVG Export Plug-In . SVG Version: 6.00 Build 0)  -->
<svg version="1.1" id="Layer_1" xmlns="http://www.w3.org/2000/svg" xmlns:xlink="http://www.w3.org/1999/xlink" x="0px" y="0px"
	 viewBox="0 0 800 800" style="enable-background:new 0 0 800 800;" xml:space="preserve">
<style type="text/css">
	.stindu{fill:#204593;}
</style>
<path class="stindu" d="M548.4,172.3v-58.1c0-10.5,8.5-19,19-19h116.2c10.5,0,19,8.5,19,19v58.1c0,7.4-4.3,13.9-10.5,17v126.1
	c0,10.5-8.5,19-19,19c-10.5,0-19-8.5-19-19V172.3c0-7.4,4.3-13.9,10.5-17v-22h-78.1v22c6.2,3.1,10.5,9.6,10.5,17v115.9
	c0,10.5-8.5,19-19,19c-10.5,0-19-8.5-19-19v-98.9C552.6,186.2,548.4,179.8,548.4,172.3L548.4,172.3z M596.6,59.6
	c8.5,6.2,20.4,4.3,26.6-4.2c12-16.5,20.6-14.7,49.4-0.9c20.8,10,44.7,21.5,71,21.5c15.2,0,31.1-3.9,47.5-14.1
	c8.9-5.5,11.7-17.3,6.1-26.2c-5.5-8.9-17.3-11.7-26.2-6.1c-25.9,16.1-48,6.9-82-9.4c-14.1-6.8-28.6-13.8-44.7-14.6
	c-20.4-1.1-37.9,8.1-51.9,27.4C586.2,41.6,588.1,53.5,596.6,59.6L596.6,59.6z M800,781c0,10.5-8.5,19-19,19H19c-10.5,0-19-8.5-19-19
	c0-10.5,8.5-19,19-19h28.6V447.3c0-10.5,8.5-19,19-19h44.3l11.8-103.7h-13.8c-10.5,0-19-8.5-19-19s8.5-19,19-19H127l7.1-62.2h-67
	c-1.2,0-2.5-0.1-3.8-0.3c-2.2-0.4-4.3-1.2-6.2-2.2c-2.5-1.4-8.1-6.6-9.2-13.1c-0.4-2.2-0.4-4.4,0-6.7c0.2-1.2,0.6-2.5,1-3.6
	l36.2-99.4c0.4-1.2,1.1-2.3,1.5-3.4c3.4-8.1,8.5-8.8,13.2-9.2c1.3-0.1,2.5-0.3,3.8-0.3h46.3l7.9-69.1C158.8,7.3,166.9,0,176.6,0
	h49.5c9.7,0,17.8,7.3,18.9,16.9l7.9,69.1h46.3c1.3,0,2.6,0.1,3.8,0.3c7.2,1.3,11,4.8,13.1,9.2c0.5,1.1,1.2,2.2,1.6,3.4l36.2,99.4
	c0.4,1.1,0.8,2.3,1,3.6c0.4,2.3,0.3,4.5,0,6.7c-0.6,4.4-3.6,9.9-9.2,13.1c-1.9,1.1-4,1.9-6.3,2.3c-1.2,0.2-2.5,0.3-3.7,0.3h-67
	l7.1,62.2h18.1c10.5,0,19,8.5,19,19c0,10.5-8.5,19-19,19H280l11.8,103.7h76.5V302.5c0-6,2.8-11.6,7.6-15.2
	c4.8-3.6,10.9-4.7,16.7-3.1L726,379.5c8.2,2.3,13.8,9.8,13.8,18.3V762H781C791.5,762,800,770.5,800,781L800,781z M188.1,85.9h26.5
	L209.2,38h-15.6L188.1,85.9L188.1,85.9z M176.7,186.2H226l-7.1-62.2h-35.1L176.7,186.2L176.7,186.2z M165.3,286.5h72.1l-7.1-62.2
	h-57.9L165.3,286.5z M138.4,186.2l7.1-62.2h-29.1l-22.6,62.2H138.4L138.4,186.2z M154.3,466.3h-26.2c-0.2,0-0.3,0-0.5,0h-42V762
	h68.7V466.3z M173.3,428.2h80.2l-11.8-103.7H161l-11.8,103.7H173.3L173.3,428.2z M261.7,466.3h-69.3V762h69.3V466.3z M264.3,186.2
	h44.6L286.3,124h-29.1L264.3,186.2z M368.4,466.3h-68.6V762h68.6V466.3z M701.7,412.1l-295.3-84.4V762h295.3V412.1L701.7,412.1z
	 M467.9,657.1h172.4c10.5,0,19-8.5,19-19c0-10.5-8.5-19-19-19H467.9c-10.5,0-19,8.5-19,19C448.9,648.6,457.4,657.1,467.9,657.1z
	 M467.9,561.9h172.4c10.5,0,19-8.5,19-19c0-10.5-8.5-19-19-19H467.9c-10.5,0-19,8.5-19,19C448.9,553.4,457.4,561.9,467.9,561.9z"/>
</svg>
