<?xml version="1.0" encoding="utf-8"?>
<!-- Generator: Adobe Illustrator 25.0.0, SVG Export Plug-In . SVG Version: 6.00 Build 0)  -->
<svg version="1.1" id="Capa_1" xmlns="http://www.w3.org/2000/svg" xmlns:xlink="http://www.w3.org/1999/xlink" x="0px" y="0px"
	 viewBox="0 0 800 800" style="enable-background:new 0 0 800 800;" xml:space="preserve">
<g>
	<g>
		<path d="M426.7,40h-13.3C406,40,400,46,400,53.3s6,13.3,13.3,13.3h13.3c7.4,0,13.3-6,13.3-13.3S434,40,426.7,40z"/>
		<path d="M641.4,0H158.6c-28.7,0-52,23.7-52,52.8V80v613.3v53.9c0,29.1,23.3,52.8,52,52.8h482.7c28.7,0,52-23.7,52-52.8v-53.9V80
			V52.8C693.3,23.7,670,0,641.4,0z M413.3,760c-14.7,0-26.7-12-26.7-26.7s12-26.7,26.7-26.7c14.7,0,26.7,12,26.7,26.7
			S428,760,413.3,760z M133.3,106.7h533.3v560H133.3V106.7z M133.3,747.2v-53.9h245.1c-11.2,9.8-18.4,24-18.4,40s7.2,30.2,18.4,40
			H158.6C144.7,773.3,133.3,761.6,133.3,747.2z M666.7,747.2c0,14.4-11.4,26.1-25.3,26.1H448.2c11.2-9.8,18.4-24,18.4-40
			s-7.2-30.2-18.4-40h218.4V747.2z M133.3,80V52.8c0-14.4,11.4-26.1,25.3-26.1h482.7c14,0,25.3,11.7,25.3,26.1V80H133.3z"/>
		<path d="M304.5,297.8c-4.9-4-12.1-3.3-16.1,1.6l-67.9,83.2c-3.3,4.1-3.5,9.9-0.2,14.1l67.9,89.2c2.2,2.9,5.6,4.5,9.1,4.5
			c2.4,0,4.8-0.8,6.9-2.3c5-3.8,6-11,2.1-16l-62.5-82l62.2-76.3C310.2,309,309.4,301.8,304.5,297.8z"/>
		<path d="M512.8,299.8c-3.8-5-11-6-16-2.1c-5,3.8-6,11-2.1,16l62.5,82l-62.2,76.3c-4,4.9-3.3,12.1,1.6,16.1
			c2.1,1.7,4.7,2.6,7.2,2.6c3.3,0,6.6-1.4,8.9-4.2l67.9-83.2c3.3-4.1,3.5-9.9,0.2-14.1L512.8,299.8z"/>
		<path d="M363.2,282.5c-2.3-5.9-9-8.7-14.8-6.4c-5.9,2.3-8.7,9-6.4,14.8l90.5,227.6c1.8,4.5,6.1,7.2,10.6,7.2
			c1.4,0,2.8-0.3,4.2-0.8c5.9-2.3,8.7-9,6.4-14.8L363.2,282.5z"/>
	</g>
</g>
</svg>
