<?xml version="1.0" encoding="utf-8"?>
<!-- Generator: Adobe Illustrator 25.0.0, SVG Export Plug-In . SVG Version: 6.00 Build 0)  -->
<svg version="1.1" id="Layer_1" xmlns="http://www.w3.org/2000/svg" xmlns:xlink="http://www.w3.org/1999/xlink" x="0px" y="0px"
	 viewBox="0 0 800 800" style="enable-background:new 0 0 800 800;" xml:space="preserve">
<style type="text/css">
	.st0{fill:#06ABE1;}
</style>
<g>
	<path class="st0" d="M763.7,775.4H622.9c-3.2,0-5.9-2.6-5.9-5.9v-19.4c0-14.4,9.5-19.1,18.3-22.4c10-3.8,20.8-10,22.9-12.6
		c0.6-3.2,3.7-5.2,6.9-4.6c2.7,0.5,4.7,2.9,4.7,5.7c0,10.2-23.3,19.8-30.4,22.4c-9.2,3.5-10.7,5.8-10.7,11.5v13.5h129v-13.5
		c0-5.7-1.5-8-10.7-11.4c-5.1-1.9-30.3-11.9-30.3-22.4c0-3.2,2.6-5.9,5.9-5.9c0,0,0,0,0,0c2.8,0,5.2,2,5.8,4.7
		c2.1,2.6,12.8,8.8,22.8,12.6c8.9,3.3,18.3,8,18.3,22.4v19.4C769.6,772.8,766.9,775.4,763.7,775.4
		C763.7,775.4,763.7,775.4,763.7,775.4L763.7,775.4z"/>
	<path class="st0" d="M693.3,728.5c-20,0-46.9-27.8-46.9-56.2c0-28.1,20.2-49.4,46.9-49.4c27.2,0,46.9,20.8,46.9,49.4
		C740.2,700.7,713.4,728.5,693.3,728.5z M693.3,634.6c-20.4,0-35.2,15.8-35.2,37.6c0,23.9,23.6,44.5,35.2,44.5
		c11.6,0,35.2-20.6,35.2-44.5C728.5,650.5,713.7,634.6,693.3,634.6z"/>
	<path class="st0" d="M722.6,722.2c-3.2,0-5.9-2.6-5.9-5.9c0,0,0,0,0,0v-12.6c0-3.2,2.6-5.9,5.9-5.9c0,0,0,0,0,0
		c3.2,0,5.9,2.6,5.9,5.9v12.6C728.5,719.5,725.9,722.2,722.6,722.2C722.6,722.2,722.6,722.2,722.6,722.2z M664,722.2
		c-3.2,0-5.9-2.6-5.9-5.9v-12.6c0-3.2,2.6-5.9,5.9-5.9s5.9,2.6,5.9,5.9v12.6C669.9,719.5,667.2,722.2,664,722.2
		C664,722.2,664,722.2,664,722.2z M177.1,775.4H36.3c-3.2,0-5.9-2.6-5.9-5.9v-19.4c0-14.4,9.5-19.1,18.3-22.4
		c10-3.8,20.8-10,22.9-12.6c0.5-2.7,3-4.7,5.8-4.7c3.2,0,5.9,2.6,5.9,5.9c0,10.3-23.3,19.8-30.4,22.4c-9.2,3.5-10.7,5.8-10.7,11.5
		v13.5h129.1v-13.5c0-5.7-1.5-8-10.7-11.4c-5.1-1.9-30.3-11.9-30.3-22.4c0-3.2,2.6-5.9,5.9-5.9c0,0,0,0,0,0c2.8,0,5.2,2,5.8,4.7
		c2.1,2.6,12.8,8.8,22.8,12.6c8.9,3.3,18.3,8,18.3,22.4v19.4C183,772.8,180.3,775.4,177.1,775.4
		C177.1,775.4,177.1,775.4,177.1,775.4L177.1,775.4z"/>
	<path class="st0" d="M106.7,728.5c-20,0-46.9-27.8-46.9-56.2c0-28.1,20.2-49.4,46.9-49.4c27.2,0,46.9,20.8,46.9,49.4
		C153.6,700.7,126.8,728.5,106.7,728.5z M106.7,634.6c-20.4,0-35.2,15.8-35.2,37.6c0,23.9,23.6,44.5,35.2,44.5
		c11.6,0,35.2-20.6,35.2-44.5C141.9,650.5,127.1,634.6,106.7,634.6z"/>
	<path class="st0" d="M136,722.2c-3.2,0-5.9-2.6-5.9-5.9v-12.6c0-3.2,2.6-5.9,5.9-5.9c0,0,0,0,0,0c3.2,0,5.9,2.6,5.9,5.9
		c0,0,0,0,0,0v12.6C141.9,719.5,139.3,722.2,136,722.2C136.1,722.2,136.1,722.2,136,722.2z M77.4,722.2c-3.2,0-5.9-2.6-5.9-5.9
		v-12.6c0-3.2,2.6-5.9,5.9-5.9c3.2,0,5.9,2.6,5.9,5.9v12.6C83.3,719.5,80.6,722.2,77.4,722.2C77.4,722.2,77.4,722.2,77.4,722.2z
		 M763.7,177.1H622.9c-3.2,0-5.9-2.6-5.9-5.9v-19.4c0-14.4,9.5-19.1,18.3-22.4c10-3.8,20.8-10,22.9-12.6c0.6-3.2,3.7-5.2,6.9-4.6
		c2.7,0.5,4.7,2.9,4.7,5.7c0,10.2-23.3,19.8-30.4,22.4c-9.2,3.5-10.7,5.8-10.7,11.5v13.5h129v-13.5c0-5.7-1.5-8-10.7-11.4
		c-5.1-1.9-30.3-11.9-30.3-22.4c0-3.2,2.6-5.9,5.9-5.9c0,0,0,0,0,0c2.8,0,5.2,2,5.8,4.7c2.1,2.6,12.8,8.8,22.8,12.6
		c8.9,3.3,18.3,8,18.3,22.4v19.4C769.6,174.5,766.9,177.1,763.7,177.1L763.7,177.1z"/>
	<path class="st0" d="M693.3,130.2c-20,0-46.9-27.8-46.9-56.2c0-28.1,20.2-49.4,46.9-49.4c27.2,0,46.9,20.8,46.9,49.4
		C740.2,102.4,713.4,130.2,693.3,130.2z M693.3,36.3c-20.4,0-35.2,15.8-35.2,37.6c0,23.9,23.6,44.5,35.2,44.5
		c11.6,0,35.2-20.6,35.2-44.5C728.5,52.1,713.7,36.3,693.3,36.3z"/>
	<path class="st0" d="M722.6,123.8c-3.2,0-5.9-2.6-5.9-5.9c0,0,0,0,0,0v-12.6c0-3.2,2.6-5.9,5.9-5.9c3.2,0,5.9,2.6,5.9,5.9V118
		C728.5,121.2,725.9,123.8,722.6,123.8z M664,123.8c-3.2,0-5.9-2.6-5.9-5.9v-12.6c0-3.2,2.6-5.9,5.9-5.9s5.9,2.6,5.9,5.9V118
		C669.9,121.2,667.2,123.8,664,123.8z M177.1,177.1H36.3c-3.2,0-5.9-2.6-5.9-5.9v-19.4c0-14.4,9.5-19.1,18.3-22.4
		c10-3.8,20.8-10,22.9-12.6c0.5-2.7,3-4.7,5.8-4.7c3.2,0,5.9,2.6,5.9,5.9c0,10.3-23.3,19.8-30.4,22.4c-9.2,3.5-10.7,5.8-10.7,11.5
		v13.5h129.1v-13.5c0-5.7-1.5-8-10.7-11.4c-5.1-1.9-30.3-11.9-30.3-22.4c0-3.2,2.6-5.9,5.9-5.9c0,0,0,0,0,0c2.8,0,5.2,2,5.8,4.7
		c2.1,2.6,12.8,8.8,22.8,12.6c8.9,3.3,18.3,8,18.3,22.4v19.4C183,174.5,180.3,177.1,177.1,177.1L177.1,177.1L177.1,177.1z"/>
	<path class="st0" d="M106.7,130.2c-20,0-46.9-27.8-46.9-56.2c0-28.1,20.2-49.4,46.9-49.4c27.2,0,46.9,20.8,46.9,49.4
		C153.6,102.4,126.8,130.2,106.7,130.2z M106.7,36.3c-20.4,0-35.2,15.8-35.2,37.6c0,23.9,23.6,44.5,35.2,44.5
		c11.6,0,35.2-20.6,35.2-44.5C141.9,52.1,127.1,36.3,106.7,36.3z"/>
	<path class="st0" d="M136,123.8c-3.2,0-5.9-2.6-5.9-5.9v-12.6c0-3.2,2.6-5.9,5.9-5.9c3.2,0,5.9,2.6,5.9,5.9c0,0,0,0,0,0V118
		C141.9,121.2,139.3,123.8,136,123.8z M77.4,123.8c-3.2,0-5.9-2.6-5.9-5.9v-12.6c0-3.2,2.6-5.9,5.9-5.9c3.2,0,5.9,2.6,5.9,5.9V118
		C83.3,121.2,80.6,123.8,77.4,123.8z"/>
	<path class="st0" d="M259.2,564.2c-3.2,0-5.9-2.6-5.9-5.9v-39.1c0-22.9,12.1-31.9,33.1-39.7c11-4.1,27.2-10.3,40.6-16.7
		c2.9-1.4,6.4-0.2,7.8,2.8c0,0,0,0,0,0c1.4,2.9,0.2,6.4-2.8,7.8c-13.8,6.6-30.3,12.9-41.5,17.1c-20,7.5-25.5,13.7-25.5,28.7v39.1
		C265.1,561.6,262.5,564.2,259.2,564.2C259.2,564.2,259.2,564.2,259.2,564.2L259.2,564.2z M540.8,564.2c-3.2,0-5.9-2.6-5.9-5.9
		v-39.1c0-15.1-5.5-21.3-25.5-28.7c-11.2-4.2-27.6-10.5-41.6-17.2c-2.9-1.4-4.2-4.9-2.8-7.8c1.4-2.9,4.9-4.1,7.8-2.8
		c13.5,6.5,29.6,12.7,40.6,16.7c21,7.8,33.1,16.9,33.1,39.7v39.1C546.7,561.6,544,564.2,540.8,564.2
		C540.8,564.2,540.8,564.2,540.8,564.2z M399.7,470.3c-33.2,0-88-52.8-88-112.9c0-3.2,2.6-5.9,5.9-5.9c3.2,0,5.9,2.6,5.9,5.9
		c0,52.2,47.6,101.1,76.3,101.1c28.7,0,76.2-49,76.2-101.1c0-3.2,2.6-5.9,5.9-5.9c3.2,0,5.9,2.6,5.9,5.9
		C487.7,417.6,432.9,470.3,399.7,470.3L399.7,470.3z M481.5,351.4c-2,0-3.8-1-4.9-2.6l-20.9-31.3c-9.3,3.4-31.7,10.4-56,10.4
		c-24.4,0-47.3-7.1-56.7-10.5l-20.9,31.3c-1.4,2.1-3.9,3-6.3,2.4c-2.4-0.6-4.2-2.7-4.4-5.1c-3.1-32.9,4-59,21-77.7
		c24.5-26.9,64.3-32.6,93.4-32.6c19.3,0,33.3,2.5,33.9,2.6c2.6,0.5,4.5,2.6,4.8,5.2c0.3,2.6-1.2,5.1-3.6,6
		c-5.2,2.2-8.7,5.2-10.2,9.2c-1.5,3.8-1.1,7.9-0.5,10.8c6,0.2,18,2.2,27.2,12.9c11.2,13,14.5,34.6,9.9,64c-0.4,2.4-2.2,4.3-4.5,4.8
		C482.4,351.4,481.9,351.4,481.5,351.4L481.5,351.4z M458,304.5c1.9,0,3.8,0.9,4.9,2.6l14.5,21.7c0.9-17.6-2.1-30.8-8.9-38.8
		c-6.6-7.7-15.2-8.8-19.7-8.8c-1.1,0-1.9,0.1-2,0.1c-2.6,0.3-5.1-1-6.1-3.4c-0.2-0.5-5.4-12.1-0.9-23.5c0.9-2.2,2.1-4.3,3.5-6.2
		c-25-2-75.2-1.6-102.2,28c-11.6,12.7-17.8,29.7-18.6,50.8l13.3-20c1.5-2.3,4.5-3.2,7.1-2.2c0.3,0.1,27.9,11.3,56.8,11.3
		c28.9,0,55.8-11.2,56-11.3C456.5,304.6,457.3,304.5,458,304.5L458,304.5z"/>
	<path class="st0" d="M481.8,363.3c-3.2,0-5.9-2.6-5.9-5.9c0,0,0,0,0,0v-11.9c0-3.2,2.6-5.9,5.9-5.9c3.2,0,5.9,2.6,5.9,5.9v11.9
		C487.7,360.7,485.1,363.3,481.8,363.3z M317.6,363.3c-3.2,0-5.9-2.6-5.9-5.9c0,0,0,0,0,0v-11.9c0-3.2,2.6-5.9,5.9-5.9
		c3.2,0,5.9,2.6,5.9,5.9v11.9C323.5,360.7,320.9,363.3,317.6,363.3z M376.7,493.8c-1.6,0-3-0.6-4.1-1.7l-35.2-35.2
		c-2.2-2.3-2.2-6.1,0.2-8.3c2.3-2.2,5.8-2.2,8.1,0l32.2,32.2l19.8-9.9c2.9-1.4,6.4-0.3,7.9,2.6c1.4,2.9,0.3,6.4-2.6,7.9c0,0,0,0,0,0
		l-23.6,11.7C378.5,493.6,377.6,493.8,376.7,493.8L376.7,493.8z"/>
	<path class="st0" d="M423.6,493.8c-0.9,0-1.8-0.2-2.6-0.6l-23.6-11.7c-2.9-1.4-4.1-5-2.6-7.9c0,0,0,0,0,0c1.4-2.9,5-4.1,7.9-2.6
		l19.9,9.9l32.2-32.2c2.3-2.3,6-2.3,8.3,0c2.3,2.3,2.3,6,0,8.3l-35.2,35.2C426.7,493.2,425.2,493.8,423.6,493.8z M400.6,505.5
		c-1.6,0-3-0.6-4.1-1.7l-11.7-11.7c-2.3-2.3-2.4-6-0.1-8.3c2.3-2.3,6-2.4,8.3-0.1c0,0,0.1,0.1,0.1,0.1l11.7,11.7
		c2.3,2.3,2.3,6,0,8.3C403.7,504.9,402.2,505.5,400.6,505.5z"/>
	<path class="st0" d="M400.6,505.5c-3.2,0-5.9-2.6-5.9-5.9c0-1.6,0.6-3.1,1.7-4.2l11.7-11.7c2.3-2.2,6.1-2.1,8.3,0.2
		c2.2,2.3,2.2,5.8,0,8.1l-11.7,11.7C403.7,504.9,402.2,505.5,400.6,505.5z"/>
	<path class="st0" d="M388.9,552.5c-3.2,0-5.9-2.6-5.9-5.9c0-0.2,0-0.4,0-0.7l5.9-52.8c0.4-3.2,3.4-5.4,6.5-5.2
		c3.2,0.4,5.5,3.3,5.2,6.5c0,0,0,0,0,0l-5.9,52.8C394.4,550.2,391.9,552.5,388.9,552.5L388.9,552.5z"/>
	<path class="st0" d="M412.4,552.5c-3,0-5.5-2.2-5.8-5.2l-5.9-52.8c-0.4-3.2,2-6.1,5.2-6.5c0,0,0,0,0,0c3.3-0.3,6.1,2,6.5,5.2
		l5.9,52.8c0.4,3.2-2,6.1-5.2,6.5C412.8,552.4,412.6,552.5,412.4,552.5L412.4,552.5z"/>
	<path class="st0" d="M540.8,564.2H259.2c-3.2,0-5.9-2.6-5.9-5.9c0-3.2,2.6-5.9,5.9-5.9h281.6c3.2,0,5.9,2.6,5.9,5.9c0,0,0,0,0,0
		C546.7,561.6,544,564.2,540.8,564.2C540.8,564.2,540.8,564.2,540.8,564.2z"/>
	<path class="st0" d="M177,646.4c-1.6,0-3-0.6-4.1-1.7c-2.3-2.3-2.3-6,0-8.3l58.5-58.7c2.3-2.3,6-2.3,8.3,0c2.3,2.3,2.3,6,0,8.3
		l-58.5,58.7C180,645.8,178.6,646.4,177,646.4z"/>
	<path class="st0" d="M188.8,646.4H177c-3.2,0-5.9-2.6-5.9-5.9s2.6-5.9,5.9-5.9h11.8c3.2,0,5.9,2.6,5.9,5.9S192.1,646.4,188.8,646.4
		z"/>
	<path class="st0" d="M177.1,646.2c-3.2,0-5.9-2.6-5.9-5.9v-11.6c0-3.2,2.6-5.9,5.9-5.9s5.9,2.6,5.9,5.9v11.6
		C183,643.6,180.3,646.2,177.1,646.2z"/>
	<path class="st0" d="M622.9,646.4c-1.6,0-3.1-0.6-4.2-1.7L560.2,586c-2.3-2.3-2.3-6,0-8.3c2.3-2.3,6-2.3,8.3,0l58.5,58.7
		c2.3,2.3,2.3,6,0,8.3C625.9,645.8,624.5,646.4,622.9,646.4L622.9,646.4z"/>
	<path class="st0" d="M622.9,646.4h-11.8c-3.2,0-5.9-2.6-5.9-5.9s2.6-5.9,5.9-5.9h11.8c3.2,0,5.9,2.6,5.9,5.9
		S626.1,646.4,622.9,646.4z"/>
	<path class="st0" d="M622.8,646.2c-3.2,0-5.9-2.6-5.9-5.9v-11.6c0-3.2,2.6-5.9,5.9-5.9s5.9,2.6,5.9,5.9v11.6
		C628.7,643.6,626.1,646.2,622.8,646.2z"/>
	<path class="st0" d="M235.5,270.9c-1.6,0-3.1-0.6-4.2-1.7l-58.5-58.7c-2.3-2.3-2.3-6,0-8.3c2.3-2.3,6-2.3,8.3,0l58.5,58.7
		c2.3,2.3,2.3,6,0,8.3C238.5,270.3,237,271,235.5,270.9L235.5,270.9z"/>
	<path class="st0" d="M188.8,212.3H177c-3.2,0-5.9-2.6-5.9-5.9c0-3.2,2.6-5.9,5.9-5.9c0,0,0,0,0,0h11.8c3.2,0,5.9,2.6,5.9,5.9
		c0,0,0,0,0,0C194.7,209.7,192.1,212.3,188.8,212.3z"/>
	<path class="st0" d="M177.1,224c-3.2,0-5.9-2.6-5.9-5.9v-11.6c0-3.2,2.6-5.9,5.9-5.9s5.9,2.6,5.9,5.9v11.6
		C183,221.4,180.3,224,177.1,224z"/>
	<path class="st0" d="M564.4,270.9c-1.6,0-3-0.6-4.1-1.7c-2.3-2.3-2.3-6,0-8.3l58.5-58.7c2.3-2.3,6-2.3,8.3,0c2.3,2.3,2.3,6,0,8.3
		l-58.5,58.7C567.5,270.3,566,271,564.4,270.9L564.4,270.9z"/>
	<path class="st0" d="M622.9,212.3h-11.8c-3.2,0-5.9-2.6-5.9-5.9c0-3.2,2.6-5.9,5.9-5.9c0,0,0,0,0,0h11.8c3.2,0,5.9,2.6,5.9,5.9
		C628.8,209.7,626.1,212.3,622.9,212.3z"/>
	<path class="st0" d="M622.8,224c-3.2,0-5.9-2.6-5.9-5.9v-11.6c0-3.2,2.6-5.9,5.9-5.9s5.9,2.6,5.9,5.9v11.6
		C628.7,221.4,626.1,224,622.8,224z"/>
	<path class="st0" d="M518,95c-1.6,0-3-0.6-4.1-1.7l-8.4-8.4c-2.2-2.3-2.2-6.1,0.2-8.3c2.3-2.2,5.8-2.2,8.1,0l8.4,8.4
		c2.3,2.3,2.3,6,0,8.3C521.1,94.4,519.6,95,518,95z"/>
	<path class="st0" d="M509.7,103.3c-3.2,0-5.9-2.6-5.9-5.9c0-1.6,0.6-3,1.7-4.1l8.2-8.2c2.3-2.3,6-2.4,8.3-0.1
		c2.3,2.3,2.4,6,0.1,8.3c0,0-0.1,0.1-0.1,0.1l-8.2,8.2C512.7,102.7,511.2,103.3,509.7,103.3z M291,103.5c-1.6,0-3-0.6-4.1-1.7
		l-8.4-8.4c-2.2-2.3-2.2-6.1,0.2-8.3c2.3-2.2,5.8-2.2,8.1,0l8.4,8.4c2.3,2.3,2.3,6,0,8.3C294.1,102.9,292.6,103.5,291,103.5z"/>
	<path class="st0" d="M282.9,95.1c-3.2,0-5.9-2.6-5.9-5.9c0-1.6,0.6-3,1.7-4.1l8.2-8.2c2.3-2.3,6-2.3,8.3,0c2.3,2.3,2.3,6,0,8.3
		l-8.2,8.2C285.9,94.5,284.4,95.1,282.9,95.1z"/>
	<path class="st0" d="M518,95.2H282.7c-3.2,0-5.9-2.6-5.9-5.9c0,0,0,0,0,0c0-3.2,2.6-5.9,5.9-5.9H518c3.2,0,5.9,2.6,5.9,5.9
		c0,0,0,0,0,0C523.9,92.5,521.3,95.2,518,95.2C518,95.2,518,95.2,518,95.2L518,95.2z"/>
	<path class="st0" d="M518,716.7c-1.6,0-3-0.6-4.1-1.7l-8.4-8.4c-2.2-2.3-2.2-6.1,0.2-8.3c2.3-2.2,5.8-2.2,8.1,0l8.4,8.4
		c2.3,2.3,2.3,6,0,8.3C521.1,716.1,519.6,716.7,518,716.7z"/>
	<path class="st0" d="M509.7,724.9c-3.2,0-5.9-2.6-5.9-5.9c0-1.6,0.6-3.1,1.7-4.2l8.2-8.2c2.3-2.2,6.1-2.2,8.3,0.2
		c2.2,2.3,2.2,5.8,0,8.1l-8.2,8.2C512.7,724.3,511.2,724.9,509.7,724.9z M291,725.2c-1.6,0-3.1-0.6-4.2-1.7l-8.4-8.4
		c-2.2-2.4-2.1-6.1,0.2-8.3c2.3-2.1,5.8-2.1,8.1,0l8.4,8.4c2.3,2.3,2.3,6,0,8.3C294.1,724.6,292.6,725.2,291,725.2z"/>
	<path class="st0" d="M282.9,716.8c-3.2,0-5.9-2.6-5.9-5.9c0-1.6,0.6-3.1,1.7-4.2l8.2-8.2c2.3-2.3,6-2.3,8.3,0c2.3,2.3,2.3,6,0,8.3
		l-8.2,8.2C285.9,716.2,284.4,716.8,282.9,716.8z"/>
	<path class="st0" d="M518,716.8H282.7c-3.2,0-5.9-2.6-5.9-5.9c0,0,0,0,0,0c0-3.2,2.6-5.9,5.9-5.9H518c3.2,0,5.9,2.6,5.9,5.9
		c0,0,0,0,0,0C523.9,714.2,521.3,716.8,518,716.8C518,716.8,518,716.8,518,716.8L518,716.8z"/>
	<path class="st0" d="M693.3,517.7c-3.2,0-5.9-2.6-5.9-5.9c0-1.6,0.6-3.1,1.7-4.2l8.4-8.4c2.3-2.3,6-2.3,8.3,0c2.3,2.3,2.3,6,0,8.3
		l-8.4,8.4C696.4,517.1,694.9,517.7,693.3,517.7z"/>
	<path class="st0" d="M693.3,517.5c-1.6,0-3-0.6-4.1-1.7l-8.2-8.2c-2.2-2.3-2.2-6.1,0.2-8.3c2.3-2.2,5.8-2.2,8.1,0l8.2,8.2
		c2.3,2.3,2.3,6,0,8.3C696.3,516.9,694.9,517.5,693.3,517.5z M684.9,302.4c-3.2,0-5.9-2.6-5.9-5.9c0-1.6,0.6-3,1.7-4.1l8.4-8.4
		c2.3-2.3,6-2.4,8.3-0.1c2.3,2.3,2.4,6,0.1,8.3c0,0-0.1,0.1-0.1,0.1l-8.4,8.4C687.9,301.8,686.4,302.4,684.9,302.4L684.9,302.4z"/>
	<path class="st0" d="M701.5,302.4c-1.6,0-3-0.6-4.1-1.7l-8.2-8.2c-2.3-2.3-2.4-6-0.1-8.3c2.3-2.3,6-2.4,8.3-0.1
		c0,0,0.1,0.1,0.1,0.1l8.2,8.2c2.3,2.3,2.3,6,0,8.3C704.5,301.8,703,302.4,701.5,302.4L701.5,302.4z"/>
	<path class="st0" d="M693.2,517.7c-3.2,0-5.9-2.6-5.9-5.9V288.2c0-3.2,2.6-5.9,5.9-5.9s5.9,2.6,5.9,5.9v223.6
		C699.1,515,696.5,517.7,693.2,517.7C693.2,517.7,693.2,517.7,693.2,517.7z"/>
	<path class="st0" d="M106.8,517.7c-3.2,0-5.9-2.6-5.9-5.9c0-1.6,0.6-3,1.7-4.1l8.4-8.4c2.3-2.3,6-2.3,8.3,0c2.3,2.3,2.3,6,0,8.3
		l-8.4,8.4C109.8,517.1,108.3,517.7,106.8,517.7z"/>
	<path class="st0" d="M106.7,517.5c-1.6,0-3-0.6-4.1-1.7l-8.2-8.2c-2.2-2.3-2.2-6.1,0.2-8.3c2.3-2.2,5.8-2.2,8.1,0l8.2,8.2
		c2.3,2.3,2.3,6,0,8.3C109.8,516.9,108.3,517.5,106.7,517.5z M98.3,302.4c-3.2,0-5.9-2.6-5.9-5.8c0-1.6,0.6-3.1,1.7-4.2l8.4-8.4
		c2.3-2.3,6-2.3,8.3,0c2.3,2.3,2.3,6,0,8.3l-8.4,8.4C101.3,301.8,99.8,302.4,98.3,302.4L98.3,302.4z"/>
	<path class="st0" d="M114.9,302.4c-1.6,0-3-0.6-4.1-1.7l-8.2-8.2c-2.2-2.3-2.2-6.1,0.2-8.3c2.3-2.2,5.8-2.2,8.1,0l8.2,8.2
		c2.3,2.3,2.3,6,0,8.3C117.9,301.8,116.4,302.4,114.9,302.4L114.9,302.4z"/>
	<path class="st0" d="M106.6,517.7c-3.2,0-5.9-2.6-5.9-5.9c0,0,0,0,0,0V288.2c0-3.2,2.6-5.9,5.9-5.9c3.2,0,5.9,2.6,5.9,5.9v223.6
		C112.5,515,109.9,517.7,106.6,517.7C106.7,517.7,106.7,517.7,106.6,517.7z"/>
</g>
</svg>
