<?xml version="1.0" encoding="utf-8"?>
<!-- Generator: Adobe Illustrator 25.0.0, SVG Export Plug-In . SVG Version: 6.00 Build 0)  -->
<svg version="1.1" id="Layer_1" xmlns="http://www.w3.org/2000/svg" xmlns:xlink="http://www.w3.org/1999/xlink" x="0px" y="0px"
	 viewBox="0 0 500 500" style="enable-background:new 0 0 500 500;" xml:space="preserve">
<path d="M292.66,497.8c-7.67-2.09-15.1-4.59-21.37-9.86c-14.79-12.42-19.3-33.68-10.64-51.05c8.84-17.73,28.71-26.86,48.07-22.1
	c18.86,4.64,32.03,22.01,31.72,41.84c-0.3,19.22-14.35,36.23-33.19,40.21c-1.06,0.22-2.09,0.64-3.13,0.96
	C300.3,497.8,296.48,497.8,292.66,497.8z M298.52,472.43c9.21-0.1,16.68-7.58,16.71-16.74c0.04-9.27-7.81-17.08-17.05-16.96
	c-9.09,0.12-16.67,7.74-16.73,16.83C281.38,464.84,289.16,472.53,298.52,472.43z"/>
<path d="M90.14,497.8c-4.46-1.57-9.14-2.7-13.34-4.79c-18.35-9.14-27.17-30.45-21.02-50.05c6.11-19.46,25.57-31.77,45.98-29.08
	c19.57,2.58,35.38,19.65,36.19,39.06c0.89,21.48-12.8,39.58-33.2,43.93c-1.07,0.23-2.1,0.63-3.15,0.94
	C97.78,497.8,93.96,497.8,90.14,497.8z M95.77,472.43c9.36,0.11,17.15-7.56,17.11-16.84c-0.04-9.07-7.6-16.71-16.7-16.86
	c-9.26-0.15-17.05,7.59-17.04,16.93C79.14,464.88,86.52,472.32,95.77,472.43z"/>
<path d="M3.2,447.17c11.25,0,22.5,0,33.96,0c0,5.66,0,10.95,0,17.19c-11.26,0-22.61,0-33.96,0C3.2,458.63,3.2,452.9,3.2,447.17z"/>
<path d="M20.43,261.93c22.35,0,44.27,0,66.82,0c0,21.05,0,42.08,0,63.95c2.64-1.23,4.48-2.03,6.27-2.92
	c10.52-5.25,21.13-10.34,31.5-15.88c3.54-1.89,6.19-1.64,9.61,0.14c11.97,6.22,24.11,12.1,36.97,18.51c0-21.56,0-42.43,0-63.64
	c22.81,0,44.97,0,67.4,0c0,55.93,0,111.7,0,167.91c-1.6,0.1-3.12,0.28-4.64,0.28c-26.9,0.02-53.79-0.04-80.69,0.08
	c-3.28,0.02-4.97-1.04-6.63-3.94c-22.8-39.68-79.36-39.65-102.17,0.04c-1.66,2.88-3.35,4.05-6.64,3.9
	c-5.83-0.26-11.69-0.07-17.8-0.07C20.43,373.98,20.43,318.21,20.43,261.93z"/>
<path d="M340.39,230.98c-3.85-4.88-7.47-9.47-11.08-14.06c-18.67-23.78-37.59-47.37-55.95-71.38
	c-26.3-34.39-22.53-84.05,9.15-113.37c26.09-24.15,56.85-30.4,89.77-16.87c32.83,13.5,50.28,39.3,52.35,74.9
	c1.23,21.17-5.01,40.21-18.07,56.92c-21.18,27.07-42.45,54.07-63.69,81.09C342.21,229.05,341.45,229.8,340.39,230.98z M340.27,34.07
	c-32.45,0.17-58.96,26.81-58.84,59.13c0.12,32.62,26.84,59.01,59.58,58.86c32.34-0.16,58.73-26.9,58.58-59.35
	C399.43,60.35,372.68,33.9,340.27,34.07z"/>
<path d="M359.2,379.68c4.21,16.84,8.33,33.3,12.65,50.58c-6.57,0-12.69,0.1-18.79-0.1c-0.92-0.03-2.15-1.26-2.65-2.23
	c-16.32-31.61-61.21-44.11-93.67-14.25c0-33.8,0-67.18,0-101.29c1.45,0,3.13,0,4.8,0c23.55,0,47.11,0,70.66,0
	c8.86,0,10.57,1.35,12.75,10.09c0.49,1.98,0.86,3.99,1.43,6.69c-2.13,0-3.83,0-5.53,0c-10.82,0-21.64-0.07-32.47,0.02
	c-11.65,0.1-18.41,6.86-18.5,18.39c-0.04,4.77-0.06,9.55,0.01,14.32c0.15,10.71,6.92,17.66,17.61,17.75
	c15.44,0.13,30.87,0.04,46.31,0.04C355.53,379.68,357.26,379.68,359.2,379.68z"/>
<path d="M112.79,171.81c-12.17-16.34-24.33-31.69-35.38-47.79c-11.6-16.9-8.01-40.09,7.23-53.79c15.33-13.78,38.35-14.51,54.34-1.74
	c16.32,13.04,20.75,35.55,10.5,53.68c-1.32,2.34-2.88,4.57-4.49,6.73C134.44,143.01,123.84,157.09,112.79,171.81z M129.59,101.65
	c0.07-9.3-7.12-16.75-16.39-16.97c-9.33-0.23-17.18,7.37-17.25,16.7c-0.07,9.28,7.71,17.1,16.97,17.04
	C122.06,118.35,129.51,110.86,129.59,101.65z"/>
<path d="M450.18,391.14c-12.26-16.48-24.57-31.9-35.61-48.19c-11.77-17.37-7.7-40.4,8.36-54.34c15.27-13.25,38.78-13.29,54.38-0.09
	c15.88,13.43,20.24,36.65,8.72,53.9C475,358.91,462.55,374.44,450.18,391.14z M466.95,320.8c0.04-9.24-7.29-16.75-16.5-16.89
	c-9.39-0.14-17.16,7.4-17.22,16.73c-0.06,9.13,7.41,16.71,16.59,16.85C459.37,337.63,466.91,330.28,466.95,320.8z"/>
<path d="M428.57,145.02c21.37,36.44,31.29,75.01,29.83,116.33c-0.97,0.39-1.26,0.61-1.55,0.61c-4.9,0.02-9.8,0.02-15.93,0.02
	c0-8.51,0.49-16.92-0.09-25.24c-1.81-25.7-9.04-49.93-21.02-72.72c-1.56-2.96-1.41-4.95,0.71-7.51
	C423.31,153.11,425.61,149.3,428.57,145.02z"/>
<path d="M53.74,244.59c-5.32,0-10.51,0-16.39,0c1.49-36.99,12.03-70.87,31.75-103.02c3.64,4.87,6.97,9.2,10.09,13.69
	c0.42,0.6-0.02,2.13-0.5,2.98c-14.59,26.1-22.64,54.09-24.47,83.9C54.17,242.9,53.93,243.65,53.74,244.59z"/>
<path d="M154.89,262.1c0,12.19,0,23.91,0,36.37c-5.74-2.82-11.41-4.96-16.35-8.2c-6.23-4.1-11.6-3.93-17.76,0.1
	c-4.85,3.17-10.37,5.29-16.06,8.11c0-12.41,0-24.22,0-36.37C121.32,262.1,137.9,262.1,154.89,262.1z"/>
<path d="M252.46,42.65c-2.41,5.45-4.42,10.26-6.68,14.93c-0.42,0.87-1.85,1.76-2.83,1.79c-26.2,0.78-51.23,6.55-75.16,17.19
	c-0.26,0.11-0.61,0.01-1.1,0.01c-2.83-4.41-5.72-8.9-8.87-13.82C187.72,48.77,218.99,42.24,252.46,42.65z"/>
<path d="M239.53,463.81c-28.34,0-56.53,0-84.76,0c0-5.52,0-10.72,0-16.27c28.03,0,56.24,0,84.76,0
	C239.53,452.72,239.53,458,239.53,463.81z"/>
<path d="M307.1,362.75c0-5.58,0-10.78,0-16.37c14.38,0,28.76,0,43.72,0c1.3,5.17,2.68,10.61,4.13,16.37
	C338.82,362.75,323.27,362.75,307.1,362.75z"/>
<path d="M385.26,412.79c-0.48-0.94-0.68-1.19-0.75-1.49c-1.31-5.23-4.47-10.91-3.36-15.57c1.09-4.58,6.63-8.04,10.05-12.13
	c5.59-6.69,11.05-13.48,16.88-20.61c3.01,4.03,6.09,8,8.95,12.13c0.54,0.78,0.65,2.55,0.13,3.26
	C407.97,390.97,397.45,402.34,385.26,412.79z"/>
<path d="M205.36,227.72c-5.5,0-10.81,0-16.41,0c0-5.5,0-10.77,0-16.29c5.53,0,10.82,0,16.41,0
	C205.36,216.87,205.36,222.15,205.36,227.72z"/>
<path d="M373.93,447.46c0,5.68,0,10.87,0,16.36c-5.74,0-11.21,0-16.78,0c0-5.48,0-10.79,0-16.36
	C362.58,447.46,368.06,447.46,373.93,447.46z"/>
<path d="M239.09,211.55c0,5.46,0,10.63,0,16.13c-5.46,0-10.75,0-16.33,0c0-5.41,0-10.58,0-16.13
	C228.03,211.55,233.31,211.55,239.09,211.55z"/>
<path d="M256.47,211.37c5.53,0,10.69,0,16.21,0c0,5.43,0,10.69,0,16.29c-5.43,0-10.72,0-16.21,0
	C256.47,222.26,256.47,217.08,256.47,211.37z"/>
</svg>
