<?xml version="1.0" encoding="utf-8"?>
<!-- Generator: Adobe Illustrator 25.0.0, SVG Export Plug-In . SVG Version: 6.00 Build 0)  -->
<svg version="1.1"
	 id="svg16160" inkscape:version="0.92.0 r15299" xmlns:cc="http://creativecommons.org/ns#" xmlns:dc="http://purl.org/dc/elements/1.1/" xmlns:inkscape="http://www.inkscape.org/namespaces/inkscape" xmlns:rdf="http://www.w3.org/1999/02/22-rdf-syntax-ns#" xmlns:sodipodi="http://sodipodi.sourceforge.net/DTD/sodipodi-0.dtd" xmlns:svg="http://www.w3.org/2000/svg"
	 xmlns="http://www.w3.org/2000/svg" xmlns:xlink="http://www.w3.org/1999/xlink" x="0px" y="0px" viewBox="0 0 200 73"
	 style="enable-background:new 0 0 200 73;" xml:space="preserve">
<style type="text/css">
	.stmark0{fill:#4E4E4E;}
	.stmark1{fill:#5C4C9F;}
	.stmark2{fill:#1F1646;}
</style>
<g id="layer1" transform="translate(2506.4195,561.85566)" inkscape:groupmode="layer" inkscape:label="Layer 1">
	<g id="g16117" transform="translate(-754.99843,-366.0999)">
		<path id="path15747" inkscape:connector-curvature="0" class="stmark0" d="M-1692.6-141.5c-0.1-0.3-0.2-0.6-0.4-1.1
			c-0.2-0.5-0.3-0.9-0.5-1.4s-0.3-1-0.5-1.4c-0.2-0.5-0.3-0.8-0.3-1.1l0,0c-0.1,0.3-0.2,0.6-0.3,1s-0.3,0.8-0.4,1.2
			c-0.2,0.4-0.3,0.9-0.5,1.4s-0.3,0.9-0.5,1.4L-1692.6-141.5z M-1696.3-140.3l-1.2,3.3c0,0.1-0.1,0.1-0.1,0.1h-1.1
			c-0.1,0-0.1,0-0.1-0.1l3.5-9.8c0-0.1,0-0.1,0.1-0.2c0-0.1,0-0.2,0-0.4c0-0.1,0-0.1,0.1-0.1h1.6c0.1,0,0.1,0,0.1,0.1l3.8,10.5
			c0,0.1,0,0.1-0.1,0.1h-1.2c-0.1,0-0.1,0-0.1-0.1l-1.2-3.3h-4.1V-140.3z"/>
		<path id="path15751" inkscape:connector-curvature="0" class="stmark0" d="M-1688.2-142.9c0-0.1,0-0.3,0-0.5s0-0.3,0-0.5s0-0.3,0-0.5
			c0-0.1,0-0.2,0-0.3s0-0.1,0.1-0.1h1c0.1,0,0.1,0,0.1,0.1s0,0.2,0,0.3s0,0.3,0,0.5c0.7-0.7,1.5-1.1,2.5-1.1c0.3,0,0.6,0,0.9,0.1
			s0.6,0.2,0.8,0.5c0.3,0.2,0.5,0.5,0.6,1c0.2,0.4,0.3,0.9,0.3,1.6v4.8c0,0.1,0,0.1-0.1,0.1h-1.1c-0.1,0-0.1,0-0.1-0.1v-4.6
			c0-0.6-0.1-1.1-0.4-1.5s-0.7-0.6-1.3-0.6c-0.4,0-0.8,0.1-1.1,0.3c-0.3,0.2-0.6,0.4-0.9,0.7v5.7c0,0.1,0,0.1-0.1,0.1h-1.1
			c-0.1,0-0.1,0-0.1-0.1L-1688.2-142.9L-1688.2-142.9z"/>
		<path id="path15755" inkscape:connector-curvature="0" class="stmark0" d="M-1670.6-141.5c-0.1-0.3-0.2-0.6-0.4-1.1
			c-0.2-0.5-0.3-0.9-0.5-1.4s-0.3-1-0.5-1.4c-0.2-0.5-0.3-0.8-0.3-1.1l0,0c-0.1,0.3-0.2,0.6-0.3,1s-0.3,0.8-0.4,1.2
			c-0.2,0.4-0.3,0.9-0.5,1.4s-0.3,0.9-0.5,1.4L-1670.6-141.5z M-1674.3-140.3l-1.2,3.3c0,0.1-0.1,0.1-0.1,0.1h-1.1
			c-0.1,0-0.1,0-0.1-0.1l3.5-9.8c0-0.1,0-0.1,0.1-0.2c0-0.1,0-0.2,0-0.4c0-0.1,0-0.1,0.1-0.1h1.6c0.1,0,0.1,0,0.1,0.1l3.8,10.5
			c0,0.1,0,0.1-0.1,0.1h-1.2c-0.1,0-0.1,0-0.1-0.1l-1.2-3.3h-4.1V-140.3z"/>
		<path id="path15759" inkscape:connector-curvature="0" class="stmark0" d="M-1661.4-143.6c-0.1-0.1-0.3-0.1-0.5-0.1s-0.4,0-0.6,0
			c-0.5,0-0.9,0.1-1.2,0.2c-0.4,0.1-0.7,0.3-0.9,0.6c-0.3,0.3-0.5,0.6-0.6,0.9c-0.1,0.4-0.2,0.7-0.2,1.2s0.1,1,0.2,1.3
			c0.2,0.4,0.4,0.7,0.6,0.9c0.3,0.2,0.6,0.4,0.9,0.5s0.7,0.2,1,0.2c0.2,0,0.4,0,0.7,0c0.2,0,0.4-0.1,0.6-0.2V-143.6L-1661.4-143.6z
			 M-1662.9-136.7c-0.6,0-1.1-0.1-1.6-0.3s-0.9-0.4-1.3-0.8c-0.4-0.3-0.6-0.8-0.8-1.3c-0.2-0.5-0.3-1.1-0.3-1.8
			c0-0.6,0.1-1.1,0.3-1.6c0.2-0.5,0.5-0.9,0.9-1.3c0.4-0.4,0.9-0.7,1.4-0.9s1.1-0.3,1.8-0.3c0.2,0,0.4,0,0.6,0s0.3,0,0.5,0.1v-3.6
			c0-0.1,0-0.1,0.1-0.1h1.2c0.1,0,0.1,0,0.1,0.1v10.2v0.4c0,0.1,0,0.3,0,0.4c0,0.1,0,0.1-0.1,0.1c-0.5,0.2-0.9,0.4-1.4,0.5
			S-1662.4-136.7-1662.9-136.7"/>
		<path id="path15763" inkscape:connector-curvature="0" class="stmark0" d="M-1654.7-143.8c-0.3,0-0.7,0.1-0.9,0.2
			c-0.3,0.1-0.5,0.3-0.7,0.6s-0.4,0.6-0.5,0.9c-0.1,0.4-0.2,0.7-0.2,1.2c0,0.4,0.1,0.8,0.2,1.2s0.3,0.7,0.5,0.9
			c0.2,0.3,0.4,0.5,0.7,0.6c0.3,0.2,0.6,0.2,1,0.2c0.3,0,0.6-0.1,0.8-0.2c0.3-0.1,0.5-0.3,0.7-0.5s0.4-0.5,0.5-0.9s0.2-0.8,0.2-1.3
			c0-0.4,0-0.7-0.1-1.1c-0.1-0.3-0.2-0.7-0.4-0.9c-0.2-0.3-0.4-0.5-0.7-0.7C-1654-143.7-1654.3-143.8-1654.7-143.8 M-1654.7-144.9
			c0.6,0,1.1,0.1,1.5,0.3c0.5,0.2,0.8,0.5,1.2,0.9c0.3,0.4,0.6,0.8,0.7,1.3c0.2,0.5,0.3,1,0.3,1.6s-0.1,1.2-0.3,1.7
			c-0.2,0.5-0.4,0.9-0.8,1.3c-0.3,0.4-0.7,0.6-1.2,0.8s-0.9,0.3-1.5,0.3s-1.2-0.1-1.7-0.4c-0.5-0.2-0.9-0.5-1.2-0.9
			c-0.3-0.4-0.5-0.8-0.7-1.3c-0.1-0.5-0.2-1-0.2-1.5c0-0.6,0.1-1.1,0.3-1.6c0.2-0.5,0.4-0.9,0.7-1.3s0.7-0.7,1.2-0.9
			C-1655.8-144.8-1655.2-144.9-1654.7-144.9"/>
		<path id="path15767" inkscape:connector-curvature="0" class="stmark0" d="M-1643.9-141c0-0.8-0.2-1.5-0.7-2s-1.1-0.7-1.8-0.7
			c-0.3,0-0.6,0-0.9,0.1c-0.2,0-0.5,0.1-0.7,0.2v5.4c0.2,0.1,0.3,0.1,0.5,0.1s0.4,0,0.6,0c0.4,0,0.8-0.1,1.1-0.2
			c0.4-0.1,0.7-0.3,1-0.6s0.5-0.6,0.7-1C-1644-140.1-1643.9-140.5-1643.9-141 M-1648.1-148.5C-1648-148.5-1648-148.5-1648.1-148.5
			c0.1,0,0.1,0,0.1,0.1v3.8c0.5-0.2,1.1-0.3,1.7-0.3s1.1,0.1,1.5,0.3c0.5,0.2,0.8,0.5,1.2,0.8c0.3,0.3,0.6,0.7,0.7,1.2
			c0.2,0.5,0.3,1,0.3,1.5c0,0.7-0.1,1.4-0.4,1.9s-0.6,1-1,1.4s-0.9,0.7-1.4,0.8c-0.5,0.2-1.1,0.3-1.7,0.3c-0.4,0-0.8,0-1.2-0.1
			c-0.4,0-0.7-0.1-1.1-0.3c-0.1,0-0.1-0.1-0.1-0.1v-11.2c0-0.1,0-0.1,0.1-0.1L-1648.1-148.5L-1648.1-148.5z"/>
		<path id="path15771" inkscape:connector-curvature="0" class="stmark0" d="M-1636.9-141.7c0.4,0,0.7,0,0.8,0c0.1,0,0.2,0,0.2,0v-0.1
			v-0.1c0-0.1,0-0.3-0.1-0.5s-0.2-0.4-0.3-0.6c-0.1-0.2-0.3-0.4-0.6-0.5s-0.6-0.2-0.9-0.2s-0.6,0.1-0.9,0.2
			c-0.3,0.1-0.5,0.3-0.6,0.5c-0.2,0.2-0.3,0.4-0.4,0.7s-0.2,0.5-0.2,0.8L-1636.9-141.7z M-1639.9-140.7c0,0.4,0.1,0.7,0.2,1.1
			c0.1,0.3,0.3,0.6,0.5,0.9c0.2,0.2,0.5,0.4,0.8,0.6c0.3,0.1,0.7,0.2,1.2,0.2c0.4,0,0.7,0,1-0.1s0.7-0.2,1-0.3c0.1,0,0.1,0,0.1,0.1
			v0.9c0,0.1,0,0.1-0.1,0.2c-0.3,0.1-0.6,0.3-1,0.3c-0.4,0.1-0.8,0.1-1.3,0.1c-0.7,0-1.3-0.1-1.8-0.3s-0.9-0.5-1.2-0.9
			c-0.3-0.4-0.5-0.8-0.6-1.3s-0.2-1-0.2-1.5c0-0.6,0.1-1.1,0.2-1.6c0.2-0.5,0.4-0.9,0.7-1.3c0.3-0.4,0.7-0.7,1.1-0.9
			s0.9-0.3,1.5-0.3s1.1,0.1,1.5,0.3s0.7,0.5,1,0.8c0.2,0.3,0.4,0.7,0.5,1.1c0.1,0.4,0.2,0.7,0.2,1.1c0,0.2,0,0.4,0,0.5s0,0.2,0,0.3
			s0,0.1-0.1,0.1s-0.3,0-0.7,0c-0.3,0-0.7,0-1,0L-1639.9-140.7z"/>
		<path id="path15775" inkscape:connector-curvature="0" class="stmark0" d="M-1621.9-137.2c0,0.1,0,0.2-0.1,0.2c-0.3,0.1-0.6,0.2-1,0.2
			s-0.8,0.1-1.2,0.1c-0.7,0-1.3-0.1-2-0.3s-1.2-0.5-1.7-1c-0.5-0.4-0.9-1-1.2-1.7c-0.3-0.7-0.5-1.5-0.5-2.5c0-0.8,0.1-1.5,0.4-2.2
			s0.6-1.3,1.1-1.7c0.5-0.5,1.1-0.9,1.8-1.1c0.7-0.3,1.5-0.4,2.3-0.4c0.5,0,1,0,1.3,0.1s0.6,0.1,0.8,0.2c0.1,0,0.1,0.1,0.1,0.1v1.1
			c0,0.1,0,0.1-0.1,0.1c-0.5-0.2-1.2-0.4-2.1-0.4c-0.6,0-1.2,0.1-1.7,0.3s-1,0.5-1.4,0.8c-0.4,0.4-0.7,0.8-0.9,1.3
			c-0.2,0.5-0.3,1.1-0.3,1.8c0,0.8,0.1,1.5,0.4,2.1s0.6,1,1.1,1.3c0.4,0.3,0.9,0.6,1.4,0.7c0.5,0.1,1,0.2,1.4,0.2s0.8,0,1.1-0.1
			c0.3,0,0.6-0.1,0.9-0.2c0.1,0,0.1,0,0.1,0.1L-1621.9-137.2L-1621.9-137.2z"/>
		<path id="path15779" inkscape:connector-curvature="0" class="stmark0" d="M-1617.2-143.8c-0.3,0-0.7,0.1-0.9,0.2
			c-0.3,0.1-0.5,0.3-0.7,0.6s-0.4,0.6-0.5,0.9c-0.1,0.4-0.2,0.7-0.2,1.2c0,0.4,0.1,0.8,0.2,1.2s0.3,0.7,0.5,0.9
			c0.2,0.3,0.4,0.5,0.7,0.6c0.3,0.2,0.6,0.2,1,0.2c0.3,0,0.6-0.1,0.8-0.2c0.3-0.1,0.5-0.3,0.7-0.5s0.4-0.5,0.5-0.9s0.2-0.8,0.2-1.3
			c0-0.4,0-0.7-0.1-1.1c-0.1-0.3-0.2-0.7-0.4-0.9c-0.2-0.3-0.4-0.5-0.7-0.7C-1616.5-143.7-1616.8-143.8-1617.2-143.8 M-1617.2-144.9
			c0.6,0,1.1,0.1,1.5,0.3c0.5,0.2,0.8,0.5,1.2,0.9c0.3,0.4,0.6,0.8,0.7,1.3c0.2,0.5,0.3,1,0.3,1.6s-0.1,1.2-0.3,1.7
			c-0.2,0.5-0.4,0.9-0.8,1.3c-0.3,0.4-0.7,0.6-1.2,0.8s-0.9,0.3-1.5,0.3s-1.2-0.1-1.7-0.4s-0.9-0.5-1.2-0.9
			c-0.3-0.4-0.5-0.8-0.7-1.3c-0.1-0.5-0.2-1-0.2-1.5c0-0.6,0.1-1.1,0.3-1.6c0.2-0.5,0.4-0.9,0.7-1.3s0.7-0.7,1.2-0.9
			C-1618.3-144.8-1617.7-144.9-1617.2-144.9"/>
		<path id="path15783" inkscape:connector-curvature="0" class="stmark0" d="M-1611.7-136.9c-0.1,0-0.1,0-0.1-0.1v-6c0-0.4,0-0.7,0-1
			s0-0.5,0-0.6s0-0.1,0.1-0.1h1c0.1,0,0.1,0,0.1,0.1s0,0.2,0.1,0.4c0,0.2,0,0.3,0,0.4c0.7-0.7,1.5-1,2.4-1c1,0,1.7,0.4,2.2,1.2
			c0.3-0.3,0.7-0.6,1.2-0.8c0.4-0.2,0.9-0.3,1.5-0.3c0.3,0,0.6,0,0.9,0.1s0.6,0.3,0.8,0.5c0.3,0.2,0.5,0.5,0.6,0.9
			c0.2,0.4,0.2,0.9,0.2,1.5v4.8c0,0.1,0,0.1-0.1,0.1h-1.1c-0.1,0-0.1,0-0.1-0.1v-4.7c0-0.5-0.1-1-0.4-1.4s-0.7-0.6-1.3-0.6
			c-0.4,0-0.8,0.1-1.1,0.3c-0.3,0.2-0.6,0.4-0.9,0.7c0,0.1,0,0.2,0.1,0.4c0,0.2,0,0.4,0,0.6v4.7c0,0.1,0,0.1-0.1,0.1h-1.1
			c-0.1,0-0.1,0-0.1-0.1v-4.8c0-0.6-0.1-1.1-0.4-1.4c-0.3-0.3-0.7-0.5-1.2-0.5c-0.4,0-0.7,0.1-1,0.2c-0.3,0.1-0.6,0.4-0.9,0.7v5.8
			c0,0.1,0,0.1-0.1,0.1L-1611.7-136.9z"/>
		<path id="path15787" inkscape:connector-curvature="0" class="stmark0" d="M-1595.5-143.7c-0.3,0-0.5,0-0.8,0.1s-0.5,0.1-0.7,0.2v5.5
			c0.1,0,0.3,0.1,0.5,0.1s0.3,0,0.5,0c0.4,0,0.8-0.1,1.1-0.2c0.4-0.1,0.7-0.3,1-0.6s0.5-0.6,0.7-1s0.3-0.9,0.3-1.4
			c0-0.8-0.2-1.5-0.7-2C-1594.1-143.5-1594.7-143.7-1595.5-143.7 M-1595.4-144.9c0.6,0,1.1,0.1,1.6,0.3s0.9,0.5,1.2,0.8
			c0.3,0.3,0.6,0.7,0.7,1.2c0.2,0.5,0.3,1,0.3,1.5c0,0.7-0.1,1.4-0.4,1.9s-0.6,1-1.1,1.4c-0.4,0.4-0.9,0.6-1.5,0.8s-1.1,0.3-1.7,0.3
			c-0.2,0-0.3,0-0.5,0s-0.2,0-0.4,0v3.2c0,0.1,0,0.1-0.1,0.1s-0.2,0-0.3,0c-0.1,0-0.2,0-0.4,0c-0.1,0-0.2,0-0.3,0
			c-0.1,0-0.1,0-0.2,0s-0.1,0-0.1-0.1v-10.1c0-0.1,0-0.2,0-0.3s0-0.3,0-0.4v-0.1c0.3-0.1,0.7-0.2,1.2-0.4
			C-1596.6-144.8-1596-144.9-1595.4-144.9"/>
		<path id="path15791" inkscape:connector-curvature="0" class="stmark0" d="M-1585.6-140.7c-0.1,0-0.3,0-0.4,0c-0.2,0-0.4,0-0.6,0
			c-0.8,0-1.4,0.1-1.8,0.4c-0.4,0.3-0.6,0.6-0.6,1.1c0,0.2,0,0.4,0.1,0.5c0.1,0.2,0.2,0.3,0.3,0.5c0.2,0.1,0.4,0.2,0.6,0.3
			s0.5,0.1,0.9,0.1c0.5,0,1-0.1,1.5-0.3V-140.7L-1585.6-140.7z M-1584.3-138.3v0.4c0,0.1,0,0.3,0,0.4v0.1c-0.6,0.3-1.1,0.5-1.6,0.6
			s-1,0.1-1.4,0.1s-0.8-0.1-1.2-0.2c-0.4-0.1-0.7-0.3-1-0.5s-0.5-0.5-0.6-0.8c-0.2-0.3-0.2-0.7-0.2-1.1c0-0.4,0.1-0.8,0.3-1.1
			c0.2-0.3,0.4-0.6,0.8-0.8c0.3-0.2,0.7-0.4,1.1-0.5s0.9-0.1,1.4-0.1c0.3,0,0.5,0,0.7,0s0.3,0,0.4,0v-0.4c0-0.1,0-0.3-0.1-0.5
			c0-0.2-0.1-0.4-0.3-0.5c-0.1-0.2-0.3-0.3-0.5-0.4c-0.2-0.1-0.6-0.2-1-0.2s-0.8,0-1.1,0.1c-0.4,0.1-0.7,0.2-0.9,0.4
			c-0.1,0-0.1,0-0.1-0.1v-1c0-0.1,0-0.1,0.1-0.1c0.3-0.2,0.7-0.3,1.1-0.4c0.4-0.1,0.8-0.1,1.2-0.1c0.5,0,1,0.1,1.3,0.2
			c0.4,0.2,0.7,0.4,0.9,0.7s0.4,0.6,0.5,1s0.2,0.8,0.2,1.2L-1584.3-138.3z"/>
		<path id="path15795" inkscape:connector-curvature="0" class="stmark0" d="M-1582.1-142.9c0-0.1,0-0.3,0-0.5s0-0.3,0-0.5s0-0.3,0-0.5
			c0-0.1,0-0.2,0-0.3s0-0.1,0.1-0.1h1c0.1,0,0.1,0,0.1,0.1s0,0.2,0,0.3s0,0.3,0,0.5c0.7-0.7,1.5-1.1,2.5-1.1c0.3,0,0.6,0,0.9,0.1
			s0.6,0.2,0.8,0.5c0.3,0.2,0.5,0.5,0.6,1c0.2,0.4,0.3,0.9,0.3,1.6v4.8c0,0.1,0,0.1-0.1,0.1h-1.1c-0.1,0-0.1,0-0.1-0.1v-4.6
			c0-0.6-0.1-1.1-0.4-1.5s-0.7-0.6-1.3-0.6c-0.4,0-0.8,0.1-1.1,0.3s-0.6,0.4-0.9,0.7v5.7c0,0.1,0,0.1-0.1,0.1h-1.1
			c-0.1,0-0.1,0-0.1-0.1L-1582.1-142.9L-1582.1-142.9z"/>
		<path id="path15799" inkscape:connector-curvature="0" class="stmark0" d="M-1573.2-144.8c0.1,0,0.1,0,0.1,0.1
			c0.3,0.9,0.6,1.7,0.9,2.4s0.5,1.3,0.7,1.8s0.3,0.9,0.4,1.2s0.2,0.6,0.3,0.8c0.3-0.7,0.6-1.6,0.9-2.6s0.8-2.2,1.3-3.5
			c0-0.1,0.1-0.1,0.1-0.1h1.1c0.1,0,0.1,0,0.1,0.1c-0.3,0.9-0.6,1.8-1,2.7s-0.7,1.9-1.1,2.8c-0.4,1-0.8,1.9-1.2,2.8
			c-0.4,0.9-0.8,1.8-1.2,2.7c0,0.1-0.1,0.1-0.2,0.1l-1.2,0.1c-0.1,0-0.1,0,0-0.1c0.2-0.5,0.5-1.1,0.8-1.7c0.3-0.6,0.6-1.3,0.8-1.9
			c0-0.1,0-0.1,0-0.2c-0.1-0.2-0.2-0.4-0.3-0.7c-0.1-0.3-0.3-0.7-0.4-1.1c-0.2-0.4-0.3-0.9-0.5-1.3c-0.2-0.5-0.4-1-0.6-1.5
			s-0.4-1-0.6-1.5s-0.4-0.9-0.5-1.4c0-0.1,0-0.1,0.1-0.1L-1573.2-144.8z"/>
		<path id="path15803" inkscape:connector-curvature="0" class="stmark1" d="M-1720.5-185.2v40.1l10.2-8.2v-26.3L-1720.5-185.2z"/>
		<path id="path15807" inkscape:connector-curvature="0" class="stmark1" d="M-1725.3-153.9l-8.3,3.6v-31.4l8.3,2.5V-153.9z"/>
		<path id="path15811" inkscape:connector-curvature="0" class="stmark1" d="M-1744.6-154.8l6.3-1.6v-20.1l-6.3-1V-154.8z"/>
		<path id="path15815" inkscape:connector-curvature="0" class="stmark2" d="M-1676.6-179.6l-8.7,14.3l-8.8-14.3h-4.7v26.3h4.4v-19.2
			l9,14.4l9-14.6v19.3h4.4v-26.3h-4.6V-179.6z"/>
		<path id="path15819" inkscape:connector-curvature="0" class="stmark2" d="M-1662-156.4c2.7,0,4.6-1.8,4.6-4.3v-1l-4.1,0.7
			c-2,0.3-3,1.2-3,2.5S-1663.5-156.4-1662-156.4 M-1657.3-153.3v-2.4c-1.3,1.9-3.5,2.8-5.8,2.8c-3.3,0-5.7-2.2-5.7-5.3
			c0-3.4,2.2-5.5,6.5-6.1l4.8-0.8v-0.3c0-2-1.5-3-4-3c-2.4,0-4.5,1-6.2,2.6v-4.3c1.6-1.3,3.8-2.2,6.5-2.2c5.2,0,7.9,2.6,7.9,7v11.8
			h-4V-153.3z"/>
		<path id="path15823" inkscape:connector-curvature="0" class="stmark2" d="M-1638.7-167.5c-0.2-0.1-0.6-0.2-1.1-0.2
			c-3.2,0-5.2,2.5-5.2,6.3v8.1h-4.3v-18.4h4.3v3.2c0.9-2.1,3.1-3.5,5.5-3.5c0.5,0,0.8,0,0.8,0.1L-1638.7-167.5L-1638.7-167.5z"/>
		<path id="path15827" inkscape:connector-curvature="0" class="stmark2" d="M-1635.9-179.6v26.3h4.3v-7.3l0.9-0.9l6.6,8.2h5.3
			l-8.6-10.4l8-8h-5.3l-6.9,7v-14.9L-1635.9-179.6L-1635.9-179.6z"/>
		<path id="path15831" inkscape:connector-curvature="0" class="stmark2" d="M-1605.6-164.4c-0.3-2.5-2.1-4.3-4.7-4.3s-4.6,2.1-4.9,4.3
			H-1605.6L-1605.6-164.4z M-1602.4-154.8c-1.9,1.2-4.4,2-7.1,2c-6.1,0-9.9-4.1-9.9-9.7c0-5.5,3.8-9.6,9.3-9.6
			c5.4,0,8.8,4.1,8.8,9.5c0,0.6,0,0.9-0.1,1.5h-13.7c0.3,2.6,2.4,4.6,5.9,4.6c2.3,0,4.6-0.8,6.8-2.5L-1602.4-154.8L-1602.4-154.8z"
			/>
		<path id="path15835" inkscape:connector-curvature="0" class="stmark2" d="M-1590.3-156.8c0.7,0,1.5-0.2,2-0.6v3.9
			c-0.7,0.4-1.8,0.7-3.3,0.7c-3.7,0-5.9-2.3-5.9-6.1v-9.1h-3.3l7.6-9.7v6h4.9v3.7h-4.9v8.3C-1593.2-157.7-1592.3-156.8-1590.3-156.8
			"/>
		<path id="path15839" inkscape:connector-curvature="0" class="stmark2" d="M-1582.7-162.5c0,3.2,2.4,5.7,5.5,5.7s5.5-2.5,5.5-5.7
			s-2.4-5.7-5.5-5.7C-1580.3-168.2-1582.7-165.7-1582.7-162.5 M-1567.4-162.5c0,5.4-4.2,9.7-9.8,9.7s-9.8-4.3-9.8-9.7
			s4.2-9.7,9.8-9.7S-1567.4-167.9-1567.4-162.5"/>
		<path id="path15843" inkscape:connector-curvature="0" d="M-1567.2-175.4h3.3v0.7h-1.3v3.9h-0.8v-3.9h-1.3L-1567.2-175.4
			L-1567.2-175.4z"/>
		<path id="path15847" inkscape:connector-curvature="0" d="M-1562.1-174.2v3.3h-0.8v-4.6h0.8l1.5,2.3l1.5-2.3h0.8v4.6h-0.8v-3.4
			l-1.4,2.1h-0.4L-1562.1-174.2z"/>
	</g>
</g>
</svg>
