<?xml version="1.0" encoding="utf-8"?>
<!-- Generator: Adobe Illustrator 25.0.0, SVG Export Plug-In . SVG Version: 6.00 Build 0)  -->
<svg version="1.1" id="Layer_1" xmlns="http://www.w3.org/2000/svg" xmlns:xlink="http://www.w3.org/1999/xlink" x="0px" y="0px"
	 viewBox="0 0 199.5 73" style="enable-background:new 0 0 199.5 73;" xml:space="preserve">
<style type="text/css">
	.st0{fill:#4E5E9E;}
	.st1{fill:#FDB933;}
</style>
<g id="Layer_1_1_">
	<g id="logo">
		<g>
			<path class="st0" d="M86.2,48.4V38.3c0-2.5-1.3-4.7-3.9-4.7c-2.5,0-4.1,2.3-4.1,4.7v10.1h-4.7v-19h4.3l0.3,2.3
				c1-1.9,3.2-2.7,5-2.7c2.3,0,4.6,0.9,5.6,3.5c1.7-2.7,3.9-3.5,6.4-3.5c5.4,0,8.1,3.3,8.1,9v10.2h-4.7V38.1c0-2.5-1-4.6-3.6-4.6
				s-4.1,2.2-4.1,4.7v10.1L86.2,48.4L86.2,48.4z"/>
			<path class="st0" d="M121.6,29.4h4.5v19h-4.4l-0.2-2.8c-1,2.3-4.1,3.3-6.1,3.4c-5.6,0.1-9.8-3.5-9.8-10.1c0-6.5,4.3-10,9.9-10
				c2.5,0,5,1.2,6,3.1L121.6,29.4z M110.2,38.8c0,3.6,2.5,5.8,5.6,5.8c7.4,0,7.4-11.5,0-11.5C112.7,33.1,110.2,35.3,110.2,38.8z"/>
			<path class="st0" d="M133.9,29.4v10c0,2.9,1.6,5.1,4.6,5.1c2.9,0,4.9-2.4,4.9-5.3v-9.7h4.7v19h-4.2l-0.3-2.6
				c-2,1.9-3.8,2.8-6.4,2.8c-4.6,0-7.9-3.5-7.9-9.3v-10C129.3,29.4,133.9,29.4,133.9,29.4z"/>
			<path class="st0" d="M158.8,24v5.4h5.2v4.1h-5.3v8.2c0,1.9,1,2.7,2.5,2.7c0.7,0,1.6-0.2,2.3-0.6l1.3,4c-1.4,0.6-2.5,0.8-3.9,0.8
				c-4.1,0.2-6.8-2.2-6.8-6.9v-8.2h-3.5v-4.1h3.5v-4.9L158.8,24z"/>
			<path class="st0" d="M172.6,24c0,3.6-5.6,3.6-5.6,0S172.6,20.4,172.6,24z M167.5,29.3v19.1h4.7V29.3H167.5z"/>
			<path class="st0" d="M192.1,46c-2.2,2.1-4.5,3-7.3,3c-5.6,0-10.1-3.3-10.1-10.1s4.6-10.1,10.1-10.1c2.7,0,4.7,0.8,6.8,2.8l-3,3.1
				c-1.1-1-2.5-1.5-3.8-1.5c-3.1,0-5.5,2.3-5.5,5.6c0,3.6,2.5,5.6,5.4,5.6c1.5,0,3-0.4,4.2-1.6L192.1,46z"/>
		</g>
	</g>
	<g id="brandmark">
		<g>
			<path class="st0" d="M31.9,60.5c-13.3,0-24.1-10.8-24.1-24.1s10.8-24,24.1-24c3.2,0,6.3,0.6,9.3,1.9c0.8,0.3,1.2,1.3,0.9,2.1
				c-0.3,0.8-1.3,1.2-2.1,0.9c-2.5-1-5.2-1.6-8-1.6c-11.6,0-21,9.4-21,20.9s9.3,20.8,20.8,20.8s20.8-9.3,20.8-20.8
				c0-2.4-0.4-4.9-1.3-7.2c-0.3-0.9,0.1-1.8,1-2.1s1.8,0.1,2.1,1c1,2.7,1.4,5.4,1.4,8.3C56,49.8,45.2,60.5,31.9,60.5z"/>
		</g>
		<g>
			<polygon class="st1" points="42.5,34 38.8,38 40.8,46.7 45.5,46.7 			"/>
		</g>
		<polygon class="st1" points="40.9,22.6 42.2,23.9 31.9,34.7 23.1,25.6 18.1,46.7 22.8,46.7 25.6,35 31.9,42 45.5,27.2 46.8,28.4 
			48.1,21.1 		"/>
	</g>
</g>
</svg>
