<?xml version="1.0" encoding="utf-8"?>
<!-- Generator: Adobe Illustrator 25.0.0, SVG Export Plug-In . SVG Version: 6.00 Build 0)  -->
<svg version="1.1" id="Layer_1" xmlns="http://www.w3.org/2000/svg" xmlns:xlink="http://www.w3.org/1999/xlink" x="0px" y="0px"
	 viewBox="0 0 800 800" style="enable-background:new 0 0 800 800;" xml:space="preserve">
<style type="text/css">
	.st0{fill:#06ABE1;}
</style>
<path class="st0" d="M714.7,561.4c-20.4,0-37.8,13.5-43.5,32.1h-62.4V444h31.4c2.1,0.1,4.1,0.1,6.1,0.1c2,0,4.1,0,6.3-0.1
	c0,0,0.1,0,0.1,0c74.1-3.4,132.1-64.2,132.1-138.4c0-57.6-35.1-108.4-88.1-129.1c-6.2-42.8-27-82.2-59.3-111.6
	c-34.6-31.6-79.5-49-126.4-49c-58.9,0-113.9,27.4-149.3,74c-19.3-9.8-40.7-14.9-62.6-14.9c-59.5,0-111.6,37.6-130.8,92.9
	c-4.8-0.5-9.7-0.8-14.6-0.8c-76.4,0-138.5,62.1-138.5,138.5c0,76.4,62.1,138.5,138.5,138.5c2.3,0,4.7-0.1,7.1-0.2c0.4,0,0.8,0,1.1,0
	h31v149.6h-62.4c-5.8-18.6-23.1-32.1-43.5-32.1c-25.1,0-45.6,20.4-45.6,45.6c0,25.1,20.4,45.6,45.6,45.6c20.4,0,37.8-13.5,43.5-32.1
	h75.8c7.4,0,13.5-6,13.5-13.5V444h83.2V695c-18.6,5.8-32.1,23.1-32.1,43.5c0,25.1,20.4,45.6,45.6,45.6c25.1,0,45.6-20.4,45.6-45.6
	c0-20.4-13.5-37.8-32.1-43.5V444h141.6V695c-18.6,5.8-32.1,23.1-32.1,43.5c0,25.1,20.4,45.6,45.6,45.6c25.1,0,45.6-20.4,45.6-45.6
	c0-20.4-13.5-37.8-32.1-43.5V444h83.2v163c0,7.4,6,13.5,13.5,13.5h75.8c5.8,18.6,23.1,32.1,43.5,32.1c25.1,0,45.6-20.4,45.6-45.6
	C760.3,581.9,739.8,561.4,714.7,561.4z M87,625.6c-10.3,0-18.6-8.4-18.6-18.6c0-10.3,8.4-18.6,18.6-18.6s18.6,8.4,18.6,18.6
	C105.7,617.3,97.3,625.6,87,625.6z M316.6,757.2c-10.3,0-18.6-8.4-18.6-18.6s8.4-18.6,18.6-18.6s18.6,8.4,18.6,18.6
	S326.8,757.2,316.6,757.2z M485.2,757.2c-10.3,0-18.6-8.4-18.6-18.6s8.4-18.6,18.6-18.6c10.3,0,18.6,8.4,18.6,18.6
	S495.4,757.2,485.2,757.2z M161,416.9c-2.5,0.2-5,0.2-7.4,0.2c-61.5,0-111.6-50-111.6-111.6c0-61.5,50-111.6,111.6-111.6
	c7.2,0,14.5,0.7,21.6,2.1c7,1.4,13.9-3,15.7-9.9c12.5-49.6,57-84.3,108.2-84.3c21.1,0,41.6,5.9,59.4,17.1c6.2,3.9,14.4,2.1,18.4-4
	c29.9-45.2,80-72.2,134.1-72.2c83.1,0,151.9,62.3,159.9,144.9c0.5,5.4,4.2,9.9,9.3,11.5c46.4,14.8,77.6,57.5,77.6,106.3
	c0,59.7-46.7,108.7-106.3,111.4c0,0-0.1,0-0.1,0c-3.7,0.2-6.7,0.2-10.4,0c-0.2,0-0.4,0-0.6,0H163.8C162.9,416.9,162,416.8,161,416.9
	z M714.7,625.6c-10.3,0-18.6-8.4-18.6-18.6c0-10.3,8.4-18.6,18.6-18.6c10.3,0,18.6,8.4,18.6,18.6C733.3,617.3,725,625.6,714.7,625.6
	z"/>
</svg>
