<?xml version="1.0" encoding="utf-8"?>
<!-- Generator: Adobe Illustrator 25.0.0, SVG Export Plug-In . SVG Version: 6.00 Build 0)  -->
<svg version="1.1" id="Layer_1" xmlns="http://www.w3.org/2000/svg" xmlns:xlink="http://www.w3.org/1999/xlink" x="0px" y="0px"
	 viewBox="0 0 383 129" style="enable-background:new 0 0 383 129;" xml:space="preserve">
<g>
	<path d="M14.5,91.8L14.5,91.8c-3,0-5.5-2.4-5.5-5.5V71.9c0-3,2.4-5.5,5.5-5.5l0,0c3,0,5.5,2.4,5.5,5.5v14.4
		C19.9,89.4,17.5,91.8,14.5,91.8z M36.1,91.3v-25c0-3-2.4-5.5-5.5-5.5l0,0c-3,0-5.5,2.4-5.5,5.5v25c0,3,2.4,5.5,5.5,5.5l0,0
		C33.6,96.7,36.1,94.3,36.1,91.3z M52.2,96.8V61.1c0-3-2.4-5.5-5.5-5.5l0,0c-3,0-5.5,2.4-5.5,5.5v35.7c0,3,2.4,5.5,5.5,5.5l0,0
		C49.8,102.3,52.2,99.8,52.2,96.8z M68.4,101.9V55.4c0-3-2.4-5.5-5.5-5.5l0,0c-3,0-5.5,2.4-5.5,5.5v46.5c0,3,2.4,5.5,5.5,5.5l0,0
		C65.9,107.4,68.4,104.9,68.4,101.9z M92.3,43.1L19.4,21.8c-0.5-0.2-1.1-0.2-1.6-0.2c-3.1,0-5.8,2.5-5.8,5.8v34.4h4.3V27.4
		c0-0.9,0.7-1.4,1.4-1.4c0.1,0,0.3,0,0.4,0.1L91,47.4c0.6,0.2,1,0.7,1,1.4v45.9c0,0.9-0.7,1.4-1.4,1.4c-0.1,0-0.3,0-0.4-0.1
		l-16.6-4.9v4.5l15.4,4.5c0.5,0.2,1.1,0.2,1.6,0.2c3.1,0,5.8-2.5,5.8-5.8V48.6C96.5,46.1,94.8,43.9,92.3,43.1z M138.8,42.3
		c2.9-0.5,6.6-0.9,11.4-0.9c5.9,0,10.2,1.4,12.9,3.8c2.5,2.2,4,5.5,4,9.6c0,4.2-1.2,7.4-3.6,9.8c-3.1,3.3-8.3,5.1-14.1,5.1
		c-1.8,0-3.4-0.1-4.8-0.4v18.4h-5.9V42.3H138.8z M144.7,64.5c1.3,0.3,2.9,0.5,4.9,0.5c7.2,0,11.5-3.5,11.5-9.8c0-6.1-4.3-9-10.9-9
		c-2.6,0-4.6,0.2-5.6,0.5v17.8H144.7z M203.1,71c0,12.2-8.5,17.6-16.5,17.6c-8.9,0-15.8-6.6-15.8-17c0-11.1,7.2-17.6,16.4-17.6
		C196.7,54,203.1,60.9,203.1,71z M176.9,71.4c0,7.2,4.2,12.7,10,12.7c5.7,0,10-5.4,10-12.8c0-5.6-2.8-12.7-9.9-12.7
		C180,58.5,176.9,65.1,176.9,71.4z M212.6,54.8l4.4,16.8c1,3.7,1.8,7.1,2.5,10.5h0.2c0.8-3.3,1.8-6.9,2.9-10.4l5.4-16.9h5.1
		l5.1,16.5c1.2,4,2.2,7.4,2.9,10.8h0.2c0.5-3.3,1.4-6.8,2.5-10.7l4.7-16.6h5.9l-10.7,33.1h-5.5l-5.1-15.8c-1.2-3.7-2.1-7-2.9-10.9
		h-0.1c-0.8,4-1.8,7.4-3,10.9l-5.3,15.7h-5.5l-10-33.1L212.6,54.8L212.6,54.8z M263.2,72.4c0.1,8.1,5.3,11.5,11.3,11.5
		c4.3,0,6.9-0.8,9.2-1.7l1,4.3c-2.1,1-5.7,2-11,2c-10.2,0-16.3-6.7-16.3-16.7S263.3,54,272.9,54c10.8,0,13.7,9.5,13.7,15.6
		c0,1.2-0.1,2.2-0.2,2.8L263.2,72.4L263.2,72.4z M280.8,68.1c0.1-3.8-1.6-9.8-8.3-9.8c-6.1,0-8.7,5.6-9.2,9.8H280.8z M294,65.1
		c0-3.9-0.1-7.2-0.3-10.3h5.3l0.2,6.5h0.3c1.5-4.4,5.1-7.2,9.2-7.2c0.7,0,1.2,0.1,1.7,0.2V60c-0.6-0.1-1.2-0.2-2-0.2
		c-4.2,0-7.2,3.2-8.1,7.7c-0.1,0.8-0.3,1.8-0.3,2.8v17.6h-5.9V65.1H294z M331,42.4c2.6-0.5,6.7-1,10.9-1c5.9,0,9.8,1,12.6,3.3
		c2.4,1.8,3.8,4.5,3.8,8.1c0,4.4-2.9,8.3-7.8,10.1V63c4.4,1.1,9.5,4.7,9.5,11.5c0,4-1.6,7-3.9,9.2c-3.2,2.9-8.4,4.3-15.9,4.3
		c-4.1,0-7.2-0.3-9.2-0.5V42.4z M337,61.2h5.4c6.3,0,10-3.3,10-7.7c0-5.4-4.1-7.5-10.1-7.5c-2.7,0-4.3,0.2-5.3,0.4V61.2z M337,83.3
		c1.2,0.2,2.9,0.3,5,0.3c6.1,0,11.8-2.3,11.8-8.9c0-6.3-5.4-8.9-11.9-8.9H337V83.3z M374,41.8v46h-5.9v-46L374,41.8L374,41.8z"/>
</g>
</svg>
