<?xml version="1.0" encoding="utf-8"?>
<!-- Generator: Adobe Illustrator 25.0.0, SVG Export Plug-In . SVG Version: 6.00 Build 0)  -->
<svg version="1.1" id="Layer_1" xmlns="http://www.w3.org/2000/svg" xmlns:xlink="http://www.w3.org/1999/xlink" x="0px" y="0px"
	 viewBox="0 0 800 800" style="enable-background:new 0 0 800 800;" xml:space="preserve">
<g id="_30_ecommerce">
	<path d="M427.7,682.5h-52.1c-6.9,0-12.5,5.6-12.5,12.5s5.6,12.5,12.5,12.5h52.1c6.9,0,12.5-5.6,12.5-12.5S434.6,682.5,427.7,682.5z
		"/>
	<path d="M663.5,187.6c0-1.5-0.2-2.9-0.8-4.2c-0.2-0.3-0.4-0.7-0.5-1c-0.2-0.5-0.4-0.9-0.6-1.4L581.5,55.1
		c-4.5-7.1-12.3-11.4-20.6-11.4H239.1c-8.4,0-16.2,4.3-20.6,11.4L138.4,181c-0.3,0.5-0.4,0.9-0.6,1.4c-0.1,0.3-0.3,0.7-0.5,1
		c-0.5,1.4-0.8,2.8-0.8,4.3l-0.1,0.1v57.6c0.1,27.3,18,51.4,44.1,59.4V684c0.1,39.9,32.5,72.2,72.4,72.2h294.2
		c39.9,0,72.3-32.3,72.4-72.2V304.8c26.1-8,44-32.1,44.1-59.4v-57.6L663.5,187.6z M560.4,68.5l67.9,106.8H559L514.4,68.5H560.4z
		 M487.3,68.5l44.6,106.8h-70.5L449.8,68.6L487.3,68.5z M538.1,200.3v45.1c0,20.7-16.8,37.5-37.5,37.5h-0.4
		c-20.7,0-37.5-16.8-37.5-37.5v-45.1L538.1,200.3L538.1,200.3z M375.4,68.6h49.2l11.6,106.6h-72.5L375.4,68.6z M362.2,200.3h75.5
		v45.1c0,20.7-16.8,37.5-37.5,37.5h-0.5c-20.7,0-37.5-16.8-37.5-37.5V200.3z M350.2,68.6l-11.6,106.6h-70.5l44.6-106.5L350.2,68.6z
		 M337.2,200.3v45.1c0,20.7-16.8,37.5-37.5,37.5h-0.4c-20.7,0-37.5-16.8-37.5-37.5v-45.1L337.2,200.3L337.2,200.3z M239.1,68.8h46.5
		L241,175.3h-69.4L239.1,68.8z M199.4,282.9h-0.5c-20.7,0-37.5-16.8-37.5-37.5v-45.1h75.5v45.1C236.9,266.1,220.1,282.9,199.4,282.9
		z M594.5,684c-0.1,26.1-21.3,47.2-47.4,47.2H252.9c-26.1,0-47.3-21.1-47.4-47.2v-25.1h389V684z M594.5,633.9h-389V307.3
		c17.5-1.7,33.4-10.7,43.9-24.8c11.7,15.9,30.2,25.4,50,25.4h0.4c19.8,0,38.3-9.4,50-25.4c11.7,15.9,30.2,25.4,50,25.4h0.5
		c19.8,0,38.3-9.4,50-25.4c11.7,15.9,30.2,25.4,50,25.4h0.4c19.8,0,38.3-9.4,50-25.4c10.5,14.1,26.4,23.1,43.9,24.8L594.5,633.9
		L594.5,633.9z M638.6,245.4c0,20.7-16.8,37.5-37.5,37.5h-0.5c-20.7,0-37.5-16.8-37.5-37.5v-45.1h75.5V245.4z"/>
</g>
<g>
	<path d="M287.9,361.1c1.6-4.6,6.7-7.1,11.3-5.4l3.6,1.3c7.3,2.6,13.5,4.8,18.4,7.2c5.2,2.6,9.7,5.7,13.1,10.7
		c3.3,4.9,4.7,10.3,5.4,16.2c0.3,2.6,0.4,5.6,0.5,8.8h126.2c20,0,38,0,43.3,6.8c5.3,6.8,3.2,17.2-0.9,37.8l-5.9,28.8
		c-3.7,18.1-5.6,27.2-12.2,32.5c-6.5,5.3-15.8,5.3-34.3,5.3h-62.9c-33.1,0-49.6,0-59.9-10.8c-10.3-10.8-11-22.4-11-57.3v-30.9
		c0-8.8,0-14.7-0.5-19.2c-0.5-4.3-1.3-6.5-2.4-8c-1-1.5-2.6-3-6.2-4.7c-3.8-1.9-9-3.7-17-6.5l-3.1-1.1
		C288.7,370.8,286.2,365.7,287.9,361.1z"/>
	<path d="M352.1,542c9.8,0,17.8,8,17.8,17.8c0,9.8-8,17.8-17.8,17.8c-9.8,0-17.8-8-17.8-17.8C334.3,550,342.3,542,352.1,542z"/>
	<path d="M458.9,542c9.8,0,17.8,8,17.8,17.8c0,9.8-8,17.8-17.8,17.8c-9.8,0-17.8-8-17.8-17.8C441.1,550,449,542,458.9,542z"/>
</g>
</svg>
