<?xml version="1.0" encoding="utf-8"?>
<!-- Generator: Adobe Illustrator 25.0.0, SVG Export Plug-In . SVG Version: 6.00 Build 0)  -->
<svg version="1.1"
	 id="svg2623" sodipodi:docname="sage.svg" xmlns:cc="http://creativecommons.org/ns#" xmlns:dc="http://purl.org/dc/elements/1.1/" xmlns:inkscape="http://www.inkscape.org/namespaces/inkscape" xmlns:rdf="http://www.w3.org/1999/02/22-rdf-syntax-ns#" xmlns:sodipodi="http://sodipodi.sourceforge.net/DTD/sodipodi-0.dtd" xmlns:svg="http://www.w3.org/2000/svg"
	 xmlns="http://www.w3.org/2000/svg" xmlns:xlink="http://www.w3.org/1999/xlink" x="0px" y="0px" viewBox="0 0 215.4 83.8"
	 style="enable-background:new 0 0 215.4 83.8;" xml:space="preserve">
<style type="text/css">
	.stsage0{fill:#00DD01;}
</style>
<sodipodi:namedview  bordercolor="#666666" borderopacity="1.0" fit-margin-bottom="0" fit-margin-left="0" fit-margin-right="0" fit-margin-top="0" id="base" inkscape:current-layer="layer1" inkscape:cx="141.73612" inkscape:cy="53.955643" inkscape:document-units="mm" inkscape:pageopacity="0.0" inkscape:pageshadow="2" inkscape:window-height="744" inkscape:window-maximized="1" inkscape:window-width="1280" inkscape:window-x="-4" inkscape:window-y="-4" inkscape:zoom="3.1643311" pagecolor="#ffffff" showgrid="false">
	</sodipodi:namedview>
<g id="layer1" transform="translate(85.126014,-198.56947)" inkscape:groupmode="layer" inkscape:label="Layer 1">
	<g id="g2659" transform="translate(0.50000098,-0.49999821)">
		<path id="path2629" inkscape:connector-curvature="0" class="stsage0" d="M101.1,200.5c-16.4,0-27.2,11.2-27.2,29.9
			c0,23.1,16.4,29.7,28.2,29.7c8.8,0,17.2-3.6,23.3-10l-7.6-7.6c-4.1,3.6-8.7,5.8-15.6,5.8c-9.1,0-15.3-5.3-15.3-12.7h40.8
			C127.7,235.5,134.9,200.5,101.1,200.5 M87,225.5c0-9.9,7.5-14.6,15.5-14.6s15.3,4.9,15.3,14.6H87z"/>
		<path id="path2631" inkscape:connector-curvature="0" class="stsage0" d="M-49.1,224.6c-5.2-0.7-20.3-0.1-20.3-7
			c0-4.1,6.4-6.3,12.1-6.3c6.2-0.1,12.1,1.6,17.3,4.9l7.9-7.8c-2.3-1.9-10.9-7.9-25.1-7.9c-12.9,0-24.5,6.8-24.5,17.6
			c0,16.6,20,16.6,28.3,17.4c5.1,0.5,9.7,0.8,9.7,5.8c0,4.7-7.1,7.2-12.5,7.2c-8.9,0-14.2-2.9-19.5-7.6l-8.4,8.5
			c7.3,7,17.1,10.9,27.2,10.8c15,0,25.9-6.6,25.9-19.9C-31.1,231.4-37,226.1-49.1,224.6"/>
		<path id="path2633" inkscape:connector-curvature="0" class="stsage0" d="M-6.1,200.5c-8.3-0.1-16.5,2.8-23,7.9l7.9,7.9
			c4.4-3.3,9.7-5,15.2-4.9c10,0,13,4,13,8.5v5.6h-17.8c-6.6,0-19.5,1.7-19.5,16.1c0,10.6,6.1,18.4,20.6,18.4
			c7.3,0,12.8-2.3,16.6-6.9v5.8h12.9v-38.2C19.9,207.4,11.7,200.5-6.1,200.5 M7.1,238.1c0,11-7.9,10.4-14.9,10.4s-11.6-1.9-11.6-6.8
			c0-4.6,3.7-6.2,11.3-6.2H7.1V238.1z"/>
		<path id="path2635" inkscape:connector-curvature="0" class="stsage0" d="M59.7,201.7v6.4c-4.4-5-9.7-7.6-16.8-7.6
			c-12.2,0-18.5,6.8-20.6,14.2c-0.8,2.7-1.1,7.9-1.1,15.5c0,7.2,0.1,13.8,2.6,18.8c3.5,7,12,11,19.1,11c6.9,0,12.8-2.7,16.8-7.4v3.6
			c0,4.2-1.4,7-4.1,9.2c-2.7,2.2-6.1,3.5-10.8,3.5c-4.3,0-8.3-2.3-10.7-4l-8.7,8.7c5.6,4.6,12.3,7.6,19.6,7.7
			c7,0.1,13.8-2.1,19.3-6.5c5.2-4.1,8.5-11.8,8.5-19.9v-53.3L59.7,201.7z M59.7,230.2c0,4.4-0.1,7.7-0.4,9.5
			c-0.8,3.7-5,8.5-12.7,8.5c-1.9,0-11.7-1.1-12.8-9.6c-0.3-2.8-0.4-5.6-0.4-8.4c0-6.6,0.3-8.7,0.6-10.3c0.7-3.3,5-8.2,12.6-8.2
			c9.2,0,12.2,6.3,12.7,8.8C59.6,223.6,59.8,226.9,59.7,230.2"/>
	</g>
</g>
</svg>
