<?xml version="1.0" encoding="utf-8"?>
<!-- Generator: Adobe Illustrator 25.0.0, SVG Export Plug-In . SVG Version: 6.00 Build 0)  -->
<svg version="1.1" id="Layer_1" xmlns="http://www.w3.org/2000/svg" xmlns:xlink="http://www.w3.org/1999/xlink" x="0px" y="0px"
	 viewBox="0 0 400 145" style="enable-background:new 0 0 400 145;" xml:space="preserve">
<style type="text/css">
	.stsalein0{fill:#4E748B;}
	.stsalein1{fill:#119FDA;}
	.stsalein2{fill:#7C868D;}
</style>
<g>
	<g>
		<path class="stsalein0" d="M162.2,27.7c0,8.7-7,15.7-15.7,15.7c-8.7,0-15.7-7-15.7-15.7s7-15.7,15.7-15.7
			C155.2,12,162.2,19.1,162.2,27.7z M146.5,20.6c-4,0-7.2,3.2-7.2,7.2s3.2,7.2,7.2,7.2s7.2-3.2,7.2-7.2S150.5,20.6,146.5,20.6z"/>
		<path class="stsalein1" d="M83.8,141.9c-15.2,0-28.3-8.9-34.4-21.8c-1.6,0.2-3.1,0.3-4.7,0.3c-19.2,0-34.8-15.6-34.8-34.8
			c0-9.5,3.4-19.3,9.4-26.9c6.5-8.3,15.3-13.2,24.9-13.9c9.2-1,17.3-0.2,24.4,1.5c5.3-7.7,10.8-14.7,16.1-20.8
			c11.5-13.4,17.7-17.9,31.9-17.9c5.1,0,9.9,0.9,14.2,2.6c1,0.4,1.5,1.6,1.1,2.6s-1.6,1.5-2.6,1.1c-3.8-1.6-8.1-2.3-12.7-2.3
			c-12,0-17.4,3.1-28.8,16.5C82,34.9,77,41.3,72.8,47.4c16.1,4.8,25.5,14,26.8,15.3c0.5,0.3,0.9,0.7,1.4,1.1c7.3-9,15.6-18,25.5-26
			c0.9-0.7,2.1-0.6,2.8,0.3c0.7,0.9,0.6,2.1-0.3,2.8c-9.7,7.8-17.9,16.7-25.1,25.6c10,10.5,16.6,28.8,16.6,41
			C120.6,127.8,105.5,141.9,83.8,141.9z M53.6,119.3c5.6,11,17.1,18.5,30.2,18.5c19.6,0,32.7-12.2,32.7-30.4
			c0-11.2-6.2-28.1-15.2-37.8c-4.3,5.4-8.2,10.8-12,15.9c-8.9,12.2-16.6,22.6-25.1,28.8h-0.1C60.9,116.7,57.3,118.3,53.6,119.3z
			 M52.1,48.4c-2.4,0-4.9,0.1-7.4,0.4h-0.1c-8.5,0.6-16.3,5-22.1,12.4C17.1,68.1,14,77,14,85.7c0,16.9,13.8,30.7,30.7,30.7
			c1.1,0,2.1-0.1,3.1-0.2c-1.3-3.9-2.1-8-2.1-12.3v-0.1c0.8-18.5,9.6-37.4,20.4-53.9C61.9,49,57.2,48.4,52.1,48.4z M49.9,104
			c0,4.1,0.7,8,2.1,11.6c3.5-0.8,6.9-2.3,10-4.4c8-5.8,15.5-16.1,24.2-27.9c3.9-5.3,7.9-10.8,12.3-16.4c-0.5-0.4-0.9-0.7-1.4-1.1
			L97,65.7l-0.1-0.1c-0.1-0.1-9.7-9.9-26.4-14.6C54.7,74.5,50.4,92.3,49.9,104z"/>
		<path class="stsalein1" d="M129.5,123.7c-36.7,0-71.3-20-97.3-56.3c-1.5-2.2-8.5-13.2-8.5-24.5c0-21.6,14.5-37.5,36.1-39.6
			c17.4-1.7,32.1,11.4,39.4,23c17.1,25.3,29.1,51.9,29.7,53.1c8.7,17.3,19.1,23.8,27.8,25.8c3.3-4.8,5.2-10.4,5.2-16.2v-0.1
			c0.5-15.3-4.2-29.2-7.6-39.4l-0.4-1c-0.4-1.1,0.2-2.2,1.3-2.6s2.2,0.2,2.6,1.3l0.4,1c3.5,10.5,8.4,24.8,7.8,40.8
			c0,5.9-1.7,11.7-4.8,16.8c0.7,0,1.3,0.1,1.9,0.1c22.2,0,40.2-18,40.2-40.2c0-20.1-15-37.2-34.8-39.9c-1.1-0.1-1.9-1.2-1.7-2.3
			c0.1-1.1,1.2-1.9,2.3-1.7c21.9,2.9,38.3,21.8,38.3,43.9c0,24.4-19.9,44.3-44.3,44.3c-1.6,0-3.1-0.1-4.6-0.3
			c-1.1,1.4-2.3,2.7-3.7,3.9C147.9,120,138.6,123.7,129.5,123.7z M62.8,7.2c-0.9,0-1.8,0-2.7,0.1c-9.6,0.9-17.8,4.8-23.6,11.1
			c-5.8,6.4-8.9,14.8-8.9,24.5c0,7.8,4.2,16.9,7.8,22.2c25.2,35.2,58.6,54.6,94,54.6c9.5,0,18.4-4.4,24.4-11
			c-11.4-3.2-21.2-12.6-28.6-27.5v-0.1c-0.1-0.3-12.2-27-29.4-52.5v-0.1C89.5,18.4,77.3,7.2,62.8,7.2z"/>
		<circle class="stsalein1" cx="42" cy="11.4" r="7.2"/>
		<circle class="stsalein1" cx="86.3" cy="86.4" r="7.2"/>
	</g>
	<g>
		<path class="stsalein2" d="M248.4,65.4h-19.2c0.2,2.6,1,4.7,2.4,6.3c1.4,1.6,3.5,2.3,6.1,2.3c1.6,0,3-0.2,4.2-0.6
			c1.2-0.4,2.5-1.1,3.7-1.9l1.9,2.8c-1.5,1.1-3,1.8-4.7,2.4c-1.6,0.5-3.5,0.8-5.5,0.8c-4,0-7.1-1.3-9.3-3.8c-2.2-2.5-3.3-5.8-3.3-10
			c0-2.7,0.5-5,1.4-7.1c0.9-2,2.3-3.6,4.1-4.8c1.8-1.1,4-1.7,6.5-1.7c3.8,0,6.6,1.2,8.6,3.7c2,2.4,3,5.7,3,9.7
			C248.4,64.4,248.4,65,248.4,65.4z M244.2,62.1c-0.1-2.6-0.7-4.6-2-6.2c-1.3-1.6-3.1-2.3-5.4-2.3c-2.4,0-4.3,0.8-5.6,2.4
			c-1.3,1.6-2,3.7-2.1,6.1H244.2z"/>
		<path class="stsalein2" d="M252.6,42.1c0-1.8,0.9-2.7,2.8-2.7c1.9,0,2.8,0.9,2.8,2.7c0,0.8-0.2,1.4-0.7,1.9c-0.4,0.5-1.2,0.7-2.1,0.7
			c-1,0-1.7-0.2-2.2-0.7C252.9,43.5,252.6,42.9,252.6,42.1z M257.6,76.8h-4.3V50.9h4.3V76.8z"/>
		<path class="stsalein2" d="M263.2,56.7c0-1.9-0.1-3.8-0.4-5.8h4.1c0.2,0.9,0.3,2.1,0.4,3.7h0.1c0.8-1.3,2-2.4,3.6-3.2
			c1.5-0.8,3.3-1.2,5.4-1.2c3.3,0,5.7,0.9,7.2,2.8c1.6,1.9,2.4,4.2,2.4,7v16.7h-4.3V60.9c0-2.1-0.5-3.8-1.5-5.1c-1-1.3-2.7-2-4.9-2
			c-2.3,0-4.2,0.8-5.6,2.3s-2.1,3.5-2.1,5.8v14.8h-4.4V56.7z"/>
		<path class="stsalein2" d="M308.5,53l-1.9,2.7c-2-1.4-4.2-2.1-6.5-2.1c-1.6,0-2.9,0.3-3.8,0.9s-1.4,1.5-1.4,2.7c0,0.8,0.2,1.5,0.6,2.1
			c0.4,0.5,1,1,1.9,1.4s2.2,0.8,3.9,1.2c2.6,0.6,4.6,1.6,5.9,2.8c1.3,1.2,1.9,2.9,1.9,4.9c0,2.5-0.9,4.5-2.8,5.9s-4.2,2.1-7,2.1
			c-3.7,0-6.8-1-9.4-3l2-2.7c1.2,0.8,2.3,1.4,3.4,1.7c1.1,0.4,2.4,0.6,3.8,0.6c1.7,0,3.1-0.4,4.1-1.1s1.5-1.8,1.5-3.2
			c0-0.9-0.2-1.7-0.6-2.2c-0.4-0.6-1-1-1.9-1.4s-2.2-0.8-3.9-1.2c-2.7-0.7-4.6-1.6-5.8-2.7c-1.2-1.2-1.8-2.7-1.8-4.8
			c0-2.2,0.9-4,2.6-5.3s4-2,6.8-2C303.1,50.2,306,51.1,308.5,53z"/>
		<path class="stsalein2" d="M320,50.9h6.9v3.3H320v15.6c0,2.8,1.3,4.2,3.8,4.2c0.9,0,1.8-0.1,2.5-0.4l0.7,3.2c-1.2,0.4-2.5,0.7-4,0.7
			c-2.3,0-4.1-0.6-5.4-1.9s-2-3.1-2-5.4v-16H311v-2.8l4.5-0.5v-6.4l4.4-1.5v7.9H320z"/>
		<path class="stsalein2" d="M352.4,65.4h-19.2c0.2,2.6,1,4.7,2.4,6.3c1.4,1.6,3.5,2.3,6.1,2.3c1.6,0,3-0.2,4.2-0.6s2.5-1.1,3.7-1.9
			l1.9,2.8c-1.5,1.1-3,1.8-4.7,2.4c-1.6,0.5-3.5,0.8-5.5,0.8c-4,0-7.1-1.3-9.3-3.8c-2.2-2.5-3.3-5.8-3.3-10c0-2.7,0.5-5,1.4-7.1
			c0.9-2,2.3-3.6,4.1-4.8c1.8-1.1,4-1.7,6.5-1.7c3.8,0,6.6,1.2,8.6,3.7c2,2.4,3,5.7,3,9.7C352.5,64.4,352.4,65,352.4,65.4z
			 M348.2,62.1c-0.1-2.6-0.7-4.6-2-6.2s-3.1-2.3-5.4-2.3c-2.4,0-4.3,0.8-5.6,2.4c-1.3,1.6-2,3.7-2.1,6.1H348.2z"/>
		<path class="stsalein2" d="M356.6,42.1c0-1.8,0.9-2.7,2.8-2.7s2.8,0.9,2.8,2.7c0,0.8-0.2,1.4-0.7,1.9c-0.4,0.5-1.2,0.7-2.1,0.7
			c-1,0-1.7-0.2-2.2-0.7C356.9,43.5,356.6,42.9,356.6,42.1z M361.6,76.8h-4.4V50.9h4.3v25.9H361.6z"/>
		<path class="stsalein2" d="M367.2,56.7c0-1.9-0.1-3.8-0.4-5.8h4.1c0.2,0.9,0.3,2.1,0.4,3.7h0.1c0.8-1.3,2-2.4,3.6-3.2
			c1.5-0.8,3.3-1.2,5.4-1.2c3.3,0,5.7,0.9,7.2,2.8c1.6,1.9,2.4,4.2,2.4,7v16.7h-4.3V60.9c0-2.1-0.5-3.8-1.5-5.1c-1-1.3-2.7-2-4.9-2
			c-2.3,0-4.2,0.8-5.6,2.3s-2.1,3.5-2.1,5.8v14.8h-4.4V56.7z"/>
	</g>
</g>
</svg>
