<?xml version="1.0" ?><svg xmlns:dc="http://purl.org/dc/elements/1.1/" xmlns:cc="http://creativecommons.org/ns#" xmlns:rdf="http://www.w3.org/1999/02/22-rdf-syntax-ns#" xmlns:svg="http://www.w3.org/2000/svg" xmlns="http://www.w3.org/2000/svg" xmlns:sodipodi="http://sodipodi.sourceforge.net/DTD/sodipodi-0.dtd" xmlns:inkscape="http://www.inkscape.org/namespaces/inkscape" width="4.2333331mm" height="4.2333331mm" viewBox="0 0 4.2333331 4.2333331" version="1.1" id="svg839"><defs id="defs833"/><g id="layer1" transform="translate(73.404884,-1.9651226)"><g id="g1564"><g id="g2161" transform="translate(0.04559286)"><g id="g2179" transform="translate(0,-0.00696941)"><g id="g2278"><g id="g2834" transform="translate(-0.1405508)"><g id="g2539" transform="translate(-92.518959,-0.32118853)"><g id="g2888" transform="translate(-0.264574)"><g id="g3038"><g id="g3526"><g id="g3613" transform="translate(0,-0.13229155)"><g id="g12262"><g id="g12407" transform="translate(5.169954e-4,4.2009517e-4)"><g id="g14298"><g id="g14289" transform="translate(0.2202163,-0.1260125)"><g id="g29937"><path style="fill:none;stroke:#000000;stroke-width:0.264583;stroke-linecap:round;stroke-linejoin:round;paint-order:markers fill stroke" d="M 23.089324,6.3876225 22.388612,5.6927549" id="path13032"/><circle style="fill:none;stroke:#000000;stroke-width:0.264583;stroke-linecap:round;stroke-linejoin:round;paint-order:markers fill stroke" id="path29482" cx="21.233116" cy="4.5355392" r="1.5875"/><path id="path29927" style="fill:none;stroke:#000000;stroke-width:0.264583;stroke-linecap:round;stroke-linejoin:round;paint-order:markers fill stroke" d="M 21.76515,4.252502 A 0.53203338,0.53203338 0 0 1 21.233116,4.7845353 0.53203338,0.53203338 0 0 1 20.701083,4.252502 0.53203338,0.53203338 0 0 1 21.233116,3.7204686 0.53203338,0.53203338 0 0 1 21.76515,4.252502 Z"/><path id="path29929" style="fill:none;stroke:#000000;stroke-width:0.264583;stroke-linecap:round;stroke-linejoin:round;stroke-miterlimit:4;stroke-dasharray:none;paint-order:markers fill stroke" d="m 20.136969,5.6792793 a 1.0961471,0.8612147 0 0 1 1.096147,-0.8612147 1.0961471,0.8612147 0 0 1 1.096147,0.8612147"/></g></g></g></g></g></g></g></g></g></g></g></g></g></g></g></g></svg>