<?xml version="1.0" encoding="utf-8"?>
<!-- Generator: Adobe Illustrator 25.0.0, SVG Export Plug-In . SVG Version: 6.00 Build 0)  -->
<svg version="1.1" id="Layer_1" xmlns="http://www.w3.org/2000/svg" xmlns:xlink="http://www.w3.org/1999/xlink" x="0px" y="0px"
	 viewBox="0 0 100 100" style="enable-background:new 0 0 100 100;" xml:space="preserve">
<style type="text/css">
	.st0{fill:#15A1DB;}
</style>
<path class="st0" d="M50.27,95.23c-24.78,0-44.87-20.09-44.87-44.87C5.36,25.55,25.45,5.46,50.27,5.46
	c24.78,0,44.87,20.09,44.87,44.87S75.05,95.23,50.27,95.23z M50.24,1.07c-27.12,0-49.17,21.97-49.17,48.96
	c0,27.03,22.06,48.99,49.17,48.99s49.2-21.97,49.2-48.96C99.44,23.03,77.38,1.07,50.24,1.07z"/>
<path class="st0" d="M37.75,70.81c-7.42-3.49-12.57-11.36-12.57-20.48c0-4.82,1.42-9.27,3.88-12.91l16.18,24.12h9.79L71.2,37.42
	c2.45,3.64,3.88,8.12,3.88,12.91c0,8.51-4.48,15.91-11.09,19.73l3.12,11.94c11.88-6.12,19.96-18.48,19.96-32.75
	c0-13.48-7.24-25.24-18.03-31.66l-18.78,29L31.66,17.46C20.75,23.85,13.42,35.7,13.42,49.24c0,14.79,8.7,27.54,21.27,33.39
	L37.75,70.81z"/>
</svg>
