<?xml version="1.0" encoding="utf-8"?>
<!-- Generator: Adobe Illustrator 25.0.0, SVG Export Plug-In . SVG Version: 6.00 Build 0)  -->
<svg version="1.1" id="Layer_1" xmlns="http://www.w3.org/2000/svg" xmlns:xlink="http://www.w3.org/1999/xlink" x="0px" y="0px"
	 viewBox="0 0 200 73" style="enable-background:new 0 0 200 73;" xml:space="preserve">
<style type="text/css">
	.stsalpar0{fill:#139CD8;}
	.stsalpar1{fill:#FFFFFF;}
	.stsalpar2{fill:#7D888E;}
</style>
<g id="Layer_1_1_">
	<g>
		<path class="stsalpar0" d="M49,10.7c6.3-6.6,16.8-6.9,23.4-0.5c1.2,1.2,2.3,2.5,3.1,4c2.6-1.2,5.4-1.8,8.2-1.7
			c11.4,0,20.6,9.2,20.6,20.6s-9.2,20.6-20.6,20.6c-1.3,0-2.7-0.1-4-0.4c-2.6,4.7-7.6,7.6-13,7.6c-2.3,0-4.5-0.5-6.5-1.5
			c-3.7,8.6-13.7,12.7-22.3,9c-4.3-1.8-7.6-5.3-9.3-9.7c-1.1,0.2-2.2,0.3-3.3,0.3c-8.8-0.1-15.9-7.3-15.8-16.2
			c0.1-5.6,3.1-10.7,7.9-13.6c-1-2.3-1.5-4.8-1.5-7.3c0-10.1,8.2-18.3,18.3-18.4C40.1,3.4,45.5,6.1,49,10.7"/>
		<path class="stsalpar1" d="M23.4,37.8c0,0.1,0,0.2,0,0.2c0.2,0.1,0.3,0.2,0.5,0.3c0.9,0.5,1.8,0.7,2.8,0.6c1.9,0,3.1-1,3.1-2.7l0,0
			c0-1.6-1.4-2.1-2.6-2.5l-0.1-0.1c-0.9-0.3-1.8-0.6-1.8-1.2l0,0c0-0.5,0.5-0.9,1.2-0.9c0.9,0,1.7,0.2,2.5,0.6c0.1,0,0.2,0,0.2,0
			l0,0c0-0.1,0.4-1,0.4-1.1s0-0.2-0.1-0.2c-0.8-0.5-1.8-0.8-2.8-0.8h-0.2c-1.8,0-3,1.1-3,2.6l0,0c0,1.6,1.4,2.2,2.6,2.5l0.2,0.1
			c0.9,0.3,1.7,0.5,1.7,1.2l0,0c0,0.6-0.5,1.1-1.4,1.1s-1.8-0.2-2.5-0.7c-0.1-0.1-0.2-0.1-0.3-0.2c-0.1-0.1-0.2,0-0.2,0l0,0
			L23.4,37.8z"/>
		<path class="stsalpar1" d="M51.7,37.8c0,0.1,0,0.2,0,0.2c0.2,0.1,0.3,0.2,0.5,0.3c0.9,0.5,1.8,0.7,2.8,0.6c1.9,0,3.1-1,3.1-2.7l0,0
			c0-1.6-1.4-2.1-2.6-2.5l-0.1-0.1c-0.9-0.3-1.8-0.6-1.8-1.2l0,0c0-0.5,0.5-0.9,1.2-0.9c0.9,0,1.7,0.2,2.5,0.6c0.1,0,0.2,0,0.2,0
			l0,0c0-0.1,0.4-1,0.4-1.1s0-0.2-0.1-0.2C57,30.3,56,30,55,30h0c-1.8,0-3,1.1-3,2.6l0,0c0,1.6,1.4,2.2,2.6,2.5l0.2,0.1
			c0.9,0.3,1.7,0.5,1.7,1.2l0,0c0,0.6-0.5,1.1-1.4,1.1s-1.8-0.2-2.5-0.7c-0.1-0.1-0.2-0.1-0.3-0.2c-0.1-0.1-0.2,0-0.2,0l0,0
			L51.7,37.8z"/>
		<path class="stsalpar1" d="M72.8,32.8c-0.1-0.5-0.4-1-0.7-1.4c-0.3-0.4-0.8-0.7-1.2-0.9c-1.1-0.4-2.4-0.4-3.5,0
			c-0.5,0.2-0.9,0.5-1.2,0.9c-0.3,0.4-0.6,0.9-0.7,1.4c-0.3,1.1-0.3,2.3,0,3.5c0.1,0.5,0.4,1,0.7,1.4c0.3,0.4,0.8,0.7,1.2,0.9
			c1.1,0.4,2.4,0.4,3.5,0c0.5-0.2,0.9-0.5,1.2-0.9c0.3-0.4,0.6-0.9,0.7-1.4c0.1-0.6,0.2-1.2,0.2-1.7C73,33.9,72.9,33.3,72.8,32.8
			 M71.1,34.5c0,0.8-0.1,1.5-0.5,2.2c-0.3,0.5-1,0.8-1.6,0.8s-1.2-0.2-1.6-0.8c-0.7-1.4-0.7-3,0-4.4c0.3-0.5,1-0.8,1.6-0.8
			s1.2,0.2,1.6,0.8C71,33,71.2,33.7,71.1,34.5"/>
		<path class="stsalpar1" d="M86,37.2c0-0.1-0.1-0.1-0.2-0.1l0,0c-0.2,0.1-0.5,0.2-0.8,0.2s-0.6,0.1-0.9,0.1c-0.7,0-1.4-0.2-1.8-0.7
			c-0.5-0.6-0.8-1.4-0.7-2.2c0-0.8,0.2-1.5,0.6-2.1c0.4-0.6,1.1-0.9,1.8-0.8c0.6,0,1.1,0.1,1.7,0.2c0.1,0,0.2,0,0.2-0.1
			c0.1-0.4,0.3-0.7,0.4-1.1c0-0.1,0-0.2-0.1-0.2l0,0c-0.4-0.1-0.7-0.2-1.1-0.3c-0.4,0-0.8-0.1-1.2-0.1c-0.6,0-1.2,0.1-1.8,0.3
			c-0.5,0.2-1,0.5-1.3,0.9s-0.6,0.9-0.8,1.4c-0.2,0.6-0.3,1.2-0.3,1.7c0,1.2,0.3,2.3,1.1,3.2c0.8,0.9,2,1.3,3.2,1.2
			c0.8,0,1.6-0.1,2.3-0.4c0.1,0,0.1-0.1,0.1-0.2L86,37.2z"/>
		<path class="stsalpar1" d="M94.3,32.5c-0.1-0.5-0.4-0.9-0.7-1.3c-0.3-0.3-0.6-0.6-1.1-0.8c-0.5-0.2-1-0.3-1.6-0.3s-1.2,0.1-1.8,0.3
			c-0.5,0.2-0.9,0.5-1.2,0.9c-0.3,0.4-0.6,0.9-0.8,1.4c-0.1,0.6-0.2,1.2-0.2,1.7c0,0.6,0.1,1.2,0.3,1.7c0.1,0.5,0.4,1,0.8,1.4
			s0.9,0.7,1.4,0.9c0.6,0.2,1.3,0.3,2,0.3c1,0.1,1.9-0.1,2.8-0.5c0.1,0,0.1-0.1,0-0.3l-0.4-1c0-0.1-0.1-0.1-0.1-0.1l0,0l0,0
			c-0.7,0.3-1.5,0.4-2.3,0.4c-0.7,0-1.4-0.2-1.9-0.6c-0.4-0.5-0.7-1.2-0.6-1.8h5.5c0.1,0,0.1-0.1,0.1-0.1l0,0l0,0
			C94.5,34.8,94.7,33.7,94.3,32.5 M88.9,33.6c0-0.5,0.2-0.9,0.5-1.3c0.3-0.5,0.9-0.8,1.6-0.8c0.6,0,1.2,0.3,1.6,0.8
			c0.2,0.4,0.4,0.8,0.4,1.3H88.9z"/>
		<path class="stsalpar1" d="M50.4,32.5c-0.1-0.5-0.4-0.9-0.7-1.3c-0.3-0.3-0.6-0.6-1.1-0.8c-0.5-0.2-1-0.3-1.6-0.3s-1.2,0.1-1.8,0.3
			c-0.5,0.2-0.9,0.5-1.2,0.9s-0.6,0.9-0.8,1.4c-0.1,0.6-0.2,1.2-0.2,1.7c0,0.6,0.1,1.2,0.3,1.7c0.1,0.5,0.4,1,0.8,1.4
			c0.4,0.4,0.9,0.7,1.4,0.9c0.6,0.2,1.3,0.3,2,0.3c1,0.1,1.9-0.1,2.8-0.5c0.1,0,0.1-0.1,0-0.3l-0.4-1c0-0.1-0.1-0.1-0.1-0.1l0,0l0,0
			c-0.7,0.3-1.5,0.4-2.3,0.4c-0.7,0-1.4-0.2-1.9-0.6c-0.4-0.5-0.7-1.2-0.6-1.8h5.5c0.1,0,0.1-0.1,0.1-0.1l0,0l0,0
			C50.6,34.8,50.8,33.7,50.4,32.5 M44.9,33.6c0-0.5,0.2-0.9,0.5-1.3c0.3-0.5,0.9-0.8,1.6-0.8c0.6,0,1.2,0.3,1.6,0.8
			c0.2,0.4,0.4,0.8,0.4,1.3H44.9z"/>
		<path class="stsalpar1" d="M35.3,33.3c-0.2,0-0.5,0-0.9,0c-0.5,0-0.9,0.1-1.4,0.2c-0.4,0.1-0.8,0.3-1.1,0.5c-0.3,0.2-0.6,0.5-0.8,0.9
			c-0.2,0.4-0.3,0.8-0.3,1.2s0.1,0.9,0.3,1.2c0.2,0.3,0.4,0.6,0.7,0.9c0.3,0.2,0.7,0.4,1.1,0.5c0.5,0.1,1,0.2,1.4,0.1
			c0.6,0,1.1,0,1.7-0.1c0.5-0.1,1.2-0.2,1.4-0.3c0.1,0,0.3-0.1,0.4-0.1c0.1,0,0.1-0.1,0.1-0.2v-5c0.1-0.9-0.2-1.8-0.9-2.4
			c-0.7-0.5-1.6-0.8-2.5-0.8c-0.5,0-1,0-1.5,0.1c-0.6,0.1-1.2,0.3-1.7,0.6c-0.1,0-0.1,0.1,0,0.2l0.4,1.1c0,0.1,0.1,0.1,0.1,0.1l0,0
			l0,0c0,0,0,0,0.1,0c0.7-0.4,1.5-0.5,2.4-0.6c0.5,0,1,0.1,1.4,0.3c0.3,0.2,0.5,0.6,0.5,1.3v0.2L35.3,33.3 M33.2,37.2
			c-0.1-0.1-0.2-0.2-0.3-0.3c-0.3-0.6-0.2-1.3,0.3-1.8c0.5-0.3,1-0.4,1.6-0.4c0.5,0,1,0,1.5,0.1v2.5c-0.5,0.1-1,0.2-1.5,0.2
			C34.2,37.6,33.6,37.5,33.2,37.2"/>
		<path class="stsalpar1" d="M79.5,30.5c0-0.1,0-0.1-0.1-0.2l0,0c-0.3-0.1-0.6-0.1-0.9-0.1c-0.5,0-1,0-1.4,0.2c-0.3,0.1-0.7,0.4-0.9,0.7
			v-0.7c0-0.1-0.1-0.1-0.1-0.1h-1.5c-0.1,0-0.1,0.1-0.1,0.1v8.2c0,0.1,0.1,0.1,0.1,0.1H76c0.1,0,0.1-0.1,0.1-0.1v-4.1
			c0-0.5,0-1,0.2-1.4c0.1-0.3,0.3-0.6,0.5-0.8s0.4-0.3,0.7-0.4c0.2-0.1,0.5-0.1,0.7-0.1s0.4,0,0.6,0.1c0.1,0,0.2,0,0.2-0.1l0,0
			C79.2,31.4,79.5,30.7,79.5,30.5"/>
		<path class="stsalpar1" d="M66,26.7l-0.5-0.1c-0.2,0-0.5-0.1-0.8-0.1c-0.9-0.1-1.7,0.2-2.3,0.8c-0.6,0.7-1,1.6-1.1,2.5l-0.1,0.4H60
			c-0.1,0-0.2,0.1-0.2,0.1l-0.2,1.1c0,0.1,0,0.2,0.1,0.2H61l-1.2,6.8c-0.1,0.5-0.2,0.9-0.3,1.4c-0.1,0.3-0.2,0.6-0.4,0.8
			c-0.1,0.2-0.3,0.3-0.5,0.4c-0.2,0.1-0.4,0.1-0.6,0.1c-0.1,0-0.3,0-0.5,0c-0.1,0-0.2-0.1-0.3-0.1s-0.1,0-0.2,0.1
			c0,0.1-0.4,1-0.4,1.1s0,0.2,0.1,0.2c0.2,0.1,0.3,0.1,0.5,0.1c0.3,0.1,0.5,0.1,0.8,0.1c0.5,0,0.9-0.1,1.4-0.2
			c0.4-0.2,0.7-0.4,1-0.7c0.3-0.4,0.6-0.8,0.7-1.2c0.2-0.6,0.4-1.2,0.5-1.8l1.2-7h1.8c0.1,0,0.2-0.1,0.2-0.1l0.2-1.1
			c0-0.1,0-0.2-0.1-0.2H63c0-0.4,0.1-0.8,0.3-1.2c0.1-0.2,0.2-0.4,0.4-0.6c0.1-0.1,0.3-0.2,0.5-0.3c0.2,0,0.4-0.1,0.6-0.1
			c0.1,0,0.3,0,0.5,0c0.1,0,0.2,0,0.3,0.1c0.2,0,0.2,0,0.2-0.1l0.4-1.1C66.1,26.8,66,26.8,66,26.7"/>
		<path class="stsalpar1" d="M41.5,38.6C41.5,38.7,41.4,38.7,41.5,38.6L40,38.7c-0.1,0-0.1-0.1-0.1-0.1V26.9c0-0.1,0.1-0.1,0.1-0.1h1.4
			c0.1,0,0.1,0.1,0.1,0.1V38.6L41.5,38.6z"/>
		<path class="stsalpar2" d="M114.5,27.6c-0.1,0.1-0.3,0.3-0.5,0.4v-2.2h-2v17.5h2v-6.4c2.9,3.3,6.2,3,8.4,1.7c2.6-1.6,3.8-5.2,2.8-8.4
			C123.8,25.3,117.8,23.6,114.5,27.6z M118.2,37.5c-2.6,0-4.3-2.3-4.3-5.1s2.2-5.2,4.8-5.2c2.6,0,4.7,2.2,4.7,5.2
			C123.4,35.2,121.1,37.5,118.2,37.5L118.2,37.5L118.2,37.5L118.2,37.5z"/>
		<path class="stsalpar2" d="M186.1,21.7v4h4.2v1.8h-4.1c0,0.4-0.1,0.8-0.1,1.1c0,2.1,0.1,4.2,0,6.2c-0.1,2.5,1.1,3,3.4,2.5
			c0.2,0,0.4-0.1,0.6-0.2c0.5,1.5,0.2,2-1.4,2.2c-3.2,0.4-4.7-1-4.7-4.2v-7.6l-1.8-0.1v-1.7l1.8-0.1v-4L186.1,21.7L186.1,21.7z"/>
		<path class="stsalpar2" d="M144.5,39.1h-2V25.7h2v3.1c1.4-2.1,3-3.5,5.4-3.4v2.1c-4,0.8-5.4,2.5-5.4,6.6
			C144.5,35.8,144.5,37.4,144.5,39.1z"/>
		<path class="stsalpar2" d="M162.3,20.2V28c-3.5-3.2-6.7-3.4-9.4-0.9s-3,7-0.7,10c0.9,1.2,2.2,2,3.7,2.3c2.6,0.5,4.6-0.5,6.4-2.7v2.5h1.9
			v-19H162.3L162.3,20.2z M157.4,37.6c-2.6-0.1-4.7-2.4-4.6-5.3c0.1-2.9,2-5.1,4.7-5.1s4.9,2.3,4.8,5.3
			C162.3,35.3,160.1,37.7,157.4,37.6L157.4,37.6z"/>
		<path class="stsalpar2" d="M138.9,29.7c-0.1-2-1.4-3.4-3.3-3.9c-2.4-0.6-5-0.3-7.2,0.8l0.6,1.7c2.4-0.9,3.6-1.1,5.2-0.9
			c1.8,0.2,3.3,1.9,2.7,3.9l-0.6-0.1c-2.3-0.4-4.5-0.7-6.7,0.3c-2,0.9-3,3.2-2.1,5.3c0.3,0.7,0.8,1.3,1.5,1.8c1.1,0.8,2.5,1.1,3.8,1
			c1.6-0.1,3.2-0.9,4.3-2.1l0.1,1.7h1.9c0-0.3,0.1-0.6,0.1-0.8C139,35.4,139.1,32.6,138.9,29.7z M135,37.2c-1.7,0.8-3.4,0.9-4.9-0.2
			c-1-0.8-1.2-2.4-0.3-3.4c0.1-0.2,0.3-0.3,0.5-0.5c1.9-0.9,4-1,6-0.4c0.3,0.1,0.6,0.5,0.7,0.8C137.3,35.1,136.5,36.6,135,37.2
			L135,37.2z"/>
		<path class="stsalpar2" d="M174.1,25.3c-3.9-0.1-7.1,3.1-7.2,7c-0.1,3.9,3.1,7.1,7,7.2c3.9,0.1,7.1-3.1,7.2-7l0,0
			C181.1,28.6,178,25.4,174.1,25.3C174.2,25.3,174.2,25.3,174.1,25.3L174.1,25.3z M174.1,37.6c-2.8,0-5-2.3-4.9-5.3
			c0-3,2.1-5.2,4.9-5.1c2.8,0,4.9,2.3,4.9,5.2S176.8,37.6,174.1,37.6L174.1,37.6z"/>
	</g>
</g>
</svg>
