<?xml version="1.0" encoding="utf-8"?>
<!-- Generator: Adobe Illustrator 22.1.0, SVG Export Plug-In . SVG Version: 6.00 Build 0)  -->
<svg version="1.1" id="icon" xmlns="http://www.w3.org/2000/svg" xmlns:xlink="http://www.w3.org/1999/xlink" x="0px" y="0px"
	 viewBox="0 0 64 64" style="enable-background:new 0 0 64 64;" xml:space="preserve">
<style type="text/css">
	.st0{fill:#032E61;}
</style>
<title>sales-day2</title>
<path class="st0" d="M44,36c-1.1,0-2-0.9-2-2V22H30c-1.1,0-2-0.9-2-2s0.9-2,2-2h14c1.1,0,2,0.9,2,2v14C46,35.1,45.1,36,44,36z"/>
<path class="st0" d="M9,41c-1.1,0-2-0.9-2-2c0-0.5,0.2-1,0.6-1.4l11-11c0.8-0.8,2-0.8,2.8,0l6.6,6.5l13.6-13.5c0.8-0.8,2-0.8,2.8,0
	s0.8,2,0,2.8l-14.9,15c-0.8,0.8-2,0.8-2.8,0L20,30.8l-9.6,9.6C10,40.8,9.5,41,9,41z"/>
<path class="st0" d="M55,57H9c-1.1,0-2-0.9-2-2V9c0-1.1,0.9-2,2-2h46c1.1,0,2,0.9,2,2v46C57,56.1,56.1,57,55,57z M11,53h42V11H11V53
	z"/>
<path class="st0" d="M20,57c-1.1,0-2-0.9-2-2v-8c0-1.1,0.9-2,2-2s2,0.9,2,2v8C22,56.1,21.1,57,20,57z"/>
<path class="st0" d="M32,57c-1.1,0-2-0.9-2-2v-8c0-1.1,0.9-2,2-2c1.1,0,2,0.9,2,2v8C34,56.1,33.1,57,32,57z"/>
<path class="st0" d="M44,57c-1.1,0-2-0.9-2-2v-8c0-1.1,0.9-2,2-2s2,0.9,2,2v8C46,56.1,45.1,57,44,57z"/>
</svg>
