<?xml version="1.0" encoding="utf-8"?>
<!-- Generator: Adobe Illustrator 25.0.0, SVG Export Plug-In . SVG Version: 6.00 Build 0)  -->
<svg version="1.1" id="layer" xmlns="http://www.w3.org/2000/svg" xmlns:xlink="http://www.w3.org/1999/xlink" x="0px" y="0px"
	 viewBox="0 0 652 652" style="enable-background:new 0 0 652 652;" xml:space="preserve">
<style type="text/css">
	.st0{fill:#00A0DF;}
	.st1{fill:#00226A;}
</style>
<g>
	<path class="st0" d="M415.8,185.2c-4.3,0-7.4,1.5-9.4,4.6c-2,3.2-3.1,7.7-3.1,13.4c0,5.7,1.1,10.3,3.1,13.4c2,3.2,5.1,4.6,9.4,4.6
		c4.6,0,7.7-1.5,9.7-4.6c2-3.2,3.1-7.7,3.1-13.4c0-5.7-1.1-10.2-3.1-13.4C423.2,186.6,420.1,185.2,415.8,185.2z"/>
	<path class="st0" d="M198.4,206.6c-1.9,1.4-2.8,3.7-2.8,6.5c0,1.7,0.3,3.2,0.9,4.3c0.6,0.6,0.6,0.9,2,2c0,0,2.8,2.6,9.6,2
		c4.8-0.2,9.1-1.1,9.1-1.1v-15.1c0,0-4.3-0.9-9.1-0.9C201.2,204,198.4,206.6,198.4,206.6z"/>
	<path class="st0" d="M548.2,185c-4.3,0-7.4,1.7-9.4,4.8c-1.2,2.3-2,4.9-2.6,8h23.7c-0.3-3.2-0.9-6-2.3-8
		C555.3,186.7,552.5,185,548.2,185z"/>
	<path class="st0" d="M282.2,185c-4.3,0-7.4,1.7-9.4,4.8c-1.2,2.3-2,4.9-2.6,8h23.7c-0.3-3.2-0.9-6-2.3-8
		C289.3,186.7,286.5,185,282.2,185z"/>
	<path class="st0" d="M505.7,69.2c-18,0-34.7,3.7-50.1,10.5c-17.7-31.2-50.7-52.3-88.5-52.3c-28.4,0-54,12-72.5,31.3
		c-20.4-26.5-52.3-43.8-88.1-43.7C145.1,15,95.3,64.7,95.3,126.2c0,15.7,3.1,30.4,9.1,44.1c-28.5,16.7-47.8,47.8-47.8,83.6
		c0,53.5,42.7,96.7,95.6,96.7c6.8,0,13.3-0.6,19.6-2c14.5,39.2,52.3,67.4,96.7,67.4c42.4,0,79.1-25.9,94.7-62.9
		c11.9,5.7,25.3,9.1,39.5,9.1c33.8,0,63.4-18.8,78.8-46.4c7.7,1.7,15.9,2.6,24.2,2.6c68.3,0,123.5-55.8,123.5-124.6
		S574,69.2,505.7,69.2z M179.2,214c0,9.9-7.4,16.2-19.1,16.2c-5.7,0-11.1-0.9-17.1-4c-1.1-0.6-2.3-1.1-3.4-2
		c-0.3-0.3-0.6-0.5-0.3-1.4l2.3-6.5c0.3-1.2,1.1-0.9,1.4-0.6c0.6,0.2,1.1,0.5,2,1.1c6.8,4.3,13.1,4.3,15.1,4.3
		c5.2,0,8.3-2.6,8.3-6.3v-0.3c0-4-4.8-5.4-10.5-7.1l-1.1-0.3c-7.6-2-15.9-5.4-15.9-15.1v-0.3c0-9.4,7.4-15.9,18.2-15.9h1.1
		c6.3,0,12.2,2,16.8,4.6c0.3,0.3,0.9,0.8,0.6,1.4c0,0.5-2,5.9-2.3,6.5c-0.3,1.2-1.4,0.3-1.4,0.3c-4-2-10-3.7-15.1-3.7
		c-4.6,0-7.4,2.3-7.4,5.7v0.3c0,4,5.1,5.4,10.8,7.4l1.1,0.3c7.6,2.3,15.9,5.7,15.9,15.1V214z M227.7,225.3c0,0,0,0.8-0.9,1.1
		c0,0-1.2,0.3-2.3,0.6c-0.9,0.3-5.2,1.1-8.3,1.7c-3.2,0.6-6.6,0.9-10,0.9c-3.1,0-6.2-0.3-8.8-0.9c-2.5-0.5-4.8-1.4-6.8-2.8
		c-1.7-1.1-3.2-3.1-4.3-5.1c-0.8-2.3-1.4-4.9-1.4-7.7c0-2.9,0.6-5.4,1.7-7.7c1.1-2,2.8-4,4.8-5.4s4.2-2.5,6.8-3.1
		c2.6-0.8,5.5-1.1,8.3-1.1c2,0,3.7,0.3,5.1,0.3c0,0,2.8,0.3,5.6,0.3V195c0-4.6-1.1-6.6-2.8-8c-2-1.4-4.6-2.3-8.3-2.3
		c0,0-8.2,0-14.5,3.4c-0.3,0.3-0.6,0.3-0.6,0.3s-0.8,0.3-1.1-0.6l-2.3-6.3c-0.3-1.1,0.3-1.4,0.3-1.4c3.1-2.3,10.2-3.7,10.2-3.7
		c2.3-0.6,6.2-0.9,8.8-0.9c6.9,0,12,1.5,15.4,4.6c3.7,3.1,5.4,8.3,5.4,14.8V225.3z M249.4,227.9c0,0.6-0.3,1.1-0.9,1.1h-8.8
		c-0.6,0-0.9-0.6-0.9-1.1v-70.8c0-0.6,0.3-1.1,0.9-1.1h8.8c0.6,0,0.9,0.6,0.9,1.1V227.9z M303.6,204.8c0,0.9-0.9,0.9-0.9,0.9h-33.3
		c0.3,5.1,1.4,8.5,4,11.1c2.3,2.6,6.3,4,11.4,4c8,0,11.4-1.7,13.7-2.6c0,0,0.8-0.3,1.1,0.6l2.3,6c0.6,1.1,0,1.4-0.3,1.7
		c-2.3,1.1-7.1,3.4-16.8,3.4c-4.5,0-8.5-0.6-11.9-2c-3.2-1.1-6-3.1-8.3-5.4c-2.2-2.5-3.7-5.4-4.8-8.5c-0.8-3.1-1.4-6.8-1.4-10.5
		s0.5-7.4,1.4-10.5c1.2-3.1,2.6-5.9,4.6-8.5c2-2.6,4.6-4.6,7.7-6c3.1-1.4,6.8-2,11.1-2c3.4,0,6.6,0.9,9.4,2c2,0.8,4,2.5,6.3,4.8
		c1.5,1.4,3.4,4.6,4.3,7.7C305.5,198.4,304.3,204.9,303.6,204.8z M331.9,230.2c-5.7,0-11.1-0.9-17.1-4c-1.1-0.6-2.3-1.1-3.4-2
		c-0.3-0.3-0.6-0.5-0.3-1.4l2.3-6.5c0.3-1.2,1.1-0.6,1.4-0.6c0.6,0.2,1.1,0.5,2,1.1c6.8,4.3,13.1,4.3,15.1,4.3
		c5.2,0,8.3-2.6,8.3-6.3v-0.3c0-4-4.8-5.4-10.5-7.1l-1.1-0.3c-7.6-2-15.9-5.4-15.9-15.1v-0.3c0-9.4,7.4-15.9,18.2-15.9h1.1
		c6.3,0,12.2,2,16.8,4.6c0.3,0.3,0.9,0.8,0.6,1.4c0,0.5-2,5.9-2.3,6.5c-0.3,1.2-1.4,0.3-1.4,0.3c-4-2-10-3.7-15.1-3.7
		c-4.6,0-7.4,2.3-7.4,5.7v0.3c0,4,5.1,5.4,10.8,7.4l1.1,0.3c7.6,2.3,15.9,5.7,15.9,15.1v0.3C351,223.9,343.6,230.2,331.9,230.2z
		 M390.5,186.1c-0.2,0.9-1.1,0.9-1.1,0.9h-10.8l-7.4,42.4c-0.5,4.3-1.7,8-2.8,11.1c-1.2,3.1-2.3,5.1-4.3,7.4c-2,2-4,3.4-6.3,4.3
		c-2.3,0.8-5.2,1.1-8.3,1.1c-1.4,0-3.1,0-4.8-0.6c-1.4-0.3-2.2-0.6-3.1-0.9c-0.6-0.3-0.9-0.8-0.6-1.4c0.3-0.8,2.3-6.2,2.6-6.8
		c0.2-0.9,1.1-0.6,1.1-0.6c0.6,0.3,0.8,0.3,1.7,0.6c0.6,0,1.7,0.3,2.6,0.3c1.4,0,2.9-0.3,4-0.6c1.4-0.3,2.2-1.2,3.1-2.3
		c0.9-1.1,1.4-2.8,2.3-4.8c0.9-2.3,1.4-4.9,2-8.3l7.4-41.5h-7.4c-0.8,0-1.1-0.5-1.1-1.1l1.1-6.8c0.2-0.9,1.1-0.9,1.1-0.9h7.4
		l0.3-2.3c0.8-6.6,3.1-11.7,6.5-15.1c3.1-3.4,7.9-5.1,13.9-5.1c1.8,0,3.5,0,4.6,0.3c1.4,0.3,2.3,0.6,3.4,0.9c0.3,0,0.9,0.2,0.8,1.7
		l-2.6,7.1c-0.3,0.6-0.3,0.9-1.4,0.6c-0.3,0-0.6,0-1.7-0.3c-0.8-0.3-1.9-0.3-2.8-0.3c-1.4,0-2.6,0.3-3.7,0.6
		c-1.1,0.3-1.9,0.8-2.8,1.7c-0.9,0.6-1.7,2-2.3,3.4c-1.1,3.4-1.7,7.1-1.7,7.4h11.1c0.8,0,1.1,0.5,1.1,1.1L390.5,186.1z M438.6,213.7
		c-1.2,3.1-2.6,6.2-4.6,8.5c-2.3,2.3-4.6,4.3-7.7,5.7c-3.1,1.4-6.5,2-10.5,2s-7.4-0.6-10.5-2c-2.8-1.4-5.4-3.4-7.4-5.7
		c-2-2.2-3.7-5.4-4.6-8.5c-0.8-3.1-1.4-6.8-1.4-10.5c0-3.7,0.5-7.4,1.4-10.5c1.2-3.4,2.6-6.2,4.6-8.5c2-2.3,4.3-4.3,7.4-5.7
		c3.1-1.1,6.5-2,10.5-2s7.7,0.6,10.5,2c2.8,1.4,5.4,3.4,7.4,5.7c2,2.2,3.7,5.4,4.6,8.5c1.1,3.1,1.7,6.8,1.7,10.5
		C440,206.9,439.5,210.6,438.6,213.7z M479.6,179c-0.3,0.9-2,5.4-2.7,7.1c-0.2,0.6-0.5,0.9-1.1,0.9c0,0-2-0.6-3.7-0.6
		c-1.5,0-3.2,0-4.6,0.6c-1.4,0.6-2.9,1.5-4,2.6c-1.1,1.1-1.9,2.8-2.8,4.8c-0.8,2.3-1.1,5.4-1.1,8.8v25c0,0.5-0.3,1.1-0.9,1.1h-8.8
		c-0.5,0-1.1-0.5-1.1-1.1v-49.5c0-0.5,0.3-1.1,0.9-1.1h8.5c0.6,0,0.9,0.5,0.9,1.1v4c1.4-1.7,3.7-3.4,5.7-4.3c2-0.8,4.2-1.7,8.5-1.4
		c2.3,0,5.1,0.6,5.7,0.9C479.3,177.9,479.9,178.1,479.6,179z M520.6,227.2c-3.7,1.5-8.8,2.6-13.9,2.6c-8.5,0-15-2.6-19.3-7.4
		c-4.2-4.8-6.5-11.3-6.5-19.6c0-3.7,0.6-7.4,1.7-10.5c1.1-3.1,2.8-6.2,4.8-8.5c2.3-2.3,4.9-4.3,8-5.7c3.1-1.1,6.8-2,10.8-2
		c2.8,0,5.4,0.3,7.4,0.6c2.2,0.3,5.4,1.1,6.5,1.7c0.3,0,0.9,0.2,0.6,1.1c-0.9,2.8-1.4,4.5-2.3,6.8c-0.2,0.9-1.1,0.6-1.1,0.6
		c-3.1-0.8-6.2-1.4-10.2-1.4c-4.8,0-8.5,1.7-10.8,4.8c-2.3,3.1-3.7,7.1-3.7,12.8c0,6,1.5,10.6,4.3,13.4c2.6,2.9,6.3,4.3,11.1,4.3
		c2,0,3.7,0,5.4-0.3c1.8-0.3,3.2-0.8,4.6-1.4c0,0,0.8-0.3,1.1,0.6l1.8,6.4C521.2,226.9,520.6,227.2,520.6,227.2z M569.6,204.8
		c0,0.9-0.9,0.9-0.9,0.9h-33.3c0.3,5.1,1.4,8.5,4,11.1c2.3,2.6,6.3,4,11.4,4c8,0,11.4-1.7,13.7-2.6c0,0,0.8-0.3,1.1,0.6l2.3,6
		c0.6,1.1,0,1.4-0.3,1.7c-2.3,1.1-7.1,3.4-16.8,3.4c-4.5,0-8.5-0.6-11.9-2c-3.2-1.1-6-3.1-8.3-5.4c-2.2-2.5-3.7-5.4-4.8-8.5
		c-0.8-3.1-1.4-6.8-1.4-10.5s0.5-7.4,1.4-10.5c1.2-3.1,2.6-5.9,4.6-8.5c2-2.6,4.6-4.6,7.7-6c3.1-1.4,6.8-2,11.1-2
		c3.4,0,6.6,0.9,9.4,2c2,0.8,4,2.5,6.3,4.8c1.5,1.4,3.4,4.6,4.3,7.7C571.2,198.4,570.3,204.9,569.6,204.8z"/>
</g>
<path class="st1" d="M89.7,502.6c-3.9,2-11.8,3.9-21.9,3.9c-23.4,0-41-14.8-41-41.9c0-26,17.6-43.5,43.3-43.5
	c10.3,0,16.9,2.2,19.7,3.7l-2.6,8.7c-4.1-2-9.8-3.4-16.7-3.4c-19.4,0-32.3,12.4-32.3,34.2c0,20.3,11.7,33.3,31.9,33.3
	c6.5,0,13.2-1.4,17.5-3.4L89.7,502.6z"/>
<path class="st1" d="M155.2,475.1c0,22-15.3,31.6-29.6,31.6c-16.1,0-28.5-11.8-28.5-30.6c0-19.9,13-31.6,29.5-31.6
	C143.7,444.4,155.2,456.9,155.2,475.1z M108,475.7c0,13,7.5,22.9,18.1,22.9c10.3,0,18.1-9.7,18.1-23.1c0-10.1-5-22.9-17.8-22.9
	S108,464.4,108,475.7z"/>
<path class="st1" d="M168.9,461.9c0-6.2-0.1-11.2-0.5-16.1h9.5l0.5,9.6h0.4c3.3-5.7,8.9-10.9,18.7-10.9c8.1,0,14.3,4.9,16.9,11.9
	h0.2c1.8-3.3,4.2-5.9,6.6-7.7c3.6-2.7,7.5-4.2,13.2-4.2c7.9,0,19.6,5.2,19.6,25.8v35.1h-10.6v-33.7c0-11.4-4.2-18.3-12.9-18.3
	c-6.1,0-10.9,4.6-12.8,9.8c-0.5,1.5-0.9,3.4-0.9,5.4v36.8h-10.6v-35.7c0-9.5-4.2-16.4-12.4-16.4c-6.8,0-11.7,5.4-13.4,10.8
	c-0.6,1.6-0.9,3.4-0.9,5.3v35.9h-10.6V461.9z"/>
<path class="st1" d="M271.5,461.9c0-6.2-0.1-11.2-0.5-16.1h9.5l0.5,9.6h0.4c3.3-5.7,8.9-10.9,18.7-10.9c8.1,0,14.3,4.9,16.9,11.9
	h0.2c1.8-3.3,4.2-5.9,6.6-7.7c3.6-2.7,7.5-4.2,13.2-4.2c7.9,0,19.6,5.2,19.6,25.8v35.1H346v-33.7c0-11.4-4.2-18.3-12.9-18.3
	c-6.2,0-10.9,4.6-12.8,9.8c-0.5,1.5-0.9,3.4-0.9,5.4v36.8h-10.6v-35.7c0-9.5-4.2-16.4-12.4-16.4c-6.8,0-11.7,5.4-13.4,10.8
	c-0.6,1.6-0.9,3.4-0.9,5.3v35.9h-10.6L271.5,461.9L271.5,461.9z"/>
<path class="st1" d="M423.8,489.1c0,6.2,0.1,11.6,0.5,16.2h-9.6l-0.6-9.7h-0.2c-2.8,4.8-9.1,11.1-19.7,11.1
	c-9.3,0-20.5-5.2-20.5-26.1v-34.8h10.8v33c0,11.3,3.4,18.9,13.3,18.9c7.3,0,12.3-5,14.3-9.8c0.6-1.6,1-3.6,1-5.5v-36.5h10.8
	L423.8,489.1L423.8,489.1z"/>
<path class="st1" d="M441.8,461.9c0-6.2-0.1-11.2-0.5-16.1h9.6l0.6,9.8h0.2c3-5.7,9.8-11.2,19.7-11.2c8.2,0,21,4.9,21,25.3v35.5
	h-10.8V471c0-9.6-3.6-17.6-13.8-17.6c-7.1,0-12.7,5-14.5,11.1c-0.5,1.4-0.7,3.2-0.7,5v35.8h-10.8L441.8,461.9L441.8,461.9z"/>
<path class="st1" d="M522.1,429.1c0.1,3.7-2.6,6.6-6.9,6.6c-3.8,0-6.5-3-6.5-6.6c0-3.8,2.8-6.8,6.8-6.8
	C519.5,422.3,522.1,425.3,522.1,429.1z M510.1,505.3v-59.5h10.8v59.5H510.1z"/>
<path class="st1" d="M551.9,428.7v17.1h15.5v8.2h-15.5v32.1c0,7.4,2.1,11.6,8.1,11.6c2.8,0,4.9-0.4,6.3-0.7l0.5,8.1
	c-2.1,0.9-5.4,1.5-9.6,1.5c-5,0-9.1-1.6-11.7-4.6c-3.1-3.2-4.2-8.5-4.2-15.5V454h-9.2v-8.2h9.2v-14.3L551.9,428.7z"/>
<path class="st1" d="M584.6,445.8l13,35.2c1.4,3.9,2.8,8.6,3.8,12.2h0.2c1.1-3.6,2.3-8.1,3.8-12.4l11.8-34.9h11.4l-16.2,42.4
	c-7.7,20.4-13,30.9-20.4,37.3c-5.3,4.7-10.6,6.5-13.3,7l-2.7-9.1c2.7-0.9,6.3-2.6,9.5-5.3c3-2.3,6.6-6.5,9.1-12.1
	c0.5-1.1,0.9-2,0.9-2.6s-0.2-1.5-0.7-2.8l-22-54.9L584.6,445.8L584.6,445.8z"/>
<path class="st1" d="M240.8,622.6c-3.9,2-11.8,3.9-21.9,3.9c-23.4,0-41-14.8-41-41.9c0-26,17.6-43.5,43.3-43.5
	c10.3,0,16.9,2.2,19.7,3.7l-2.6,8.7c-4.1-2-9.8-3.4-16.7-3.4c-19.4,0-32.3,12.4-32.3,34.2c0,20.3,11.7,33.3,31.9,33.3
	c6.5,0,13.2-1.4,17.5-3.4L240.8,622.6z"/>
<path class="st1" d="M253.8,538h10.8v87.3h-10.8V538z"/>
<path class="st1" d="M336.7,595.1c0,22-15.3,31.6-29.6,31.6c-16.1,0-28.5-11.8-28.5-30.6c0-19.9,13-31.6,29.5-31.6
	C325.1,564.4,336.7,576.9,336.7,595.1z M289.5,595.7c0,13,7.5,22.9,18.1,22.9c10.3,0,18.1-9.7,18.1-23.1c0-10.1-5-22.9-17.8-22.9
	S289.5,584.4,289.5,595.7z"/>
<path class="st1" d="M400.2,609.1c0,6.2,0.1,11.6,0.5,16.2h-9.6l-0.6-9.7h-0.2c-2.8,4.8-9.1,11.1-19.7,11.1
	c-9.3,0-20.5-5.2-20.5-26.1v-34.8h10.8v33c0,11.3,3.4,18.9,13.3,18.9c7.3,0,12.3-5,14.3-9.8c0.6-1.6,1-3.6,1-5.5v-36.5h10.8
	L400.2,609.1L400.2,609.1z"/>
<path class="st1" d="M469.5,538v72c0,5.3,0.1,11.3,0.5,15.4h-9.7l-0.5-10.3h-0.2c-3.3,6.6-10.6,11.7-20.3,11.7
	c-14.4,0-25.5-12.2-25.5-30.3c-0.1-19.8,12.2-32,26.7-32c9.1,0,15.3,4.3,18,9.1h0.2V538H469.5z M458.7,590c0-1.4-0.1-3.2-0.5-4.6
	c-1.6-6.9-7.5-12.5-15.6-12.5c-11.2,0-17.8,9.8-17.8,23c0,12.1,5.9,22,17.6,22c7.3,0,13.9-4.8,15.9-12.9c0.4-1.5,0.5-3,0.5-4.7V590
	H458.7z"/>
</svg>
