<?xml version="1.0" encoding="utf-8"?>
<!-- Generator: Adobe Illustrator 25.0.0, SVG Export Plug-In . SVG Version: 6.00 Build 0)  -->
<svg version="1.1" id="layer" xmlns="http://www.w3.org/2000/svg" xmlns:xlink="http://www.w3.org/1999/xlink" x="0px" y="0px"
	 viewBox="0 0 652 133" style="enable-background:new 0 0 652 133;" xml:space="preserve">
<style type="text/css">
	.st0{fill:#61A60E;}
</style>
<path class="st0" d="M125.1,127.3H98.4l-6.9-21.9H54.3l-6.9,21.9H21.3L58.4,18.9H88L125.1,127.3z M85.1,85.5L72.8,46.6L60.5,85.5
	H85.1z"/>
<path class="st0" d="M215.2,53.1c0,4.9-0.8,9.6-2.4,14.2c-1.6,4.6-3.8,8.5-6.7,11.7c-4,4.3-8.5,7.5-13.4,9.7s-11,3.3-18.4,3.3h-16
	v35.3h-25.9V18.9H175c6.4,0,11.8,0.6,16.1,1.8c4.4,1.2,8.3,3,11.6,5.3c4,2.9,7.1,6.5,9.3,11C214.2,41.5,215.2,46.9,215.2,53.1
	 M188.5,53.8c0-3-0.8-5.7-2.3-7.9s-3.3-3.8-5.3-4.6c-2.7-1.2-5.3-1.8-7.9-1.9c-2.6-0.1-6-0.2-10.2-0.2h-4.5v32.5h7.4
	c4.4,0,8-0.3,10.9-0.9c2.8-0.6,5.2-1.7,7.2-3.5c1.7-1.6,2.9-3.4,3.6-5.6C188.1,59.5,188.5,56.9,188.5,53.8"/>
<polygon class="st0" points="307.6,39.9 276.3,39.9 276.3,127.3 250.4,127.3 250.4,39.9 219,39.9 219,18.9 307.6,18.9 "/>
<polygon class="st0" points="407.6,39.9 376.3,39.9 357.7,127.3 331.7,127.3 350.3,39.9 319.1,39.9 323.5,18.9 412.1,18.9 "/>
<path class="st0" d="M511,18.9l-14.2,66c-3.2,14.6-8.6,25.2-16.2,31.8c-7.6,6.6-18.7,9.9-33.1,9.9c-12.9,0-22.6-2.5-29.2-7.5
	s-9.9-12.5-9.9-22.7c0-2.1,0.2-4.2,0.5-6.3c0.3-2.1,0.6-4.1,1-5.8l14-65.4h25.5l-14.1,65.5c-0.3,1.3-0.6,2.8-0.7,4.4
	c-0.2,1.6-0.3,2.9-0.3,3.9c0,4.4,1.2,7.8,3.7,10.1c2.5,2.3,6.6,3.4,12.3,3.4c5.6,0,10.1-1.7,13.5-5s5.9-8.5,7.4-15.5l14.4-66.9H511
	V18.9z"/>
<path class="st0" d="M540.2,127c-8.3,0-15.6-0.8-22.1-2.3c-6.5-1.5-12-3.5-16.7-5.7l5-25h2.7c4.5,4.4,9.7,7.8,15.7,10.2
	c6,2.4,12.5,3.6,19.4,3.6c7.1,0,12.3-1,15.6-3.1c3.3-2.1,5-5,5-8.9c0-1.4-0.3-2.7-0.8-3.7s-1.6-2.1-3.1-3.1c-1.6-1-3.7-2-6.4-3
	c-2.7-1-6.2-2.2-10.5-3.5c-4.7-1.4-8.9-2.9-12.7-4.6c-3.7-1.6-6.9-3.6-9.6-5.8c-2.6-2.3-4.6-4.9-6-7.9s-2-6.6-2-10.7
	c0-10.5,4.3-18.8,12.8-25s20.2-9.3,35-9.3c7.1,0,13.9,0.6,20.2,1.9c6.3,1.3,11.7,3,16.1,5.1l-4.7,24h-2.7c-3.4-3.4-7.8-6.2-13.3-8.4
	c-5.5-2.3-11.5-3.4-18-3.4c-6.4,0-11.3,1-14.8,3s-5.2,4.8-5.2,8.3c0,1.6,0.3,3,0.8,4.1c0.5,1.1,1.6,2.1,3.2,3.2
	c1.4,0.9,3.6,1.9,6.5,3c3,1.1,6.5,2.2,10.5,3.4c10.8,3.1,18.5,6.8,23.1,11s6.9,9.9,6.9,17.1c0,6-1.3,11.3-3.8,15.9s-6,8.3-10.4,11.1
	c-4.6,3-9.9,5.3-15.7,6.6C554.3,126.3,547.7,127,540.2,127"/>
<path class="st0" d="M612.9,35.5c-4.3,0-8.3-3.4-8.3-8.3c0-4.8,3.8-8.3,8.3-8.3c4.8,0,8.3,3.8,8.3,8.3
	C621.2,31.8,617.6,35.5,612.9,35.5 M612.9,19.6c-4.3,0-7.6,3.4-7.6,7.6c0,4.2,3.4,7.5,7.5,7.5c4.2,0,7.5-3.3,7.5-7.5
	C620.5,23.1,617.2,19.6,612.9,19.6 M612.8,21.9c1.1,0,1.8,0,2.4,0.3c1.1,0.4,1.7,1.4,1.7,2.4c0,1.3-0.8,2.1-2.1,2.5
	c0.8,0.4,1.3,0.8,1.5,2.2c0.2,1.6,0.3,2.2,0.8,3.1H615c-0.1-0.2-0.3-0.5-0.4-1.4c0-0.2-0.2-1.3-0.3-1.6c-0.3-1.5-1-1.6-2.4-1.6h-0.7
	v4.7h-1.9V22.1h3.5V21.9z M611.3,26.2h1.5c0.7,0,2.2,0,2.2-1.4c0-0.4-0.2-1-0.7-1.2c-0.4-0.2-0.6-0.2-1.8-0.2h-1.2V26.2z"/>
</svg>
