<?xml version="1.0" encoding="utf-8"?>
<!-- Generator: Adobe Illustrator 25.0.0, SVG Export Plug-In . SVG Version: 6.00 Build 0)  -->
<svg version="1.1" id="layer" xmlns="http://www.w3.org/2000/svg" xmlns:xlink="http://www.w3.org/1999/xlink" x="0px" y="0px"
	 viewBox="0 0 652 652" style="enable-background:new 0 0 652 652;" xml:space="preserve">
<style type="text/css">
	.st0{fill:#00A0DF;}
	.st1{enable-background:new    ;}
	.st2{fill:#00226A;}
</style>
<g>
	<path class="st0" d="M198.4,206.6c-1.9,1.4-2.8,3.7-2.8,6.5c0,1.7,0.3,3.2,0.9,4.3c0.6,0.6,0.6,0.9,2,2c0,0,2.8,2.6,9.6,2
		c4.8-0.2,9.1-1.1,9.1-1.1v-15.1c0,0-4.3-0.9-9.1-0.9C201.2,204,198.4,206.6,198.4,206.6z"/>
	<path class="st0" d="M282.2,185c-4.3,0-7.4,1.7-9.4,4.8c-1.2,2.3-2,4.9-2.6,8h23.7c-0.3-3.2-0.9-6-2.3-8
		C289.3,186.7,286.5,185,282.2,185z"/>
	<path class="st0" d="M548.2,185c-4.3,0-7.4,1.7-9.4,4.8c-1.2,2.3-2,4.9-2.6,8h23.7c-0.3-3.2-0.9-6-2.3-8
		C555.3,186.7,552.5,185,548.2,185z"/>
	<path class="st0" d="M505.7,69.2c-18,0-34.7,3.7-50.1,10.5c-17.7-31.2-50.7-52.3-88.5-52.3c-28.4,0-54,12-72.5,31.3
		c-20.4-26.5-52.3-43.8-88.1-43.7C145.1,15,95.3,64.7,95.3,126.2c0,15.7,3.1,30.4,9.1,44.1c-28.5,16.7-47.8,47.8-47.8,83.6
		c0,53.5,42.7,96.7,95.6,96.7c6.8,0,13.3-0.6,19.6-2c14.5,39.2,52.3,67.4,96.7,67.4c42.4,0,79.1-25.9,94.7-62.9
		c11.9,5.7,25.3,9.1,39.5,9.1c33.8,0,63.4-18.8,78.8-46.4c7.7,1.7,15.9,2.6,24.2,2.6c68.3,0,123.5-55.8,123.5-124.6
		S574,69.2,505.7,69.2z M179.2,214c0,9.9-7.4,16.2-19.1,16.2c-5.7,0-11.1-0.9-17.1-4c-1.1-0.6-2.3-1.1-3.4-2
		c-0.3-0.3-0.6-0.5-0.3-1.4l2.3-6.5c0.3-1.2,1.1-0.9,1.4-0.6c0.6,0.2,1.1,0.5,2,1.1c6.8,4.3,13.1,4.3,15.1,4.3
		c5.2,0,8.3-2.6,8.3-6.3v-0.3c0-4-4.8-5.4-10.5-7.1l-1.1-0.3c-7.6-2-15.9-5.4-15.9-15.1v-0.3c0-9.4,7.4-15.9,18.2-15.9h1.1
		c6.3,0,12.2,2,16.8,4.6c0.3,0.3,0.9,0.8,0.6,1.4c0,0.5-2,5.9-2.3,6.5c-0.3,1.2-1.4,0.3-1.4,0.3c-4-2-10-3.7-15.1-3.7
		c-4.6,0-7.4,2.3-7.4,5.7v0.3c0,4,5.1,5.4,10.8,7.4l1.1,0.3c7.6,2.3,15.9,5.7,15.9,15.1V214z M227.7,225.3c0,0,0,0.8-0.9,1.1
		c0,0-1.2,0.3-2.3,0.6c-0.9,0.3-5.2,1.1-8.3,1.7c-3.2,0.6-6.6,0.9-10,0.9c-3.1,0-6.2-0.3-8.8-0.9c-2.5-0.5-4.8-1.4-6.8-2.8
		c-1.7-1.1-3.2-3.1-4.3-5.1c-0.8-2.3-1.4-4.9-1.4-7.7c0-2.9,0.6-5.4,1.7-7.7c1.1-2,2.8-4,4.8-5.4s4.2-2.5,6.8-3.1
		c2.6-0.8,5.5-1.1,8.3-1.1c2,0,3.7,0.3,5.1,0.3c0,0,2.8,0.3,5.6,0.3V195c0-4.6-1.1-6.6-2.8-8c-2-1.4-4.6-2.3-8.3-2.3
		c0,0-8.2,0-14.5,3.4c-0.3,0.3-0.6,0.3-0.6,0.3s-0.8,0.3-1.1-0.6l-2.3-6.3c-0.3-1.1,0.3-1.4,0.3-1.4c3.1-2.3,10.2-3.7,10.2-3.7
		c2.3-0.6,6.2-0.9,8.8-0.9c6.9,0,12,1.5,15.4,4.6c3.7,3.1,5.4,8.3,5.4,14.8V225.3z M249.4,227.9c0,0.6-0.3,1.1-0.9,1.1h-8.8
		c-0.6,0-0.9-0.6-0.9-1.1v-70.8c0-0.6,0.3-1.1,0.9-1.1h8.8c0.6,0,0.9,0.6,0.9,1.1V227.9z M303.6,204.8c0,0.9-0.9,0.9-0.9,0.9h-33.3
		c0.3,5.1,1.4,8.5,4,11.1c2.3,2.6,6.3,4,11.4,4c8,0,11.4-1.7,13.7-2.6c0,0,0.8-0.3,1.1,0.6l2.3,6c0.6,1.1,0,1.4-0.3,1.7
		c-2.3,1.1-7.1,3.4-16.8,3.4c-4.5,0-8.5-0.6-11.9-2c-3.2-1.1-6-3.1-8.3-5.4c-2.2-2.5-3.7-5.4-4.8-8.5c-0.8-3.1-1.4-6.8-1.4-10.5
		s0.5-7.4,1.4-10.5c1.2-3.1,2.6-5.9,4.6-8.5c2-2.6,4.6-4.6,7.7-6c3.1-1.4,6.8-2,11.1-2c3.4,0,6.6,0.9,9.4,2c2,0.8,4,2.5,6.3,4.8
		c1.5,1.4,3.4,4.6,4.3,7.7C305.5,198.4,304.3,204.9,303.6,204.8z M331.9,230.2c-5.7,0-11.1-0.9-17.1-4c-1.1-0.6-2.3-1.1-3.4-2
		c-0.3-0.3-0.6-0.5-0.3-1.4l2.3-6.5c0.3-1.2,1.1-0.6,1.4-0.6c0.6,0.2,1.1,0.5,2,1.1c6.8,4.3,13.1,4.3,15.1,4.3
		c5.2,0,8.3-2.6,8.3-6.3v-0.3c0-4-4.8-5.4-10.5-7.1l-1.1-0.3c-7.6-2-15.9-5.4-15.9-15.1v-0.3c0-9.4,7.4-15.9,18.2-15.9h1.1
		c6.3,0,12.2,2,16.8,4.6c0.3,0.3,0.9,0.8,0.6,1.4c0,0.5-2,5.9-2.3,6.5c-0.3,1.2-1.4,0.3-1.4,0.3c-4-2-10-3.7-15.1-3.7
		c-4.6,0-7.4,2.3-7.4,5.7v0.3c0,4,5.1,5.4,10.8,7.4l1.1,0.3c7.6,2.3,15.9,5.7,15.9,15.1v0.3C351,223.9,343.6,230.2,331.9,230.2z
		 M390.5,186.1c-0.2,0.9-1.1,0.9-1.1,0.9h-10.8l-7.4,42.4c-0.5,4.3-1.7,8-2.8,11.1c-1.2,3.1-2.3,5.1-4.3,7.4c-2,2-4,3.4-6.3,4.3
		c-2.3,0.8-5.2,1.1-8.3,1.1c-1.4,0-3.1,0-4.8-0.6c-1.4-0.3-2.2-0.6-3.1-0.9c-0.6-0.3-0.9-0.8-0.6-1.4c0.3-0.8,2.3-6.2,2.6-6.8
		c0.2-0.9,1.1-0.6,1.1-0.6c0.6,0.3,0.8,0.3,1.7,0.6c0.6,0,1.7,0.3,2.6,0.3c1.4,0,2.9-0.3,4-0.6c1.4-0.3,2.2-1.2,3.1-2.3
		c0.9-1.1,1.4-2.8,2.3-4.8c0.9-2.3,1.4-4.9,2-8.3l7.4-41.5h-7.4c-0.8,0-1.1-0.5-1.1-1.1l1.1-6.8c0.2-0.9,1.1-0.9,1.1-0.9h7.4
		l0.3-2.3c0.8-6.6,3.1-11.7,6.5-15.1c3.1-3.4,7.9-5.1,13.9-5.1c1.8,0,3.5,0,4.6,0.3c1.4,0.3,2.3,0.6,3.4,0.9c0.3,0,0.9,0.2,0.8,1.7
		l-2.6,7.1c-0.3,0.6-0.3,0.9-1.4,0.6c-0.3,0-0.6,0-1.7-0.3c-0.8-0.3-1.9-0.3-2.8-0.3c-1.4,0-2.6,0.3-3.7,0.6
		c-1.1,0.3-1.9,0.8-2.8,1.7c-0.9,0.6-1.7,2-2.3,3.4c-1.1,3.4-1.7,7.1-1.7,7.4h11.1c0.8,0,1.1,0.5,1.1,1.1L390.5,186.1z M438.6,213.7
		c-1.2,3.1-2.6,6.2-4.6,8.5c-2.3,2.3-4.6,4.3-7.7,5.7c-3.1,1.4-6.5,2-10.5,2s-7.4-0.6-10.5-2c-2.8-1.4-5.4-3.4-7.4-5.7
		c-2-2.2-3.7-5.4-4.6-8.5c-0.8-3.1-1.4-6.8-1.4-10.5c0-3.7,0.5-7.4,1.4-10.5c1.2-3.4,2.6-6.2,4.6-8.5c2-2.3,4.3-4.3,7.4-5.7
		c3.1-1.1,6.5-2,10.5-2s7.7,0.6,10.5,2c2.8,1.4,5.4,3.4,7.4,5.7c2,2.2,3.7,5.4,4.6,8.5c1.1,3.1,1.7,6.8,1.7,10.5
		C440,206.9,439.5,210.6,438.6,213.7z M479.6,179c-0.3,0.9-2,5.4-2.7,7.1c-0.2,0.6-0.5,0.9-1.1,0.9c0,0-2-0.6-3.7-0.6
		c-1.5,0-3.2,0-4.6,0.6c-1.4,0.6-2.9,1.5-4,2.6c-1.1,1.1-1.9,2.8-2.8,4.8c-0.8,2.3-1.1,5.4-1.1,8.8v25c0,0.5-0.3,1.1-0.9,1.1h-8.8
		c-0.5,0-1.1-0.5-1.1-1.1v-49.5c0-0.5,0.3-1.1,0.9-1.1h8.5c0.6,0,0.9,0.5,0.9,1.1v4c1.4-1.7,3.7-3.4,5.7-4.3c2-0.8,4.2-1.7,8.5-1.4
		c2.3,0,5.1,0.6,5.7,0.9C479.3,177.9,479.9,178.1,479.6,179z M520.6,227.2c-3.7,1.5-8.8,2.6-13.9,2.6c-8.5,0-15-2.6-19.3-7.4
		c-4.2-4.8-6.5-11.3-6.5-19.6c0-3.7,0.6-7.4,1.7-10.5c1.1-3.1,2.8-6.2,4.8-8.5c2.3-2.3,4.9-4.3,8-5.7c3.1-1.1,6.8-2,10.8-2
		c2.8,0,5.4,0.3,7.4,0.6c2.2,0.3,5.4,1.1,6.5,1.7c0.3,0,0.9,0.2,0.6,1.1c-0.9,2.8-1.4,4.5-2.3,6.8c-0.2,0.9-1.1,0.6-1.1,0.6
		c-3.1-0.8-6.2-1.4-10.2-1.4c-4.8,0-8.5,1.7-10.8,4.8c-2.3,3.1-3.7,7.1-3.7,12.8c0,6,1.5,10.6,4.3,13.4c2.6,2.9,6.3,4.3,11.1,4.3
		c2,0,3.7,0,5.4-0.3c1.8-0.3,3.2-0.8,4.6-1.4c0,0,0.8-0.3,1.1,0.6l1.8,6.4C521.2,226.9,520.6,227.2,520.6,227.2z M569.6,204.8
		c0,0.9-0.9,0.9-0.9,0.9h-33.3c0.3,5.1,1.4,8.5,4,11.1c2.3,2.6,6.3,4,11.4,4c8,0,11.4-1.7,13.7-2.6c0,0,0.8-0.3,1.1,0.6l2.3,6
		c0.6,1.1,0,1.4-0.3,1.7c-2.3,1.1-7.1,3.4-16.8,3.4c-4.5,0-8.5-0.6-11.9-2c-3.2-1.1-6-3.1-8.3-5.4c-2.2-2.5-3.7-5.4-4.8-8.5
		c-0.8-3.1-1.4-6.8-1.4-10.5s0.5-7.4,1.4-10.5c1.2-3.1,2.6-5.9,4.6-8.5c2-2.6,4.6-4.6,7.7-6c3.1-1.4,6.8-2,11.1-2
		c3.4,0,6.6,0.9,9.4,2c2,0.8,4,2.5,6.3,4.8c1.5,1.4,3.4,4.6,4.3,7.7C571.2,198.4,570.3,204.9,569.6,204.8z"/>
	<path class="st0" d="M415.8,185.2c-4.3,0-7.4,1.5-9.4,4.6c-2,3.2-3.1,7.7-3.1,13.4c0,5.7,1.1,10.3,3.1,13.4c2,3.2,5.1,4.6,9.4,4.6
		c4.6,0,7.7-1.5,9.7-4.6c2-3.2,3.1-7.7,3.1-13.4c0-5.7-1.1-10.2-3.1-13.4C423.2,186.6,420.1,185.2,415.8,185.2z"/>
</g>
<g class="st1">
	<path class="st2" d="M94.6,474.5l11.7,2.9c-2.4,9.6-6.8,16.9-13.2,21.9c-6.3,5-14.1,7.5-23.3,7.5c-9.5,0-17.2-1.9-23.2-5.8
		c-5.9-3.9-10.5-9.5-13.6-16.8s-4.7-15.2-4.7-23.6c0-9.2,1.8-17.2,5.3-24s8.5-12,15-15.6c6.5-3.5,13.6-5.3,21.4-5.3
		c8.8,0,16.2,2.2,22.2,6.7s10.2,10.8,12.6,18.9L93.3,444c-2-6.4-5-11.1-8.9-14s-8.8-4.4-14.7-4.4c-6.8,0-12.4,1.6-17,4.9
		c-4.5,3.2-7.7,7.6-9.6,13.1c-1.8,5.5-2.8,11.1-2.8,16.9c0,7.5,1.1,14,3.3,19.6s5.6,9.8,10.2,12.5c4.6,2.8,9.6,4.1,15,4.1
		c6.5,0,12.1-1.9,16.6-5.6C89.9,487.5,93,481.9,94.6,474.5z"/>
	<path class="st2" d="M115.2,473.4c0-11.8,3.3-20.6,9.8-26.2c5.5-4.7,12.2-7.1,20.1-7.1c8.8,0,15.9,2.9,21.5,8.6s8.3,13.7,8.3,23.8
		c0,8.2-1.2,14.7-3.7,19.4c-2.5,4.7-6,8.4-10.8,11c-4.7,2.6-9.8,3.9-15.4,3.9c-8.9,0-16.1-2.9-21.7-8.6
		C117.9,492.5,115.2,484.2,115.2,473.4z M126.3,473.4c0,8.2,1.8,14.3,5.3,18.3c3.6,4.1,8,6.1,13.5,6.1c5.4,0,9.8-2,13.4-6.1
		c3.6-4.1,5.3-10.3,5.3-18.7c0-7.9-1.8-13.9-5.4-17.9c-3.6-4.1-8-6.1-13.4-6.1s-9.9,2-13.5,6.1C128.1,459.2,126.3,465.3,126.3,473.4
		z"/>
	<path class="st2" d="M187.6,505.3v-63.8h9.7v8.9c2-3.1,4.7-5.6,8-7.5s7.1-2.9,11.4-2.9c4.7,0,8.6,1,11.6,2.9c3,2,5.2,4.7,6.4,8.2
		c5-7.4,11.6-11.2,19.7-11.2c6.3,0,11.2,1.8,14.6,5.3s5.1,8.9,5.1,16.2v43.8h-10.8V465c0-4.3-0.4-7.4-1.1-9.3s-2-3.4-3.8-4.6
		s-4-1.7-6.5-1.7c-4.5,0-8.2,1.5-11.2,4.5s-4.4,7.8-4.4,14.3v37.1h-10.8v-41.4c0-4.8-0.9-8.4-2.6-10.8c-1.8-2.4-4.6-3.6-8.6-3.6
		c-3,0-5.9,0.8-8.4,2.4c-2.6,1.6-4.5,3.9-5.6,7c-1.2,3.1-1.7,7.5-1.7,13.3v33.1L187.6,505.3L187.6,505.3z"/>
	<path class="st2" d="M290.1,505.3v-63.8h9.7v8.9c2-3.1,4.7-5.6,8-7.5s7.1-2.9,11.4-2.9c4.7,0,8.6,1,11.6,2.9c3,2,5.2,4.7,6.4,8.2
		c5-7.4,11.6-11.2,19.7-11.2c6.3,0,11.2,1.8,14.6,5.3s5.1,8.9,5.1,16.2v43.8h-10.8V465c0-4.3-0.4-7.4-1.1-9.3s-2-3.4-3.8-4.6
		s-4-1.7-6.5-1.7c-4.5,0-8.2,1.5-11.2,4.5s-4.4,7.8-4.4,14.3v37.1H328v-41.4c0-4.8-0.9-8.4-2.6-10.8c-1.8-2.4-4.6-3.6-8.6-3.6
		c-3,0-5.9,0.8-8.4,2.4c-2.6,1.6-4.5,3.9-5.6,7c-1.2,3.1-1.7,7.5-1.7,13.3v33.1L290.1,505.3L290.1,505.3z"/>
	<path class="st2" d="M436.2,484.8l11.2,1.4c-1.8,6.5-5,11.6-9.8,15.2s-10.9,5.4-18.3,5.4c-9.3,0-16.7-2.9-22.2-8.6
		s-8.2-13.8-8.2-24.2c0-10.7,2.8-19.1,8.3-25s12.7-8.9,21.5-8.9c8.5,0,15.5,2.9,20.9,8.7c5.4,5.8,8.1,14,8.1,24.5
		c0,0.6,0,1.6-0.1,2.9H400c0.4,7,2.4,12.4,5.9,16.1c3.6,3.7,8,5.6,13.3,5.6c4,0,7.3-1,10.1-3.1C432.3,492.7,434.5,489.4,436.2,484.8
		z M400.7,467.3h35.6c-0.5-5.4-1.8-9.4-4.1-12.1c-3.4-4.2-7.9-6.2-13.4-6.2c-5,0-9.1,1.7-12.5,5C402.9,457.3,401,461.7,400.7,467.3z
		"/>
	<path class="st2" d="M460.8,505.3v-63.8h9.7v9.7c2.5-4.5,4.8-7.5,6.9-8.9s4.4-2.2,6.9-2.2c3.6,0,7.3,1.2,11.1,3.5l-3.7,10
		c-2.6-1.6-5.3-2.3-7.9-2.3c-2.4,0-4.5,0.7-6.4,2.1s-3.2,3.4-4,5.9c-1.2,3.8-1.8,8-1.8,12.6v33.4L460.8,505.3L460.8,505.3z"/>
	<path class="st2" d="M543.5,482l10.6,1.4c-1.2,7.3-4.1,13.1-8.9,17.2c-4.8,4.1-10.7,6.2-17.6,6.2c-8.7,0-15.7-2.9-21-8.6
		s-8-13.9-8-24.5c0-6.9,1.1-12.9,3.4-18.1s5.8-9,10.4-11.6c4.7-2.6,9.7-3.9,15.2-3.9c6.9,0,12.6,1.8,17,5.3s7.2,8.5,8.5,14.9
		l-10.5,1.6c-1-4.3-2.8-7.5-5.3-9.7s-5.6-3.2-9.2-3.2c-5.4,0-9.9,2-13.3,5.9c-3.4,3.9-5.1,10.1-5.1,18.5c0,8.6,1.6,14.8,4.9,18.7
		c3.3,3.9,7.6,5.8,12.9,5.8c4.2,0,7.8-1.3,10.6-3.9C540.9,491.4,542.7,487.4,543.5,482z"/>
	<path class="st2" d="M607,484.8l11.2,1.4c-1.8,6.5-5,11.6-9.8,15.2s-10.9,5.4-18.3,5.4c-9.3,0-16.7-2.9-22.2-8.6
		s-8.2-13.8-8.2-24.2c0-10.7,2.8-19.1,8.3-25s12.7-8.9,21.5-8.9c8.5,0,15.5,2.9,20.9,8.7c5.4,5.8,8.1,14,8.1,24.5
		c0,0.6,0,1.6-0.1,2.9H571c0.4,7,2.4,12.4,5.9,16.1c3.6,3.7,8,5.6,13.3,5.6c4,0,7.3-1,10.1-3.1C603.2,492.7,605.4,489.4,607,484.8z
		 M571.5,467.3h35.6c-0.5-5.4-1.8-9.4-4.1-12.1c-3.4-4.2-7.9-6.2-13.4-6.2c-5,0-9.1,1.7-12.5,5C573.8,457.3,571.9,461.7,571.5,467.3
		z"/>
</g>
<g class="st1">
	<path class="st2" d="M245.8,594.5l11.7,2.9c-2.4,9.6-6.8,16.9-13.2,21.9c-6.3,5-14.1,7.5-23.3,7.5c-9.5,0-17.2-1.9-23.2-5.8
		c-5.9-3.9-10.5-9.5-13.6-16.8s-4.7-15.2-4.7-23.6c0-9.2,1.8-17.2,5.3-24s8.5-12,15-15.6c6.5-3.5,13.6-5.3,21.4-5.3
		c8.8,0,16.2,2.2,22.2,6.7s10.2,10.8,12.6,18.9l-11.5,2.7c-2-6.4-5-11.1-8.9-14s-8.8-4.4-14.7-4.4c-6.8,0-12.4,1.6-17,4.9
		c-4.5,3.2-7.7,7.6-9.6,13.1c-1.8,5.5-2.8,11.1-2.8,16.9c0,7.5,1.1,14,3.3,19.6s5.6,9.8,10.2,12.5c4.6,2.8,9.6,4.1,15,4.1
		c6.5,0,12.1-1.9,16.6-5.6C241.1,607.5,244.2,601.9,245.8,594.5z"/>
	<path class="st2" d="M270.1,625.3v-88H281v88H270.1z"/>
	<path class="st2" d="M293.7,593.4c0-11.8,3.3-20.6,9.8-26.2c5.5-4.7,12.2-7.1,20.1-7.1c8.8,0,15.9,2.9,21.5,8.6
		c5.6,5.7,8.3,13.7,8.3,23.8c0,8.2-1.2,14.7-3.7,19.4s-6,8.4-10.8,11c-4.7,2.6-9.8,3.9-15.4,3.9c-8.9,0-16.1-2.9-21.7-8.6
		C296.4,612.5,293.7,604.2,293.7,593.4z M304.8,593.4c0,8.2,1.8,14.3,5.3,18.3c3.6,4.1,8,6.1,13.5,6.1c5.4,0,9.8-2,13.4-6.1
		s5.3-10.3,5.3-18.7c0-7.9-1.8-13.9-5.4-17.9c-3.6-4.1-8-6.1-13.4-6.1s-9.9,2-13.5,6.1C306.6,579.2,304.8,585.3,304.8,593.4z"/>
	<path class="st2" d="M407.9,625.3V616c-5,7.2-11.7,10.8-20.2,10.8c-3.8,0-7.3-0.7-10.5-2.2c-3.3-1.4-5.7-3.3-7.3-5.4
		c-1.6-2.2-2.7-4.9-3.3-8c-0.4-2.1-0.7-5.5-0.7-10.1v-39.5h10.8V597c0,5.6,0.2,9.5,0.7,11.4c0.7,2.8,2.1,5.1,4.3,6.7
		c2.2,1.6,4.9,2.4,8.2,2.4s6.3-0.8,9.1-2.5c2.8-1.7,4.9-3.9,6-6.8c1.2-2.9,1.8-7,1.8-12.5v-34.2h10.8v63.8L407.9,625.3L407.9,625.3z
		"/>
	<path class="st2" d="M475.9,625.3v-8c-4,6.3-10,9.5-17.8,9.5c-5.1,0-9.8-1.4-14-4.2c-4.3-2.8-7.6-6.7-9.9-11.7s-3.5-10.8-3.5-17.3
		c0-6.4,1.1-12.1,3.2-17.3s5.3-9.2,9.5-11.9c4.2-2.8,9-4.1,14.2-4.1c3.8,0,7.3,0.8,10.3,2.4c3,1.6,5.4,3.7,7.3,6.3v-31.6H486v88
		h-10.1V625.3z M441.7,593.5c0,8.2,1.7,14.3,5.2,18.3c3.4,4,7.5,6.1,12.2,6.1s8.7-1.9,12-5.8c3.3-3.9,5-9.8,5-17.7
		c0-8.7-1.7-15.1-5-19.2s-7.5-6.1-12.4-6.1c-4.8,0-8.8,2-12,5.9C443.3,578.9,441.7,585.1,441.7,593.5z"/>
</g>
</svg>
