<?xml version="1.0" encoding="utf-8"?>
<!-- Generator: Adobe Illustrator 25.0.0, SVG Export Plug-In . SVG Version: 6.00 Build 0)  -->
<svg version="1.1" id="Capa_1" xmlns="http://www.w3.org/2000/svg" xmlns:xlink="http://www.w3.org/1999/xlink" x="0px" y="0px"
	 viewBox="0 0 800 800" style="enable-background:new 0 0 800 800;" xml:space="preserve">
<style type="text/css">
	.bg-light-list .icon-card svg path.stgb0{fill:none !important;stroke:#000000;stroke-width:30;stroke-linecap:round;stroke-linejoin:round;stroke-miterlimit:128;}
</style>
<g>
	<g>
		<path d="M567.7,5.9c-7.8-7.8-20.4-7.8-28.3,0l-60.6,60.6c-7.8,7.8-7.8,20.4,0,28.3l60.6,60.6c3.9,3.9,9,5.9,14.2,5.9
			s10.3-2,14.2-5.9c7.8-7.8,7.8-20.4,0-28.3l-26.5-26.5h101.1c64.4,0,116.8,52.4,116.8,116.8v71.5c0,11.1,9,20.1,20.1,20.1
			s20.1-9,20.1-20.1v-71.5c0-86.4-70.4-156.8-156.8-156.8h-101l26.5-26.5C575.6,26.5,575.6,13.7,567.7,5.9z"/>
		<path d="M407.7,599.9v180c0,11.1,9,20.1,20.1,20.1h350c11.1,0,20.1-9,20.1-20.1v-350c0-11.1-9-20.1-20.1-20.1H567.6
			C556.7,410,550.7,522.2,407.7,599.9z M448.7,579.7l68.8-63.8l36.2-65.9h203.9v310l-309.8,0.4L448.7,579.7z"/>
		<path d="M0.5,582.6c0,86.4,70.4,156.8,156.8,156.8h101.1l-26.5,26.5c-7.8,7.8-7.8,20.4,0,28.3c3.9,3.9,9,5.9,14.2,5.9
			s10.3-2,14.2-5.9l60.6-60.6c3.8-3.8,5.9-8.8,5.9-14.2s-2.1-10.5-5.9-14.2l-60.6-60.6c-7.8-7.8-20.4-7.8-28.3,0
			c-7.8,7.8-7.8,20.4,0,28.3l26.5,26.5h-101c-64.4,0-116.8-52.4-116.8-116.8v-71.4c0-11.1-9-20.1-20.1-20.1s-20.1,9-20.1,20.1
			L0.5,582.6L0.5,582.6z"/>
		<path d="M372.1,0H22C10.9,0,2,9,2,20.1v350c0,11.1,9,20.1,20.1,20.1h142.6c11.1,0,12.7-156,227.6-192.4V20.1C392,9,383,0,372.1,0z
			 M177.3,350H42.1V40h310v160.2l-117.9,51.4L177.3,350z"/>
	</g>
</g>
<path class="stgb0" d="M366.5,594C473.9,594,561,506.9,561,399.5S473.9,205,366.5,205S172,292.1,172,399.5S259.1,594,366.5,594z"/>
<path class="stgb0" d="M172,399.5h389"/>
<path class="stgb0" d="M366.5,594c37.6,0,68.1-87.1,68.1-194.5S404.1,205,366.5,205s-68.1,87.1-68.1,194.5S328.9,594,366.5,594z"/>
</svg>
