<?xml version="1.0" encoding="utf-8"?>
<!-- Generator: Adobe Illustrator 25.0.0, SVG Export Plug-In . SVG Version: 6.00 Build 0)  -->
<svg version="1.1" id="Capa_1" xmlns="http://www.w3.org/2000/svg" xmlns:xlink="http://www.w3.org/1999/xlink" x="0px" y="0px"
	 viewBox="0 0 800 800" style="enable-background:new 0 0 800 800;" xml:space="preserve">
<style type="text/css">
	.st0{fill:none;stroke:#000000;stroke-width:10;stroke-miterlimit:10;}
	.bg-light-list .icon-card svg path#XMLID_169_,
	.bg-light-list .icon-card svg path#XMLID_165_,
	.bg-light-list .icon-card svg path#XMLID_164_,
	.bg-light-list .icon-card svg path#XMLID_160_
	{fill:none !important;stroke:#000000;stroke-width:30;stroke-linecap:round;stroke-linejoin:round;stroke-miterlimit:128;}
</style>
<g id="XMLID_159_">
	<path id="XMLID_169_" class="st0" d="M171.8,235.3c31.6,0,57.2-25.6,57.2-57.2c0-31.6-25.6-57.2-57.2-57.2
		c-31.6,0-57.2,25.6-57.2,57.2C114.5,209.6,140.2,235.3,171.8,235.3z"/>
	<path id="XMLID_165_" class="st0" d="M621.1,227.6c33.3,0,65-27.5,65-65c0-35.9-29.1-65-65-65c-35.9,0-65,29.1-65,65
		C556.1,200.1,587.7,227.6,621.1,227.6z"/>
	<path id="XMLID_164_" class="st0" d="M795.3,459.9l-92.7-203.1c-4.6-10.1-14.5-15.8-24.8-16H564.4c-10.3,0.2-20.2,6-24.8,16
		l-92.7,203.1c-6.4,14-0.2,30.5,13.8,36.8c13.9,6.4,30.4,0.3,36.8-13.8l28.9-63.4l-24.4,115c-2.2,10.1,5.6,19.7,16,19.7h24.2v176.6
		c0,18.4,14.9,33.4,33.4,33.4c18.4,0,33.4-14.9,33.4-33.4V554.3h24.3v176.6c0,18.4,14.9,33.4,33.4,33.4c18.4,0,33.4-14.9,33.4-33.4
		V554.3h24.2c10.4,0,18.1-9.6,16-19.7l-24.4-115l28.9,63.4c6.4,14.1,23,20.1,36.8,13.8C795.5,490.3,801.6,473.8,795.3,459.9z"/>
	<path id="XMLID_160_" class="st0" d="M243.5,260.9C239,251.1,229,247,218.9,247c-8.4,0-82.6,0-94.3,0c-10.1,0-20.1,4.2-24.6,13.9
		L18.4,439.6c-5.6,12.3-0.2,26.8,12.1,32.4c12.2,5.6,26.8,0.3,32.4-12.1l39.5-86.4l-0.1,304.6c0,16.2,13.1,29.4,29.4,29.4
		c16.2,0,29.4-13.1,29.4-29.4v-175h21.4v175c0,16.2,13.2,29.4,29.4,29.4c16.2,0,29.3-13.1,29.3-29.4l-0.1-304.6l39.4,86.4
		c5.6,12.4,20.2,17.7,32.4,12.1c12.3-5.6,17.7-20.1,12.1-32.4L243.5,260.9z"/>
	<path id="XMLID_197_" d="M570.7,462.9L479,262.1c-5.7-12.5-17.5-16.5-31.4-16.5h-92.1c-2.6,0-5.1-0.8-7.2-2.4l-55.9-41.9
		c-1.7-1.3-3.1-3-3.9-5L244.2,90.7c-0.3-0.7-0.7-1.4-1.1-2.1l-7.4-11c-1.3-1.9-3.1-3.4-5.3-4.4l-6.6-3.1c-1.1-0.5-3.1-0.9-4.1-1.1
		c-4.6-0.6-9.2-0.4-13.8,1.5c-14,5.9-20.6,22-14.7,36l52.2,124.8c0.8,2,2.2,3.7,3.9,5l68.3,51.1c3,2.3,4.8,5.9,4.8,9.6
		c0,203-0.1,132.1-0.1,433.9c0,18.2,14.8,33,33,33s33-14.8,33-33V546.4c0-6.6,5.4-12,12-12h0c6.6,0,12,5.4,12,12V731
		c0,18.2,14.8,33,33,33c18.2,0,33-14.8,33-33c0-135.6-0.1-225.2-0.1-286.8c0-12.9,17.6-16.8,23-5l21.3,46.6
		c6.3,13.8,22.6,19.9,36.5,13.6C570.9,493.1,577,476.8,570.7,462.9z"/>
	<path id="XMLID_195_" d="M398.4,104.6c-35.5,0-64.3,28.8-64.3,64.3c0,35.5,28.8,64.3,64.3,64.3c35.5,0,64.3-28.8,64.3-64.3
		C462.7,133.4,433.9,104.6,398.4,104.6z"/>
</g>
</svg>
