<?xml version="1.0" encoding="utf-8"?>
<!-- Generator: Adobe Illustrator 25.0.0, SVG Export Plug-In . SVG Version: 6.00 Build 0)  -->
<svg version="1.1" id="Layer_1" xmlns="http://www.w3.org/2000/svg" xmlns:xlink="http://www.w3.org/1999/xlink" x="0px" y="0px"
	 viewBox="0 0 800 199" style="enable-background:new 0 0 800 199;" xml:space="preserve">
<style type="text/css">
	.st0{fill:#7099A6;}
	.st1{fill:#EB912C;}
	.st2{fill:#59879B;}
	.st3{fill:#E8762C;}
	.st4{fill:#5B6591;}
	.st5{fill:#C72035;}
	.st6{fill:#1F447E;}
</style>
<g>
	<g>
		<polygon class="st0" points="83.8,22.5 83.8,30.4 69.7,30.4 69.7,35.5 83.8,35.5 83.8,51.2 89.3,51.2 89.3,35.5 103.8,35.5 
			103.8,30.4 89.3,30.4 89.3,14.7 83.8,14.7 		"/>
		<polygon class="st1" points="37.8,42.5 37.8,53.9 16.5,53.9 16.5,61.1 37.8,61.1 37.8,84.3 45.7,84.3 45.7,61.1 67.3,61.1 
			67.3,53.9 45.7,53.9 45.7,31.1 37.8,31.1 		"/>
		<polygon class="st2" points="127.1,42.5 127.1,53.9 105.8,53.9 105.8,61.4 127.1,61.4 127.1,84.3 135.3,84.3 135.3,61.4 
			156.7,61.4 156.7,53.9 135.3,53.9 135.3,31.1 127.1,31.1 		"/>
		<polygon class="st3" points="81.8,81.4 81.8,94.2 58.1,94.2 58.1,103.8 81.8,103.8 81.8,129.4 91.4,129.4 91.4,103.8 115.1,103.8 
			115.1,94.2 91.4,94.2 91.4,68.6 81.8,68.6 		"/>
		<polygon class="st4" points="151.5,87.9 151.5,95.9 137.1,95.9 137.1,102.4 151.5,102.4 151.5,118.4 158.7,118.4 158.7,102.4 
			173.1,102.4 173.1,95.9 158.7,95.9 158.7,79.9 151.5,79.9 		"/>
		<polygon class="st0" points="14.1,88.6 14.1,96.3 0,96.3 0,101.7 14.1,101.7 14.1,117.1 19.6,117.1 19.6,101.7 34,101.2 34,96.3 
			19.6,96.3 19.6,80.9 14.1,80.9 		"/>
		<polygon class="st5" points="37.8,124.8 37.8,136.2 16.5,136.2 16.5,143.7 37.8,143.7 37.8,166.5 46,166.5 46,143.7 67.3,143.7 
			67.3,136.2 46,136.2 46,113.3 37.8,113.3 		"/>
		<polygon class="st6" points="127.1,124.8 127.1,136.2 105.8,136.2 105.8,143.3 127.1,143.3 127.1,166.5 135.3,166.5 135.3,143.3 
			156.7,143.3 156.7,136.2 135.3,136.2 135.3,113.3 127.1,113.3 		"/>
		<polygon class="st4" points="83.1,153.8 83.1,161.8 68.7,161.8 68.7,168.3 83.1,168.3 83.1,184.3 90.3,184.3 90.3,168.3 
			104.8,168.3 104.8,161.8 90.3,161.8 90.3,145.7 83.1,145.7 		"/>
	</g>
	<path class="st6" d="M527,48.8v97.3h-11V48.8H527z M254.2,62.5v31h29.5v10.2h-29.5v33.4h-11v-33.4h-29.5V93.5h29.5v-31H254.2z
		 M597.8,83.8c2,0.1,4.5,0.4,5.7,0.7c1.1,0.3,3,1,4.1,1.5c1.2,0.5,3,1.6,4.1,2.5c1.2,0.9,2.8,2.5,3.6,3.6s2,3.1,2.7,4.4
		s1.5,3.6,1.9,5.1c0.4,1.5,0.8,4.5,1.2,10.8h-38l0.2,1.3c0.1,0.7,0.5,2.2,0.8,3.3c0.4,1.1,1.2,2.9,2,3.9s1.8,2.2,2.3,2.6
		c0.6,0.4,1.7,1.1,2.6,1.6c0.8,0.4,2.3,1,3.3,1.2c1,0.3,3.5,0.5,5.8,0.5c2.3,0,5.5-0.2,7.2-0.5c1.7-0.3,4.1-0.9,5.3-1.2
		c1.2-0.4,2.8-1,3.5-1.3c0.7-0.4,1.4-0.7,1.6-0.7c0.2,0,0.3,1.8,0.4,9.2l0,1l0,0l-1.9,0.9c-1.1,0.5-3.2,1.2-4.9,1.7
		c-1.7,0.4-4.7,1-6.8,1.2c-2.8,0.3-4.8,0.3-7.7,0c-2.2-0.2-5.3-0.8-7-1.3c-1.7-0.5-4.2-1.4-5.4-2.1c-1.3-0.7-3.5-2.3-4.9-3.6
		c-1.4-1.3-3.2-3.5-4.1-4.8c-0.8-1.3-1.9-3.6-2.3-5c-0.5-1.4-1.1-3.9-1.3-5.4c-0.3-1.8-0.3-4.2-0.2-6.1c0.1-1.8,0.5-4.5,0.9-6
		c0.4-1.5,1.3-4,2-5.5c0.7-1.5,2.1-3.6,3-4.8c0.9-1.1,2.8-2.8,4.1-3.8c1.3-1,3.5-2.2,4.9-2.8c1.3-0.6,3.7-1.2,5.2-1.5
		C593.3,83.8,595.4,83.7,597.8,83.8z M711.8,83.3v17.2c0,9.4-0.1,20.7-0.5,33.1l-2.8,0.8c-1.5,0.4-4.5,1.2-6.8,1.5
		c-2.8,0.5-5.6,0.7-9.2,0.7c-2.9,0-6.3-0.2-7.5-0.4c-1.2-0.2-3.6-0.8-5.3-1.4c-1.8-0.6-4.2-1.7-5.7-2.7c-1.4-0.9-3.4-2.6-4.4-3.7
		c-1-1.1-2.4-3-3.1-4.2c-0.7-1.2-1.6-3.5-2-4.9c-0.7-2.1-0.9-3.8-1-7.7c-0.1-3.1,0-5.9,0.3-7.4c0.2-1.3,0.8-3.5,1.3-4.9
		c0.4-1.4,1.5-3.6,2.3-5c0.8-1.3,2.5-3.4,3.8-4.6c1.5-1.3,3.4-2.7,5-3.5c1.4-0.7,3.5-1.5,4.6-1.8c1.1-0.3,3.9-0.6,6.2-0.7
		c3-0.1,4.8,0,6.7,0.4c1.4,0.3,3.6,1,4.8,1.6c1.2,0.5,2.3,1,2.3,1c0.1,0,0.1-0.6,0.1-1.5l0-2H711.8z M372,83.3l0,21.3l0,0l0,2.2
		c0,10-0.2,19.8-0.5,26.6l-2.8,0.8c-1.5,0.4-4.7,1.2-7,1.6c-3.6,0.6-5.2,0.7-10.5,0.5c-4.8-0.1-6.8-0.3-8.9-0.9
		c-1.5-0.4-4.2-1.4-5.9-2.2c-1.8-0.9-3.9-2.3-5.2-3.4c-1.1-1-2.7-2.8-3.5-4c-0.8-1.2-1.9-3.1-2.3-4.3c-0.4-1.1-1.1-3.4-1.4-4.9
		c-0.4-2.3-0.5-4-0.4-8c0.2-3.9,0.4-5.8,0.9-7.7c0.4-1.4,1.4-3.7,2.1-5.1c0.7-1.4,2.2-3.6,3.3-4.7c1.1-1.2,2.9-2.8,4.1-3.6
		c1.1-0.7,3-1.7,4.1-2.2c1.1-0.4,3.2-1.1,4.5-1.3c1.4-0.3,3.9-0.5,5.7-0.5c1.8,0,4.3,0.3,5.6,0.5c1.3,0.3,3.4,1,4.6,1.6
		c1.2,0.5,2.3,1,2.3,1c0,0,0.1-0.8,0.1-1.7v-1.7H372z M436.3,59l0,16.3c0,10,0.1,10.7,0.6,10.5c0.4-0.1,2-0.6,3.7-1.1
		c2-0.5,4.4-0.9,7-1.1c2.9-0.1,4.7,0,6.8,0.4c1.9,0.4,4.1,1.1,6,2.1c1.7,0.8,3.9,2.2,5,3.2c1,0.9,2.7,2.8,3.6,4.2
		c1,1.4,2.1,3.6,2.7,5c0.5,1.3,1.2,3.9,1.5,5.6c0.4,2.3,0.5,4.3,0.4,7.4c-0.1,2.3-0.4,5.2-0.8,6.5c-0.3,1.2-1.1,3.3-1.7,4.6
		c-0.6,1.3-1.8,3.3-2.7,4.4c-0.8,1.1-2.5,2.8-3.7,3.7c-1.2,0.9-3.4,2.2-4.8,2.8c-1.4,0.7-3.7,1.5-5.2,1.9c-2.2,0.6-3.6,0.7-10,0.7
		c-6,0-7.9-0.1-10.3-0.6c-1.6-0.4-4.3-1-5.9-1.5c-1.6-0.4-3-1-3.1-1.1c-0.1-0.1-0.3-16.8-0.4-37.2l-0.1-37H436.3z M765.8,84.7
		l0,17.2l0,1.3c0,0.2,0,0.4,0,0.6l0,2.4c0,10.7,0.1,12.7,0.5,14.3l0,0.2c0,0.1,0.1,0.3,0.1,0.4c0.4,1.3,1.2,2.8,1.8,3.6
		c0.6,0.7,1.9,1.7,2.8,2.1c0.9,0.4,2.7,1,3.9,1.1c1.3,0.2,3.2,0.2,4.5,0c1.2-0.2,3-0.7,3.9-1.1c1-0.4,2.2-1.4,2.8-2.1
		c0.6-0.8,1.4-2.3,1.8-3.6c0.1-0.2,0.1-0.3,0.1-0.5l0-0.1c0.4-1.7,0.5-4.7,0.5-23.7l0-1.5c0-0.3,0-0.5,0-0.8l0-4.2
		c0-0.3,0-0.6,0-0.9l0-4.8l0,0H800l-0.1,18.5c0,15.5-0.1,18.1-0.5,19.9l0,0.2c0,0.1,0,0.2-0.1,0.2l0,0.2l0,0l0,0.2l0,0
		c-0.4,1.1-1.2,2.8-1.8,3.7c-0.6,1-1.7,2.3-2.4,3c-0.7,0.7-2.2,1.8-3.4,2.5c-1.1,0.7-3.3,1.6-4.8,2.1c-1.7,0.5-4,1-6.2,1.1
		c-1.9,0.1-5,0.1-6.9,0c-2.1-0.1-4.5-0.5-6.2-1.1c-1.5-0.5-3.7-1.4-4.8-2.1c-1.1-0.7-2.6-1.8-3.4-2.5c-0.7-0.7-1.8-2-2.4-3
		c-0.6-0.9-1.4-2.6-1.8-3.7l0-0.1l0,0l-0.1-0.1c0-0.1-0.1-0.3-0.1-0.5l0-0.2c-0.4-1.8-0.5-4.8-0.5-19.7l-0.1-18.5H765.8z
		 M689.8,93.9c-1.2,0-3.1,0.3-4.1,0.5c-1.1,0.3-2.7,0.9-3.6,1.4c-0.9,0.5-2.3,1.6-3,2.4c-0.7,0.8-1.7,2.2-2.2,3.2
		c-0.5,0.9-1.1,2.7-1.4,3.8c-0.3,1.2-0.5,3.4-0.5,5c0,1.6,0.2,3.9,0.5,5c0.3,1.2,0.8,2.8,1.2,3.6c0.4,0.8,1.5,2.2,2.3,3.1
		c0.9,0.9,2.3,2,3.1,2.4c0.9,0.4,2.4,1.1,3.5,1.3c1.2,0.4,3.1,0.5,5.4,0.5c1.9,0,4.6-0.2,6-0.4c1.4-0.2,2.7-0.5,2.9-0.6
		c0.3-0.2,0.4-4.3,0.5-14.2l0.1-14c-3.5-1.8-5.4-2.5-6.5-2.8C693,94.1,691.1,93.9,689.8,93.9z M345.9,94.4c-1,0.3-2.6,0.9-3.6,1.4
		c-0.9,0.5-2.3,1.6-3,2.4c-0.7,0.8-1.7,2.2-2.2,3.2c-0.5,0.9-1.1,2.7-1.4,3.8c-0.3,1.2-0.5,3.3-0.5,4.7s0.2,3.5,0.4,4.6
		c0.2,1.1,0.8,3,1.3,4.1c0.6,1.3,1.7,2.7,3,3.9c1.3,1.2,2.8,2.2,4.1,2.7c1.6,0.6,2.9,0.8,6.2,1c2.3,0.1,5.3,0,6.8-0.3
		c1.5-0.2,2.9-0.5,3.1-0.6c0.3-0.2,0.4-4.6,0.6-14.1l0.2-13.9c-2.8-1.5-4.4-2.2-5.3-2.6c-0.9-0.4-3.1-0.7-4.8-0.7
		C348.8,93.9,347.2,94,345.9,94.4z M446.8,93.9c-1.3,0-3,0.2-3.8,0.4c-0.8,0.2-2.5,0.7-4,1.2l-2.6,0.9v28.4
		c5.4,1.4,6.5,1.5,10.1,1.4c3.5-0.1,4.7-0.3,6.4-0.9c1.1-0.4,2.7-1.3,3.4-1.9c0.8-0.6,1.9-1.7,2.4-2.4c0.6-0.7,1.4-2.3,1.8-3.4
		c0.4-1.1,1-3.3,1.2-4.8c0.3-2,0.3-3.5,0-5.6c-0.3-2-0.8-3.7-1.6-5.4c-0.6-1.4-1.8-3.1-2.5-3.8c-0.7-0.7-2-1.7-2.8-2.2
		c-0.8-0.5-2.5-1.2-3.6-1.4C450.1,94.1,448.1,93.9,446.8,93.9z M594,94.4c-1,0.3-2.7,1-3.7,1.6c-1,0.6-2.5,1.8-3.2,2.6
		c-0.7,0.9-1.7,2.3-2.2,3.2c-0.4,0.9-0.8,1.8-0.8,2c0,0.2,3.9,0.3,11.2,0.4l13.4,0c-0.4-2.5-0.7-3.8-0.9-4.4
		c-0.3-0.6-1.1-1.9-1.9-2.7c-0.9-1-2-1.7-3.2-2.2c-1.1-0.4-3-0.7-4.3-0.8C596.7,93.9,595.2,94.1,594,94.4z"/>
</g>
</svg>
