<?xml version="1.0" encoding="utf-8"?>
<!-- Generator: Adobe Illustrator 25.0.0, SVG Export Plug-In . SVG Version: 6.00 Build 0)  -->
<svg version="1.1" id="Layer_1" xmlns="http://www.w3.org/2000/svg" xmlns:xlink="http://www.w3.org/1999/xlink" x="0px" y="0px"
	 viewBox="0 0 500 500" style="enable-background:new 0 0 500 500;" xml:space="preserve">
<path d="M13.02,214.79c2.14-5.59,6.37-8.15,12.13-9.34c12.37-2.55,24.63-5.6,36.96-8.32c2.68-0.59,3.99-1.82,5.01-4.5
	c3.61-9.48,7.54-18.85,11.64-28.13c1.12-2.54,1.23-4.36-0.3-6.74c-7-10.89-13.82-21.9-20.68-32.88c-4.58-7.34-4.15-11.67,1.86-17.69
	C74.9,91.9,90.18,76.64,105.47,61.39c5.74-5.72,10.08-6.26,16.92-2.04C133.4,66.16,144.4,73,155.29,80c2.4,1.54,4.2,1.42,6.73,0.28
	c9.54-4.27,19.18-8.36,28.9-12.21c2.58-1.02,3.95-2.18,4.55-4.99c2.64-12.35,5.54-24.64,8.35-36.95
	c1.85-8.08,5.64-11.14,13.98-11.15c21.44-0.03,42.89-0.03,64.33,0c8.55,0.01,12.18,3.04,14.13,11.54
	c2.72,11.86,5.59,23.69,8.12,35.58c0.61,2.88,2.01,3.91,4.58,4.91c10.32,4,20.47,8.45,30.81,12.43c1.77,0.68,4.54,0.52,6.14-0.44
	c10.45-6.25,20.69-12.84,31.01-19.3c7.51-4.69,11.81-4.26,18.07,1.98c15.18,15.14,30.33,30.31,45.47,45.5
	c5.82,5.84,6.33,10.27,1.95,17.32c-6.34,10.21-12.7,20.42-19.19,30.54c-1.47,2.29-1.65,3.98-0.44,6.64
	c4.6,10.07,8.99,20.26,12.88,30.62c1.32,3.52,3.1,5.05,6.57,5.78c11.15,2.37,22.25,4.95,33.35,7.51c8.6,1.99,11.39,5.48,11.4,14.18
	c0.01,21.29,0.01,42.58,0,63.86c0,9.01-2.71,12.39-11.63,14.45c-11.1,2.56-22.2,5.16-33.35,7.52c-3.34,0.71-5,2.15-6.27,5.53
	c-3.89,10.36-8.29,20.54-12.83,30.64c-1.15,2.55-1.36,4.25,0.19,6.65c6.52,10.1,12.85,20.32,19.2,30.53
	c4.51,7.25,4.02,11.63-2.02,17.69c-15.14,15.18-30.3,30.35-45.49,45.48c-6.07,6.05-10.51,6.56-17.68,2.08
	c-13.2-8.25-26.41-16.49-39.54-24.85c-5.37-3.42-7.14-8.6-5.15-13.92c1.93-5.16,7.02-8.33,12.48-7.27c2.33,0.46,4.61,1.7,6.67,2.98
	c10.61,6.54,21.15,13.2,31.34,19.58c12.07-12.07,23.82-23.83,36.01-36.02c-4.64-7.4-9.52-15.39-14.6-23.25
	c-11.45-17.76-9.19-14.89-1.4-31.05c5.32-11.04,9.44-22.71,13.51-34.3c1.99-5.67,4.94-9.19,10.94-10.47
	c11.15-2.37,22.19-5.21,33.33-7.61c2.72-0.59,3.42-1.75,3.4-4.34c-0.1-14.5-0.12-29,0.02-43.5c0.03-2.9-0.93-3.96-3.74-4.56
	c-10.7-2.26-21.29-4.99-32-7.2c-6.63-1.37-10.41-4.86-12.12-11.57c-3.68-14.4-9.43-28.03-17.16-40.74
	c-3.35-5.51-3.4-10.48,0.16-15.93c6.07-9.28,11.7-18.86,17.74-28.17c1.71-2.64,1.9-4.22-0.55-6.62
	c-11-10.79-21.77-21.82-32.85-32.99c-10.77,6.74-21.31,13.08-31.56,19.86c-5.82,3.85-11.08,4.18-17.18,0.61
	c-12.41-7.28-25.68-12.72-39.68-16.12c-6.68-1.62-10.2-5.5-11.59-12.14c-2.33-11.15-4.97-22.25-7.71-33.31
	c-0.33-1.33-2.08-3.29-3.19-3.31c-15.87-0.22-31.75-0.15-48.09-0.15c-2.33,9.98-4.74,19.8-6.9,29.68
	c-4.25,19.46-3.92,16.49-20.02,22.32c-10.67,3.87-21.03,8.74-31.13,13.93c-6.18,3.18-11.33,3.54-17.21-0.37
	c-9.49-6.32-19.29-12.17-28.97-18.21c-1.28-0.8-2.63-1.5-3.59-2.05c-12.02,12.01-23.78,23.77-35.88,35.88
	c6.65,10.48,13.33,21.54,20.57,32.22c4.27,6.29,3.94,11.67,0.64,18.43c-5.65,11.58-10.57,23.59-14.8,35.76
	c-2.38,6.87-5.68,10.99-13.05,12.4c-11.49,2.2-22.79,5.33-34.24,7.76c-3,0.63-4.05,1.63-4.02,4.75c0.15,14.34,0.12,28.69,0.02,43.04
	c-0.02,2.7,0.54,3.99,3.57,4.62c11.91,2.48,23.7,5.51,35.6,8.03c6.27,1.33,9.52,4.87,11.73,10.89
	c4.77,12.96,10.08,25.76,15.82,38.32c2.65,5.8,2.95,10.62-0.57,16.01c-6.66,10.19-12.97,20.61-19.47,30.91
	c-1.13,1.79-1.96,3.17,0.07,5.16c11.01,10.8,21.87,21.76,32.79,32.65c0.31,0.31,0.76,0.47,1.43,0.86
	c10.36-6.48,20.8-13.01,31.23-19.53c1.57-0.98,3.1-2.04,4.75-2.87c5.55-2.78,11.84-1.07,15.03,3.98c3.17,5.02,2.05,11.55-2.95,15.25
	c-3.58,2.65-7.48,4.89-11.26,7.27c-10.31,6.47-20.62,12.95-30.97,19.37c-6.99,4.34-11.61,3.85-17.34-1.86
	c-15.29-15.25-30.57-30.51-45.82-45.81c-5.9-5.92-6.38-10.25-1.99-17.31c6.84-10.99,13.68-21.99,20.67-32.89
	c1.56-2.44,1.79-4.29,0.53-7.09c-4.17-9.25-8.04-18.65-11.64-28.13c-1.02-2.69-2.38-3.87-5.03-4.46
	c-12.17-2.73-24.26-5.88-36.49-8.31c-5.73-1.14-9.95-3.62-12.69-8.71C13.02,264.78,13.02,239.79,13.02,214.79z"/>
<path d="M296.48,185.1c0,17.1-0.57,33.14,0.15,49.13c0.84,18.73-12.68,29.68-28.89,28.77c-12.46-0.7-24.99-0.1-37.48-0.15
	c-15.16-0.06-25.67-10.39-25.79-25.5c-0.12-15.58-0.03-31.16-0.03-46.75c0-1.49,0-2.99,0-5.77c-3.55,2.9-6.35,4.93-8.87,7.28
	c-39.37,36.55-32.93,100.33,13.06,128.17c7.65,4.63,14.16,10.02,16.82,18.79c1.14,3.78,1.79,7.86,1.8,11.8
	c0.13,40.11,0.1,80.22,0.06,120.33c-0.01,9.22-5.87,15.06-13.41,13.63c-5.43-1.03-9.19-5.28-9.37-11.04
	c-0.18-5.7-0.08-11.41-0.08-17.12c0-34.4-0.12-68.81,0.1-103.21c0.04-6.28-2.06-10.16-7.52-13.46
	c-54.84-33.22-66.91-106.51-25.75-155.65c10.47-12.5,23.34-21.9,38.34-28.32c10.04-4.3,17.77,0.66,17.82,11.61
	c0.1,21.91,0.03,43.81,0.03,65.72c0,6.49,0.01,6.49,6.58,6.49c11.42,0,22.84-0.18,34.25,0.09c4.26,0.1,5.57-1.17,5.54-5.45
	c-0.19-21.91,0.34-43.83-0.26-65.72c-0.33-11.98,9.07-17.23,19.03-12.39c37.89,18.39,59.4,48.37,61.34,90.33
	c1.85,39.99-15.5,71.29-49.29,92.9c-5.86,3.74-8.08,7.76-8.03,14.54c0.25,38.26,0.13,76.52,0.1,114.78c0,2.31-0.01,4.66-0.44,6.91
	c-1,5.32-5.92,9.18-11.28,9.14c-5.61-0.04-10.33-4.13-11.13-9.8c-0.28-1.97-0.28-4-0.28-6c-0.01-38.72,0.15-77.45-0.1-116.17
	c-0.1-14.7,5.81-25.1,18.52-32.62c48.34-28.61,52.72-97.57,8.63-132.35C299.61,187.22,298.46,186.5,296.48,185.1z"/>
<path d="M397.1,247.99c0,1.23,0.05,2.47-0.01,3.7c-0.3,6.7-5.05,11.52-11.38,11.59c-6.36,0.06-10.93-4.61-11.65-11.35
	c-1.05-9.93-1.48-20.05-3.75-29.71c-12.77-54.17-61.96-93.43-117.58-94.4c-8.38-0.15-13.15-3.49-13.95-9.8
	c-0.99-7.76,4.3-13.35,12.81-13.2c21.38,0.37,42.02,4.54,61.15,14.18C365.67,145.66,393.03,189.25,397.1,247.99z"/>
<path d="M114.62,240.57c6.76,0.07,11.2,4.86,11.33,12.49c0.31,18.62,4.43,36.33,12.57,53.1c6.53,13.46,15.31,25.25,25.96,35.75
	c2.19,2.16,4.08,5.13,4.87,8.06c1.26,4.73-1.35,9.36-5.5,11.7c-4.35,2.45-9.97,2.11-13.61-1.96c-8-8.93-16.39-17.7-23.1-27.58
	c-15.99-23.54-23.53-50-24.14-78.42C102.81,245.71,107.54,240.5,114.62,240.57z"/>
</svg>
