<svg width="60" height="60" viewBox="0 0 60 60" fill="none" xmlns="http://www.w3.org/2000/svg">
<path d="M50.083 22.9819C49.933 22.9819 49.7919 22.9819 49.6419 22.9907C48.9401 21.5413 47.8449 20.3184 46.4812 19.4618C45.1176 18.6053 43.5405 18.1495 41.9301 18.1466C41.6477 18.1466 41.3566 18.1642 41.0566 18.1995C40.4566 12.5789 35.6919 8.24658 30.0095 8.24658C24.3095 8.24658 19.536 12.5789 18.936 18.1995C18.6448 18.1642 18.3536 18.1466 18.0801 18.1466C14.7713 18.1466 11.7713 20.0436 10.3419 22.9907C10.2007 22.9819 10.0604 22.9819 9.92716 22.9819C5.1801 22.9819 1.32422 26.8378 1.32422 31.6563C1.35951 35.2466 4.36834 38.1583 8.0301 38.1583H15.0889V36.7201C15.0889 35.6269 15.8742 34.6642 16.9507 34.4525L18.8566 34.0642C19.0419 33.5083 19.2625 32.9701 19.5272 32.4583L18.4507 30.826C17.8507 29.9172 17.9654 28.6907 18.733 27.9231L20.1713 26.476C20.6036 26.0436 21.186 25.7966 21.8125 25.7966C22.2625 25.7966 22.7036 25.9289 23.083 26.176L24.7154 27.2525C25.236 26.9878 25.7742 26.7672 26.3213 26.5907L26.7095 24.676C26.8143 24.1515 27.0974 23.6795 27.5108 23.3401C27.9242 23.0007 28.4423 22.8149 28.9772 22.8142H31.0066C32.1095 22.8142 33.0625 23.5995 33.2742 24.6848L33.6536 26.5907C34.2095 26.7672 34.7566 26.9878 35.286 27.2525L36.9095 26.1848C37.2889 25.9289 37.7301 25.7966 38.1889 25.7966C38.8066 25.7966 39.3889 26.0348 39.8301 26.476L41.2595 27.9231C42.0272 28.6907 42.1507 29.9172 41.5507 30.826L40.4742 32.4583C40.7301 32.9798 40.9595 33.5172 41.136 34.0731L43.0507 34.4525C44.1272 34.6642 44.9036 35.6269 44.9036 36.7201V38.1672H51.9625C55.633 38.1672 58.6419 35.2466 58.6772 31.5848C58.6772 26.8378 54.8213 22.9819 50.083 22.9819Z" fill="#06ABE1"/>
<path d="M42.8736 35.3162L40.7622 34.8953C40.6624 34.8729 40.5706 34.8236 40.4968 34.7529C40.4229 34.6821 40.3698 34.5926 40.3431 34.4939C40.1524 33.8786 39.9067 33.2818 39.6089 32.7106C39.5589 32.6228 39.5338 32.523 39.5363 32.4219C39.5388 32.3209 39.5688 32.2224 39.6231 32.1371L40.8116 30.3397C40.9923 30.0647 41.0732 29.736 41.0406 29.4085C41.008 29.081 40.8639 28.7746 40.6325 28.5406L39.2031 27.1006C38.9686 26.8671 38.6609 26.7213 38.3317 26.6879C38.0024 26.6545 37.6717 26.7354 37.3951 26.9171L35.6039 28.1012C35.5188 28.1556 35.4204 28.1858 35.3194 28.1886C35.2184 28.1914 35.1185 28.1667 35.0304 28.1171C34.4549 27.8169 33.8529 27.5702 33.2322 27.3803C33.1335 27.3532 33.0441 27.2998 32.9734 27.2258C32.9027 27.1519 32.8534 27.0601 32.8307 26.9603L32.4081 24.8533C32.3429 24.5289 32.1677 24.237 31.912 24.027C31.6564 23.817 31.336 23.7018 31.0051 23.7009H28.9766C28.2954 23.7009 27.7042 24.1853 27.5719 24.8533L27.1492 26.9621C27.1275 27.0623 27.0786 27.1545 27.008 27.2287C26.9373 27.303 26.8476 27.3563 26.7486 27.383C26.1398 27.5709 25.5398 27.818 24.9663 28.1171C24.8782 28.1673 24.778 28.1925 24.6766 28.1898C24.5751 28.1872 24.4764 28.1569 24.391 28.1021L22.5998 26.9171C22.3235 26.7353 21.993 26.6544 21.6639 26.688C21.3349 26.7216 21.0275 26.8677 20.7936 27.1015L19.3625 28.5406C19.1315 28.7749 18.9878 29.0813 18.9553 29.4087C18.9229 29.7361 19.0037 30.0647 19.1842 30.3397L20.3719 32.1362C20.4263 32.2216 20.4564 32.3202 20.4591 32.4213C20.4617 32.5225 20.4367 32.6225 20.3869 32.7106C20.0874 33.2844 19.8386 33.8831 19.6431 34.5C19.6155 34.5972 19.5621 34.6851 19.4887 34.7544C19.4152 34.8237 19.3243 34.8718 19.2257 34.8936L17.1213 35.3162C16.7971 35.3821 16.5055 35.5578 16.2959 35.8137C16.0863 36.0697 15.9714 36.3901 15.9707 36.7209V38.7503C15.9707 39.4298 16.4542 40.02 17.1213 40.1542L19.2257 40.5768C19.3243 40.5986 19.4152 40.6467 19.4887 40.716C19.5621 40.7853 19.6155 40.8732 19.6431 40.9703C19.8381 41.588 20.0886 42.1898 20.3869 42.7598C20.4367 42.8478 20.4617 42.9478 20.4591 43.049C20.4564 43.1502 20.4263 43.2488 20.3719 43.3342L19.1851 45.128C19.0043 45.4038 18.9236 45.7334 18.9567 46.0615C18.9898 46.3897 19.1346 46.6965 19.3669 46.9306L20.7945 48.3574C21.0287 48.5899 21.3357 48.7348 21.6641 48.7679C21.9924 48.801 22.3222 48.7202 22.5981 48.5392L24.3901 47.3542C24.4756 47.2996 24.5742 47.2694 24.6756 47.2666C24.7769 47.2638 24.8771 47.2886 24.9654 47.3383C25.5363 47.6374 26.1389 47.8871 26.7548 48.083C26.8521 48.11 26.9402 48.163 27.0096 48.2364C27.079 48.3098 27.1269 48.4008 27.1483 48.4995L27.5719 50.6039C27.6379 50.9278 27.8135 51.219 28.0693 51.4284C28.325 51.6379 28.6452 51.7527 28.9757 51.7536H31.0051C31.6845 51.7536 32.2757 51.27 32.4089 50.6039L32.8325 48.4995C32.854 48.401 32.9019 48.3102 32.9711 48.2368C33.0402 48.1634 33.128 48.1103 33.2251 48.083C33.8425 47.8865 34.4418 47.6371 35.0163 47.3374C35.1043 47.2877 35.2041 47.2628 35.3051 47.2655C35.4062 47.2681 35.5046 47.2982 35.5898 47.3524L37.3995 48.5436C37.6753 48.7237 38.0045 48.8037 38.3322 48.7701C38.6598 48.7366 38.966 48.5915 39.1995 48.3592L40.6289 46.9306C41.1081 46.4506 41.1848 45.6927 40.8098 45.128L39.6231 43.3333C39.5688 43.248 39.5388 43.1495 39.5363 43.0485C39.5338 42.9474 39.5589 42.8476 39.6089 42.7598C39.9089 42.1845 40.156 41.5845 40.3431 40.9765C40.3698 40.8781 40.4229 40.7888 40.4966 40.7182C40.5703 40.6476 40.6618 40.5985 40.7613 40.5759L42.8736 40.1542C43.1976 40.088 43.4889 39.9121 43.6983 39.6563C43.9077 39.4004 44.0225 39.0801 44.0234 38.7495V36.7209C44.0234 36.0406 43.5416 35.4503 42.8736 35.3162ZM29.9966 43.665C28.4234 43.6632 26.9152 43.0374 25.8028 41.925C24.6904 40.8126 24.0646 39.3044 24.0628 37.7312C24.0628 34.455 26.7248 31.7895 29.9966 31.7895C31.5719 31.7913 33.0821 32.4179 34.196 33.5318C35.3099 34.6457 35.9365 36.1559 35.9383 37.7312C35.9383 41.003 33.2736 43.665 29.9966 43.665Z" fill="#06ABE1"/>
</svg>
