<svg width="60" height="60" viewBox="0 0 60 60" fill="none" xmlns="http://www.w3.org/2000/svg">
<path d="M23.4206 43.6687L18.63 46.0031L15.3 33.705L19.9837 31.3631C21.7459 30.4817 23.6891 30.0227 25.6594 30.0225H37.2487C38.7825 30.0225 40.1156 31.305 40.1156 32.8894C40.1156 34.3387 38.9438 35.625 37.4906 35.7431L33.6188 36.0637C31.1475 36.2719 31.455 40.005 33.9281 39.8025L37.7981 39.4819C40.7963 39.2344 43.2187 36.9544 43.7512 34.0781L51.0506 32.0756C51.681 31.8965 52.3557 31.9615 52.9404 32.2575C53.525 32.5536 53.9767 33.0591 54.2053 33.6732C54.434 34.2873 54.4229 34.9651 54.1743 35.5714C53.9257 36.1778 53.4578 36.6682 52.8638 36.945L37.305 45.3694C35.5917 46.2976 33.5842 46.5222 31.7081 45.9956L23.4206 43.6687ZM15.1331 50.2275L3.75 56.25V36.5625L10.2713 33.6375C10.3948 33.5821 10.5289 33.5541 10.6643 33.5555C10.7997 33.5569 10.9332 33.5876 11.0557 33.6455C11.1781 33.7034 11.2865 33.7872 11.3734 33.891C11.4604 33.9948 11.5238 34.1162 11.5594 34.2469L15.5981 49.1531C15.654 49.3584 15.6384 49.5766 15.5539 49.7718C15.4694 49.967 15.321 50.1277 15.1331 50.2275ZM37.7194 2.71499L36.1406 4.86749C36.0793 4.95049 35.9956 5.01432 35.8993 5.05151C35.803 5.08869 35.6981 5.09771 35.5969 5.07749C34.376 4.84499 33.1222 4.84499 31.9012 5.07749C31.8003 5.09756 31.6957 5.08847 31.5998 5.05128C31.5038 5.01409 31.4204 4.95034 31.3594 4.86749L29.7806 2.71499C29.6986 2.60333 29.5782 2.52589 29.4425 2.49751C29.3069 2.46914 29.1656 2.49183 29.0456 2.56124L25.3294 4.70624C25.2094 4.77572 25.1191 4.88696 25.0759 5.01872C25.0327 5.15048 25.0395 5.29354 25.095 5.42061L26.1731 7.87124C26.2147 7.96575 26.2284 8.07021 26.2124 8.17223C26.1965 8.27425 26.1516 8.36957 26.0831 8.44687C25.2736 9.38759 24.6444 10.4694 24.2269 11.6381C24.1939 11.7356 24.1339 11.8217 24.0539 11.8864C23.9739 11.9511 23.8772 11.9918 23.775 12.0037L21.1256 12.2944C20.9877 12.3096 20.8603 12.3753 20.7679 12.4788C20.6755 12.5823 20.6246 12.7163 20.625 12.855V17.1469C20.6251 17.2853 20.6762 17.4188 20.7686 17.5219C20.8609 17.625 20.9881 17.6904 21.1256 17.7056L23.775 17.9962C23.8773 18.008 23.9741 18.0486 24.0541 18.1133C24.1341 18.1781 24.1941 18.2643 24.2269 18.3619C24.645 19.5431 25.2825 20.6212 26.0831 21.5531C26.1516 21.6304 26.1965 21.7257 26.2124 21.8277C26.2284 21.9298 26.2147 22.0342 26.1731 22.1287L25.095 24.5794C25.0391 24.7064 25.032 24.8496 25.0753 24.9815C25.1186 25.1133 25.2091 25.2246 25.3294 25.2937L29.0456 27.4406C29.1656 27.51 29.3069 27.5327 29.4425 27.5043C29.5782 27.476 29.6986 27.3985 29.7806 27.2869L31.3594 25.1344C31.4204 25.0515 31.5038 24.9878 31.5998 24.9506C31.6957 24.9134 31.8003 24.9043 31.9012 24.9244C33.1221 25.1579 34.3761 25.1579 35.5969 24.9244C35.6978 24.9043 35.8024 24.9134 35.8983 24.9506C35.9943 24.9878 36.0777 25.0515 36.1388 25.1344L37.7175 27.2869C37.7996 27.3985 37.92 27.476 38.0556 27.5043C38.1912 27.5327 38.3326 27.51 38.4525 27.4406L42.1687 25.2956C42.2888 25.2261 42.379 25.1149 42.4222 24.9831C42.4654 24.8514 42.4586 24.7083 42.4031 24.5812L41.325 22.1306C41.2834 22.0361 41.2698 21.9316 41.2857 21.8296C41.3017 21.7276 41.3465 21.6323 41.415 21.555C42.2245 20.6143 42.8537 19.5325 43.2712 18.3637C43.3043 18.2663 43.3642 18.1802 43.4442 18.1155C43.5242 18.0508 43.6209 18.0101 43.7231 17.9981L46.3725 17.7075C46.5107 17.6918 46.6384 17.6258 46.731 17.5221C46.8237 17.4183 46.875 17.2841 46.875 17.145V12.8531C46.8749 12.7147 46.8238 12.5812 46.7314 12.4781C46.6391 12.375 46.5119 12.3096 46.3744 12.2944L43.725 12.0056C43.6227 11.9939 43.5259 11.9533 43.4459 11.8885C43.3659 11.8238 43.3059 11.7376 43.2731 11.64C42.8568 10.4707 42.2274 9.38872 41.4169 8.44874C41.3484 8.37144 41.3035 8.27613 41.2876 8.17411C41.2716 8.07208 41.2853 7.96762 41.3269 7.87311L42.405 5.42249C42.4609 5.29548 42.468 5.15227 42.4247 5.02039C42.3814 4.88852 42.2909 4.7773 42.1706 4.70811L38.4544 2.56124C38.3344 2.49183 38.1931 2.46914 38.0575 2.49751C37.9218 2.52589 37.8014 2.60333 37.7194 2.71499ZM37.8094 17.3437C37.5038 17.8811 37.095 18.3528 36.6064 18.7316C36.1179 19.1103 35.5592 19.3887 34.9626 19.5507C34.366 19.7126 33.7433 19.755 33.1303 19.6753C32.5172 19.5956 31.926 19.3955 31.3907 19.0864C30.8553 18.7773 30.3864 18.3653 30.0108 17.8743C29.6353 17.3832 29.3607 16.8227 29.2027 16.225C29.0447 15.6274 29.0064 15.0044 29.0902 14.3919C29.1739 13.7794 29.378 13.1895 29.6906 12.6562C30.3166 11.5884 31.3396 10.8115 32.5363 10.4951C33.733 10.1787 35.0063 10.3485 36.0783 10.9675C37.1502 11.5864 37.9339 12.6042 38.2582 13.7988C38.5825 14.9933 38.4212 16.2677 37.8094 17.3437Z" fill="#06ABE1"/>
</svg>
