<svg width="24" height="24" viewBox="0 0 24 24" fill="none" xmlns="http://www.w3.org/2000/svg">
<path d="M10.8455 7.1319C9.5568 7.10195 8.30978 6.82163 7.16064 6.31393C6.7975 7.61734 6.59608 9.08466 6.5777 10.6155H10.8455L10.8455 7.1319ZM10.8455 1.62793C9.75887 1.74282 8.73377 2.66668 7.93755 4.25916C7.69103 4.75224 7.47559 5.29135 7.2932 5.86698C8.39927 6.36423 9.6018 6.64009 10.8455 6.67041L10.8455 1.62793ZM15.78 13.9464C16.6913 13.9151 17.5518 13.6351 18.34 13.1125C18.3815 13.0849 18.4309 13.0716 18.4807 13.0744C18.5305 13.0773 18.578 13.0962 18.6161 13.1284C18.9588 13.4169 19.3692 13.6304 19.8358 13.764C20.1244 12.8976 20.2814 11.9957 20.304 11.077H16.0353C16.0237 12.0593 15.9381 13.0221 15.78 13.9464ZM15.2787 5.66518C16.0525 5.26866 16.7733 4.76026 17.4201 4.14746C16.1774 2.97001 14.6088 2.13324 12.8652 1.78941C14.0521 2.68524 14.823 4.25012 15.2787 5.66518ZM9.28741 1.78932C7.5438 2.13315 5.97512 2.96996 4.73242 4.14741C5.3792 4.76016 6.09995 5.26857 6.87377 5.66513C7.32808 4.25499 8.10977 2.66701 9.28741 1.78932Z" fill="#E27100"/>
<path d="M2.99941 11.077H1.84863C1.90727 13.4552 2.87004 15.6128 4.40524 17.2192C5.10752 16.552 5.89287 16.0017 6.73751 15.578C6.34976 14.215 6.13502 12.6781 6.11623 11.077H4.38405C4.32366 11.0758 4.26614 11.051 4.22386 11.0078C4.18158 10.9647 4.15789 10.9067 4.15789 10.8463C4.15789 10.7859 4.18158 10.7279 4.22386 10.6847C4.26614 10.6416 4.32366 10.6167 4.38405 10.6155H6.11623C6.13502 9.0145 6.34971 7.47761 6.73751 6.11448C5.89291 5.69083 5.10757 5.14056 4.40529 4.47339C2.87009 6.07975 1.90732 8.23736 1.84863 10.6156H2.99941C3.05962 10.617 3.11687 10.642 3.15893 10.6851C3.20099 10.7282 3.22453 10.7861 3.22453 10.8463C3.22453 10.9065 3.20099 10.9644 3.15893 11.0075C3.11687 11.0506 3.05962 11.0756 2.99941 11.077Z" fill="#E27100"/>
<path d="M10.8456 11.0769H6.57775C6.59612 12.6077 6.79755 14.0751 7.16069 15.3785C8.30978 14.8708 9.55684 14.5904 10.8456 14.5605V11.0769ZM10.8456 20.0644V15.022C9.60189 15.0523 8.39931 15.3281 7.2933 15.8254C7.47569 16.401 7.69103 16.9401 7.93764 17.4332C8.73377 19.0257 9.75892 19.9496 10.8456 20.0644ZM6.87377 16.0272C6.09995 16.4237 5.3792 16.9321 4.73242 17.5449C5.97512 18.7223 7.5438 19.5592 9.28741 19.903C8.10437 19.0185 7.32803 17.437 6.87377 16.0272ZM16.0365 10.6153H20.3041C20.2454 8.23716 19.2826 6.0795 17.7474 4.47314C17.0451 5.14032 16.2598 5.69063 15.4151 6.11424C15.803 7.47746 16.0176 9.0143 16.0365 10.6153ZM22.1497 14.3422C20.8398 14.4943 19.4937 14.3806 18.4529 13.5885C17.3299 14.2882 16.0945 14.5367 14.7728 14.3509C14.7666 19.863 14.6352 19.4033 17.5609 22.3846H19.3727C20.8896 20.8042 21.5897 20.1889 21.8955 19.2679C22.202 18.3449 22.1524 16.9798 22.1497 14.3422ZM20.6499 16.6549L18.039 19.2657C18.0176 19.2872 17.9922 19.3042 17.9642 19.3158C17.9362 19.3274 17.9062 19.3333 17.8759 19.3333C17.8456 19.3333 17.8156 19.3274 17.7876 19.3158C17.7596 19.3042 17.7341 19.2872 17.7127 19.2657L16.7336 18.2866C16.7122 18.2652 16.6952 18.2398 16.6836 18.2118C16.672 18.1838 16.666 18.1538 16.666 18.1235C16.666 18.0932 16.672 18.0632 16.6836 18.0352C16.6952 18.0072 16.7122 17.9818 16.7336 17.9603C16.7551 17.9389 16.7805 17.9219 16.8085 17.9103C16.8365 17.8987 16.8665 17.8927 16.8968 17.8927C16.9271 17.8927 16.9571 17.8987 16.9851 17.9103C17.0131 17.9219 17.0385 17.9389 17.0599 17.9603L17.8758 18.7762L20.3235 16.3285C20.3449 16.3071 20.3704 16.2901 20.3984 16.2785C20.4264 16.2669 20.4564 16.2609 20.4867 16.2609C20.517 16.2609 20.547 16.2669 20.575 16.2785C20.603 16.2901 20.6284 16.3071 20.6499 16.3285C20.6713 16.35 20.6883 16.3754 20.6999 16.4034C20.7115 16.4314 20.7175 16.4614 20.7175 16.4917C20.7175 16.522 20.7115 16.552 20.6999 16.58C20.6883 16.608 20.6713 16.6335 20.6499 16.6549Z" fill="#E27100"/>
<path d="M14.3115 14.0797C14.3115 13.9356 14.4424 13.8266 14.584 13.8528C14.8248 13.8973 15.0681 13.9266 15.3125 13.9406C15.4742 13.0199 15.5619 12.0588 15.5738 11.0769H11.3072V14.5604C12.3385 14.5844 13.3462 14.7696 14.3103 15.1111C14.3109 14.7621 14.3115 14.4239 14.3115 14.0797ZM14.325 17.2043C14.3111 16.6957 14.31 16.1107 14.31 15.6021C13.3489 15.2424 12.3407 15.0474 11.3072 15.0222V20.0644C12.439 19.941 13.5263 18.9146 14.325 17.2043ZM14.2153 4.25909C13.419 2.66665 12.3939 1.74274 11.3072 1.6279V6.67038C12.5509 6.64006 13.7535 6.36424 14.8595 5.86695C14.6772 5.29132 14.4618 4.75217 14.2153 4.25909ZM14.9922 6.3139C13.843 6.8216 12.5959 7.10196 11.3072 7.13187V10.6154H15.5751C15.5567 9.08468 15.3553 7.61731 14.9922 6.3139ZM12.8589 19.9055C13.4537 19.7892 14.0351 19.6133 14.5999 19.3796C14.484 19.018 14.414 18.6141 14.372 18.1158C13.9855 18.7863 13.483 19.4429 12.8589 19.9055ZM13.6149 21.6924H14.538V22.6155H13.6149V21.6924ZM12.2303 21.6924H13.1534V22.6155H12.2303V21.6924ZM10.8457 21.6924H11.7687V22.6155H10.8457V21.6924ZM9.46102 21.6924H10.3841V22.6155H9.46102V21.6924ZM8.07642 21.6924H8.99948V22.6155H8.07642V21.6924ZM6.69178 21.6924H7.61484V22.6155H6.69178V21.6924ZM5.30719 21.6924H6.23025V22.6155H5.30719V21.6924ZM3.92255 21.6924H4.84561V22.6155H3.92255V21.6924ZM2.538 21.6924H3.46106V22.6155H2.538V21.6924ZM21.4611 2.53854C20.8249 2.53854 20.3072 3.05613 20.3072 3.69237C20.3072 4.3286 20.8249 4.84624 21.4611 4.84624C22.0973 4.84624 22.6149 4.32865 22.6149 3.69237C22.6149 3.05613 22.0973 2.53854 21.4611 2.53854ZM2.76877 3.4616C3.27773 3.4616 3.69183 3.04751 3.69183 2.53854C3.69183 2.02957 3.27773 1.61548 2.76877 1.61548C2.2598 1.61548 1.8457 2.02957 1.8457 2.53854C1.8457 3.04751 2.2598 3.4616 2.76877 3.4616Z" fill="#E27100"/>
</svg>
