<svg width="32" height="25" viewBox="0 0 32 25" fill="none" xmlns="http://www.w3.org/2000/svg">
<path d="M29.8981 0.492188H1.52967C1.21618 0.492188 0.915532 0.616721 0.693861 0.838393C0.47219 1.06006 0.347656 1.36071 0.347656 1.67421V21.7685C0.347656 22.3955 0.596723 22.9968 1.04007 23.4401C1.48341 23.8835 2.08471 24.1325 2.71169 24.1325H28.7161C29.3431 24.1325 29.9444 23.8835 30.3877 23.4401C30.831 22.9968 31.0801 22.3955 31.0801 21.7685V1.67421C31.0801 1.36071 30.9556 1.06006 30.7339 0.838393C30.5122 0.616721 30.2116 0.492188 29.8981 0.492188ZM26.8588 2.85622L15.7139 13.0733L4.56894 2.85622H26.8588ZM28.7161 21.7685H2.71169V4.36182L14.9145 15.5481C15.1326 15.7483 15.4179 15.8594 15.7139 15.8594C16.0099 15.8594 16.2952 15.7483 16.5132 15.5481L28.7161 4.36182V21.7685Z" fill="#016D85"/>
</svg>
