<svg width="30" height="30" viewBox="0 0 30 30" fill="none" xmlns="http://www.w3.org/2000/svg">
<path d="M18.0866 2.39773C18.1267 2.24772 18.196 2.10709 18.2905 1.98387C18.385 1.86064 18.5028 1.75725 18.6373 1.67958C18.7718 1.60192 18.9202 1.55152 19.0742 1.53125C19.2281 1.51098 19.3846 1.52124 19.5345 1.56146C21.7258 2.13318 23.7251 3.2787 25.3264 4.88002C26.9277 6.48135 28.0732 8.4806 28.6449 10.6719C28.6852 10.8218 28.6954 10.9783 28.6752 11.1322C28.6549 11.2862 28.6045 11.4346 28.5268 11.5691C28.4492 11.7036 28.3458 11.8214 28.2225 11.9159C28.0993 12.0104 27.9587 12.0797 27.8087 12.1198C27.7088 12.1461 27.6061 12.1595 27.5028 12.1597C27.2423 12.1597 26.9892 12.0737 26.7826 11.915C26.5761 11.7562 26.4278 11.5338 26.3607 11.2821C25.8944 9.49327 24.9595 7.86118 23.6524 6.55403C22.3452 5.24689 20.7131 4.31199 18.9243 3.8457C18.7742 3.80574 18.6334 3.73657 18.51 3.64214C18.3866 3.54771 18.2831 3.42989 18.2053 3.2954C18.1274 3.16092 18.0769 3.01241 18.0565 2.85838C18.0362 2.70435 18.0464 2.54782 18.0866 2.39773ZM17.7423 8.57377C19.7798 9.1175 21.0889 10.4266 21.6326 12.4641C21.6997 12.7158 21.848 12.9383 22.0546 13.097C22.2611 13.2557 22.5143 13.3417 22.7748 13.3417C22.878 13.3415 22.9808 13.3281 23.0806 13.3018C23.2306 13.2617 23.3712 13.1924 23.4945 13.0979C23.6177 13.0034 23.7211 12.8856 23.7987 12.7511C23.8764 12.6167 23.9268 12.4682 23.9471 12.3143C23.9674 12.1603 23.9571 12.0039 23.9169 11.8539C23.1604 9.02294 21.1835 7.04602 18.3525 6.28952C18.2025 6.24946 18.0461 6.23932 17.8922 6.2597C17.7383 6.28008 17.5899 6.33058 17.4556 6.4083C17.3212 6.48603 17.2034 6.58946 17.109 6.71269C17.0146 6.83593 16.9454 6.97655 16.9053 7.12654C16.8652 7.27653 16.8551 7.43294 16.8755 7.58684C16.8959 7.74074 16.9463 7.88912 17.0241 8.02351C17.1018 8.1579 17.2052 8.27566 17.3285 8.37008C17.4517 8.46449 17.5923 8.53371 17.7423 8.57377ZM29.8491 22.6619C29.5857 24.664 28.6024 26.5018 27.0831 27.8319C25.5637 29.162 23.6121 29.8936 21.5927 29.89C9.86121 29.89 0.31642 20.3452 0.31642 8.61367C0.3128 6.59432 1.04438 4.64271 2.37451 3.12334C3.70464 1.60396 5.54237 0.620727 7.54446 0.357275C8.05073 0.295457 8.56343 0.399033 9.006 0.652541C9.44858 0.906049 9.79729 1.29589 10.0001 1.76388L13.1206 8.73039V8.74812C13.2759 9.10635 13.34 9.49746 13.3073 9.88652C13.2745 10.2756 13.1459 10.6505 12.933 10.9777C12.9064 11.0176 12.8783 11.0545 12.8488 11.0915L9.77256 14.738C10.8792 16.9868 13.2314 19.3183 15.5098 20.4279L19.1061 17.368C19.1414 17.3383 19.1784 17.3107 19.2169 17.2852C19.5438 17.0672 19.92 16.934 20.3114 16.8979C20.7027 16.8618 21.0969 16.9238 21.4583 17.0784L21.4775 17.0873L28.4381 20.2063C28.9069 20.4084 29.2977 20.7568 29.552 21.1994C29.8064 21.6421 29.9106 22.1552 29.8491 22.6619ZM27.5028 22.3664C27.5028 22.3664 27.4925 22.3664 27.4866 22.3664L20.5422 19.2563L16.9444 22.3162C16.9095 22.3458 16.873 22.3734 16.8351 22.3989C16.4949 22.6259 16.1017 22.7607 15.6938 22.7903C15.2859 22.8198 14.8773 22.743 14.508 22.5674C11.7406 21.2302 8.98208 18.4924 7.64345 15.7545C7.46619 15.3879 7.38665 14.9817 7.41254 14.5753C7.43842 14.1688 7.56886 13.776 7.7912 13.4348C7.81626 13.3948 7.84442 13.3567 7.87542 13.3211L10.9546 9.67009L7.85178 2.72574C7.8512 2.71985 7.8512 2.71391 7.85178 2.70801C6.41896 2.89492 5.10341 3.59772 4.15149 4.68481C3.19958 5.7719 2.67658 7.16871 2.68045 8.61367C2.68593 13.6278 4.68023 18.4351 8.22578 21.9806C11.7713 25.5262 16.5786 27.5205 21.5927 27.5259C23.0368 27.5309 24.4332 27.0097 25.521 26.0599C26.6087 25.11 27.3132 23.7965 27.5028 22.365V22.3664Z" fill="#016D85"/>
</svg>
